<?xml version="1.0" encoding="utf-8"?>
<!-- Generator: Adobe Illustrator 22.0.0, SVG Export Plug-In . SVG Version: 6.00 Build 0)  -->
<svg version="1.1" id="Layer_1" xmlns="http://www.w3.org/2000/svg" xmlns:xlink="http://www.w3.org/1999/xlink" x="0px" y="0px"
	 viewBox="0 0 300 100" style="enable-background:new 0 0 300 100;" xml:space="preserve">
<style type="text/css">
	.st0{fill:#8898AA;}
</style>
<polygon class="st0" points="20.5,45.5 31.9,34 43.4,45.5 50,38.8 31.9,20.7 13.8,38.8 "/>
<rect x="4.4" y="45.4" transform="matrix(0.7071 -0.7071 0.7071 0.7071 -32.7975 21.1285)" class="st0" width="9.4" height="9.4"/>
<polygon class="st0" points="20.5,54.9 31.9,66.3 43.4,54.9 50,61.5 50,61.5 31.9,79.6 13.8,61.5 13.8,61.5 "/>
<rect x="50" y="45.5" transform="matrix(0.7071 -0.7071 0.7071 0.7071 -19.4443 53.3723)" class="st0" width="9.4" height="9.4"/>
<polygon class="st0" points="38.7,50.2 38.7,50.2 31.9,43.4 26.9,48.4 26.9,48.4 26.3,49 25.2,50.1 25.2,50.1 25.1,50.2 25.2,50.2 
	31.9,56.9 38.7,50.2 38.7,50.2 "/>
<path class="st0" d="M71.7,35h14.5c3.6,0,6.3,0.9,8.2,2.8c1.4,1.4,2.1,3.2,2.1,5.3v0.1c0,0.9-0.1,1.7-0.3,2.4
	c-0.2,0.7-0.5,1.3-0.9,1.9c-0.4,0.6-0.8,1-1.3,1.5c-0.5,0.4-1,0.8-1.6,1.1c1.8,0.7,3.2,1.6,4.3,2.8c1,1.2,1.6,2.8,1.6,4.9v0.1
	c0,1.4-0.3,2.7-0.8,3.7c-0.5,1.1-1.3,2-2.4,2.7c-1,0.7-2.3,1.2-3.7,1.6c-1.4,0.4-3,0.5-4.8,0.5H71.7V35z M84.8,47.6
	c1.5,0,2.7-0.3,3.6-0.8c0.9-0.5,1.3-1.4,1.3-2.5v-0.1c0-1-0.4-1.8-1.2-2.4c-0.8-0.6-1.9-0.8-3.3-0.8h-6.8v6.6
	C78.4,47.6,84.8,47.6,84.8,47.6z M86.6,60.2c1.5,0,2.7-0.3,3.6-0.8c0.9-0.6,1.3-1.4,1.3-2.6v-0.1c0-1-0.4-1.9-1.2-2.5
	c-0.8-0.6-2.1-0.9-3.9-0.9h-7.9v6.9L86.6,60.2L86.6,60.2z"/>
<path class="st0" d="M106.9,35h6.9v31.2h-6.9V35z"/>
<path class="st0" d="M124.2,35h6.3l14.6,19.2V35h6.8v31.2h-5.8l-15.1-19.9v19.9h-6.8V35z"/>
<path class="st0" d="M172.7,34.8h6.3l13.4,31.5h-7.2l-2.9-7h-13.2l-2.9,7h-7L172.7,34.8z M180,53.1L175.8,43l-4.1,10.1H180z"/>
<path class="st0" d="M199.9,35h6.3l14.6,19.2V35h6.8v31.2h-5.8l-15.1-19.9v19.9h-6.8V35z"/>
<path class="st0" d="M252.4,66.7c-2.3,0-4.4-0.4-6.4-1.2c-2-0.8-3.7-2-5.1-3.4c-1.4-1.4-2.5-3.1-3.3-5.1c-0.8-2-1.2-4.1-1.2-6.3
	v-0.1c0-2.2,0.4-4.3,1.2-6.3c0.8-1.9,1.9-3.7,3.3-5.1c1.4-1.5,3.1-2.6,5.1-3.5c2-0.8,4.2-1.3,6.6-1.3c1.5,0,2.8,0.1,4,0.4
	c1.2,0.2,2.3,0.6,3.3,1c1,0.4,1.9,0.9,2.7,1.5c0.8,0.6,1.6,1.2,2.3,2l-4.4,5c-1.2-1.1-2.5-2-3.7-2.6c-1.3-0.6-2.7-0.9-4.3-0.9
	c-1.3,0-2.5,0.3-3.6,0.8c-1.1,0.5-2.1,1.2-2.9,2.1c-0.8,0.9-1.4,1.9-1.9,3.1c-0.4,1.2-0.7,2.4-0.7,3.8v0.1c0,1.3,0.2,2.6,0.7,3.8
	c0.4,1.2,1.1,2.2,1.9,3.1c0.8,0.9,1.7,1.6,2.9,2.1c1.1,0.5,2.3,0.8,3.7,0.8c1.8,0,3.3-0.3,4.5-1c1.2-0.7,2.5-1.5,3.7-2.7l4.4,4.4
	c-0.8,0.9-1.6,1.6-2.5,2.3c-0.9,0.7-1.8,1.3-2.8,1.8c-1,0.5-2.2,0.9-3.4,1.1C255.2,66.6,253.9,66.7,252.4,66.7z"/>
<path class="st0" d="M273.3,35h23.5v6.1H280v6.3h14.7v6.1H280v6.6h17v6.1h-23.7V35z"/>
</svg>
