<?xml version="1.0" encoding="utf-8"?>
<!-- Generator: Adobe Illustrator 22.0.0, SVG Export Plug-In . SVG Version: 6.00 Build 0)  -->
<svg version="1.1" id="Layer_1" xmlns="http://www.w3.org/2000/svg" xmlns:xlink="http://www.w3.org/1999/xlink" x="0px" y="0px"
	 viewBox="0 0 300 100" style="enable-background:new 0 0 300 100;" xml:space="preserve">
<style type="text/css">
	.st0{fill:#606B75;}
	.st1{fill:#8898AA;}
</style>
<path class="st0" d="M27.5,26.7h28c0,0.4-0.1,0.7-0.4,1c-0.9,1.6-1.8,3.3-2.7,4.9c-1.3,2.3-2.5,4.7-3.9,7c-0.8,1.7-1.8,3.3-2.7,4.9
	c-5.4,0-10.9,0-16.3,0c-0.3,0-0.6,0-0.9,0c-0.2,0.6-0.6,1.2-0.9,1.8c-0.4,0.7-0.8,1.4-1.2,2.1c-0.4,0.9-1,1.7-1.5,2.6
	c-0.9,1.5-1.7,3.1-2.6,4.6c-0.9,1.6-1.8,3.2-2.7,4.8c-0.4,0.6-0.7,1.2-1,1.8c-1.8,3.2-3.6,6.4-5.5,9.6c-0.2,0.3-0.4,0.7-0.6,0.9
	c-3.2,0-6.3,0-9.5,0c-0.4,0-0.8,0.1-1.1,0.2c0-0.9,0.6-1.6,1-2.3c0.5-1,1.1-1.9,1.6-2.9c3.8-6.8,7.5-13.5,11.3-20.3
	c0.9-1.5,1.6-3,2.4-4.4c1.1-1.9,2.1-3.8,3.2-5.7c0.4-0.8,0.8-1.5,1.2-2.3c1.4-2.5,2.8-5,4.1-7.4C27,27.3,27.2,27,27.5,26.7
	L27.5,26.7z"/>
<g>
	<path class="st1" d="M59.9,36.6c1.9-3.3,3.7-6.6,5.6-9.8h10.1c0.1,0,0.3,0,0.4,0.1c-0.3,0.5-0.6,1-0.9,1.6
		c-2.4,4.4-4.9,8.8-7.3,13.1c-1,1.8-2,3.6-3,5.4l-0.1,0l0,0.2c-4.8,8.5-9.5,17.1-14.2,25.6c-9.3,0-18.6,0-27.8,0
		c0.5-1.1,1.2-2.2,1.7-3.2c2.6-4.9,5.4-9.7,8-14.5c5.7,0,11.4,0,17.1,0C53,48.9,56.4,42.8,59.9,36.6L59.9,36.6z"/>
	<path class="st1" d="M164.3,26.7v46.7h8.1V40.6l14.8,21.6L201.8,40v33.4h8.3V26.7h-9l-14,21.6l-14.1-21.6H164.3z"/>
	<path class="st1" d="M126.4,38.7h5.3v35.1h-5.3V38.7z"/>
	<path class="st1" d="M125.9,25.7h6.2v5.9h-6.2V25.7z"/>
	<path class="st1" d="M141.8,28.7h5.5v10h10.9v4.9h-10.9v20.8c0,0.8,0.2,1.6,0.5,2.3c0.9,1.8,3.5,3.9,10.4,1.4v4.5
		c0,0-6.3,3.6-12,0.3c0,0-2.8-1.2-4-5.2c-0.3-1.1-0.5-2.2-0.5-3.3V43.6l-4.7,0.1v-4.9h4.7L141.8,28.7z"/>
	<path class="st1" d="M218.6,26.7v47h35.1v-7.6h-26.6V53.7h23.4v-7.5h-23.5V34.3h26.3v-7.6H218.6z"/>
	<path class="st1" d="M257.1,26.7h10l11.5,16.5L290,26.7h10l-16.3,22.9L301,73.7h-10.5l-11.8-17.6l-12.4,17.6h-10l17.1-23.9
		L257.1,26.7z"/>
	<path class="st1" d="M110.2,49.3c0,0,7.7-2.9,7.3-11.3c0,0-0.1-8.1-9.2-10.6c-1.5-0.4-3.1-0.6-4.6-0.6H81.8l0.1,46.7h23.5
		c0,0,13.8-0.3,14.7-12.6C120.1,61,121.1,52.4,110.2,49.3L110.2,49.3z M87.5,31.6h13.9c10.9,0,10.6,7.7,10.6,7.7
		c0.2,8.8-9.9,8.6-9.9,8.6H87.5V31.6z M104.5,68.6H87.5V52.3h16.3c10.9,0,10.6,7.7,10.6,7.7C114.6,68.8,104.5,68.6,104.5,68.6z"/>
</g>
</svg>
