<?xml version="1.0" encoding="utf-8"?>
<!-- Generator: Adobe Illustrator 22.0.0, SVG Export Plug-In . SVG Version: 6.00 Build 0)  -->
<svg version="1.1" id="Layer_1" xmlns="http://www.w3.org/2000/svg" xmlns:xlink="http://www.w3.org/1999/xlink" x="0px" y="0px"
	 viewBox="0 0 800 481" style="enable-background:new 0 0 800 481;" xml:space="preserve">
<style type="text/css">
	.st0{fill:none;stroke:#FFFFFF;stroke-width:1.5;stroke-miterlimit:10;}
	.st1{fill:#FFFFFF;}
	.st2{font-family:'Ubuntu-Medium';}
	.st3{font-size:12.8324px;}
	.st4{fill:#0C344B;}
	.st5{fill:#D8E9EF;}
	.st6{fill:#EFF3F5;}
	.st7{fill:#092232;}
	.st8{enable-background:new    ;}
	.st9{fill:#D3D9DD;}
	.st10{fill:#E1E6EA;}
	.st11{fill:none;stroke:#EFF3F5;stroke-miterlimit:10;}
	.st12{fill:none;stroke:#F7F8F9;stroke-miterlimit:10;}
	.st13{fill:#3CBC98;}
	.st14{fill:#C12F3A;}
	.st15{fill:none;stroke:#3CBC98;stroke-miterlimit:10;stroke-dasharray:5,10;}
	.st16{fill:none;stroke:#C12F3A;stroke-miterlimit:10;stroke-dasharray:5,10;}
	.st17{fill:#EAEDEF;}
</style>
<path class="st0" d="M35,28v-9.5l8.5-5.1l8.4,4.7v9.4l-8.6,5.1L35,28z M51.9,18.1L43.4,23v9.5 M51.9,27.5l-16.9-9"/>
<text transform="matrix(1 0 0 1 56.3345 27.6938)" class="st1 st2 st3">trailblock</text>
<rect x="-1" y="83" class="st4" width="150" height="29"/>
<path class="st5" d="M90.3,71H30.5c-1.4,0-2.5-1.1-2.5-2.5l0,0c0-1.4,1.1-2.5,2.5-2.5h59.8c1.4,0,2.5,1.1,2.5,2.5l0,0
	C92.8,69.9,91.7,71,90.3,71z"/>
<path class="st1" d="M90.3,100H30.5c-1.4,0-2.5-1.1-2.5-2.5l0,0c0-1.4,1.1-2.5,2.5-2.5h59.8c1.4,0,2.5,1.1,2.5,2.5l0,0
	C92.8,98.9,91.7,100,90.3,100z"/>
<path class="st5" d="M90.3,129H30.5c-1.4,0-2.5-1.1-2.5-2.5l0,0c0-1.4,1.1-2.5,2.5-2.5h59.8c1.4,0,2.5,1.1,2.5,2.5l0,0
	C92.8,127.9,91.7,129,90.3,129z"/>
<path class="st5" d="M90.3,158H30.5c-1.4,0-2.5-1.1-2.5-2.5l0,0c0-1.4,1.1-2.5,2.5-2.5h59.8c1.4,0,2.5,1.1,2.5,2.5l0,0
	C92.8,156.9,91.7,158,90.3,158z"/>
<path class="st6" d="M791,481H7c-4.4,0-8-3.6-8-8V8c0-4.4,3.6-8,8-8h784c4.4,0,8,3.6,8,8v465C799,477.4,795.4,481,791,481z"/>
<path class="st7" d="M149,481H7c-4.4,0-8-3.6-8-8V8c0-4.4,3.6-8,8-8h142V481z"/>
<path class="st0" d="M35,28v-9.5l8.5-5.1l8.4,4.7v9.4l-8.6,5.1L35,28z M51.9,18.1L43.4,23v9.5 M51.9,27.5l-16.9-9"/>
<g class="st8">
	<path class="st1" d="M57.2,19.2l1.6-0.3v2h2.4v1.3h-2.4V25c0,0.5,0.1,0.9,0.3,1.2c0.2,0.2,0.5,0.3,0.9,0.3c0.3,0,0.5,0,0.8-0.1
		s0.4-0.1,0.5-0.2l0.3,1.2c-0.2,0.1-0.4,0.2-0.7,0.2c-0.3,0.1-0.6,0.1-1,0.1c-0.5,0-0.9-0.1-1.2-0.2c-0.3-0.1-0.6-0.3-0.8-0.6
		s-0.3-0.5-0.4-0.9c-0.1-0.3-0.1-0.7-0.1-1.2V19.2z"/>
	<path class="st1" d="M66.5,22.4c-0.1,0-0.3-0.1-0.5-0.1c-0.2,0-0.5-0.1-0.8-0.1c-0.2,0-0.4,0-0.5,0.1c-0.2,0-0.3,0.1-0.4,0.1v5.4
		h-1.6v-6.4c0.3-0.1,0.7-0.2,1.1-0.3c0.4-0.1,0.9-0.1,1.5-0.1c0.1,0,0.2,0,0.4,0c0.1,0,0.3,0,0.4,0.1c0.1,0,0.3,0,0.4,0.1
		c0.1,0,0.2,0.1,0.3,0.1L66.5,22.4z"/>
	<path class="st1" d="M70.1,20.8c0.5,0,0.9,0.1,1.3,0.2c0.4,0.1,0.6,0.3,0.8,0.5c0.2,0.2,0.4,0.5,0.4,0.8c0.1,0.3,0.1,0.7,0.1,1.1
		v4.1c-0.2,0.1-0.6,0.1-1.1,0.2s-1,0.1-1.6,0.1c-0.4,0-0.8,0-1.1-0.1c-0.3-0.1-0.6-0.2-0.9-0.4c-0.2-0.2-0.4-0.4-0.6-0.7
		c-0.1-0.3-0.2-0.6-0.2-1c0-0.4,0.1-0.7,0.2-1c0.1-0.3,0.4-0.5,0.6-0.6c0.3-0.2,0.6-0.3,0.9-0.4c0.3-0.1,0.7-0.1,1.1-0.1
		c0.2,0,0.4,0,0.5,0c0.2,0,0.4,0.1,0.6,0.1v-0.3c0-0.2,0-0.4-0.1-0.5c0-0.2-0.1-0.3-0.2-0.4s-0.2-0.2-0.4-0.3
		c-0.2-0.1-0.4-0.1-0.7-0.1c-0.4,0-0.7,0-1,0.1c-0.3,0.1-0.5,0.1-0.7,0.2L68,21.1c0.2-0.1,0.5-0.1,0.9-0.2S69.7,20.8,70.1,20.8z
		 M70.2,26.6c0.5,0,0.8,0,1.1-0.1v-1.7c-0.1,0-0.2-0.1-0.4-0.1c-0.2,0-0.3,0-0.5,0c-0.2,0-0.3,0-0.5,0c-0.2,0-0.3,0.1-0.5,0.1
		c-0.1,0.1-0.3,0.2-0.3,0.3s-0.1,0.3-0.1,0.5c0,0.4,0.1,0.6,0.3,0.8C69.5,26.5,69.8,26.6,70.2,26.6z"/>
	<path class="st1" d="M76.4,19c0,0.3-0.1,0.5-0.3,0.7C76,19.9,75.7,20,75.5,20c-0.3,0-0.5-0.1-0.7-0.3c-0.2-0.2-0.3-0.4-0.3-0.7
		c0-0.3,0.1-0.5,0.3-0.7c0.2-0.2,0.4-0.3,0.7-0.3c0.3,0,0.5,0.1,0.7,0.3C76.3,18.5,76.4,18.7,76.4,19z M76.3,27.7h-1.6V21h1.6V27.7z
		"/>
	<path class="st1" d="M80.6,27.8c-0.5,0-0.8-0.1-1.1-0.2c-0.3-0.1-0.5-0.2-0.7-0.4c-0.2-0.2-0.3-0.4-0.4-0.7s-0.1-0.6-0.1-0.9V18
		l1.6-0.3v7.7c0,0.2,0,0.3,0,0.5c0,0.1,0.1,0.2,0.2,0.3c0.1,0.1,0.2,0.2,0.3,0.2c0.1,0,0.3,0.1,0.5,0.1L80.6,27.8z"/>
	<path class="st1" d="M88.1,24.3c0,0.5-0.1,1-0.2,1.5c-0.2,0.4-0.4,0.8-0.7,1.1c-0.3,0.3-0.7,0.5-1.1,0.7c-0.4,0.2-0.9,0.2-1.4,0.2
		c-0.5,0-1,0-1.5-0.1c-0.5-0.1-0.9-0.2-1.2-0.3V18l1.6-0.3v3.5c0.2-0.1,0.4-0.2,0.7-0.3c0.3-0.1,0.5-0.1,0.9-0.1
		c0.5,0,0.9,0.1,1.3,0.2s0.7,0.4,0.9,0.7c0.2,0.3,0.4,0.7,0.6,1.1C88,23.3,88.1,23.8,88.1,24.3z M86.5,24.3c0-0.7-0.1-1.2-0.4-1.6
		c-0.3-0.4-0.7-0.6-1.2-0.6c-0.3,0-0.5,0-0.7,0.1c-0.2,0.1-0.4,0.2-0.5,0.3v3.9c0.1,0,0.3,0,0.4,0.1s0.4,0,0.6,0
		c0.6,0,1-0.2,1.3-0.6C86.4,25.5,86.5,25,86.5,24.3z"/>
	<path class="st1" d="M92,27.8c-0.5,0-0.8-0.1-1.1-0.2c-0.3-0.1-0.5-0.2-0.7-0.4c-0.2-0.2-0.3-0.4-0.4-0.7s-0.1-0.6-0.1-0.9V18
		l1.6-0.3v7.7c0,0.2,0,0.3,0,0.5c0,0.1,0.1,0.2,0.2,0.3c0.1,0.1,0.2,0.2,0.3,0.2c0.1,0,0.3,0.1,0.5,0.1L92,27.8z"/>
	<path class="st1" d="M99.6,24.3c0,0.5-0.1,1-0.2,1.5c-0.2,0.4-0.4,0.8-0.7,1.1c-0.3,0.3-0.6,0.5-1,0.7c-0.4,0.2-0.8,0.3-1.3,0.3
		s-0.9-0.1-1.3-0.3s-0.7-0.4-1-0.7c-0.3-0.3-0.5-0.7-0.7-1.1c-0.2-0.4-0.2-0.9-0.2-1.5s0.1-1,0.2-1.4c0.2-0.4,0.4-0.8,0.7-1.1
		c0.3-0.3,0.6-0.5,1-0.7c0.4-0.2,0.8-0.2,1.3-0.2c0.5,0,0.9,0.1,1.3,0.2c0.4,0.2,0.7,0.4,1,0.7c0.3,0.3,0.5,0.7,0.7,1.1
		S99.6,23.8,99.6,24.3z M98,24.3c0-0.7-0.1-1.2-0.4-1.6c-0.3-0.4-0.7-0.6-1.2-0.6s-0.9,0.2-1.2,0.6c-0.3,0.4-0.4,0.9-0.4,1.6
		c0,0.7,0.1,1.2,0.4,1.6c0.3,0.4,0.7,0.6,1.2,0.6s0.9-0.2,1.2-0.6S98,25,98,24.3z"/>
	<path class="st1" d="M100.8,24.3c0-0.5,0.1-1,0.2-1.4c0.2-0.4,0.4-0.8,0.7-1.1s0.6-0.6,1-0.7s0.9-0.3,1.4-0.3
		c0.6,0,1.2,0.1,1.8,0.3l-0.3,1.3c-0.2-0.1-0.4-0.1-0.6-0.2c-0.2-0.1-0.5-0.1-0.7-0.1c-0.6,0-1.1,0.2-1.4,0.6
		c-0.3,0.4-0.5,0.9-0.5,1.6c0,0.7,0.1,1.2,0.4,1.6c0.3,0.4,0.8,0.6,1.5,0.6c0.3,0,0.5,0,0.8-0.1c0.3-0.1,0.5-0.1,0.7-0.2l0.2,1.3
		c-0.2,0.1-0.4,0.2-0.8,0.2c-0.3,0.1-0.7,0.1-1.1,0.1c-0.6,0-1.1-0.1-1.5-0.3c-0.4-0.2-0.8-0.4-1.1-0.7c-0.3-0.3-0.5-0.7-0.6-1.1
		C100.9,25.3,100.8,24.8,100.8,24.3z"/>
	<path class="st1" d="M108.8,23.6c0.2-0.2,0.4-0.4,0.6-0.7c0.2-0.2,0.4-0.5,0.7-0.7c0.2-0.2,0.4-0.5,0.6-0.7
		c0.2-0.2,0.4-0.4,0.5-0.6h1.8c-0.4,0.5-0.9,1-1.4,1.5c-0.5,0.5-0.9,1-1.4,1.5c0.3,0.2,0.5,0.5,0.8,0.8s0.6,0.6,0.8,1
		c0.3,0.3,0.5,0.7,0.7,1c0.2,0.3,0.4,0.7,0.6,0.9h-1.8c-0.2-0.3-0.3-0.5-0.5-0.8c-0.2-0.3-0.4-0.6-0.6-0.8c-0.2-0.3-0.5-0.5-0.7-0.8
		c-0.2-0.2-0.5-0.5-0.7-0.6v3.1h-1.6V18l1.6-0.3V23.6z"/>
</g>
<rect x="-1" y="83" class="st4" width="150" height="29"/>
<path class="st5" d="M90.3,71H30.5c-1.4,0-2.5-1.1-2.5-2.5l0,0c0-1.4,1.1-2.5,2.5-2.5h59.8c1.4,0,2.5,1.1,2.5,2.5l0,0
	C92.8,69.9,91.7,71,90.3,71z"/>
<path class="st1" d="M90.3,100H30.5c-1.4,0-2.5-1.1-2.5-2.5l0,0c0-1.4,1.1-2.5,2.5-2.5h59.8c1.4,0,2.5,1.1,2.5,2.5l0,0
	C92.8,98.9,91.7,100,90.3,100z"/>
<path class="st5" d="M90.3,129H30.5c-1.4,0-2.5-1.1-2.5-2.5l0,0c0-1.4,1.1-2.5,2.5-2.5h59.8c1.4,0,2.5,1.1,2.5,2.5l0,0
	C92.8,127.9,91.7,129,90.3,129z"/>
<path class="st5" d="M90.3,158H30.5c-1.4,0-2.5-1.1-2.5-2.5l0,0c0-1.4,1.1-2.5,2.5-2.5h59.8c1.4,0,2.5,1.1,2.5,2.5l0,0
	C92.8,156.9,91.7,158,90.3,158z"/>
<g>
	<g>
		<path class="st1" d="M352,47H175c-2.8,0-5-2.2-5-5v-9c0-2.8,2.2-5,5-5h177c2.8,0,5,2.2,5,5v9C357,44.8,354.8,47,352,47z"/>
	</g>
</g>
<path class="st9" d="M431.3,33h-59.8c-1.4,0-2.5-1.1-2.5-2.5l0,0c0-1.4,1.1-2.5,2.5-2.5h59.8c1.4,0,2.5,1.1,2.5,2.5l0,0
	C433.8,31.9,432.7,33,431.3,33z"/>
<path class="st9" d="M417.4,47h-45.9c-1.4,0-2.5-1.1-2.5-2.5v-5c0-1.4,1.1-2.5,2.5-2.5h45.9c1.4,0,2.5,1.1,2.5,2.5v5
	C419.9,45.9,418.8,47,417.4,47z"/>
<path class="st9" d="M508.5,33h-59.8c-1.4,0-2.5-1.1-2.5-2.5l0,0c0-1.4,1.1-2.5,2.5-2.5h59.8c1.4,0,2.5,1.1,2.5,2.5l0,0
	C511,31.9,509.9,33,508.5,33z"/>
<path class="st9" d="M494.6,47h-45.9c-1.4,0-2.5-1.1-2.5-2.5v-5c0-1.4,1.1-2.5,2.5-2.5h45.9c1.4,0,2.5,1.1,2.5,2.5v5
	C497.1,45.9,496,47,494.6,47z"/>
<path class="st10" d="M244.3,40h-59.8c-1.4,0-2.5-1.1-2.5-2.5l0,0c0-1.4,1.1-2.5,2.5-2.5h59.8c1.4,0,2.5,1.1,2.5,2.5l0,0
	C246.8,38.9,245.7,40,244.3,40z"/>
<g>
	<g>
		<path class="st1" d="M767,346H175c-2.8,0-5-2.2-5-5V63c0-2.8,2.2-5,5-5h592c2.8,0,5,2.2,5,5v278C772,343.8,769.8,346,767,346z"/>
	</g>
</g>
<g>
	<g>
		<path class="st1" d="M352,47H175c-2.8,0-5-2.2-5-5v-9c0-2.8,2.2-5,5-5h177c2.8,0,5,2.2,5,5v9C357,44.8,354.8,47,352,47z"/>
	</g>
</g>
<path class="st9" d="M431.3,33h-59.8c-1.4,0-2.5-1.1-2.5-2.5l0,0c0-1.4,1.1-2.5,2.5-2.5h59.8c1.4,0,2.5,1.1,2.5,2.5l0,0
	C433.8,31.9,432.7,33,431.3,33z"/>
<path class="st9" d="M417.4,47h-45.9c-1.4,0-2.5-1.1-2.5-2.5v-5c0-1.4,1.1-2.5,2.5-2.5h45.9c1.4,0,2.5,1.1,2.5,2.5v5
	C419.9,45.9,418.8,47,417.4,47z"/>
<path class="st9" d="M508.5,33h-59.8c-1.4,0-2.5-1.1-2.5-2.5l0,0c0-1.4,1.1-2.5,2.5-2.5h59.8c1.4,0,2.5,1.1,2.5,2.5l0,0
	C511,31.9,509.9,33,508.5,33z"/>
<path class="st9" d="M494.6,47h-45.9c-1.4,0-2.5-1.1-2.5-2.5v-5c0-1.4,1.1-2.5,2.5-2.5h45.9c1.4,0,2.5,1.1,2.5,2.5v5
	C497.1,45.9,496,47,494.6,47z"/>
<path class="st10" d="M244.3,40h-59.8c-1.4,0-2.5-1.1-2.5-2.5l0,0c0-1.4,1.1-2.5,2.5-2.5h59.8c1.4,0,2.5,1.1,2.5,2.5l0,0
	C246.8,38.9,245.7,40,244.3,40z"/>
<g>
	<path class="st11" d="M546.3,331.5H195.5c-2.8,0-5-2.2-5-5V77.7c0-2.8,2.2-5,5-5h350.8c2.8,0,5,2.2,5,5v248.8
		C551.3,329.3,549.1,331.5,546.3,331.5z"/>
	<g>
		<line class="st12" x1="211.3" y1="72.2" x2="211.3" y2="210.1"/>
		<line class="st12" x1="232.6" y1="72.4" x2="232.6" y2="210.3"/>
		<line class="st12" x1="253.8" y1="72.4" x2="253.8" y2="210.3"/>
		<line class="st12" x1="275" y1="72.4" x2="275" y2="210.3"/>
		<line class="st12" x1="296.3" y1="72.4" x2="296.3" y2="210.3"/>
		<line class="st12" x1="317.5" y1="72.4" x2="317.5" y2="210.3"/>
		<line class="st12" x1="338.8" y1="72.4" x2="338.8" y2="210.3"/>
		<line class="st12" x1="360" y1="72.4" x2="360" y2="210.3"/>
		<line class="st12" x1="381.6" y1="89.9" x2="190.6" y2="89.9"/>
		<line class="st12" x1="381.2" y1="107.2" x2="190.2" y2="107.2"/>
		<line class="st12" x1="381.2" y1="124.5" x2="190.2" y2="124.5"/>
		<line class="st12" x1="381.2" y1="141.8" x2="190.2" y2="141.8"/>
		<line class="st12" x1="381.2" y1="159.1" x2="190.2" y2="159.1"/>
		<line class="st12" x1="381.2" y1="176.4" x2="190.2" y2="176.4"/>
		<line class="st12" x1="381.2" y1="193.7" x2="190.2" y2="193.7"/>
	</g>
	<g>
		<line class="st12" x1="381.7" y1="72.2" x2="381.7" y2="210.1"/>
		<line class="st12" x1="402.9" y1="72.4" x2="402.9" y2="210.3"/>
		<line class="st12" x1="424.2" y1="72.4" x2="424.2" y2="210.3"/>
		<line class="st12" x1="445.4" y1="72.4" x2="445.4" y2="210.3"/>
		<line class="st12" x1="466.7" y1="72.4" x2="466.7" y2="210.3"/>
		<line class="st12" x1="487.9" y1="72.4" x2="487.9" y2="210.3"/>
		<line class="st12" x1="509.1" y1="72.4" x2="509.1" y2="210.3"/>
		<line class="st12" x1="530.4" y1="72.4" x2="530.4" y2="210.3"/>
		<line class="st12" x1="551.9" y1="89.9" x2="360.9" y2="89.9"/>
		<line class="st12" x1="551.6" y1="107.2" x2="360.6" y2="107.2"/>
		<line class="st12" x1="551.6" y1="124.5" x2="360.6" y2="124.5"/>
		<line class="st12" x1="551.6" y1="141.8" x2="360.6" y2="141.8"/>
		<line class="st12" x1="551.6" y1="159.1" x2="360.6" y2="159.1"/>
		<line class="st12" x1="551.6" y1="176.4" x2="360.6" y2="176.4"/>
		<line class="st12" x1="551.6" y1="193.7" x2="360.6" y2="193.7"/>
	</g>
	<g>
		<line class="st12" x1="211.3" y1="192.8" x2="211.3" y2="330.8"/>
		<line class="st12" x1="232.6" y1="193.1" x2="232.6" y2="331"/>
		<line class="st12" x1="253.8" y1="193.1" x2="253.8" y2="331"/>
		<line class="st12" x1="275" y1="193.1" x2="275" y2="331"/>
		<line class="st12" x1="296.3" y1="193.1" x2="296.3" y2="331"/>
		<line class="st12" x1="317.5" y1="193.1" x2="317.5" y2="331"/>
		<line class="st12" x1="338.8" y1="193.1" x2="338.8" y2="331"/>
		<line class="st12" x1="360" y1="193.1" x2="360" y2="331"/>
		<line class="st12" x1="381.6" y1="210.5" x2="190.6" y2="210.5"/>
		<line class="st12" x1="381.2" y1="227.8" x2="190.2" y2="227.8"/>
		<line class="st12" x1="381.2" y1="245.1" x2="190.2" y2="245.1"/>
		<line class="st12" x1="381.2" y1="262.4" x2="190.2" y2="262.4"/>
		<line class="st12" x1="381.2" y1="279.7" x2="190.2" y2="279.7"/>
		<line class="st12" x1="381.2" y1="297" x2="190.2" y2="297"/>
		<line class="st12" x1="381.2" y1="314.3" x2="190.2" y2="314.3"/>
	</g>
	<g>
		<line class="st12" x1="381.7" y1="192.8" x2="381.7" y2="330.8"/>
		<line class="st12" x1="402.9" y1="193.1" x2="402.9" y2="331"/>
		<line class="st12" x1="424.2" y1="193.1" x2="424.2" y2="331"/>
		<line class="st12" x1="445.4" y1="193.1" x2="445.4" y2="331"/>
		<line class="st12" x1="466.7" y1="193.1" x2="466.7" y2="331"/>
		<line class="st12" x1="487.9" y1="193.1" x2="487.9" y2="331"/>
		<line class="st12" x1="509.1" y1="193.1" x2="509.1" y2="331"/>
		<line class="st12" x1="530.4" y1="193.1" x2="530.4" y2="331"/>
		<line class="st12" x1="551.9" y1="210.5" x2="360.9" y2="210.5"/>
		<line class="st12" x1="551.6" y1="227.8" x2="360.6" y2="227.8"/>
		<line class="st12" x1="551.6" y1="245.1" x2="360.6" y2="245.1"/>
		<line class="st12" x1="551.6" y1="262.4" x2="360.6" y2="262.4"/>
		<line class="st12" x1="551.6" y1="279.7" x2="360.6" y2="279.7"/>
		<line class="st12" x1="551.6" y1="297" x2="360.6" y2="297"/>
		<line class="st12" x1="551.6" y1="314.3" x2="360.6" y2="314.3"/>
	</g>
</g>
<g>
	<rect x="194.2" y="204" class="st13" width="0.6" height="57"/>
	<path class="st13" d="M196,256h-3c-0.6,0-1-0.4-1-1v-41c0-0.6,0.4-1,1-1h3c0.6,0,1,0.4,1,1v41C197,255.6,196.6,256,196,256z"/>
</g>
<g>
	<rect x="202.2" y="198" class="st13" width="0.6" height="57"/>
	<path class="st13" d="M204,250h-3c-0.6,0-1-0.4-1-1v-41c0-0.6,0.4-1,1-1h3c0.6,0,1,0.4,1,1v41C205,249.6,204.6,250,204,250z"/>
</g>
<g>
	<rect x="194.3" y="238" class="st13" width="0.6" height="23"/>
	<path class="st13" d="M196.1,259H193c-0.6,0-1-0.4-1-1v-19c0-0.6,0.4-1,1-1h3.1c0.6,0,1,0.4,1,1v19
		C197.1,258.5,196.6,259,196.1,259z"/>
</g>
<g>
	<rect x="202.4" y="198" class="st13" width="0.6" height="57"/>
	<path class="st13" d="M204.2,241h-3.1c-0.6,0-1-0.4-1-1v-32c0-0.6,0.4-1,1-1h3.1c0.6,0,1,0.4,1,1v32
		C205.2,240.6,204.7,241,204.2,241z"/>
</g>
<g>
	<rect x="210.5" y="193" class="st14" width="0.6" height="40"/>
	<path class="st14" d="M212.3,219h-3.1c-0.6,0-1-0.4-1-1v-17.7c0-0.6,0.4-1,1-1h3.1c0.6,0,1,0.4,1,1V218
		C213.3,218.6,212.9,219,212.3,219z"/>
</g>
<g>
	<rect x="218.6" y="187" class="st13" width="0.6" height="57"/>
	<path class="st13" d="M220.4,239h-3.1c-0.6,0-1-0.4-1-1v-41c0-0.6,0.4-1,1-1h3.1c0.6,0,1,0.4,1,1v41C221.4,238.6,221,239,220.4,239
		z"/>
</g>
<g>
	<rect x="226.7" y="187" class="st13" width="0.6" height="23"/>
	<path class="st13" d="M228.5,208h-3.1c-0.6,0-1-0.4-1-1v-19c0-0.6,0.4-1,1-1h3.1c0.6,0,1,0.4,1,1v19
		C229.5,207.5,229.1,208,228.5,208z"/>
</g>
<g>
	<rect x="234.8" y="147" class="st13" width="0.6" height="57"/>
	<path class="st13" d="M236.6,190h-3.1c-0.6,0-1-0.4-1-1v-32c0-0.6,0.4-1,1-1h3.1c0.6,0,1,0.4,1,1v32
		C237.6,189.6,237.2,190,236.6,190z"/>
</g>
<g>
	<rect x="242.9" y="141" class="st14" width="0.6" height="40"/>
	<path class="st14" d="M244.8,167h-3.1c-0.6,0-1-0.4-1-1v-17.7c0-0.6,0.4-1,1-1h3.1c0.6,0,1,0.4,1,1V166
		C245.8,166.6,245.3,167,244.8,167z"/>
</g>
<g>
	<rect x="251.1" y="135" class="st14" width="0.6" height="57"/>
	<path class="st14" d="M252.9,187h-3.1c-0.6,0-1-0.4-1-1v-41c0-0.6,0.4-1,1-1h3.1c0.6,0,1,0.4,1,1v41
		C253.9,186.6,253.4,187,252.9,187z"/>
</g>
<g>
	<rect x="283.5" y="158" class="st14" width="0.6" height="40"/>
	<path class="st14" d="M282.3,172h3.1c0.6,0,1,0.4,1,1v17.7c0,0.6-0.4,1-1,1h-3.1c-0.6,0-1-0.4-1-1V173
		C281.3,172.4,281.7,172,282.3,172z"/>
</g>
<g>
	<rect x="291.6" y="167" class="st13" width="0.6" height="34"/>
	<path class="st13" d="M290.4,170h3.1c0.6,0,1,0.4,1,1v23.6c0,0.6-0.4,1-1,1h-3.1c-0.6,0-1-0.4-1-1V171
		C289.4,170.4,289.8,170,290.4,170z"/>
</g>
<g>
	<rect x="275.4" y="159" class="st13" width="0.6" height="57"/>
	<path class="st13" d="M274.1,173h3.1c0.6,0,1,0.4,1,1v32c0,0.6-0.4,1-1,1h-3.1c-0.6,0-1-0.4-1-1v-32
		C273.1,173.4,273.6,173,274.1,173z"/>
</g>
<g>
	<rect x="267.2" y="183" class="st14" width="0.6" height="40"/>
	<path class="st14" d="M266,197h3.1c0.6,0,1,0.4,1,1v17.7c0,0.6-0.4,1-1,1H266c-0.6,0-1-0.4-1-1V198C265,197.4,265.5,197,266,197z"
		/>
</g>
<g>
	<rect x="259.1" y="155" class="st14" width="0.6" height="57"/>
	<path class="st14" d="M257.9,160h3.1c0.6,0,1,0.4,1,1v41c0,0.6-0.4,1-1,1h-3.1c-0.6,0-1-0.4-1-1v-41
		C256.9,160.4,257.4,160,257.9,160z"/>
</g>
<g>
	<rect x="300.7" y="176" class="st14" width="0.6" height="40"/>
	<path class="st14" d="M299.5,190h3.1c0.6,0,1,0.4,1,1v17.7c0,0.6-0.4,1-1,1h-3.1c-0.6,0-1-0.4-1-1V191
		C298.5,190.4,299,190,299.5,190z"/>
</g>
<g>
	<rect x="308.9" y="144" class="st13" width="0.6" height="57"/>
	<path class="st13" d="M310.7,196h-3.1c-0.6,0-1-0.4-1-1v-41c0-0.6,0.4-1,1-1h3.1c0.6,0,1,0.4,1,1v41
		C311.7,195.6,311.2,196,310.7,196z"/>
</g>
<g>
	<rect x="317" y="144" class="st13" width="0.6" height="23"/>
	<path class="st13" d="M318.8,165h-3.1c-0.6,0-1-0.4-1-1v-19c0-0.6,0.4-1,1-1h3.1c0.6,0,1,0.4,1,1v19
		C319.8,164.5,319.4,165,318.8,165z"/>
</g>
<g>
	<rect x="326.1" y="132" class="st13" width="0.6" height="57"/>
	<path class="st13" d="M327.9,175h-3.1c-0.6,0-1-0.4-1-1v-32c0-0.6,0.4-1,1-1h3.1c0.6,0,1,0.4,1,1v32
		C328.9,174.6,328.5,175,327.9,175z"/>
</g>
<g>
	<rect x="334.2" y="126" class="st14" width="0.6" height="40"/>
	<path class="st14" d="M336.1,152H333c-0.6,0-1-0.4-1-1v-17.7c0-0.6,0.4-1,1-1h3.1c0.6,0,1,0.4,1,1V151
		C337.1,151.6,336.6,152,336.1,152z"/>
</g>
<g>
	<rect x="342.4" y="120" class="st14" width="0.6" height="57"/>
	<path class="st14" d="M344.2,172h-3.1c-0.6,0-1-0.4-1-1v-41c0-0.6,0.4-1,1-1h3.1c0.6,0,1,0.4,1,1v41
		C345.2,171.6,344.7,172,344.2,172z"/>
</g>
<g>
	<rect x="351.4" y="142" class="st13" width="0.6" height="34"/>
	<path class="st13" d="M350.2,145h3.1c0.6,0,1,0.4,1,1v23.6c0,0.6-0.4,1-1,1h-3.1c-0.6,0-1-0.4-1-1V146
		C349.2,145.4,349.7,145,350.2,145z"/>
</g>
<g>
	<rect x="360.6" y="152" class="st14" width="0.6" height="40"/>
	<path class="st14" d="M359.4,166h3.1c0.6,0,1,0.4,1,1v17.7c0,0.6-0.4,1-1,1h-3.1c-0.6,0-1-0.4-1-1V167
		C358.4,166.4,358.8,166,359.4,166z"/>
</g>
<g>
	<rect x="378.8" y="190" class="st14" width="0.6" height="40"/>
	<path class="st14" d="M377.6,204h3.1c0.6,0,1,0.4,1,1v17.7c0,0.6-0.4,1-1,1h-3.1c-0.6,0-1-0.4-1-1V205
		C376.6,204.4,377.1,204,377.6,204z"/>
</g>
<g>
	<rect x="370.7" y="162" class="st14" width="0.6" height="57"/>
	<path class="st14" d="M369.5,167h3.1c0.6,0,1,0.4,1,1v41c0,0.6-0.4,1-1,1h-3.1c-0.6,0-1-0.4-1-1v-41
		C368.5,167.4,368.9,167,369.5,167z"/>
</g>
<g>
	<rect x="388" y="197" class="st13" width="0.6" height="34"/>
	<path class="st13" d="M386.7,200h3.1c0.6,0,1,0.4,1,1v23.6c0,0.6-0.4,1-1,1h-3.1c-0.6,0-1-0.4-1-1V201
		C385.7,200.4,386.2,200,386.7,200z"/>
</g>
<g>
	<rect x="397.1" y="195" class="st13" width="0.6" height="23"/>
	<path class="st13" d="M398.9,216h-3.1c-0.6,0-1-0.4-1-1v-19c0-0.6,0.4-1,1-1h3.1c0.6,0,1,0.4,1,1v19
		C399.9,215.5,399.5,216,398.9,216z"/>
</g>
<g>
	<rect x="406.3" y="177" class="st13" width="0.6" height="57"/>
	<path class="st13" d="M408.1,220H405c-0.6,0-1-0.4-1-1v-32c0-0.6,0.4-1,1-1h3.1c0.6,0,1,0.4,1,1v32
		C409.1,219.6,408.6,220,408.1,220z"/>
</g>
<g>
	<rect x="414.4" y="171" class="st14" width="0.6" height="40"/>
	<path class="st14" d="M416.2,197h-3.1c-0.6,0-1-0.4-1-1v-17.7c0-0.6,0.4-1,1-1h3.1c0.6,0,1,0.4,1,1V196
		C417.2,196.6,416.7,197,416.2,197z"/>
</g>
<g>
	<rect x="422.5" y="165" class="st14" width="0.6" height="57"/>
	<path class="st14" d="M424.3,217h-3.1c-0.6,0-1-0.4-1-1v-41c0-0.6,0.4-1,1-1h3.1c0.6,0,1,0.4,1,1v41
		C425.3,216.6,424.9,217,424.3,217z"/>
</g>
<g>
	<rect x="431.6" y="187" class="st13" width="0.6" height="34"/>
	<path class="st13" d="M430.4,190h3.1c0.6,0,1,0.4,1,1v23.6c0,0.6-0.4,1-1,1h-3.1c-0.6,0-1-0.4-1-1V191
		C429.4,190.4,429.8,190,430.4,190z"/>
</g>
<g>
	<rect x="465" y="179" class="st14" width="0.6" height="40"/>
	<path class="st14" d="M463.8,193h3.1c0.6,0,1,0.4,1,1v17.7c0,0.6-0.4,1-1,1h-3.1c-0.6,0-1-0.4-1-1V194
		C462.8,193.4,463.3,193,463.8,193z"/>
</g>
<g>
	<rect x="456.9" y="180" class="st13" width="0.6" height="57"/>
	<path class="st13" d="M455.7,194h3.1c0.6,0,1,0.4,1,1v32c0,0.6-0.4,1-1,1h-3.1c-0.6,0-1-0.4-1-1v-32
		C454.7,194.4,455.2,194,455.7,194z"/>
</g>
<g>
	<rect x="448.8" y="204" class="st14" width="0.6" height="40"/>
	<path class="st14" d="M447.6,218h3.1c0.6,0,1,0.4,1,1v17.7c0,0.6-0.4,1-1,1h-3.1c-0.6,0-1-0.4-1-1V219
		C446.6,218.4,447.1,218,447.6,218z"/>
</g>
<polyline class="st14" points="441.3,176 441.3,233 440.7,233 440.7,176 "/>
<path class="st14" d="M439.5,181h3.1c0.6,0,1,0.4,1,1v41c0,0.6-0.4,1-1,1h-3.1c-0.6,0-1-0.4-1-1v-41
	C438.5,181.4,438.9,181,439.5,181z"/>
<g>
	<rect x="474.2" y="162" class="st13" width="0.6" height="57"/>
	<path class="st13" d="M476,214h-3c-0.6,0-1-0.4-1-1v-41c0-0.6,0.4-1,1-1h3.1c0.6,0,1,0.4,1,1v41C477,213.6,476.6,214,476,214z"/>
</g>
<g>
	<rect x="482.3" y="162" class="st13" width="0.6" height="23"/>
	<path class="st13" d="M484.2,183h-3.1c-0.6,0-1-0.4-1-1v-19c0-0.6,0.4-1,1-1h3.1c0.6,0,1,0.4,1,1v19
		C485.2,182.5,484.7,183,484.2,183z"/>
</g>
<g>
	<rect x="490.4" y="122" class="st13" width="0.6" height="57"/>
	<path class="st13" d="M492.3,165h-3.1c-0.6,0-1-0.4-1-1v-32c0-0.6,0.4-1,1-1h3.1c0.6,0,1,0.4,1,1v32
		C493.3,164.6,492.8,165,492.3,165z"/>
</g>
<g>
	<rect x="499.6" y="93" class="st13" width="0.6" height="57"/>
	<path class="st13" d="M501.4,145h-3.1c-0.6,0-1-0.4-1-1v-41c0-0.6,0.4-1,1-1h3.1c0.6,0,1,0.4,1,1v41
		C502.4,144.6,501.9,145,501.4,145z"/>
</g>
<g>
	<rect x="507.7" y="79" class="st13" width="0.6" height="57"/>
	<path class="st13" d="M506.4,84h3.1c0.6,0,1,0.4,1,1v41c0,0.6-0.4,1-1,1h-3.1c-0.6,0-1-0.4-1-1V85C505.4,84.4,505.9,84,506.4,84z"
		/>
</g>
<polygon class="st15" points="549.5,116.5 188.5,116.5 188.5,116.5 "/>
<polygon class="st16" points="551.5,287.5 190.5,287.5 190.5,287.5 "/>
<path class="st17" d="M653.5,85h-76c-1.4,0-2.5-1.1-2.5-2.5v-7c0-1.4,1.1-2.5,2.5-2.5h76c1.4,0,2.5,1.1,2.5,2.5v7
	C656,83.9,654.9,85,653.5,85z"/>
<path class="st17" d="M748.5,85h-76c-1.4,0-2.5-1.1-2.5-2.5v-7c0-1.4,1.1-2.5,2.5-2.5h76c1.4,0,2.5,1.1,2.5,2.5v7
	C751,83.9,749.9,85,748.5,85z"/>
<path class="st17" d="M653.5,85h-76c-1.4,0-2.5-1.1-2.5-2.5v-7c0-1.4,1.1-2.5,2.5-2.5h76c1.4,0,2.5,1.1,2.5,2.5v7
	C656,83.9,654.9,85,653.5,85z"/>
<path class="st17" d="M748.5,85h-76c-1.4,0-2.5-1.1-2.5-2.5v-7c0-1.4,1.1-2.5,2.5-2.5h76c1.4,0,2.5,1.1,2.5,2.5v7
	C751,83.9,749.9,85,748.5,85z"/>
<path class="st17" d="M748.5,107h-171c-1.4,0-2.5-1.1-2.5-2.5v-5.2c0-1.4,1.1-2.5,2.5-2.5h171c1.4,0,2.5,1.1,2.5,2.5v5.2
	C751,105.9,749.9,107,748.5,107z"/>
<path class="st17" d="M618.3,93.4h-41.6c-0.9,0-1.7-0.8-1.7-1.7l0,0c0-0.9,0.8-1.7,1.7-1.7h41.6c0.9,0,1.7,0.8,1.7,1.7l0,0
	C620,92.6,619.2,93.4,618.3,93.4z"/>
<path class="st17" d="M748.5,129h-171c-1.4,0-2.5-1.1-2.5-2.5v-5.2c0-1.4,1.1-2.5,2.5-2.5h171c1.4,0,2.5,1.1,2.5,2.5v5.2
	C751,127.9,749.9,129,748.5,129z"/>
<path class="st17" d="M631.3,115.4h-54.6c-0.9,0-1.7-0.8-1.7-1.7l0,0c0-0.9,0.8-1.7,1.7-1.7h54.6c0.9,0,1.7,0.8,1.7,1.7l0,0
	C633,114.6,632.2,115.4,631.3,115.4z"/>
<path class="st17" d="M605.8,135.4h-29.1c-0.9,0-1.7-0.8-1.7-1.7l0,0c0-0.9,0.8-1.7,1.7-1.7h29.1c0.9,0,1.7,0.8,1.7,1.7l0,0
	C607.5,134.6,606.8,135.4,605.8,135.4z"/>
<path class="st17" d="M643.1,135.4H614c-0.9,0-1.7-0.8-1.7-1.7l0,0c0-0.9,0.8-1.7,1.7-1.7h29.1c0.9,0,1.7,0.8,1.7,1.7l0,0
	C644.8,134.6,644.1,135.4,643.1,135.4z"/>
<path class="st17" d="M678.5,135.4h-29.1c-0.9,0-1.7-0.8-1.7-1.7l0,0c0-0.9,0.8-1.7,1.7-1.7h29.1c0.9,0,1.7,0.8,1.7,1.7l0,0
	C680.2,134.6,679.5,135.4,678.5,135.4z"/>
<path class="st17" d="M713.9,135.4h-29.1c-0.9,0-1.7-0.8-1.7-1.7l0,0c0-0.9,0.8-1.7,1.7-1.7h29.1c0.9,0,1.7,0.8,1.7,1.7l0,0
	C715.6,134.6,714.8,135.4,713.9,135.4z"/>
<path class="st10" d="M749.3,135.4h-29.1c-0.9,0-1.7-0.8-1.7-1.7l0,0c0-0.9,0.8-1.7,1.7-1.7h29.1c0.9,0,1.7,0.8,1.7,1.7l0,0
	C751,134.6,750.2,135.4,749.3,135.4z"/>
<path class="st17" d="M748.5,158h-171c-1.4,0-2.5-1.1-2.5-2.5v-5.2c0-1.4,1.1-2.5,2.5-2.5h171c1.4,0,2.5,1.1,2.5,2.5v5.2
	C751,156.9,749.9,158,748.5,158z"/>
<path class="st17" d="M631.3,144.4h-54.6c-0.9,0-1.7-0.8-1.7-1.7l0,0c0-0.9,0.8-1.7,1.7-1.7h54.6c0.9,0,1.7,0.8,1.7,1.7l0,0
	C633,143.6,632.2,144.4,631.3,144.4z"/>
<path class="st17" d="M583.3,170h-6.6c-0.9,0-1.7-0.8-1.7-1.7v-3.6c0-0.9,0.8-1.7,1.7-1.7h6.6c0.9,0,1.7,0.8,1.7,1.7v3.6
	C585,169.2,584.2,170,583.3,170z"/>
<path class="st17" d="M622.3,168.4h-32.6c-0.9,0-1.7-0.8-1.7-1.7l0,0c0-0.9,0.8-1.7,1.7-1.7h32.6c0.9,0,1.7,0.8,1.7,1.7l0,0
	C624,167.6,623.2,168.4,622.3,168.4z"/>
<path class="st17" d="M750.2,186.9H575.8c-0.4,0-0.8-0.4-0.8-0.8l0,0c0-0.4,0.4-0.8,0.8-0.8h174.4c0.4,0,0.8,0.4,0.8,0.8l0,0
	C751,186.5,750.6,186.9,750.2,186.9z"/>
<circle class="st17" cx="613.5" cy="186" r="3"/>
<path class="st17" d="M647.3,177.4h-70.6c-0.9,0-1.7-0.8-1.7-1.7l0,0c0-0.9,0.8-1.7,1.7-1.7h70.6c0.9,0,1.7,0.8,1.7,1.7l0,0
	C649,176.6,648.2,177.4,647.3,177.4z"/>
<path class="st17" d="M750.2,205.9H575.8c-0.4,0-0.8-0.4-0.8-0.8l0,0c0-0.4,0.4-0.8,0.8-0.8h174.4c0.4,0,0.8,0.4,0.8,0.8l0,0
	C751,205.5,750.6,205.9,750.2,205.9z"/>
<circle class="st17" cx="700" cy="205" r="3"/>
<path class="st17" d="M647.3,196.4h-70.6c-0.9,0-1.7-0.8-1.7-1.7l0,0c0-0.9,0.8-1.7,1.7-1.7h70.6c0.9,0,1.7,0.8,1.7,1.7l0,0
	C649,195.6,648.2,196.4,647.3,196.4z"/>
<path class="st17" d="M750.2,224.9H575.8c-0.4,0-0.8-0.4-0.8-0.8l0,0c0-0.4,0.4-0.8,0.8-0.8h174.4c0.4,0,0.8,0.4,0.8,0.8l0,0
	C751,224.5,750.6,224.9,750.2,224.9z"/>
<path class="st17" d="M647.3,215.4h-70.6c-0.9,0-1.7-0.8-1.7-1.7l0,0c0-0.9,0.8-1.7,1.7-1.7h70.6c0.9,0,1.7,0.8,1.7,1.7l0,0
	C649,214.6,648.2,215.4,647.3,215.4z"/>
<circle class="st17" cx="653" cy="224" r="3"/>
<path class="st17" d="M748.5,249h-171c-1.4,0-2.5-1.1-2.5-2.5v-5.2c0-1.4,1.1-2.5,2.5-2.5h171c1.4,0,2.5,1.1,2.5,2.5v5.2
	C751,247.9,749.9,249,748.5,249z"/>
<path class="st17" d="M618.3,235.4h-41.6c-0.9,0-1.7-0.8-1.7-1.7l0,0c0-0.9,0.8-1.7,1.7-1.7h41.6c0.9,0,1.7,0.8,1.7,1.7l0,0
	C620,234.6,619.2,235.4,618.3,235.4z"/>
<path class="st17" d="M748.5,271h-171c-1.4,0-2.5-1.1-2.5-2.5v-5.2c0-1.4,1.1-2.5,2.5-2.5h171c1.4,0,2.5,1.1,2.5,2.5v5.2
	C751,269.9,749.9,271,748.5,271z"/>
<path class="st17" d="M631.3,257.4h-54.6c-0.9,0-1.7-0.8-1.7-1.7l0,0c0-0.9,0.8-1.7,1.7-1.7h54.6c0.9,0,1.7,0.8,1.7,1.7l0,0
	C633,256.6,632.2,257.4,631.3,257.4z"/>
<path class="st17" d="M584.3,283h-6.6c-0.9,0-1.7-0.8-1.7-1.7v-3.6c0-0.9,0.8-1.7,1.7-1.7h6.6c0.9,0,1.7,0.8,1.7,1.7v3.6
	C586,282.2,585.2,283,584.3,283z"/>
<path class="st17" d="M623.3,281.4h-32.6c-0.9,0-1.7-0.8-1.7-1.7l0,0c0-0.9,0.8-1.7,1.7-1.7h32.6c0.9,0,1.7,0.8,1.7,1.7l0,0
	C625,280.6,624.2,281.4,623.3,281.4z"/>
<path class="st13" d="M748.5,332h-101c-1.4,0-2.5-1.1-2.5-2.5v-16c0-1.4,1.1-2.5,2.5-2.5h101c1.4,0,2.5,1.1,2.5,2.5v16
	C751,330.9,749.9,332,748.5,332z"/>
<path class="st1" d="M732.3,323.4h-70.6c-0.9,0-1.7-0.8-1.7-1.7l0,0c0-0.9,0.8-1.7,1.7-1.7h70.6c0.9,0,1.7,0.8,1.7,1.7l0,0
	C734,322.6,733.2,323.4,732.3,323.4z"/>
<g>
	<g>
		<g>
			<path class="st1" d="M767,701H175c-2.8,0-5-2.2-5-5V418c0-2.8,2.2-5,5-5h592c2.8,0,5,2.2,5,5v278C772,698.8,769.8,701,767,701z"
				/>
		</g>
	</g>
	<path class="st9" d="M317.5,390h-143c-1.4,0-2.5-1.1-2.5-2.5v-5c0-1.4,1.1-2.5,2.5-2.5h143c1.4,0,2.5,1.1,2.5,2.5v5
		C320,388.9,318.9,390,317.5,390z"/>
	<path class="st17" d="M256.9,441.8h-68.8c-0.6,0-1.1-0.5-1.1-1.1v-1.4c0-0.6,0.5-1.1,1.1-1.1h68.8c0.6,0,1.1,0.5,1.1,1.1v1.4
		C258,441.3,257.5,441.8,256.9,441.8z"/>
	<path class="st17" d="M358.6,441.8h-68.8c-0.6,0-1.1-0.5-1.1-1.1v-1.4c0-0.6,0.5-1.1,1.1-1.1h68.8c0.6,0,1.1,0.5,1.1,1.1v1.4
		C359.7,441.3,359.2,441.8,358.6,441.8z"/>
	<path class="st17" d="M452.6,441.8h-68.8c-0.6,0-1.1-0.5-1.1-1.1v-1.4c0-0.6,0.5-1.1,1.1-1.1h68.8c0.6,0,1.1,0.5,1.1,1.1v1.4
		C453.7,441.3,453.2,441.8,452.6,441.8z"/>
	<path class="st17" d="M554.2,441.8h-68.8c-0.6,0-1.1-0.5-1.1-1.1v-1.4c0-0.6,0.5-1.1,1.1-1.1h68.8c0.6,0,1.1,0.5,1.1,1.1v1.4
		C555.3,441.3,554.8,441.8,554.2,441.8z"/>
	<path class="st17" d="M652.6,441.8h-68.8c-0.6,0-1.1-0.5-1.1-1.1v-1.4c0-0.6,0.5-1.1,1.1-1.1h68.8c0.6,0,1.1,0.5,1.1,1.1v1.4
		C653.7,441.3,653.2,441.8,652.6,441.8z"/>
	<path class="st17" d="M749.9,441.8h-68.8c-0.6,0-1.1-0.5-1.1-1.1v-1.4c0-0.6,0.5-1.1,1.1-1.1h68.8c0.6,0,1.1,0.5,1.1,1.1v1.4
		C751,441.3,750.5,441.8,749.9,441.8z"/>
	<path class="st17" d="M553.9,458.8H188.8c-0.6,0-1.1-0.5-1.1-1.1v-1.5c0-0.6,0.5-1.1,1.1-1.1h365.1c0.6,0,1.1,0.5,1.1,1.1v1.5
		C555,458.3,554.5,458.8,553.9,458.8z"/>
	<path class="st17" d="M749.9,458.8H584.1c-0.6,0-1.1-0.5-1.1-1.1v-1.5c0-0.6,0.5-1.1,1.1-1.1h165.7c0.6,0,1.1,0.5,1.1,1.1v1.5
		C751,458.3,750.5,458.8,749.9,458.8z"/>
	<path class="st17" d="M553.9,475.8H388.1c-0.6,0-1.1-0.5-1.1-1.1v-1.5c0-0.6,0.5-1.1,1.1-1.1h165.7c0.6,0,1.1,0.5,1.1,1.1v1.5
		C555,475.3,554.5,475.8,553.9,475.8z"/>
	<path class="st17" d="M258.9,475.8h-68.8c-0.6,0-1.1-0.5-1.1-1.1v-1.4c0-0.6,0.5-1.1,1.1-1.1h68.8c0.6,0,1.1,0.5,1.1,1.1v1.4
		C260,475.3,259.5,475.8,258.9,475.8z"/>
	<path class="st17" d="M360.6,475.8h-68.8c-0.6,0-1.1-0.5-1.1-1.1v-1.4c0-0.6,0.5-1.1,1.1-1.1h68.8c0.6,0,1.1,0.5,1.1,1.1v1.4
		C361.7,475.3,361.2,475.8,360.6,475.8z"/>
	<path class="st17" d="M654.6,475.8h-68.8c-0.6,0-1.1-0.5-1.1-1.1v-1.4c0-0.6,0.5-1.1,1.1-1.1h68.8c0.6,0,1.1,0.5,1.1,1.1v1.4
		C655.7,475.3,655.2,475.8,654.6,475.8z"/>
	<path class="st17" d="M751.9,475.8h-68.8c-0.6,0-1.1-0.5-1.1-1.1v-1.4c0-0.6,0.5-1.1,1.1-1.1h68.8c0.6,0,1.1,0.5,1.1,1.1v1.4
		C753,475.3,752.5,475.8,751.9,475.8z"/>
	<path class="st17" d="M655.9,492.8H290.8c-0.6,0-1.1-0.5-1.1-1.1v-1.5c0-0.6,0.5-1.1,1.1-1.1h365.1c0.6,0,1.1,0.5,1.1,1.1v1.5
		C657,492.3,656.5,492.8,655.9,492.8z"/>
	<path class="st17" d="M258.9,492.8h-68.8c-0.6,0-1.1-0.5-1.1-1.1v-1.4c0-0.6,0.5-1.1,1.1-1.1h68.8c0.6,0,1.1,0.5,1.1,1.1v1.4
		C260,492.3,259.5,492.8,258.9,492.8z"/>
	<path class="st17" d="M751.9,492.8h-68.8c-0.6,0-1.1-0.5-1.1-1.1v-1.4c0-0.6,0.5-1.1,1.1-1.1h68.8c0.6,0,1.1,0.5,1.1,1.1v1.4
		C753,492.3,752.5,492.8,751.9,492.8z"/>
	<path class="st17" d="M456.9,509.8H291.1c-0.6,0-1.1-0.5-1.1-1.1v-1.5c0-0.6,0.5-1.1,1.1-1.1h165.7c0.6,0,1.1,0.5,1.1,1.1v1.5
		C458,509.3,457.5,509.8,456.9,509.8z"/>
	<path class="st17" d="M650.9,509.8H485.1c-0.6,0-1.1-0.5-1.1-1.1v-1.5c0-0.6,0.5-1.1,1.1-1.1h165.7c0.6,0,1.1,0.5,1.1,1.1v1.5
		C652,509.3,651.5,509.8,650.9,509.8z"/>
	<path class="st17" d="M751.6,509.8h-68.8c-0.6,0-1.1-0.5-1.1-1.1v-1.4c0-0.6,0.5-1.1,1.1-1.1h68.8c0.6,0,1.1,0.5,1.1,1.1v1.4
		C752.7,509.3,752.2,509.8,751.6,509.8z"/>
	<path class="st17" d="M258.9,509.8h-68.8c-0.6,0-1.1-0.5-1.1-1.1v-1.4c0-0.6,0.5-1.1,1.1-1.1h68.8c0.6,0,1.1,0.5,1.1,1.1v1.4
		C260,509.3,259.5,509.8,258.9,509.8z"/>
	<path class="st17" d="M556.9,526.8H191.8c-0.6,0-1.1-0.5-1.1-1.1v-1.5c0-0.6,0.5-1.1,1.1-1.1h365.1c0.6,0,1.1,0.5,1.1,1.1v1.5
		C558,526.3,557.5,526.8,556.9,526.8z"/>
	<path class="st17" d="M654.6,526.8h-68.8c-0.6,0-1.1-0.5-1.1-1.1v-1.4c0-0.6,0.5-1.1,1.1-1.1h68.8c0.6,0,1.1,0.5,1.1,1.1v1.4
		C655.7,526.3,655.2,526.8,654.6,526.8z"/>
	<path class="st17" d="M751.9,526.8h-68.8c-0.6,0-1.1-0.5-1.1-1.1v-1.4c0-0.6,0.5-1.1,1.1-1.1h68.8c0.6,0,1.1,0.5,1.1,1.1v1.4
		C753,526.3,752.5,526.8,751.9,526.8z"/>
	<path class="st17" d="M751.9,543.8H586.1c-0.6,0-1.1-0.5-1.1-1.1v-1.5c0-0.6,0.5-1.1,1.1-1.1h165.7c0.6,0,1.1,0.5,1.1,1.1v1.5
		C753,543.3,752.5,543.8,751.9,543.8z"/>
	<path class="st17" d="M556.9,543.8H391.1c-0.6,0-1.1-0.5-1.1-1.1v-1.5c0-0.6,0.5-1.1,1.1-1.1h165.7c0.6,0,1.1,0.5,1.1,1.1v1.5
		C558,543.3,557.5,543.8,556.9,543.8z"/>
	<path class="st17" d="M261.9,543.8h-68.8c-0.6,0-1.1-0.5-1.1-1.1v-1.4c0-0.6,0.5-1.1,1.1-1.1h68.8c0.6,0,1.1,0.5,1.1,1.1v1.4
		C263,543.3,262.5,543.8,261.9,543.8z"/>
	<path class="st17" d="M363.6,543.8h-68.8c-0.6,0-1.1-0.5-1.1-1.1v-1.4c0-0.6,0.5-1.1,1.1-1.1h68.8c0.6,0,1.1,0.5,1.1,1.1v1.4
		C364.7,543.3,364.2,543.8,363.6,543.8z"/>
</g>
<g>
	<rect x="516.1" y="90" class="st14" width="0.6" height="57"/>
	<path class="st14" d="M514.9,95h3.1c0.6,0,1,0.4,1,1v41c0,0.6-0.4,1-1,1h-3.1c-0.6,0-1-0.4-1-1V96C513.9,95.4,514.4,95,514.9,95z"
		/>
</g>
</svg>
