<?xml version="1.0" encoding="utf-8"?>
<!-- Generator: Adobe Illustrator 22.0.0, SVG Export Plug-In . SVG Version: 6.00 Build 0)  -->
<svg version="1.1" id="Layer_1" xmlns="http://www.w3.org/2000/svg" xmlns:xlink="http://www.w3.org/1999/xlink" x="0px" y="0px"
	 viewBox="0 0 300 100" style="enable-background:new 0 0 300 100;" xml:space="preserve">
<style type="text/css">
	.st0{fill:#8898AA;}
</style>
<path id="_x23_0da8ffff" class="st0" d="M145,7.1c9.4-0.6,18.9,1.3,27.4,5.5c12.4,6.1,22.4,17.2,27,30.2c2.1,5.8,3.2,11.9,3.2,18
	v22.7c0,0.9,0,1.9-0.2,2.8c-0.5,2.3-2.1,4.3-4.3,5.3c-1.5,0.7-3.2,0.8-4.8,0.5c-3.5-0.6-6.2-3.9-6.2-7.4c0-7,0-14.1,0-21.1
	c0.1-2,0.1-4.1-1-5.9c-1.8-3.3-6-4.8-9.4-3.4c-2.9,1-5,4-5,7c0,7.2,0,14.3,0,21.4c0,1.3,0.1,2.7-0.3,4c-0.7,2.5-2.8,4.6-5.3,5.2
	c-3.3,0.9-7.1-0.6-8.8-3.6c-1.1-1.8-1.1-4.1-1-6.1c0-7.1,0-14.2,0-21.3c-0.1-3.6-3-6.9-6.6-7.3c-2.3-0.4-4.8,0.4-6.5,2.1
	c-1.5,1.4-2.4,3.5-2.4,5.6V82c0,1.7,0.2,3.5-0.5,5.2c-1,3-4,5.1-7.2,5c-3.2,0.2-6.4-2-7.4-5.1c-0.6-1.5-0.5-3.1-0.5-4.7
	c0-7.1,0-14.3,0-21.4c0-3.5-2.8-6.8-6.2-7.4c-3.2-0.7-6.6,0.9-8.2,3.7c-0.7,1.2-1,2.5-1,3.9v23.2c0,2.2-1,4.5-2.7,5.9
	c-2.6,2.3-6.9,2.4-9.6,0.3c-2-1.4-3.2-3.7-3.2-6.1V61c0-8.9,2.3-17.7,6.5-25.6c3.5-6.4,8.2-12.1,13.9-16.6
	C123.2,11.9,134,7.8,145,7.1z"/>
</svg>
