<?xml version="1.0" encoding="utf-8"?>
<!-- Generator: Adobe Illustrator 22.0.0, SVG Export Plug-In . SVG Version: 6.00 Build 0)  -->
<svg version="1.1" id="Layer_1" xmlns="http://www.w3.org/2000/svg" xmlns:xlink="http://www.w3.org/1999/xlink" x="0px" y="0px"
	 viewBox="0 0 300 100" style="enable-background:new 0 0 300 100;" xml:space="preserve">
<style type="text/css">
	.st0{fill:#606B75;}
	.st1{fill:#8898AA;}
</style>
<g>
	<g>
		<polygon class="st0" points="285.2,45.4 297.3,27.1 284.1,27.1 278.4,35.5 		"/>
		<polygon class="st0" points="285.2,53.9 278.4,63.4 284.8,72.4 298,72.4 		"/>
	</g>
	<g>
		<g>
			<g>
				<g>
					<path class="st1" d="M25,27.1c4.4,0,7.6,1.1,9.7,3.3c2.1,2.2,3.1,6.9,3.1,11.3c0,4.5-1.1,9.8-3.2,12C32.5,55.9,29.3,57,25,57
						H11.4v15.3H1.3V27.1H25z M11.4,34.8v14.6h10.3c1.1,0,2.1-0.1,2.8-0.3c0.7-0.2,1.3-0.5,1.8-1c0.4-0.4,0.7-1,0.9-1.7
						c0.2-0.7,0.3-5,0.3-6s-0.1-1.8-0.2-2.5c-0.2-0.7-0.5-1.3-0.9-1.8s-1-0.8-1.8-1s-1.8-0.3-3.1-0.3C21.5,34.8,11.4,34.8,11.4,34.8
						z"/>
				</g>
			</g>
			<g>
				<g>
					<path class="st1" d="M41.1,42.1c0-2.8,0.3-5.1,1-7.1s1.7-3.6,3.1-4.8c1.4-1.2,3.2-2.2,5.3-2.7c2.2-0.6,4.7-0.9,7.7-0.9H63
						c3,0,5.6,0.3,7.8,0.8c2.2,0.6,3.9,1.5,5.3,2.7s2.4,2.8,3,4.8s1,4.3,1,7.1v14.2c0,2.8-0.3,6.4-1,8.3c-0.7,2-1.7,3.6-3,4.8
						c-1.4,1.2-3.1,2.2-5.3,2.7c-2.2,0.6-4.7,0.9-7.7,0.9h-4.8c-3,0-5.6-0.3-7.7-0.9c-2.2-0.6-3.9-1.5-5.3-2.7
						c-1.4-1.2-2.4-2.8-3.1-4.8c-0.7-2-1-5.6-1-8.3L41.1,42.1L41.1,42.1z M60.3,35.3c-1.6,0-3,0.1-4.1,0.3s-2,0.6-2.7,1.3
						c-0.7,0.6-1.2,1.5-1.5,2.6s-0.5,3.9-0.5,5.7v9.2c0,1.8,0.2,4.5,0.5,5.7c0.3,1.1,0.8,2,1.5,2.6s1.6,1.1,2.7,1.3
						c1.1,0.2,2.5,0.3,4.1,0.3H61c1.6,0,3-0.1,4.1-0.3s2-0.6,2.7-1.3c0.7-0.6,1.2-1.5,1.5-2.6s0.5-3.9,0.5-5.7v-9.2
						c0-1.8-0.2-4.5-0.5-5.7c-0.3-1.1-0.8-2-1.5-2.6s-1.6-1-2.7-1.2s-2.5-0.3-4.1-0.3L60.3,35.3L60.3,35.3z"/>
				</g>
			</g>
			<g>
				<g>
					<path class="st1" d="M94.6,63.7H112v8.7H84.4V27.1h10.2V63.7z"/>
				</g>
			</g>
			<g>
				<g>
					<path class="st1" d="M114.2,42.1c0-2.8,0.3-5.1,1-7.1s1.7-3.6,3.1-4.8c1.4-1.2,3.2-2.2,5.3-2.7c2.2-0.6,4.7-0.9,7.7-0.9h4.8
						c3,0,5.6,0.3,7.8,0.8c2.2,0.6,3.9,1.5,5.3,2.7c1.4,1.2,2.4,2.8,3,4.8s1,4.3,1,7.1v14.2c0,2.8-0.3,6.4-1,8.3
						c-0.7,2-1.7,3.6-3,4.8c-1.4,1.2-3.1,2.2-5.3,2.7c-2.2,0.6-4.7,0.9-7.7,0.9h-4.8c-3,0-5.6-0.3-7.7-0.9c-2.2-0.6-3.9-1.5-5.3-2.7
						s-2.4-2.8-3.1-4.8s-1-5.6-1-8.3V42.1H114.2z M133.3,35.3c-1.6,0-3,0.1-4.1,0.3s-2,0.6-2.7,1.3c-0.7,0.6-1.2,1.5-1.5,2.6
						s-0.5,3.9-0.5,5.7v9.2c0,1.8,0.2,4.5,0.5,5.7c0.3,1.1,0.8,2,1.5,2.6s1.6,1.1,2.7,1.3c1.1,0.2,2.5,0.3,4.1,0.3h0.7
						c1.6,0,3-0.1,4.1-0.3s2-0.6,2.7-1.3c0.7-0.6,1.2-1.5,1.5-2.6s0.5-3.9,0.5-5.7v-9.2c0-1.8-0.2-4.5-0.5-5.7
						c-0.3-1.1-0.8-2-1.5-2.6s-1.6-1-2.7-1.2c-1.1-0.2-2.5-0.3-4.1-0.3L133.3,35.3L133.3,35.3z"/>
				</g>
			</g>
			<g>
				<g>
					<path class="st1" d="M158,27.1h11.7L186.6,58V27.1h9.5v45.3h-11.7l-16.9-31.3v31.3H158V27.1z"/>
				</g>
			</g>
			<g>
				<g>
					<path class="st1" d="M202.4,27.1h10.2v45.3h-10.2V27.1z"/>
				</g>
			</g>
			<g>
				<g>
					<path class="st1" d="M218.7,27.1H250v8.7h-21.1v9.3h20.4v8.6h-20.4v10H250v8.7h-31.3V27.1z"/>
				</g>
			</g>
			<g>
				<g>
					<path class="st1" d="M282.2,49.8l-16.3,22.6h-13.2l15.8-22.6l-15.1-22.7h13.2L282.2,49.8"/>
				</g>
			</g>
		</g>
	</g>
</g>
</svg>
