<?xml version="1.0" encoding="utf-8"?>
<!-- Generator: Adobe Illustrator 22.0.0, SVG Export Plug-In . SVG Version: 6.00 Build 0)  -->
<svg version="1.1" id="Layer_1" xmlns="http://www.w3.org/2000/svg" xmlns:xlink="http://www.w3.org/1999/xlink" x="0px" y="0px"
	 viewBox="0 0 392 310" style="enable-background:new 0 0 392 310;" xml:space="preserve">
<style type="text/css">
	.st0{opacity:2.000000e-02;}
	.st1{fill:#424242;}
	.st2{fill:#FFFFFF;}
	.st3{enable-background:new    ;}
	.st4{fill:#2B2B2B;}
	.st5{fill:none;stroke:#D8DCDE;stroke-miterlimit:10;}
	.st6{fill:#092131;}
	.st7{fill:#D8DCDE;}
	.st8{fill:#CACDCE;}
	.st9{fill:#1E1E1E;}
	.st10{fill:#3CBC98;}
	.st11{fill:#A6B8C3;}
	.st12{fill:url(#SVGID_1_);}
</style>
<g class="st0">
	<g>
		<path class="st1" d="M383,309H10c-3.9,0-7-3.1-7-7V8c0-3.9,3.1-7,7-7h373c3.9,0,7,3.1,7,7v294C390,305.9,386.9,309,383,309z"/>
	</g>
</g>
<g>
	<g>
		<path class="st2" d="M379.6,305H13c-3.9,0-7-3.1-7-7V11c0-3.9,3.1-7,7-7h366.6c3.9,0,7,3.1,7,7v287
			C386.6,301.9,383.5,305,379.6,305z"/>
	</g>
</g>
<g class="st3">
	<path class="st4" d="M28.4,112.6v-7.3h3c0.3,0,0.6,0,0.9,0.2c0.3,0.1,0.5,0.2,0.6,0.4c0.2,0.2,0.3,0.4,0.4,0.7
		c0.1,0.3,0.1,0.6,0.1,0.9s0,0.6-0.1,0.9s-0.2,0.5-0.4,0.7s-0.4,0.3-0.6,0.4c-0.3,0.1-0.5,0.2-0.9,0.2h-2v3L28.4,112.6L28.4,112.6z
		 M29.4,108.7h1.9c0.3,0,0.6-0.1,0.8-0.3c0.2-0.2,0.3-0.4,0.3-0.7v-0.5c0-0.3-0.1-0.6-0.3-0.7s-0.4-0.3-0.8-0.3h-1.9V108.7z"/>
	<path class="st4" d="M34.6,112.6v-5.4h1v1h0.1c0-0.1,0.1-0.3,0.2-0.4c0.1-0.1,0.2-0.2,0.3-0.3c0.1-0.1,0.3-0.2,0.4-0.2
		c0.2-0.1,0.4-0.1,0.6-0.1h0.3v1H37c-0.5,0-0.8,0.1-1,0.2c-0.2,0.2-0.4,0.4-0.4,0.6v3.5h-1V112.6z"/>
	<path class="st4" d="M39,106.1c-0.2,0-0.3,0-0.4-0.1c-0.1-0.1-0.1-0.2-0.1-0.4v-0.1c0-0.2,0-0.3,0.1-0.4s0.2-0.1,0.4-0.1
		s0.3,0,0.4,0.1c0.1,0.1,0.1,0.2,0.1,0.4v0.1c0,0.2,0,0.3-0.1,0.4C39.3,106.1,39.2,106.1,39,106.1z M38.5,107.2h1v5.4h-1V107.2z"/>
	<path class="st4" d="M43.2,112.7c-0.4,0-0.7-0.1-1-0.2s-0.6-0.3-0.8-0.6c-0.2-0.2-0.4-0.5-0.5-0.9c-0.1-0.3-0.2-0.7-0.2-1.2
		s0.1-0.8,0.2-1.2s0.3-0.6,0.5-0.9s0.5-0.4,0.8-0.6c0.3-0.1,0.6-0.2,1-0.2c0.5,0,1,0.1,1.3,0.4c0.3,0.2,0.6,0.5,0.7,0.9l-0.8,0.4
		c-0.1-0.3-0.2-0.5-0.5-0.6s-0.5-0.2-0.8-0.2c-0.5,0-0.8,0.1-1,0.4s-0.3,0.6-0.3,1.1v0.9c0,0.4,0.1,0.8,0.3,1.1
		c0.2,0.3,0.6,0.4,1,0.4c0.3,0,0.6-0.1,0.8-0.2c0.2-0.2,0.4-0.4,0.5-0.7l0.7,0.4c-0.2,0.4-0.4,0.7-0.8,1
		C44.2,112.6,43.7,112.7,43.2,112.7z"/>
	<path class="st4" d="M48.4,112.7c-0.4,0-0.7-0.1-1-0.2s-0.6-0.3-0.8-0.6c-0.2-0.2-0.4-0.5-0.5-0.9c-0.1-0.3-0.2-0.7-0.2-1.2
		c0-0.4,0.1-0.8,0.2-1.2c0.1-0.3,0.3-0.6,0.5-0.9c0.2-0.2,0.5-0.4,0.8-0.6s0.6-0.2,1-0.2s0.7,0.1,1,0.2s0.5,0.3,0.7,0.6
		c0.2,0.2,0.4,0.5,0.5,0.8s0.2,0.7,0.2,1v0.4H47v0.2c0,0.5,0.1,0.8,0.4,1.1c0.3,0.3,0.6,0.4,1.1,0.4c0.3,0,0.6-0.1,0.9-0.2
		c0.2-0.2,0.4-0.4,0.6-0.6l0.6,0.5c-0.2,0.4-0.5,0.6-0.8,0.9S48.9,112.7,48.4,112.7z M48.4,107.9c-0.2,0-0.4,0-0.6,0.1
		c-0.2,0.1-0.3,0.2-0.5,0.3c-0.1,0.1-0.2,0.3-0.3,0.5s-0.1,0.4-0.1,0.6v0.1h2.8v-0.1c0-0.4-0.1-0.8-0.4-1.1
		C49.2,108,48.8,107.9,48.4,107.9z"/>
	<path class="st4" d="M52.8,108.6c-0.2,0-0.4-0.1-0.5-0.2s-0.2-0.3-0.2-0.5v-0.2c0-0.2,0.1-0.3,0.2-0.5c0.1-0.1,0.3-0.2,0.5-0.2
		s0.4,0.1,0.5,0.2s0.2,0.3,0.2,0.5v0.2c0,0.2-0.1,0.3-0.2,0.5C53.2,108.5,53.1,108.6,52.8,108.6z M52.8,112.7
		c-0.2,0-0.4-0.1-0.5-0.2s-0.2-0.3-0.2-0.5v-0.2c0-0.2,0.1-0.3,0.2-0.5c0.1-0.1,0.3-0.2,0.5-0.2s0.4,0.1,0.5,0.2s0.2,0.3,0.2,0.5
		v0.2c0,0.2-0.1,0.3-0.2,0.5C53.2,112.7,53.1,112.7,52.8,112.7z"/>
</g>
<path class="st5" d="M362,123.3H91.7c-1.1,0-2-0.9-2-2V98.9c0-1.1,0.9-2,2-2H362c1.1,0,2,0.9,2,2v22.4
	C364,122.4,363.1,123.3,362,123.3z"/>
<path class="st6" d="M80.1,37.3c0.2,0.2,0.6,0.2,0.9,0l2-2l3.2,3.2c0.2,0.2,0.6,0.2,0.9,0l4.2-4.2l1.1,1.1C93,36,94,35.6,94,34.8V31
	c0-0.3-0.3-0.6-0.6-0.6h-3.8c-0.8,0-1.2,1-0.6,1.6l1.1,1.1l-3.3,3.3l-3.2-3.2c-0.2-0.2-0.6-0.2-0.9,0L79.9,36
	c-0.2,0.2-0.2,0.6,0,0.9C79.7,36.9,80.1,37.3,80.1,37.3z M94.5,42h-17V29.9c0-0.3-0.3-0.6-0.6-0.6h-0.6c-0.3,0-0.6,0.3-0.6,0.6v12.7
	c0,0.7,0.5,1.2,1.2,1.2h17.6c0.3,0,0.6-0.3,0.6-0.6v-0.6C95.1,42.3,94.8,42,94.5,42z"/>
<g class="st3">
	<path class="st6" d="M104.9,32.8h3.5c0.6,0,1.1,0.2,1.4,0.5s0.5,0.8,0.5,1.3c0,0.3,0,0.5-0.1,0.7s-0.2,0.3-0.3,0.5
		c-0.1,0.1-0.3,0.2-0.4,0.3c-0.2,0.1-0.3,0.1-0.5,0.1v0.1c0.2,0,0.4,0,0.5,0.1c0.2,0.1,0.4,0.2,0.5,0.3c0.2,0.1,0.3,0.3,0.4,0.5
		s0.2,0.5,0.2,0.8s0,0.5-0.1,0.8s-0.2,0.5-0.4,0.7c-0.2,0.2-0.4,0.3-0.6,0.4c-0.2,0.1-0.5,0.2-0.7,0.2H105L104.9,32.8L104.9,32.8z
		 M106.4,35.7h1.6c0.2,0,0.4-0.1,0.5-0.2c0.1-0.1,0.2-0.3,0.2-0.5v-0.3c0-0.2-0.1-0.4-0.2-0.5S108.2,34,108,34h-1.6V35.7z
		 M106.4,38.7h1.8c0.2,0,0.4-0.1,0.5-0.2s0.2-0.3,0.2-0.5v-0.3c0-0.2-0.1-0.4-0.2-0.5s-0.3-0.2-0.5-0.2h-1.8V38.7z"/>
	<path class="st6" d="M114.8,39.1L114.8,39.1c-0.1,0.1-0.2,0.3-0.2,0.4c-0.1,0.1-0.2,0.2-0.3,0.3c-0.1,0.1-0.3,0.2-0.4,0.2
		s-0.4,0.1-0.6,0.1c-0.6,0-1-0.2-1.3-0.5c-0.3-0.4-0.4-0.9-0.4-1.6v-3.4h1.5v3.3c0,0.3,0.1,0.6,0.2,0.8s0.3,0.3,0.6,0.3
		c0.1,0,0.2,0,0.3-0.1c0.1,0,0.2-0.1,0.3-0.1c0.1-0.1,0.2-0.1,0.2-0.2c0.1-0.1,0.1-0.2,0.1-0.3v-3.5h1.5V40h-1.5
		C114.8,40,114.8,39.1,114.8,39.1z"/>
	<path class="st6" d="M121.1,34.6h1.4l-2.1,6.2c-0.1,0.4-0.3,0.7-0.6,0.9c-0.2,0.2-0.6,0.3-1.1,0.3h-0.9v-1.2h1l0.2-0.6l-1.9-5.7
		h1.5l0.8,2.5l0.4,1.6h0.1l0.4-1.6L121.1,34.6z"/>
	<path class="st6" d="M127.6,40c-0.5,0-0.9-0.1-1.2-0.4c-0.3-0.3-0.4-0.7-0.4-1.2v-2.6h-0.8v-1.2h0.4c0.2,0,0.3,0,0.4-0.1
		s0.1-0.2,0.1-0.4v-0.9h1.4v1.5h1.1v1.2h-1.1v3h1V40H127.6z"/>
	<path class="st6" d="M131.8,40.1c-0.4,0-0.8-0.1-1.1-0.2c-0.3-0.1-0.6-0.3-0.8-0.6c-0.2-0.2-0.4-0.5-0.5-0.9
		c-0.1-0.3-0.2-0.7-0.2-1.2c0-0.4,0.1-0.8,0.2-1.2s0.3-0.6,0.5-0.9c0.2-0.2,0.5-0.4,0.8-0.6c0.3-0.1,0.7-0.2,1.1-0.2
		c0.4,0,0.8,0.1,1.1,0.2c0.3,0.1,0.6,0.3,0.8,0.6c0.2,0.2,0.4,0.5,0.5,0.9c0.1,0.3,0.2,0.7,0.2,1.2c0,0.4-0.1,0.8-0.2,1.2
		c-0.1,0.3-0.3,0.6-0.5,0.9c-0.2,0.2-0.5,0.4-0.8,0.6C132.5,40,132.1,40.1,131.8,40.1z M131.8,38.9c0.3,0,0.5-0.1,0.7-0.3
		s0.2-0.4,0.2-0.8v-1.1c0-0.3-0.1-0.6-0.2-0.8c-0.2-0.2-0.4-0.3-0.7-0.3s-0.5,0.1-0.7,0.3s-0.2,0.4-0.2,0.8v1.1
		c0,0.3,0.1,0.6,0.2,0.8C131.2,38.8,131.5,38.9,131.8,38.9z"/>
	<path class="st6" d="M137.5,40.1c-0.4,0-0.8-0.1-1.1-0.2c-0.3-0.1-0.6-0.3-0.8-0.6c-0.2-0.2-0.4-0.5-0.5-0.9
		c-0.1-0.3-0.2-0.7-0.2-1.2c0-0.4,0.1-0.8,0.2-1.2s0.3-0.6,0.5-0.9c0.2-0.2,0.5-0.4,0.8-0.6c0.3-0.1,0.7-0.2,1.1-0.2
		c0.4,0,0.8,0.1,1.1,0.2c0.3,0.1,0.6,0.3,0.8,0.6c0.2,0.2,0.4,0.5,0.5,0.9c0.1,0.3,0.2,0.7,0.2,1.2c0,0.4-0.1,0.8-0.2,1.2
		c-0.1,0.3-0.3,0.6-0.5,0.9c-0.2,0.2-0.5,0.4-0.8,0.6C138.3,40,137.9,40.1,137.5,40.1z M137.5,38.9c0.3,0,0.5-0.1,0.7-0.3
		s0.2-0.4,0.2-0.8v-1.1c0-0.3-0.1-0.6-0.2-0.8c-0.2-0.2-0.4-0.3-0.7-0.3s-0.5,0.1-0.7,0.3s-0.2,0.4-0.2,0.8v1.1
		c0,0.3,0.1,0.6,0.2,0.8C137,38.8,137.2,38.9,137.5,38.9z"/>
	<path class="st6" d="M142.7,40c-0.5,0-0.9-0.1-1.1-0.4c-0.2-0.3-0.4-0.6-0.4-1.1v-6.1h1.5v6.4h0.7V40H142.7z"/>
	<path class="st6" d="M146.1,40.1c-0.5,0-1-0.1-1.3-0.3c-0.4-0.2-0.7-0.4-1-0.7l0.9-0.9c0.2,0.2,0.4,0.4,0.6,0.5
		c0.2,0.1,0.5,0.2,0.8,0.2s0.5,0,0.6-0.1s0.2-0.2,0.2-0.4c0-0.3-0.2-0.4-0.5-0.5l-0.6-0.1c-1.2-0.2-1.8-0.7-1.8-1.7
		c0-0.3,0-0.5,0.1-0.7s0.2-0.4,0.4-0.6c0.2-0.2,0.4-0.3,0.7-0.4c0.3-0.1,0.5-0.1,0.9-0.1c0.3,0,0.5,0,0.7,0.1c0.2,0,0.4,0.1,0.6,0.2
		c0.2,0.1,0.3,0.2,0.5,0.3c0.1,0.1,0.3,0.2,0.4,0.4l-0.9,0.9c-0.2-0.2-0.4-0.3-0.6-0.4c-0.2-0.1-0.4-0.1-0.7-0.1s-0.4,0-0.6,0.1
		c-0.1,0.1-0.2,0.2-0.2,0.3s0,0.3,0.1,0.3c0.1,0.1,0.2,0.1,0.4,0.2l0.6,0.1c1.2,0.2,1.8,0.7,1.8,1.6c0,0.3-0.1,0.5-0.2,0.7
		c-0.1,0.2-0.3,0.4-0.5,0.6s-0.4,0.3-0.7,0.4C146.7,40.1,146.4,40.1,146.1,40.1z"/>
</g>
<rect x="27.4" y="57.6" class="st7" width="337" height="0.7"/>
<g class="st3">
	<path class="st8" d="M266.2,40.1c-0.6,0-1.2-0.1-1.6-0.3s-0.8-0.5-1.1-0.8l1-1c0.5,0.5,1.1,0.8,1.8,0.8c0.4,0,0.7-0.1,0.9-0.2
		c0.2-0.2,0.3-0.4,0.3-0.6c0-0.2-0.1-0.4-0.2-0.5s-0.3-0.2-0.7-0.3l-0.7-0.1c-0.8-0.1-1.3-0.3-1.7-0.7s-0.5-0.8-0.5-1.4
		c0-0.3,0.1-0.6,0.2-0.9c0.1-0.3,0.3-0.5,0.5-0.7s0.5-0.3,0.8-0.4s0.7-0.2,1.1-0.2c0.5,0,1,0.1,1.4,0.3s0.8,0.4,1.1,0.8l-1,1
		c-0.2-0.2-0.4-0.4-0.6-0.5s-0.5-0.2-0.9-0.2c-0.3,0-0.6,0.1-0.8,0.2c-0.2,0.1-0.3,0.3-0.3,0.5s0.1,0.4,0.2,0.5s0.4,0.2,0.7,0.2
		l0.7,0.1c0.7,0.1,1.3,0.3,1.6,0.7c0.4,0.3,0.5,0.8,0.5,1.4c0,0.3-0.1,0.7-0.2,0.9c-0.1,0.3-0.3,0.5-0.5,0.7s-0.5,0.4-0.9,0.5
		C267,40,266.6,40.1,266.2,40.1z"/>
	<path class="st8" d="M272.4,40.1c-0.4,0-0.8-0.1-1.1-0.2c-0.3-0.1-0.6-0.3-0.8-0.6c-0.2-0.2-0.4-0.5-0.5-0.9
		c-0.1-0.3-0.2-0.7-0.2-1.2c0-0.4,0.1-0.8,0.2-1.2s0.3-0.6,0.5-0.9c0.2-0.2,0.5-0.4,0.8-0.6c0.3-0.1,0.7-0.2,1.1-0.2
		s0.8,0.1,1.1,0.2c0.3,0.2,0.6,0.4,0.8,0.6s0.3,0.5,0.4,0.9c0.1,0.3,0.1,0.7,0.1,1v0.5h-3.5v0.1c0,0.4,0.1,0.6,0.3,0.8
		s0.5,0.3,0.9,0.3c0.3,0,0.6-0.1,0.8-0.2c0.2-0.1,0.4-0.3,0.6-0.5l0.8,0.9c-0.2,0.3-0.6,0.5-0.9,0.7C273.4,40,272.9,40.1,272.4,40.1
		z M272.4,35.6c-0.3,0-0.5,0.1-0.7,0.3s-0.3,0.5-0.3,0.8v0.1h1.9v-0.1c0-0.3-0.1-0.6-0.2-0.8C272.9,35.7,272.7,35.6,272.4,35.6z"/>
	<path class="st8" d="M277.5,40c-0.5,0-0.9-0.1-1.1-0.4c-0.2-0.3-0.4-0.6-0.4-1.1v-6.1h1.5v6.4h0.7V40H277.5z"/>
	<path class="st8" d="M280.5,40c-0.5,0-0.9-0.1-1.1-0.4c-0.2-0.3-0.4-0.6-0.4-1.1v-6.1h1.5v6.4h0.7V40H280.5z"/>
	<path class="st8" d="M286.4,40c-0.5,0-0.9-0.1-1.2-0.4s-0.4-0.7-0.4-1.2v-2.6H284v-1.2h0.4c0.2,0,0.3,0,0.4-0.1s0.1-0.2,0.1-0.4
		v-0.9h1.4v1.5h1.1v1.2h-1.1v3h1V40H286.4z"/>
	<path class="st8" d="M290.6,40.1c-0.4,0-0.8-0.1-1.1-0.2s-0.6-0.3-0.8-0.6c-0.2-0.2-0.4-0.5-0.5-0.9c-0.1-0.3-0.2-0.7-0.2-1.2
		c0-0.4,0.1-0.8,0.2-1.2s0.3-0.6,0.5-0.9c0.2-0.2,0.5-0.4,0.8-0.6s0.7-0.2,1.1-0.2s0.8,0.1,1.1,0.2s0.6,0.3,0.8,0.6
		c0.2,0.2,0.4,0.5,0.5,0.9s0.2,0.7,0.2,1.2c0,0.4-0.1,0.8-0.2,1.2c-0.1,0.3-0.3,0.6-0.5,0.9c-0.2,0.2-0.5,0.4-0.8,0.6
		S291,40.1,290.6,40.1z M290.6,38.9c0.3,0,0.5-0.1,0.7-0.3s0.2-0.4,0.2-0.8v-1.1c0-0.3-0.1-0.6-0.2-0.8s-0.4-0.3-0.7-0.3
		s-0.5,0.1-0.7,0.3s-0.2,0.4-0.2,0.8v1.1c0,0.3,0.1,0.6,0.2,0.8C290,38.8,290.3,38.9,290.6,38.9z"/>
	<path class="st8" d="M296.4,40.1c-0.4,0-0.8-0.1-1.1-0.2c-0.3-0.1-0.6-0.3-0.8-0.6c-0.2-0.2-0.4-0.5-0.5-0.9
		c-0.1-0.3-0.2-0.7-0.2-1.2c0-0.4,0.1-0.8,0.2-1.2s0.3-0.6,0.5-0.9s0.5-0.4,0.8-0.6c0.3-0.1,0.7-0.2,1.1-0.2s0.8,0.1,1.1,0.2
		c0.3,0.1,0.6,0.3,0.8,0.6s0.4,0.5,0.5,0.9c0.1,0.3,0.2,0.7,0.2,1.2c0,0.4-0.1,0.8-0.2,1.2c-0.1,0.3-0.3,0.6-0.5,0.9
		c-0.2,0.2-0.5,0.4-0.8,0.6C297.1,40,296.8,40.1,296.4,40.1z M296.4,38.9c0.3,0,0.5-0.1,0.7-0.3s0.2-0.4,0.2-0.8v-1.1
		c0-0.3-0.1-0.6-0.2-0.8c-0.2-0.2-0.4-0.3-0.7-0.3c-0.3,0-0.5,0.1-0.7,0.3s-0.2,0.4-0.2,0.8v1.1c0,0.3,0.1,0.6,0.2,0.8
		C295.8,38.8,296.1,38.9,296.4,38.9z"/>
	<path class="st8" d="M301.5,40c-0.5,0-0.9-0.1-1.1-0.4S300,39,300,38.5v-6.1h1.5v6.4h0.7V40H301.5z"/>
	<path class="st8" d="M304.9,40.1c-0.5,0-1-0.1-1.3-0.3c-0.4-0.2-0.7-0.4-1-0.7l0.9-0.9c0.2,0.2,0.4,0.4,0.6,0.5s0.5,0.2,0.8,0.2
		s0.5,0,0.6-0.1s0.2-0.2,0.2-0.4c0-0.3-0.2-0.4-0.5-0.5l-0.6-0.1c-1.2-0.2-1.8-0.7-1.8-1.7c0-0.3,0-0.5,0.1-0.7s0.2-0.4,0.4-0.6
		c0.2-0.2,0.4-0.3,0.7-0.4c0.3-0.1,0.5-0.1,0.9-0.1c0.3,0,0.5,0,0.7,0.1c0.2,0,0.4,0.1,0.6,0.2c0.2,0.1,0.3,0.2,0.5,0.3
		c0.1,0.1,0.3,0.2,0.4,0.4l-0.9,0.9c-0.2-0.2-0.4-0.3-0.6-0.4c-0.2-0.1-0.4-0.1-0.7-0.1c-0.3,0-0.4,0-0.6,0.1
		c-0.1,0.1-0.2,0.2-0.2,0.3s0,0.3,0.1,0.3c0.1,0.1,0.2,0.1,0.4,0.2l0.6,0.1c1.2,0.2,1.8,0.7,1.8,1.6c0,0.3-0.1,0.5-0.2,0.7
		s-0.3,0.4-0.5,0.6c-0.2,0.2-0.4,0.3-0.7,0.4C305.6,40.1,305.3,40.1,304.9,40.1z"/>
</g>
<path class="st8" d="M245.4,36.5c0.2,0.2,0.6,0.2,0.9,0l3.2-3.2l3.3,3.3l-1.1,1.1c-0.6,0.6-0.2,1.6,0.6,1.6h3.8
	c0.3,0,0.6-0.3,0.6-0.6v-3.8c0-0.8-1-1.2-1.6-0.6l-1.1,1.1l-4.2-4.2c-0.2-0.2-0.6-0.2-0.9,0l-3.2,3.2l-2-2c-0.2-0.2-0.6-0.2-0.9,0
	l-0.4,0.4c-0.2,0.2-0.2,0.6,0,0.9L245.4,36.5z M257.3,42.3h-17V30.1c0-0.3-0.3-0.6-0.6-0.6h-0.6c-0.3,0-0.6,0.3-0.6,0.6v12.7
	c0,0.7,0.5,1.2,1.2,1.2h17.6c0.3,0,0.6-0.3,0.6-0.6v-0.6C257.9,42.5,257.6,42.3,257.3,42.3z"/>
<path class="st9" d="M39.6,69.3v-0.4c0-1-0.8-1.8-1.8-1.8H30c-1.5,0-2.6,1.2-2.6,2.6v7c0,1.5,1.2,2.6,2.6,2.6h9.6
	c1,0,1.8-0.8,1.8-1.8V71C41.4,70.1,40.6,69.3,39.6,69.3z M40.1,77.6c0,0.2-0.2,0.4-0.4,0.4H30c-0.7,0-1.3-0.6-1.3-1.3v-7
	c0-0.7,0.6-1.3,1.3-1.3h7.9c0.2,0,0.4,0.2,0.4,0.4v0.9h-7.9c-0.2,0-0.4,0.2-0.4,0.4s0.2,0.4,0.4,0.4h9.2c0.2,0,0.4,0.2,0.4,0.4
	L40.1,77.6L40.1,77.6z M37.9,73.2c-0.5,0-0.9,0.4-0.9,0.9s0.4,0.9,0.9,0.9s0.9-0.4,0.9-0.9C38.7,73.6,38.4,73.2,37.9,73.2z"/>
<g class="st3">
	<path class="st9" d="M51.4,76.6L49.8,70h0.9l0.7,3.2l0.5,2.3l0,0l0.6-2.3l0.8-3.2h1l0.8,3.2l0.6,2.3l0,0l0.5-2.3l0.7-3.2H58
		l-1.7,6.6h-1l-0.9-3.3L53.9,71l0,0l-0.6,2.2l-0.9,3.3L51.4,76.6L51.4,76.6z"/>
	<path class="st9" d="M62.4,76.6c-0.3,0-0.5-0.1-0.6-0.2c-0.1-0.2-0.2-0.3-0.3-0.6l0,0c-0.1,0.3-0.3,0.5-0.5,0.7s-0.5,0.2-0.9,0.2
		c-0.5,0-0.9-0.1-1.2-0.4s-0.4-0.6-0.4-1.1s0.2-0.8,0.5-1.1c0.3-0.2,0.9-0.4,1.6-0.4h0.9v-0.4c0-0.3-0.1-0.6-0.3-0.8
		c-0.2-0.2-0.5-0.3-0.8-0.3s-0.5,0.1-0.7,0.2s-0.4,0.3-0.5,0.5l-0.5-0.5c0.1-0.3,0.4-0.5,0.7-0.7s0.7-0.3,1.1-0.3
		c0.6,0,1.1,0.1,1.4,0.4c0.3,0.3,0.5,0.7,0.5,1.2v2.6h0.5v0.8h-0.5V76.6z M60.3,76c0.3,0,0.6-0.1,0.9-0.2c0.2-0.2,0.3-0.4,0.3-0.6
		v-0.8h-0.9c-0.4,0-0.7,0.1-0.9,0.2s-0.3,0.3-0.3,0.5v0.2c0,0.2,0.1,0.4,0.2,0.5S60,76,60.3,76z"/>
	<path class="st9" d="M64.9,76.6c-0.3,0-0.5-0.1-0.7-0.2C64,76.2,64,76,64,75.7v-6.1h0.9v6.2h0.7v0.8C65.6,76.6,64.9,76.6,64.9,76.6
		z"/>
	<path class="st9" d="M67.4,76.6c-0.3,0-0.5-0.1-0.7-0.2c-0.2-0.2-0.2-0.4-0.2-0.7v-6.1h0.9v6.2h0.7v0.8
		C68.1,76.6,67.4,76.6,67.4,76.6z"/>
	<path class="st9" d="M71,76.7c-0.3,0-0.6-0.1-0.9-0.2s-0.5-0.3-0.7-0.5s-0.3-0.5-0.4-0.8s-0.2-0.7-0.2-1.1s0.1-0.7,0.2-1.1
		s0.3-0.6,0.4-0.8s0.4-0.4,0.7-0.5c0.3-0.1,0.6-0.2,0.9-0.2s0.6,0.1,0.9,0.2s0.5,0.3,0.7,0.5s0.3,0.5,0.4,0.8s0.1,0.6,0.1,1v0.4
		h-3.5v0.2c0,0.4,0.1,0.7,0.4,1s0.6,0.4,1,0.4c0.3,0,0.6-0.1,0.8-0.2c0.2-0.1,0.4-0.3,0.5-0.6l0.6,0.5c-0.2,0.3-0.4,0.6-0.8,0.8
		C71.9,76.6,71.5,76.7,71,76.7z M71,72.3c-0.2,0-0.4,0-0.5,0.1c-0.2,0.1-0.3,0.2-0.4,0.3s-0.2,0.3-0.3,0.4c-0.1,0.2-0.1,0.4-0.1,0.6
		v0.1h2.5v-0.1c0-0.4-0.1-0.7-0.3-1C71.7,72.4,71.4,72.3,71,72.3z"/>
	<path class="st9" d="M75.6,76.6c-0.3,0-0.5-0.1-0.7-0.2s-0.2-0.4-0.2-0.7v-3.2h-0.8v-0.8h0.4c0.2,0,0.3,0,0.3-0.1s0.1-0.2,0.1-0.3
		v-0.9h0.8v1.4h1v0.8h-1V76h1v0.8h-0.9V76.6z"/>
	<path class="st9" d="M80,70h2.8c0.5,0,1,0.2,1.3,0.5s0.5,0.7,0.5,1.2c0,0.2,0,0.5-0.1,0.6c-0.1,0.2-0.2,0.3-0.3,0.4
		c-0.1,0.1-0.2,0.2-0.4,0.2C83.7,73,83.5,73,83.4,73v0.1c0.1,0,0.3,0,0.4,0.1c0.2,0.1,0.3,0.1,0.4,0.3s0.3,0.3,0.3,0.5
		s0.1,0.4,0.1,0.7c0,0.3,0,0.5-0.1,0.8c-0.1,0.2-0.2,0.4-0.4,0.6c-0.2,0.2-0.3,0.3-0.5,0.4s-0.4,0.1-0.7,0.1H80V70z M81,72.8h1.7
		c0.3,0,0.5-0.1,0.7-0.2s0.2-0.4,0.2-0.6v-0.3c0-0.3-0.1-0.5-0.2-0.6c-0.2-0.1-0.4-0.2-0.7-0.2H81V72.8z M81,75.8h1.9
		c0.3,0,0.6-0.1,0.7-0.2c0.2-0.2,0.3-0.4,0.3-0.7v-0.3c0-0.3-0.1-0.5-0.3-0.7c-0.2-0.2-0.4-0.2-0.7-0.2H81V75.8z"/>
	<path class="st9" d="M89.8,76.6c-0.3,0-0.5-0.1-0.6-0.2c-0.1-0.2-0.2-0.3-0.3-0.6l0,0c-0.1,0.3-0.3,0.5-0.5,0.7s-0.5,0.2-0.9,0.2
		c-0.5,0-0.9-0.1-1.2-0.4c-0.3-0.3-0.4-0.6-0.4-1.1s0.2-0.8,0.5-1.1c0.3-0.2,0.9-0.4,1.6-0.4h0.9v-0.4c0-0.3-0.1-0.6-0.3-0.8
		c-0.2-0.2-0.5-0.3-0.8-0.3s-0.5,0.1-0.7,0.2s-0.4,0.3-0.5,0.5L86,72.5c0.1-0.3,0.4-0.5,0.7-0.7c0.3-0.2,0.7-0.3,1.1-0.3
		c0.6,0,1.1,0.1,1.4,0.4s0.5,0.7,0.5,1.2v2.6h0.5v0.8L89.8,76.6L89.8,76.6z M87.6,76c0.3,0,0.6-0.1,0.9-0.2c0.2-0.2,0.3-0.4,0.3-0.6
		v-0.8h-0.9c-0.4,0-0.7,0.1-0.9,0.2c-0.2,0.1-0.3,0.3-0.3,0.5v0.2c0,0.2,0.1,0.4,0.2,0.5S87.3,76,87.6,76z"/>
	<path class="st9" d="M92.2,76.6c-0.3,0-0.5-0.1-0.7-0.2c-0.2-0.2-0.2-0.4-0.2-0.7v-6.1h0.9v6.2h0.7v0.8
		C92.9,76.6,92.2,76.6,92.2,76.6z"/>
	<path class="st9" d="M97.5,76.6c-0.3,0-0.5-0.1-0.6-0.2c-0.1-0.2-0.2-0.3-0.3-0.6l0,0c-0.1,0.3-0.3,0.5-0.5,0.7s-0.5,0.2-0.9,0.2
		c-0.5,0-0.9-0.1-1.2-0.4c-0.3-0.3-0.4-0.6-0.4-1.1s0.2-0.8,0.5-1.1c0.3-0.2,0.9-0.4,1.6-0.4h0.9v-0.4c0-0.3-0.1-0.6-0.3-0.8
		c-0.2-0.2-0.5-0.3-0.8-0.3s-0.5,0.1-0.7,0.2s-0.4,0.3-0.5,0.5l-0.5-0.5c0.1-0.3,0.4-0.5,0.7-0.7c0.3-0.2,0.7-0.3,1.1-0.3
		c0.6,0,1.1,0.1,1.4,0.4s0.5,0.7,0.5,1.2v2.6H98v0.8h-0.5V76.6z M95.4,76c0.3,0,0.6-0.1,0.9-0.2c0.2-0.2,0.3-0.4,0.3-0.6v-0.8h-0.9
		c-0.4,0-0.7,0.1-0.9,0.2c-0.2,0.1-0.3,0.3-0.3,0.5v0.2c0,0.2,0.1,0.4,0.2,0.5S95.1,76,95.4,76z"/>
	<path class="st9" d="M99,76.6v-4.9h0.9v0.8l0,0c0.1-0.3,0.3-0.5,0.5-0.7s0.5-0.3,0.9-0.3c0.5,0,0.9,0.2,1.2,0.5
		c0.3,0.3,0.4,0.8,0.4,1.4v3.1H102v-3c0-0.8-0.3-1.3-1-1.3c-0.1,0-0.3,0-0.4,0.1c-0.1,0-0.3,0.1-0.4,0.2s-0.2,0.2-0.3,0.3
		s-0.1,0.2-0.1,0.4v3.4H99z"/>
	<path class="st9" d="M106.3,76.7c-0.4,0-0.7-0.1-0.9-0.2c-0.3-0.1-0.5-0.3-0.7-0.5s-0.3-0.5-0.4-0.8s-0.1-0.7-0.1-1.1
		s0-0.7,0.1-1.1c0.1-0.3,0.2-0.6,0.4-0.8c0.2-0.2,0.4-0.4,0.7-0.5c0.3-0.1,0.6-0.2,0.9-0.2c0.5,0,0.9,0.1,1.2,0.3
		c0.3,0.2,0.5,0.5,0.7,0.9l-0.7,0.4c-0.1-0.2-0.2-0.4-0.4-0.6s-0.4-0.2-0.7-0.2c-0.4,0-0.7,0.1-1,0.4c-0.2,0.3-0.3,0.6-0.3,1v0.9
		c0,0.4,0.1,0.7,0.3,1c0.2,0.3,0.5,0.4,1,0.4c0.3,0,0.6-0.1,0.8-0.2c0.2-0.1,0.4-0.4,0.5-0.6l0.6,0.4c-0.2,0.4-0.4,0.7-0.7,0.9
		S106.8,76.7,106.3,76.7z"/>
	<path class="st9" d="M111.1,76.7c-0.3,0-0.6-0.1-0.9-0.2s-0.5-0.3-0.7-0.5s-0.3-0.5-0.4-0.8s-0.2-0.7-0.2-1.1s0.1-0.7,0.2-1.1
		s0.3-0.6,0.4-0.8s0.4-0.4,0.7-0.5c0.3-0.1,0.6-0.2,0.9-0.2s0.6,0.1,0.9,0.2s0.5,0.3,0.7,0.5s0.3,0.5,0.4,0.8s0.1,0.6,0.1,1v0.4
		h-3.5v0.2c0,0.4,0.1,0.7,0.4,1s0.6,0.4,1,0.4c0.3,0,0.6-0.1,0.8-0.2c0.2-0.1,0.4-0.3,0.5-0.6l0.6,0.5c-0.2,0.3-0.4,0.6-0.8,0.8
		C111.9,76.6,111.5,76.7,111.1,76.7z M111.1,72.3c-0.2,0-0.4,0-0.5,0.1c-0.2,0.1-0.3,0.2-0.4,0.3s-0.2,0.3-0.3,0.4
		c-0.1,0.2-0.1,0.4-0.1,0.6v0.1h2.5v-0.1c0-0.4-0.1-0.7-0.3-1C111.7,72.4,111.4,72.3,111.1,72.3z"/>
	<path class="st9" d="M115,72.9c-0.2,0-0.4-0.1-0.5-0.2s-0.1-0.2-0.1-0.4v-0.1c0-0.2,0-0.3,0.1-0.4s0.3-0.2,0.5-0.2s0.4,0.1,0.5,0.2
		s0.1,0.3,0.1,0.4v0.1c0,0.2,0,0.3-0.1,0.4S115.3,72.9,115,72.9z M115,76.7c-0.2,0-0.4-0.1-0.5-0.2s-0.1-0.3-0.1-0.4V76
		c0-0.2,0-0.3,0.1-0.4s0.3-0.2,0.5-0.2s0.4,0.1,0.5,0.2s0.1,0.2,0.1,0.4v0.1c0,0.2,0,0.3-0.1,0.4S115.3,76.7,115,76.7z"/>
	<path class="st9" d="M121.5,76.7c-0.4,0-0.7,0-1-0.1s-0.5-0.2-0.7-0.4c-0.2-0.2-0.3-0.4-0.4-0.6s-0.2-0.5-0.2-0.8
		c0-0.4,0.1-0.8,0.4-1.1s0.6-0.5,1-0.6V73c-0.3-0.1-0.6-0.3-0.8-0.6c-0.2-0.3-0.3-0.6-0.3-1c0-0.5,0.2-0.9,0.6-1.2s0.9-0.5,1.6-0.5
		s1.2,0.2,1.6,0.5s0.6,0.7,0.6,1.2c0,0.4-0.1,0.7-0.3,1c-0.2,0.3-0.5,0.5-0.8,0.6v0.1c0.4,0.1,0.7,0.3,1,0.6s0.4,0.6,0.4,1.1
		c0,0.3-0.1,0.5-0.2,0.8c-0.1,0.2-0.2,0.4-0.4,0.6c-0.2,0.2-0.4,0.3-0.7,0.4S121.9,76.7,121.5,76.7z M121.5,76c0.4,0,0.8-0.1,1-0.3
		s0.4-0.5,0.4-0.8v-0.2c0-0.4-0.1-0.6-0.4-0.8c-0.2-0.2-0.6-0.3-1-0.3s-0.8,0.1-1,0.3c-0.2,0.2-0.3,0.5-0.3,0.8v0.2
		c0,0.4,0.1,0.6,0.3,0.8C120.7,75.9,121.1,76,121.5,76z M121.5,72.8c0.4,0,0.7-0.1,0.9-0.3c0.2-0.2,0.3-0.4,0.3-0.7v-0.1
		c0-0.3-0.1-0.6-0.3-0.7c-0.2-0.2-0.5-0.3-0.9-0.3s-0.7,0.1-0.9,0.3s-0.3,0.4-0.3,0.7v0.1c0,0.3,0.1,0.6,0.3,0.7
		S121.1,72.8,121.5,72.8z"/>
	<path class="st9" d="M125.7,75.4c0.2,0,0.4,0.1,0.5,0.2s0.1,0.3,0.1,0.4v0.1c0,0.3-0.1,0.6-0.2,0.9s-0.4,0.6-0.7,0.8h-0.7
		c0.2-0.2,0.4-0.4,0.5-0.6s0.2-0.4,0.3-0.6c-0.1,0-0.3-0.1-0.3-0.2c-0.1-0.1-0.1-0.2-0.1-0.4v0c0-0.2,0-0.3,0.1-0.4
		S125.5,75.4,125.7,75.4z"/>
	<path class="st9" d="M128.6,76.6l2.5-5.8h-2.7V72h-0.8v-2h4.4v0.8l-2.4,5.8C129.6,76.6,128.6,76.6,128.6,76.6z"/>
	<path class="st9" d="M137.8,72.4c0,0.5-0.1,0.9-0.2,1.4s-0.3,0.8-0.6,1.2c-0.2,0.4-0.5,0.7-0.8,0.9c-0.3,0.3-0.6,0.5-0.8,0.7h-1.2
		c0.4-0.3,0.7-0.5,1-0.8c0.3-0.2,0.5-0.5,0.7-0.8s0.4-0.6,0.5-0.9s0.3-0.6,0.4-1l0,0c-0.2,0.3-0.3,0.5-0.6,0.7
		c-0.2,0.2-0.6,0.3-1,0.3c-0.3,0-0.5,0-0.8-0.1c-0.2-0.1-0.4-0.2-0.6-0.4s-0.3-0.4-0.4-0.6c-0.1-0.2-0.1-0.5-0.1-0.8
		s0.1-0.6,0.2-0.9c0.1-0.3,0.3-0.5,0.5-0.7s0.4-0.3,0.7-0.5c0.3-0.1,0.6-0.2,0.9-0.2c0.4,0,0.7,0.1,1,0.2s0.5,0.3,0.7,0.5
		s0.3,0.5,0.4,0.8S137.8,72,137.8,72.4z M135.5,73.4c0.4,0,0.7-0.1,1-0.3c0.2-0.2,0.3-0.6,0.3-1V72c0-0.4-0.1-0.8-0.3-1
		s-0.6-0.3-1-0.3s-0.7,0.1-1,0.3c-0.2,0.2-0.3,0.6-0.3,1v0.1c0,0.4,0.1,0.8,0.3,1C134.8,73.3,135.1,73.4,135.5,73.4z"/>
	<path class="st9" d="M141.8,76.6v-1.3h-3.1v-0.8l2.7-4.5h1.3v4.6h0.9v0.7h-0.9v1.3C142.7,76.6,141.8,76.6,141.8,76.6z M139.5,74.6
		h2.3v-3.8h-0.1L139.5,74.6z"/>
	<path class="st9" d="M145.3,76.7c-0.2,0-0.4-0.1-0.5-0.2s-0.1-0.3-0.1-0.4V76c0-0.2,0-0.3,0.1-0.4s0.3-0.2,0.5-0.2s0.4,0.1,0.5,0.2
		s0.1,0.2,0.1,0.4v0.1c0,0.2,0,0.3-0.1,0.4S145.5,76.7,145.3,76.7z"/>
	<path class="st9" d="M149.5,76.7c-0.4,0-0.7,0-1-0.1s-0.5-0.2-0.7-0.4c-0.2-0.2-0.3-0.4-0.4-0.6c-0.1-0.2-0.2-0.5-0.2-0.8
		c0-0.4,0.1-0.8,0.4-1.1s0.6-0.5,1-0.6V73c-0.3-0.1-0.6-0.3-0.8-0.6c-0.2-0.3-0.3-0.6-0.3-1c0-0.5,0.2-0.9,0.6-1.2s0.9-0.5,1.6-0.5
		c0.7,0,1.2,0.2,1.6,0.5c0.4,0.3,0.6,0.7,0.6,1.2c0,0.4-0.1,0.7-0.3,1s-0.5,0.5-0.8,0.6v0.1c0.4,0.1,0.7,0.3,1,0.6s0.4,0.6,0.4,1.1
		c0,0.3-0.1,0.5-0.2,0.8c-0.1,0.2-0.2,0.4-0.4,0.6s-0.4,0.3-0.7,0.4S149.9,76.7,149.5,76.7z M149.5,76c0.4,0,0.8-0.1,1-0.3
		s0.4-0.5,0.4-0.8v-0.2c0-0.4-0.1-0.6-0.4-0.8c-0.2-0.2-0.6-0.3-1-0.3s-0.8,0.1-1,0.3c-0.2,0.2-0.3,0.5-0.3,0.8v0.2
		c0,0.4,0.1,0.6,0.3,0.8S149,76,149.5,76z M149.5,72.8c0.4,0,0.7-0.1,0.9-0.3c0.2-0.2,0.3-0.4,0.3-0.7v-0.1c0-0.3-0.1-0.6-0.3-0.7
		c-0.2-0.2-0.5-0.3-0.9-0.3s-0.7,0.1-0.9,0.3s-0.3,0.4-0.3,0.7v0.1c0,0.3,0.1,0.6,0.3,0.7S149.1,72.8,149.5,72.8z"/>
	<path class="st9" d="M153.1,76.6v-0.8h1.8v-5.1h-0.1l-1.6,1.6l-0.5-0.5l1.7-1.7h1.4v5.8h1.7v0.8h-4.4V76.6z"/>
	<path class="st9" d="M161.9,70v4.1c0,0.3,0,0.6,0.1,0.8c0.1,0.2,0.1,0.4,0.3,0.6c0.1,0.2,0.3,0.3,0.5,0.3c0.2,0.1,0.4,0.1,0.7,0.1
		c0.6,0,0.9-0.2,1.2-0.5s0.3-0.8,0.3-1.4v-4h0.9v3.9c0,0.5,0,0.9-0.1,1.3s-0.2,0.6-0.4,0.9c-0.2,0.2-0.4,0.4-0.8,0.5
		s-0.7,0.2-1.1,0.2s-0.8-0.1-1.1-0.2s-0.6-0.3-0.7-0.5c-0.2-0.2-0.3-0.5-0.4-0.9c-0.1-0.4-0.1-0.8-0.1-1.3V70H161.9z"/>
	<path class="st9" d="M169.4,76.7c-0.5,0-1-0.1-1.4-0.3c-0.4-0.2-0.7-0.5-1-0.8l0.7-0.6c0.2,0.3,0.5,0.5,0.8,0.7s0.6,0.2,1,0.2
		c0.5,0,0.8-0.1,1-0.3c0.2-0.2,0.3-0.5,0.3-0.8s-0.1-0.5-0.3-0.7s-0.5-0.3-0.9-0.4l-0.6-0.1c-0.6-0.1-1.1-0.3-1.4-0.6
		c-0.3-0.3-0.5-0.7-0.5-1.2c0-0.3,0.1-0.6,0.2-0.8c0.1-0.2,0.3-0.4,0.5-0.6s0.4-0.3,0.7-0.4s0.6-0.1,0.9-0.1c0.5,0,0.9,0.1,1.3,0.3
		s0.7,0.4,0.9,0.8l-0.7,0.5c-0.2-0.2-0.4-0.4-0.6-0.6s-0.6-0.2-0.9-0.2c-0.4,0-0.7,0.1-0.9,0.3c-0.2,0.2-0.3,0.4-0.3,0.7
		c0,0.3,0.1,0.5,0.3,0.7s0.5,0.3,0.9,0.4l0.6,0.1c0.6,0.1,1.1,0.4,1.4,0.7c0.3,0.3,0.4,0.7,0.4,1.2c0,0.3-0.1,0.6-0.2,0.8
		c-0.1,0.2-0.3,0.5-0.5,0.6c-0.2,0.2-0.4,0.3-0.7,0.4S169.8,76.7,169.4,76.7z"/>
	<path class="st9" d="M173.1,70h2.3c0.4,0,0.8,0.1,1.1,0.2s0.6,0.3,0.9,0.6c0.2,0.3,0.4,0.6,0.6,1c0.1,0.4,0.2,0.9,0.2,1.4
		s-0.1,1-0.2,1.4c-0.1,0.4-0.3,0.8-0.6,1c-0.2,0.3-0.5,0.5-0.9,0.6s-0.7,0.2-1.1,0.2h-2.3V70z M175.3,75.8c0.3,0,0.5,0,0.7-0.1
		s0.4-0.2,0.6-0.4c0.2-0.2,0.3-0.4,0.4-0.6c0.1-0.2,0.1-0.5,0.1-0.8v-1.1c0-0.3,0-0.6-0.1-0.8c-0.1-0.2-0.2-0.4-0.4-0.6
		s-0.3-0.3-0.6-0.4s-0.5-0.1-0.7-0.1H174v5L175.3,75.8L175.3,75.8z"/>
	<path class="st9" d="M181.5,70.8v5.8h-0.9v-5.8h-2V70h5v0.8H181.5z"/>
</g>
<rect x="340.4" y="96.9" class="st7" width="0.9" height="27"/>
<rect x="340.4" y="109.6" class="st7" width="23.6" height="0.9"/>
<path class="st7" d="M353.3,101.2l3.1,3c0.1,0.1,0.1,0.3,0,0.4L356,105c-0.1,0.1-0.3,0.1-0.4,0l-2.5-2.5l-2.5,2.5
	c-0.1,0.1-0.3,0.1-0.4,0l-0.4-0.4c-0.1-0.1-0.1-0.3,0-0.4l3.1-3C353.1,101.1,353.2,101.1,353.3,101.2z"/>
<path class="st7" d="M353,119.2l-3.1-3c-0.1-0.1-0.1-0.3,0-0.4l0.4-0.4c0.1-0.1,0.3-0.1,0.4,0l2.5,2.5l2.5-2.5
	c0.1-0.1,0.3-0.1,0.4,0l0.4,0.4c0.1,0.1,0.1,0.3,0,0.4l-3.1,3C353.2,119.3,353.1,119.3,353,119.2z"/>
<g class="st3">
	<path class="st7" d="M309.2,106.5v4.5c0,0.3,0,0.6,0.1,0.9s0.1,0.5,0.3,0.6c0.1,0.2,0.3,0.3,0.5,0.4s0.5,0.1,0.8,0.1
		c0.6,0,1-0.2,1.3-0.5s0.4-0.8,0.4-1.5v-4.5h1v4.3c0,0.5,0,1-0.1,1.4s-0.3,0.7-0.5,1s-0.5,0.4-0.8,0.6s-0.8,0.2-1.3,0.2
		s-0.9-0.1-1.2-0.2c-0.3-0.1-0.6-0.3-0.8-0.6c-0.2-0.3-0.4-0.6-0.4-1c-0.1-0.4-0.1-0.8-0.1-1.4v-4.3H309.2z"/>
	<path class="st7" d="M317.5,113.9c-0.6,0-1.1-0.1-1.5-0.3c-0.4-0.2-0.8-0.5-1.1-0.9l0.7-0.6c0.3,0.3,0.5,0.6,0.8,0.8
		s0.7,0.3,1.1,0.3c0.5,0,0.9-0.1,1.1-0.3c0.3-0.2,0.4-0.5,0.4-0.9c0-0.3-0.1-0.6-0.3-0.7c-0.2-0.2-0.5-0.3-1-0.4l-0.6-0.1
		c-0.7-0.1-1.2-0.4-1.6-0.7c-0.3-0.3-0.5-0.8-0.5-1.3c0-0.3,0.1-0.6,0.2-0.9s0.3-0.5,0.5-0.6c0.2-0.2,0.5-0.3,0.8-0.4s0.6-0.1,1-0.1
		c0.5,0,1,0.1,1.4,0.3c0.4,0.2,0.7,0.5,1,0.9l-0.7,0.6c-0.2-0.3-0.4-0.5-0.7-0.6c-0.3-0.2-0.6-0.2-1-0.2s-0.8,0.1-1,0.3
		c-0.2,0.2-0.4,0.5-0.4,0.8s0.1,0.6,0.3,0.7c0.2,0.2,0.5,0.3,1,0.4l0.6,0.1c0.7,0.2,1.2,0.4,1.6,0.7c0.3,0.3,0.5,0.8,0.5,1.3
		c0,0.3-0.1,0.6-0.2,0.9s-0.3,0.5-0.5,0.7s-0.5,0.3-0.8,0.4C318.2,113.8,317.9,113.9,317.5,113.9z"/>
	<path class="st7" d="M321.5,106.5h2.5c0.5,0,0.9,0.1,1.2,0.2s0.7,0.4,1,0.7s0.5,0.7,0.6,1.1s0.2,1,0.2,1.6s-0.1,1.1-0.2,1.6
		s-0.3,0.8-0.6,1.1s-0.6,0.5-1,0.7s-0.8,0.2-1.2,0.2h-2.5V106.5z M324,112.8c0.3,0,0.6,0,0.8-0.1s0.4-0.2,0.6-0.4
		c0.2-0.2,0.3-0.4,0.4-0.7c0.1-0.3,0.1-0.6,0.1-0.9v-1.2c0-0.3,0-0.7-0.1-0.9c-0.1-0.3-0.2-0.5-0.4-0.7c-0.2-0.2-0.4-0.3-0.6-0.4
		s-0.5-0.1-0.8-0.1h-1.5v5.5h1.5V112.8z"/>
	<path class="st7" d="M330.8,107.4v6.4h-1v-6.4h-2.2v-0.9h5.5v0.9H330.8z"/>
</g>
<g class="st3">
	<path class="st4" d="M103.4,113.7c-0.4,0-0.7-0.1-1-0.2s-0.6-0.3-0.8-0.6s-0.4-0.5-0.5-0.9c-0.1-0.3-0.2-0.7-0.2-1.2s0.1-1,0.2-1.5
		c0.2-0.5,0.4-0.9,0.6-1.3s0.5-0.7,0.8-1s0.6-0.5,0.9-0.7h1.3c-0.4,0.3-0.8,0.6-1.1,0.8s-0.6,0.6-0.8,0.8s-0.4,0.6-0.6,0.9
		s-0.3,0.7-0.4,1.1h0.1c0.1-0.1,0.2-0.3,0.3-0.4c0.1-0.1,0.2-0.2,0.4-0.3s0.3-0.2,0.5-0.2c0.2-0.1,0.4-0.1,0.6-0.1
		c0.3,0,0.6,0.1,0.9,0.2s0.5,0.3,0.7,0.4c0.2,0.2,0.3,0.4,0.4,0.7s0.2,0.6,0.2,0.9c0,0.4-0.1,0.7-0.2,1s-0.3,0.6-0.5,0.8
		c-0.2,0.2-0.5,0.4-0.8,0.5C104.1,113.6,103.8,113.7,103.4,113.7z M103.4,112.8c0.5,0,0.8-0.1,1.1-0.4c0.3-0.2,0.4-0.6,0.4-1.1v-0.1
		c0-0.5-0.1-0.8-0.4-1.1c-0.3-0.2-0.6-0.4-1.1-0.4s-0.8,0.1-1.1,0.4c-0.3,0.2-0.4,0.6-0.4,1.1v0.1c0,0.5,0.1,0.8,0.4,1.1
		C102.6,112.7,102.9,112.8,103.4,112.8z"/>
	<path class="st4" d="M108,112.2c0.2,0,0.4,0.1,0.5,0.2s0.2,0.3,0.2,0.5v0.2c0,0.3-0.1,0.6-0.3,1c-0.2,0.4-0.4,0.7-0.7,0.9h-0.8
		c0.2-0.2,0.4-0.4,0.5-0.6s0.2-0.4,0.3-0.7c-0.2,0-0.3-0.1-0.3-0.2c-0.1-0.1-0.1-0.2-0.1-0.4v-0.2c0-0.2,0.1-0.4,0.2-0.5
		C107.6,112.3,107.7,112.2,108,112.2z"/>
	<path class="st4" d="M110.3,113.6v-0.9h2V107h-0.1l-1.8,1.7l-0.6-0.6l1.9-1.9h1.6v6.4h1.8v0.9L110.3,113.6L110.3,113.6z"/>
	<path class="st4" d="M118.8,113.7c-0.4,0-0.8-0.1-1.1-0.3c-0.3-0.2-0.6-0.4-0.8-0.7c-0.2-0.3-0.4-0.7-0.5-1.2s-0.2-1-0.2-1.6
		s0.1-1.1,0.2-1.6s0.3-0.9,0.5-1.2c0.2-0.3,0.5-0.6,0.8-0.7c0.3-0.2,0.7-0.3,1.1-0.3c0.9,0,1.5,0.3,1.9,1s0.6,1.6,0.6,2.8
		c0,1.2-0.2,2.1-0.6,2.8C120.3,113.4,119.7,113.7,118.8,113.7z M118.8,112.8c0.3,0,0.5-0.1,0.7-0.2s0.3-0.3,0.5-0.5
		c0.1-0.2,0.2-0.4,0.3-0.7c0.1-0.3,0.1-0.6,0.1-0.9v-1.2c0-0.3,0-0.6-0.1-0.9s-0.1-0.5-0.3-0.7c-0.1-0.2-0.3-0.4-0.5-0.5
		s-0.4-0.2-0.7-0.2s-0.5,0.1-0.7,0.2s-0.3,0.3-0.5,0.5c-0.1,0.2-0.2,0.4-0.3,0.7c-0.1,0.3-0.1,0.6-0.1,0.9v1.2c0,0.3,0,0.6,0.1,0.9
		s0.1,0.5,0.3,0.7c0.1,0.2,0.3,0.4,0.5,0.5C118.3,112.7,118.5,112.8,118.8,112.8z"/>
	<path class="st4" d="M125,113.7c-0.4,0-0.8-0.1-1.1-0.3c-0.3-0.2-0.6-0.4-0.8-0.7c-0.2-0.3-0.4-0.7-0.5-1.2s-0.2-1-0.2-1.6
		s0.1-1.1,0.2-1.6s0.3-0.9,0.5-1.2c0.2-0.3,0.5-0.6,0.8-0.7c0.3-0.2,0.7-0.3,1.1-0.3c0.9,0,1.5,0.3,1.9,1s0.6,1.6,0.6,2.8
		c0,1.2-0.2,2.1-0.6,2.8C126.5,113.4,125.9,113.7,125,113.7z M125,112.8c0.3,0,0.5-0.1,0.7-0.2s0.3-0.3,0.5-0.5
		c0.1-0.2,0.2-0.4,0.3-0.7c0.1-0.3,0.1-0.6,0.1-0.9v-1.2c0-0.3,0-0.6-0.1-0.9s-0.1-0.5-0.3-0.7c-0.1-0.2-0.3-0.4-0.5-0.5
		s-0.4-0.2-0.7-0.2s-0.5,0.1-0.7,0.2s-0.3,0.3-0.5,0.5c-0.1,0.2-0.2,0.4-0.3,0.7c-0.1,0.3-0.1,0.6-0.1,0.9v1.2c0,0.3,0,0.6,0.1,0.9
		s0.1,0.5,0.3,0.7c0.1,0.2,0.3,0.4,0.5,0.5C124.5,112.7,124.7,112.8,125,112.8z"/>
	<path class="st4" d="M129.6,113.7c-0.2,0-0.4-0.1-0.5-0.2s-0.2-0.3-0.2-0.5v-0.2c0-0.2,0.1-0.3,0.2-0.5c0.1-0.1,0.3-0.2,0.5-0.2
		s0.4,0.1,0.5,0.2s0.2,0.3,0.2,0.5v0.2c0,0.2-0.1,0.3-0.2,0.5C130,113.6,129.8,113.7,129.6,113.7z"/>
	<path class="st4" d="M136.6,113.6h-4.8v-1l2.3-2.1c0.4-0.3,0.6-0.6,0.9-1c0.2-0.3,0.3-0.7,0.3-1v-0.1c0-0.4-0.1-0.7-0.3-0.9
		c-0.2-0.2-0.5-0.3-0.9-0.3c-0.2,0-0.4,0-0.6,0.1c-0.2,0.1-0.3,0.1-0.4,0.2c-0.1,0.1-0.2,0.2-0.3,0.4c-0.1,0.1-0.1,0.3-0.2,0.5
		l-0.9-0.3c0.1-0.2,0.2-0.4,0.3-0.6s0.3-0.4,0.5-0.6s0.4-0.3,0.7-0.4s0.6-0.1,0.9-0.1c0.4,0,0.7,0.1,1,0.2s0.5,0.2,0.7,0.4
		c0.2,0.2,0.3,0.4,0.4,0.7s0.2,0.5,0.2,0.9c0,0.3,0,0.6-0.1,0.8c-0.1,0.2-0.2,0.5-0.4,0.7s-0.3,0.4-0.5,0.6s-0.4,0.4-0.7,0.6
		l-1.8,1.6h3.7L136.6,113.6L136.6,113.6z"/>
	<path class="st4" d="M142.5,107.2h-3.2l-0.2,2.7h0.1c0.2-0.3,0.4-0.5,0.6-0.6c0.2-0.2,0.5-0.2,0.9-0.2c0.3,0,0.6,0.1,0.9,0.2
		c0.3,0.1,0.5,0.3,0.7,0.4c0.2,0.2,0.3,0.4,0.5,0.7s0.2,0.6,0.2,1s-0.1,0.7-0.2,1c-0.1,0.3-0.3,0.6-0.5,0.8
		c-0.2,0.2-0.5,0.4-0.8,0.5s-0.7,0.2-1.1,0.2c-0.3,0-0.6,0-0.8-0.1s-0.5-0.2-0.6-0.3c-0.2-0.1-0.4-0.3-0.5-0.4
		c-0.1-0.2-0.3-0.3-0.4-0.5l0.7-0.6c0.1,0.1,0.2,0.3,0.3,0.4s0.2,0.2,0.3,0.3c0.1,0.1,0.3,0.1,0.4,0.2c0.2,0,0.3,0.1,0.6,0.1
		c0.5,0,0.8-0.1,1.1-0.4s0.4-0.6,0.4-1.1v-0.1c0-0.5-0.1-0.8-0.4-1.1c-0.2-0.2-0.6-0.4-1.1-0.4c-0.2,0-0.3,0-0.4,0.1
		c-0.1,0-0.2,0.1-0.3,0.1c-0.1,0.1-0.2,0.1-0.3,0.2s-0.2,0.1-0.2,0.2l-0.8-0.1l0.3-4h4v0.8H142.5z"/>
</g>
<path class="st5" d="M297.2,143.2h-7.3c-1.1,0-2-0.9-2-2v-7.3c0-1.1,0.9-2,2-2h7.3c1.1,0,2,0.9,2,2v7.3
	C299.2,142.3,298.4,143.2,297.2,143.2z"/>
<g class="st3">
	<path class="st4" d="M311.1,135.1L311.1,135.1l-0.6,1.2l-1.7,3l-1.7-3l-0.6-1.2h-0.1v5.9h-1v-7.3h1.3l2,3.8l0,0l2-3.8h1.2v7.3h-1
		v-5.9H311.1z"/>
	<path class="st4" d="M317.8,141c-0.3,0-0.5-0.1-0.7-0.2c-0.1-0.2-0.2-0.4-0.3-0.6h-0.1c-0.1,0.3-0.3,0.6-0.6,0.8
		c-0.3,0.2-0.6,0.3-1,0.3c-0.6,0-1-0.1-1.3-0.4s-0.5-0.7-0.5-1.2s0.2-0.9,0.6-1.2s1-0.4,1.7-0.4h1v-0.5c0-0.4-0.1-0.6-0.3-0.8
		c-0.2-0.2-0.5-0.3-0.9-0.3c-0.3,0-0.6,0.1-0.8,0.2c-0.2,0.1-0.4,0.3-0.5,0.6l-0.6-0.5c0.2-0.3,0.4-0.5,0.7-0.7
		c0.3-0.2,0.7-0.3,1.2-0.3c0.7,0,1.2,0.2,1.6,0.5s0.6,0.8,0.6,1.4v2.8h0.6v0.8h-0.4V141z M315.4,140.3c0.4,0,0.7-0.1,0.9-0.3
		c0.2-0.2,0.4-0.4,0.4-0.7v-0.8h-1c-0.4,0-0.8,0.1-1,0.2c-0.2,0.1-0.3,0.3-0.3,0.6v0.2c0,0.2,0.1,0.4,0.3,0.6
		C314.9,140.3,315.1,140.3,315.4,140.3z"/>
	<path class="st4" d="M319.5,141v-5.4h1v1h0.1c0-0.1,0.1-0.3,0.2-0.4c0.1-0.1,0.2-0.2,0.3-0.3s0.3-0.2,0.4-0.2
		c0.2-0.1,0.4-0.1,0.6-0.1h0.3v1h-0.5c-0.5,0-0.8,0.1-1,0.2c-0.2,0.2-0.4,0.4-0.4,0.6v3.5L319.5,141L319.5,141z"/>
	<path class="st4" d="M323.4,133.3h1v4.8h0.1l0.8-0.9l1.4-1.5h1.1l-1.9,2.1l2.2,3.3h-1.2l-1.7-2.7l-0.8,0.8v1.9h-1V133.3z"/>
	<path class="st4" d="M330.8,141.1c-0.4,0-0.7-0.1-1-0.2c-0.3-0.1-0.6-0.3-0.8-0.6c-0.2-0.2-0.4-0.5-0.5-0.9
		c-0.1-0.3-0.2-0.7-0.2-1.2c0-0.4,0.1-0.8,0.2-1.2c0.1-0.3,0.3-0.6,0.5-0.9c0.2-0.2,0.5-0.4,0.8-0.6s0.6-0.2,1-0.2s0.7,0.1,1,0.2
		c0.3,0.1,0.5,0.3,0.7,0.6c0.2,0.2,0.4,0.5,0.5,0.8s0.2,0.7,0.2,1v0.4h-3.8v0.2c0,0.5,0.1,0.8,0.4,1.1s0.6,0.4,1.1,0.4
		c0.3,0,0.6-0.1,0.9-0.2c0.2-0.2,0.4-0.4,0.6-0.6l0.6,0.5c-0.2,0.4-0.5,0.6-0.8,0.9C331.8,141,331.3,141.1,330.8,141.1z
		 M330.8,136.3c-0.2,0-0.4,0-0.6,0.1s-0.3,0.2-0.5,0.3c-0.1,0.1-0.2,0.3-0.3,0.5c-0.1,0.2-0.1,0.4-0.1,0.6v0.1h2.8v-0.1
		c0-0.4-0.1-0.8-0.4-1.1C331.5,136.4,331.2,136.3,330.8,136.3z"/>
	<path class="st4" d="M335.8,141c-0.3,0-0.6-0.1-0.8-0.3c-0.2-0.2-0.3-0.4-0.3-0.7v-3.5h-0.9v-0.8h0.5c0.2,0,0.3,0,0.4-0.1
		s0.1-0.2,0.1-0.4v-1h0.9v1.5h1.2v0.8h-1.2v3.7h1.1v0.8H335.8z"/>
	<path class="st4" d="M340.7,135.6h1v0.9l0,0c0.1-0.3,0.3-0.6,0.6-0.7c0.3-0.2,0.6-0.3,1-0.3c0.3,0,0.6,0.1,0.9,0.2
		c0.3,0.1,0.5,0.3,0.7,0.6c0.2,0.2,0.3,0.5,0.4,0.9c0.1,0.3,0.1,0.7,0.1,1.2s0,0.8-0.1,1.2c-0.1,0.3-0.2,0.6-0.4,0.9
		c-0.2,0.2-0.4,0.4-0.7,0.6c-0.3,0.1-0.6,0.2-0.9,0.2c-0.4,0-0.7-0.1-1-0.3s-0.5-0.4-0.6-0.7l0,0v3h-1V135.6z M342.9,140.3
		c0.4,0,0.8-0.1,1-0.4c0.3-0.3,0.4-0.6,0.4-1.1v-0.9c0-0.5-0.1-0.8-0.4-1.1s-0.6-0.4-1-0.4c-0.2,0-0.4,0-0.5,0.1
		c-0.2,0-0.3,0.1-0.4,0.2c-0.1,0.1-0.2,0.2-0.3,0.3c-0.1,0.1-0.1,0.3-0.1,0.4v2c0,0.1,0,0.3,0.1,0.4c0.1,0.1,0.2,0.2,0.3,0.3
		c0.1,0.1,0.3,0.2,0.4,0.2S342.8,140.3,342.9,140.3z"/>
	<path class="st4" d="M346.8,141v-5.4h1v1h0.1c0-0.1,0.1-0.3,0.2-0.4c0.1-0.1,0.2-0.2,0.3-0.3s0.3-0.2,0.4-0.2
		c0.2-0.1,0.4-0.1,0.6-0.1h0.3v1h-0.5c-0.5,0-0.8,0.1-1,0.2c-0.2,0.2-0.4,0.4-0.4,0.6v3.5L346.8,141L346.8,141z"/>
	<path class="st4" d="M351.1,134.5c-0.2,0-0.3,0-0.4-0.1s-0.1-0.2-0.1-0.4v-0.1c0-0.2,0-0.3,0.1-0.4c0.1-0.1,0.2-0.1,0.4-0.1
		s0.3,0,0.4,0.1s0.1,0.2,0.1,0.4v0.1c0,0.2,0,0.3-0.1,0.4C351.5,134.4,351.3,134.5,351.1,134.5z M350.7,135.6h1v5.4h-1V135.6z"/>
	<path class="st4" d="M355.4,141.1c-0.4,0-0.7-0.1-1-0.2c-0.3-0.1-0.6-0.3-0.8-0.6c-0.2-0.2-0.4-0.5-0.5-0.9
		c-0.1-0.3-0.2-0.7-0.2-1.2s0.1-0.8,0.2-1.2s0.3-0.6,0.5-0.9s0.5-0.4,0.8-0.6c0.3-0.1,0.6-0.2,1-0.2c0.5,0,1,0.1,1.3,0.4
		c0.3,0.2,0.6,0.5,0.7,0.9l-0.8,0.4c-0.1-0.3-0.2-0.5-0.5-0.6c-0.2-0.2-0.5-0.2-0.8-0.2c-0.5,0-0.8,0.1-1,0.4
		c-0.2,0.3-0.3,0.6-0.3,1.1v0.9c0,0.4,0.1,0.8,0.3,1.1c0.2,0.3,0.6,0.4,1,0.4c0.3,0,0.6-0.1,0.8-0.2c0.2-0.2,0.4-0.4,0.5-0.7
		l0.7,0.4c-0.2,0.4-0.4,0.7-0.8,1C356.3,141,355.9,141.1,355.4,141.1z"/>
	<path class="st4" d="M360.6,141.1c-0.4,0-0.7-0.1-1-0.2c-0.3-0.1-0.6-0.3-0.8-0.6c-0.2-0.2-0.4-0.5-0.5-0.9s-0.2-0.7-0.2-1.2
		c0-0.4,0.1-0.8,0.2-1.2c0.1-0.3,0.3-0.6,0.5-0.9c0.2-0.2,0.5-0.4,0.8-0.6s0.6-0.2,1-0.2s0.7,0.1,1,0.2c0.3,0.1,0.5,0.3,0.7,0.6
		c0.2,0.2,0.4,0.5,0.5,0.8s0.2,0.7,0.2,1v0.4h-3.8v0.2c0,0.5,0.1,0.8,0.4,1.1s0.6,0.4,1.1,0.4c0.3,0,0.6-0.1,0.9-0.2
		c0.2-0.2,0.4-0.4,0.6-0.6l0.6,0.5c-0.2,0.4-0.5,0.6-0.8,0.9C361.5,141,361.1,141.1,360.6,141.1z M360.6,136.3c-0.2,0-0.4,0-0.6,0.1
		s-0.3,0.2-0.5,0.3c-0.1,0.1-0.2,0.3-0.3,0.5c-0.1,0.2-0.1,0.4-0.1,0.6v0.1h2.8v-0.1c0-0.4-0.1-0.8-0.4-1.1
		C361.3,136.4,361,136.3,360.6,136.3z"/>
</g>
<g class="st3">
	<path class="st10" d="M200.5,133.5h3.1c0.6,0,1.1,0.2,1.4,0.5c0.3,0.3,0.5,0.8,0.5,1.4c0,0.3,0,0.5-0.1,0.7s-0.2,0.3-0.3,0.5
		c-0.1,0.1-0.2,0.2-0.4,0.3c-0.1,0.1-0.3,0.1-0.4,0.1v0.1c0.1,0,0.3,0,0.5,0.1s0.3,0.2,0.5,0.3s0.3,0.3,0.4,0.5
		c0.1,0.2,0.2,0.5,0.2,0.8s0,0.6-0.1,0.8c-0.1,0.3-0.2,0.5-0.4,0.7s-0.4,0.3-0.6,0.4c-0.2,0.1-0.5,0.2-0.7,0.2h-3.4v-7.4H200.5z
		 M201.5,136.6h1.9c0.3,0,0.6-0.1,0.7-0.2c0.2-0.2,0.3-0.4,0.3-0.7v-0.3c0-0.3-0.1-0.5-0.3-0.7s-0.4-0.2-0.7-0.2h-1.9V136.6z
		 M201.5,139.8h2.1c0.3,0,0.6-0.1,0.8-0.3s0.3-0.4,0.3-0.8v-0.4c0-0.3-0.1-0.6-0.3-0.8s-0.5-0.3-0.8-0.3h-2.1V139.8z"/>
	<path class="st10" d="M207.8,134.2c-0.2,0-0.3,0-0.4-0.1c-0.1-0.1-0.1-0.2-0.1-0.4v-0.1c0-0.2,0-0.3,0.1-0.4
		c0.1-0.1,0.2-0.1,0.4-0.1s0.3,0,0.4,0.1c0.1,0.1,0.1,0.2,0.1,0.4v0.1c0,0.2,0,0.3-0.1,0.4C208.1,134.2,208,134.2,207.8,134.2z
		 M207.3,135.3h1v5.4h-1V135.3z"/>
	<path class="st10" d="M213.4,139.8L213.4,139.8c-0.2,0.3-0.4,0.6-0.6,0.7c-0.3,0.2-0.6,0.3-1,0.3c-0.3,0-0.6-0.1-0.9-0.2
		c-0.3-0.1-0.5-0.3-0.7-0.6c-0.2-0.2-0.3-0.5-0.4-0.9c-0.1-0.3-0.1-0.7-0.1-1.2s0-0.8,0.1-1.2c0.1-0.3,0.2-0.6,0.4-0.9
		c0.2-0.2,0.4-0.4,0.7-0.6c0.3-0.1,0.6-0.2,0.9-0.2c0.4,0,0.7,0.1,1,0.3s0.5,0.4,0.6,0.7l0,0v-3h1v7.7h-1V139.8z M212.1,140
		c0.2,0,0.4,0,0.5-0.1s0.3-0.1,0.4-0.2c0.1-0.1,0.2-0.2,0.3-0.3s0.1-0.3,0.1-0.4v-2c0-0.1,0-0.3-0.1-0.4c-0.1-0.1-0.2-0.2-0.3-0.3
		s-0.3-0.2-0.4-0.2c-0.2,0-0.3-0.1-0.5-0.1c-0.4,0-0.8,0.1-1,0.4s-0.4,0.6-0.4,1.1v0.9c0,0.5,0.1,0.8,0.4,1.1
		C211.3,139.9,211.6,140,212.1,140z"/>
	<path class="st10" d="M257.5,140.7l-0.7-2H254l-0.7,2h-1l2.5-7.3h1.3l2.5,7.3H257.5z M255.4,134.4L255.4,134.4l-1.2,3.4h2.3
		L255.4,134.4z"/>
	<path class="st10" d="M261.3,140.8c-0.5,0-0.9-0.1-1.3-0.3c-0.3-0.2-0.6-0.4-0.9-0.8l0.7-0.6c0.2,0.3,0.4,0.5,0.7,0.6
		s0.5,0.2,0.9,0.2c0.3,0,0.6-0.1,0.8-0.2c0.2-0.1,0.3-0.3,0.3-0.6c0-0.2-0.1-0.4-0.2-0.5s-0.3-0.2-0.7-0.3l-0.5-0.1
		c-0.3,0-0.5-0.1-0.7-0.2c-0.2-0.1-0.4-0.2-0.6-0.3s-0.3-0.3-0.4-0.5s-0.1-0.4-0.1-0.6c0-0.3,0-0.5,0.1-0.7s0.2-0.4,0.4-0.5
		c0.2-0.1,0.4-0.2,0.6-0.3s0.5-0.1,0.8-0.1c0.5,0,0.8,0.1,1.1,0.2c0.3,0.2,0.6,0.4,0.8,0.6l-0.6,0.6c-0.1-0.2-0.3-0.3-0.5-0.5
		c-0.2-0.1-0.5-0.2-0.8-0.2s-0.6,0.1-0.7,0.2c-0.2,0.1-0.2,0.3-0.2,0.6c0,0.2,0.1,0.4,0.2,0.5c0.2,0.1,0.4,0.2,0.7,0.2l0.5,0.1
		c0.6,0.1,1,0.3,1.3,0.5c0.3,0.3,0.4,0.6,0.4,1c0,0.5-0.2,0.9-0.6,1.2C262.4,140.7,261.9,140.8,261.3,140.8z"/>
	<path class="st10" d="M264.7,133h1v4.8h0.1l0.8-0.9l1.4-1.5h1.1l-1.9,2.1l2.2,3.3h-1.2l-1.7-2.7l-0.8,0.8v1.9h-1V133z"/>
</g>
<g class="st3">
	<path class="st4" d="M32.9,171.3l-0.7-2h-2.8l-0.7,2h-1l2.5-7.3h1.3l2.5,7.3H32.9z M30.8,164.9L30.8,164.9l-1.2,3.4H32L30.8,164.9z
		"/>
	<path class="st4" d="M35.1,171.3v-5.4h1v0.9h0.1c0.1-0.3,0.3-0.5,0.5-0.7s0.5-0.3,0.9-0.3s0.7,0.1,1,0.3s0.5,0.4,0.7,0.8l0,0
		c0.1-0.3,0.3-0.5,0.6-0.8s0.6-0.3,1.1-0.3s1,0.2,1.3,0.5c0.3,0.4,0.5,0.9,0.5,1.5v3.4h-1v-3.3c0-0.5-0.1-0.8-0.3-1
		s-0.5-0.3-0.8-0.3c-0.2,0-0.3,0-0.5,0.1c-0.1,0-0.3,0.1-0.4,0.2c-0.1,0.1-0.2,0.2-0.3,0.3s-0.1,0.3-0.1,0.4v3.7h-1V168
		c0-0.9-0.4-1.4-1.1-1.4c-0.2,0-0.3,0-0.4,0.1c-0.1,0-0.3,0.1-0.4,0.2c-0.1,0.1-0.2,0.2-0.3,0.3s-0.1,0.3-0.1,0.4v3.7L35.1,171.3
		L35.1,171.3z"/>
	<path class="st4" d="M46.2,171.4c-0.4,0-0.7-0.1-1-0.2c-0.3-0.1-0.6-0.3-0.8-0.6c-0.2-0.2-0.4-0.5-0.5-0.9
		c-0.1-0.3-0.2-0.7-0.2-1.2s0.1-0.8,0.2-1.2c0.1-0.3,0.3-0.6,0.5-0.9c0.2-0.2,0.5-0.4,0.8-0.6s0.6-0.2,1-0.2s0.7,0.1,1,0.2
		c0.3,0.1,0.6,0.3,0.8,0.6c0.2,0.2,0.4,0.5,0.5,0.9c0.1,0.3,0.2,0.7,0.2,1.2s-0.1,0.8-0.2,1.2c-0.1,0.3-0.3,0.6-0.5,0.9
		c-0.2,0.2-0.5,0.4-0.8,0.6C47,171.3,46.6,171.4,46.2,171.4z M46.2,170.5c0.4,0,0.8-0.1,1-0.4c0.3-0.3,0.4-0.7,0.4-1.2v-0.8
		c0-0.5-0.1-0.9-0.4-1.2c-0.3-0.3-0.6-0.4-1-0.4s-0.8,0.1-1,0.4s-0.4,0.7-0.4,1.2v0.8c0,0.5,0.1,0.9,0.4,1.2S45.8,170.5,46.2,170.5z
		"/>
	<path class="st4" d="M53.3,170.4L53.3,170.4c-0.1,0.1-0.2,0.3-0.2,0.4c-0.1,0.1-0.2,0.2-0.3,0.3s-0.3,0.2-0.4,0.2
		c-0.2,0.1-0.4,0.1-0.6,0.1c-0.6,0-1-0.2-1.3-0.5c-0.3-0.4-0.5-0.9-0.5-1.5V166h1v3.3c0,0.9,0.4,1.4,1.1,1.4c0.2,0,0.3,0,0.5-0.1
		c0.1,0,0.3-0.1,0.4-0.2c0.1-0.1,0.2-0.2,0.3-0.3s0.1-0.3,0.1-0.4V166h1v5.4h-1L53.3,170.4L53.3,170.4z"/>
	<path class="st4" d="M56,171.3v-5.4h1v0.9l0,0c0.1-0.3,0.3-0.5,0.5-0.7s0.6-0.3,1-0.3c0.6,0,1,0.2,1.3,0.5c0.3,0.4,0.5,0.9,0.5,1.5
		v3.4h-1v-3.3c0-0.9-0.4-1.4-1.1-1.4c-0.2,0-0.3,0-0.5,0.1c-0.1,0-0.3,0.1-0.4,0.2c-0.1,0.1-0.2,0.2-0.3,0.3s-0.1,0.3-0.1,0.4v3.7
		H56V171.3z"/>
	<path class="st4" d="M63.3,171.3c-0.3,0-0.6-0.1-0.8-0.3s-0.3-0.4-0.3-0.7v-3.5h-0.9V166h0.5c0.2,0,0.3,0,0.4-0.1s0.1-0.2,0.1-0.4
		v-1h0.9v1.5h1.2v0.8h-1.2v3.7h1.1v0.8H63.3z"/>
	<path class="st4" d="M66.4,167.2c-0.2,0-0.4-0.1-0.5-0.2c-0.1-0.1-0.2-0.3-0.2-0.5v-0.2c0-0.2,0.1-0.3,0.2-0.5
		c0.1-0.1,0.3-0.2,0.5-0.2s0.4,0.1,0.5,0.2s0.2,0.3,0.2,0.5v0.2c0,0.2-0.1,0.3-0.2,0.5C66.8,167.1,66.6,167.2,66.4,167.2z
		 M66.4,171.4c-0.2,0-0.4-0.1-0.5-0.2c-0.1-0.1-0.2-0.3-0.2-0.5v-0.2c0-0.2,0.1-0.3,0.2-0.5c0.1-0.1,0.3-0.2,0.5-0.2
		s0.4,0.1,0.5,0.2c0.1,0.1,0.2,0.3,0.2,0.5v0.2c0,0.2-0.1,0.3-0.2,0.5C66.8,171.3,66.6,171.4,66.4,171.4z"/>
</g>
<path class="st5" d="M362,182H91.7c-1.1,0-2-0.9-2-2v-22.4c0-1.1,0.9-2,2-2H362c1.1,0,2,0.9,2,2V180C364,181.1,363.1,182,362,182z"
	/>
<g class="st3">
	<path class="st4" d="M103.4,172.3c-0.4,0-0.8-0.1-1.1-0.3c-0.3-0.2-0.6-0.4-0.8-0.7c-0.2-0.3-0.4-0.7-0.5-1.2s-0.2-1-0.2-1.6
		s0.1-1.1,0.2-1.6s0.3-0.9,0.5-1.2s0.5-0.6,0.8-0.7c0.3-0.2,0.7-0.3,1.1-0.3c0.9,0,1.5,0.3,1.9,1s0.6,1.6,0.6,2.8s-0.2,2.1-0.6,2.8
		S104.3,172.3,103.4,172.3z M103.4,171.4c0.3,0,0.5-0.1,0.7-0.2s0.3-0.3,0.5-0.5c0.1-0.2,0.2-0.4,0.3-0.7c0.1-0.3,0.1-0.6,0.1-0.9
		V168c0-0.3,0-0.6-0.1-0.9c-0.1-0.3-0.1-0.5-0.3-0.7c-0.1-0.2-0.3-0.4-0.5-0.5s-0.4-0.2-0.7-0.2s-0.5,0.1-0.7,0.2
		c-0.2,0.1-0.3,0.3-0.5,0.5c-0.1,0.2-0.2,0.4-0.3,0.7c-0.1,0.3-0.1,0.6-0.1,0.9v1.2c0,0.3,0,0.6,0.1,0.9c0.1,0.3,0.1,0.5,0.3,0.7
		c0.1,0.2,0.3,0.4,0.5,0.5S103.1,171.4,103.4,171.4z"/>
	<path class="st4" d="M108,172.3c-0.2,0-0.4-0.1-0.5-0.2c-0.1-0.1-0.2-0.3-0.2-0.5v-0.2c0-0.2,0.1-0.3,0.2-0.5
		c0.1-0.1,0.3-0.2,0.5-0.2s0.4,0.1,0.5,0.2c0.1,0.1,0.2,0.3,0.2,0.5v0.2c0,0.2-0.1,0.3-0.2,0.5S108.2,172.3,108,172.3z"/>
	<path class="st4" d="M114.6,165.8h-3.2l-0.2,2.7h0.1c0.2-0.3,0.4-0.5,0.6-0.6c0.2-0.2,0.5-0.2,0.9-0.2c0.3,0,0.6,0.1,0.9,0.2
		c0.3,0.1,0.5,0.3,0.7,0.4c0.2,0.2,0.3,0.4,0.5,0.7s0.2,0.6,0.2,1s-0.1,0.7-0.2,1s-0.3,0.6-0.5,0.8s-0.5,0.4-0.8,0.5
		s-0.7,0.2-1.1,0.2c-0.3,0-0.6,0-0.8-0.1c-0.2-0.1-0.5-0.2-0.6-0.3c-0.2-0.1-0.4-0.3-0.5-0.4c-0.1-0.2-0.3-0.3-0.4-0.5l0.7-0.6
		c0.1,0.1,0.2,0.3,0.3,0.4c0.1,0.1,0.2,0.2,0.3,0.3c0.1,0.1,0.3,0.1,0.4,0.2c0.2,0,0.3,0.1,0.6,0.1c0.5,0,0.8-0.1,1.1-0.4
		s0.4-0.6,0.4-1.1V170c0-0.5-0.1-0.8-0.4-1.1c-0.2-0.2-0.6-0.4-1.1-0.4c-0.2,0-0.3,0-0.4,0.1c-0.1,0-0.2,0.1-0.3,0.1
		c-0.1,0.1-0.2,0.1-0.3,0.2c-0.1,0.1-0.2,0.1-0.2,0.2l-0.8-0.1l0.3-4h4v0.8H114.6z"/>
</g>
<g>
	<path class="st10" d="M122.6,193h-3.2l-0.2,2.7h0.1c0.2-0.3,0.4-0.5,0.6-0.6c0.2-0.2,0.5-0.2,0.9-0.2c0.3,0,0.6,0.1,0.9,0.2
		c0.3,0.1,0.5,0.3,0.7,0.4c0.2,0.2,0.3,0.4,0.5,0.7c0.1,0.3,0.2,0.6,0.2,0.9c0,0.4-0.1,0.7-0.2,1s-0.3,0.6-0.5,0.8s-0.5,0.4-0.8,0.5
		s-0.7,0.2-1.1,0.2c-0.3,0-0.6,0-0.8-0.1c-0.2-0.1-0.5-0.2-0.6-0.3c-0.2-0.1-0.4-0.3-0.5-0.4c-0.1-0.2-0.3-0.3-0.4-0.5l0.7-0.6
		c0.1,0.1,0.2,0.3,0.3,0.4c0.1,0.1,0.2,0.2,0.3,0.3c0.1,0.1,0.3,0.1,0.4,0.2c0.2,0,0.3,0.1,0.6,0.1c0.5,0,0.8-0.1,1.1-0.4
		c0.2-0.2,0.4-0.6,0.4-1.1v-0.1c0-0.5-0.1-0.8-0.4-1.1c-0.2-0.2-0.6-0.4-1.1-0.4c-0.2,0-0.3,0-0.4,0.1c-0.1,0-0.2,0.1-0.3,0.1
		c-0.1,0.1-0.2,0.1-0.3,0.2c-0.1,0.1-0.2,0.1-0.2,0.2l-0.8-0.1l0.3-4h4v0.9L122.6,193L122.6,193z"/>
	<path class="st10" d="M125.9,196.1c-0.5,0-1-0.2-1.3-0.5s-0.4-0.9-0.4-1.5c0-0.7,0.1-1.2,0.4-1.5c0.3-0.4,0.7-0.5,1.3-0.5
		c0.5,0,1,0.2,1.3,0.5s0.4,0.9,0.4,1.5c0,0.7-0.1,1.2-0.4,1.5C126.9,195.9,126.4,196.1,125.9,196.1z M125.9,195.5
		c0.6,0,0.8-0.4,0.8-1.1v-0.6c0-0.8-0.3-1.1-0.8-1.1c-0.6,0-0.8,0.4-0.8,1.1v0.6C125.1,195.1,125.4,195.5,125.9,195.5z M125.5,199.4
		l5-7.3h0.9l-5,7.3H125.5z M131,199.5c-0.5,0-1-0.2-1.3-0.5s-0.4-0.9-0.4-1.5c0-0.7,0.1-1.2,0.4-1.5c0.3-0.3,0.7-0.5,1.3-0.5
		s1,0.2,1.3,0.5c0.3,0.4,0.4,0.9,0.4,1.5c0,0.7-0.1,1.2-0.4,1.5C131.9,199.3,131.5,199.5,131,199.5z M131,198.9
		c0.6,0,0.8-0.4,0.8-1.1v-0.6c0-0.8-0.3-1.1-0.8-1.1s-0.8,0.4-0.8,1.1v0.6C130.2,198.5,130.4,198.9,131,198.9z"/>
	<path class="st10" d="M156.3,199.4v-0.9h2v-5.6h-0.1l-1.8,1.7l-0.6-0.6l1.9-1.9h1.6v6.4h1.8v0.9L156.3,199.4L156.3,199.4z"/>
	<path class="st10" d="M164.8,199.5c-0.4,0-0.8-0.1-1.1-0.3s-0.6-0.4-0.8-0.7s-0.4-0.7-0.5-1.2s-0.2-1-0.2-1.6s0.1-1.1,0.2-1.6
		c0.1-0.5,0.3-0.9,0.5-1.2s0.5-0.6,0.8-0.7c0.3-0.2,0.7-0.3,1.1-0.3c0.9,0,1.5,0.3,1.9,1s0.6,1.6,0.6,2.8s-0.2,2.1-0.6,2.8
		C166.3,199.1,165.7,199.5,164.8,199.5z M164.8,198.6c0.3,0,0.5-0.1,0.7-0.2c0.2-0.1,0.3-0.3,0.5-0.5c0.1-0.2,0.2-0.4,0.3-0.7
		s0.1-0.6,0.1-0.9v-1.2c0-0.3,0-0.6-0.1-0.9c-0.1-0.3-0.1-0.5-0.3-0.7c-0.1-0.2-0.3-0.3-0.5-0.5c-0.2-0.1-0.4-0.2-0.7-0.2
		s-0.5,0.1-0.7,0.2c-0.2,0.1-0.3,0.3-0.5,0.5c-0.1,0.2-0.2,0.4-0.3,0.7s-0.1,0.6-0.1,0.9v1.2c0,0.3,0,0.6,0.1,0.9
		c0.1,0.3,0.1,0.5,0.3,0.7c0.1,0.2,0.3,0.4,0.5,0.5C164.3,198.5,164.5,198.6,164.8,198.6z"/>
	<path class="st10" d="M170.2,196.1c-0.5,0-1-0.2-1.3-0.5s-0.4-0.9-0.4-1.5c0-0.7,0.1-1.2,0.4-1.5c0.3-0.4,0.7-0.5,1.3-0.5
		s1,0.2,1.3,0.5s0.4,0.9,0.4,1.5c0,0.7-0.1,1.2-0.4,1.5C171.2,195.9,170.8,196.1,170.2,196.1z M170.2,195.5c0.6,0,0.8-0.4,0.8-1.1
		v-0.6c0-0.8-0.3-1.1-0.8-1.1c-0.6,0-0.8,0.4-0.8,1.1v0.6C169.4,195.1,169.7,195.5,170.2,195.5z M169.8,199.4l5-7.3h0.9l-5,7.3
		H169.8z M175.3,199.5c-0.5,0-1-0.2-1.3-0.5s-0.4-0.9-0.4-1.5c0-0.7,0.1-1.2,0.4-1.5c0.3-0.3,0.7-0.5,1.3-0.5s1,0.2,1.3,0.5
		c0.3,0.4,0.4,0.9,0.4,1.5c0,0.7-0.1,1.2-0.4,1.5C176.3,199.3,175.9,199.5,175.3,199.5z M175.3,198.9c0.6,0,0.8-0.4,0.8-1.1v-0.6
		c0-0.8-0.3-1.1-0.8-1.1s-0.8,0.4-0.8,1.1v0.6C174.5,198.5,174.8,198.9,175.3,198.9z"/>
	<path class="st10" d="M200.6,199.4v-0.9h2v-5.6h-0.1l-1.8,1.7l-0.6-0.6l1.9-1.9h1.6v6.4h1.8v0.9L200.6,199.4L200.6,199.4z"/>
	<path class="st10" d="M211.2,193H208l-0.2,2.7h0.1c0.2-0.3,0.4-0.5,0.6-0.6c0.2-0.2,0.5-0.2,0.9-0.2c0.3,0,0.6,0.1,0.9,0.2
		c0.3,0.1,0.5,0.3,0.7,0.4c0.2,0.2,0.3,0.4,0.5,0.7c0.1,0.3,0.2,0.6,0.2,0.9c0,0.4-0.1,0.7-0.2,1c-0.1,0.3-0.3,0.6-0.5,0.8
		s-0.5,0.4-0.8,0.5s-0.7,0.2-1.1,0.2c-0.3,0-0.6,0-0.8-0.1s-0.5-0.2-0.6-0.3c-0.2-0.1-0.3-0.3-0.5-0.4c-0.1-0.2-0.3-0.3-0.4-0.5
		l0.7-0.6c0.1,0.1,0.2,0.3,0.3,0.4c0.1,0.1,0.2,0.2,0.3,0.3s0.3,0.1,0.4,0.2c0.2,0,0.3,0.1,0.6,0.1c0.5,0,0.8-0.1,1.1-0.4
		c0.2-0.2,0.4-0.6,0.4-1.1v-0.1c0-0.5-0.1-0.8-0.4-1.1c-0.2-0.2-0.6-0.4-1.1-0.4c-0.2,0-0.3,0-0.4,0.1c-0.1,0-0.2,0.1-0.3,0.1
		c-0.1,0.1-0.2,0.1-0.3,0.2c-0.1,0.1-0.2,0.1-0.2,0.2l-0.8-0.1l0.3-4h4v0.9L211.2,193L211.2,193z"/>
	<path class="st10" d="M214.6,196.1c-0.5,0-1-0.2-1.3-0.5s-0.4-0.9-0.4-1.5c0-0.7,0.1-1.2,0.4-1.5c0.3-0.4,0.7-0.5,1.3-0.5
		c0.5,0,1,0.2,1.3,0.5s0.4,0.9,0.4,1.5c0,0.7-0.1,1.2-0.4,1.5C215.5,195.9,215.1,196.1,214.6,196.1z M214.6,195.5
		c0.6,0,0.8-0.4,0.8-1.1v-0.6c0-0.8-0.3-1.1-0.8-1.1s-0.8,0.4-0.8,1.1v0.6C213.7,195.1,214,195.5,214.6,195.5z M214.1,199.4l5-7.3
		h0.9l-5,7.3H214.1z M219.7,199.5c-0.5,0-1-0.2-1.3-0.5s-0.4-0.9-0.4-1.5c0-0.7,0.1-1.2,0.4-1.5c0.3-0.3,0.7-0.5,1.3-0.5
		c0.5,0,1,0.2,1.3,0.5c0.3,0.4,0.4,0.9,0.4,1.5c0,0.7-0.1,1.2-0.4,1.5C220.6,199.3,220.2,199.5,219.7,199.5z M219.7,198.9
		c0.6,0,0.8-0.4,0.8-1.1v-0.6c0-0.8-0.3-1.1-0.8-1.1s-0.8,0.4-0.8,1.1v0.6C218.8,198.5,219.1,198.9,219.7,198.9z"/>
	<path class="st10" d="M249.7,199.4h-4.8v-1l2.3-2.1c0.4-0.3,0.6-0.6,0.9-1s0.3-0.7,0.3-1v-0.1c0-0.4-0.1-0.7-0.3-0.9
		s-0.5-0.3-0.9-0.3c-0.2,0-0.4,0-0.6,0.1s-0.3,0.1-0.4,0.3c-0.1,0.1-0.2,0.2-0.3,0.4c-0.1,0.1-0.1,0.3-0.2,0.5l-0.9-0.3
		c0.1-0.2,0.2-0.4,0.3-0.6c0.1-0.2,0.3-0.4,0.5-0.6s0.4-0.3,0.7-0.4c0.3-0.1,0.6-0.1,0.9-0.1c0.4,0,0.7,0.1,1,0.2
		c0.3,0.1,0.5,0.3,0.7,0.4c0.2,0.2,0.3,0.4,0.4,0.7c0.1,0.3,0.2,0.5,0.2,0.9c0,0.3,0,0.6-0.1,0.8s-0.2,0.5-0.4,0.7s-0.3,0.4-0.5,0.6
		c-0.2,0.2-0.4,0.4-0.7,0.6l-1.8,1.6h3.7L249.7,199.4L249.7,199.4z"/>
	<path class="st10" d="M255.6,193h-3.2l-0.2,2.7h0.1c0.2-0.3,0.4-0.5,0.6-0.6c0.2-0.2,0.5-0.2,0.9-0.2c0.3,0,0.6,0.1,0.9,0.2
		c0.3,0.1,0.5,0.3,0.7,0.4c0.2,0.2,0.3,0.4,0.5,0.7c0.1,0.3,0.2,0.6,0.2,0.9c0,0.4-0.1,0.7-0.2,1c-0.1,0.3-0.3,0.6-0.5,0.8
		s-0.5,0.4-0.8,0.5s-0.7,0.2-1.1,0.2c-0.3,0-0.6,0-0.8-0.1s-0.5-0.2-0.6-0.3c-0.2-0.1-0.3-0.3-0.5-0.4c-0.1-0.2-0.3-0.3-0.4-0.5
		l0.7-0.6c0.1,0.1,0.2,0.3,0.3,0.4c0.1,0.1,0.2,0.2,0.3,0.3s0.3,0.1,0.4,0.2c0.2,0,0.3,0.1,0.6,0.1c0.5,0,0.8-0.1,1.1-0.4
		c0.2-0.2,0.4-0.6,0.4-1.1v-0.1c0-0.5-0.1-0.8-0.4-1.1c-0.2-0.2-0.6-0.4-1.1-0.4c-0.2,0-0.3,0-0.4,0.1c-0.1,0-0.2,0.1-0.3,0.1
		c-0.1,0.1-0.2,0.1-0.3,0.2c-0.1,0.1-0.2,0.1-0.2,0.2l-0.8-0.1l0.3-4h4v0.9L255.6,193L255.6,193z"/>
	<path class="st10" d="M258.9,196.1c-0.5,0-1-0.2-1.3-0.5s-0.4-0.9-0.4-1.5c0-0.7,0.1-1.2,0.4-1.5c0.3-0.4,0.7-0.5,1.3-0.5
		c0.5,0,1,0.2,1.3,0.5s0.4,0.9,0.4,1.5c0,0.7-0.1,1.2-0.4,1.5C259.9,195.9,259.5,196.1,258.9,196.1z M258.9,195.5
		c0.6,0,0.8-0.4,0.8-1.1v-0.6c0-0.8-0.3-1.1-0.8-1.1c-0.6,0-0.8,0.4-0.8,1.1v0.6C258.1,195.1,258.4,195.5,258.9,195.5z M258.5,199.4
		l5-7.3h0.9l-5,7.3H258.5z M264,199.5c-0.5,0-1-0.2-1.3-0.5s-0.4-0.9-0.4-1.5c0-0.7,0.1-1.2,0.4-1.5s0.7-0.5,1.3-0.5
		c0.5,0,1,0.2,1.3,0.5c0.3,0.4,0.4,0.9,0.4,1.5c0,0.7-0.1,1.2-0.4,1.5C264.9,199.3,264.5,199.5,264,199.5z M264,198.9
		c0.6,0,0.8-0.4,0.8-1.1v-0.6c0-0.8-0.3-1.1-0.8-1.1c-0.6,0-0.8,0.4-0.8,1.1v0.6C263.2,198.5,263.4,198.9,264,198.9z"/>
	<path class="st10" d="M293.7,193h-3.2l-0.2,2.7h0.1c0.2-0.3,0.4-0.5,0.6-0.6c0.2-0.2,0.5-0.2,0.9-0.2c0.3,0,0.6,0.1,0.9,0.2
		c0.3,0.1,0.5,0.3,0.7,0.4c0.2,0.2,0.3,0.4,0.5,0.7c0.1,0.3,0.2,0.6,0.2,0.9c0,0.4-0.1,0.7-0.2,1s-0.3,0.6-0.5,0.8s-0.5,0.4-0.8,0.5
		s-0.7,0.2-1.1,0.2c-0.3,0-0.6,0-0.8-0.1c-0.2-0.1-0.5-0.2-0.6-0.3c-0.2-0.1-0.3-0.3-0.5-0.4c-0.1-0.2-0.3-0.3-0.4-0.5l0.7-0.6
		c0.1,0.1,0.2,0.3,0.3,0.4c0.1,0.1,0.2,0.2,0.3,0.3c0.1,0.1,0.3,0.1,0.4,0.2c0.2,0,0.3,0.1,0.6,0.1c0.5,0,0.8-0.1,1.1-0.4
		c0.2-0.2,0.4-0.6,0.4-1.1v-0.1c0-0.5-0.1-0.8-0.4-1.1c-0.2-0.2-0.6-0.4-1.1-0.4c-0.2,0-0.3,0-0.4,0.1c-0.1,0-0.2,0.1-0.3,0.1
		c-0.1,0.1-0.2,0.1-0.3,0.2c-0.1,0.1-0.2,0.1-0.2,0.2l-0.8-0.1l0.3-4h4v0.9L293.7,193L293.7,193z"/>
	<path class="st10" d="M297.8,199.5c-0.4,0-0.8-0.1-1.1-0.3c-0.3-0.2-0.6-0.4-0.8-0.7c-0.2-0.3-0.4-0.7-0.5-1.2s-0.2-1-0.2-1.6
		s0.1-1.1,0.2-1.6s0.3-0.9,0.5-1.2s0.5-0.6,0.8-0.7c0.3-0.2,0.7-0.3,1.1-0.3c0.9,0,1.5,0.3,1.9,1s0.6,1.6,0.6,2.8s-0.2,2.1-0.6,2.8
		C299.3,199.1,298.7,199.5,297.8,199.5z M297.8,198.6c0.3,0,0.5-0.1,0.7-0.2c0.2-0.1,0.3-0.3,0.5-0.5c0.1-0.2,0.2-0.4,0.3-0.7
		c0.1-0.3,0.1-0.6,0.1-0.9v-1.2c0-0.3,0-0.6-0.1-0.9c-0.1-0.3-0.1-0.5-0.3-0.7c-0.1-0.2-0.3-0.3-0.5-0.5c-0.2-0.1-0.4-0.2-0.7-0.2
		s-0.5,0.1-0.7,0.2c-0.2,0.1-0.3,0.3-0.5,0.5c-0.1,0.2-0.2,0.4-0.3,0.7c-0.1,0.3-0.1,0.6-0.1,0.9v1.2c0,0.3,0,0.6,0.1,0.9
		c0.1,0.3,0.1,0.5,0.3,0.7c0.1,0.2,0.3,0.4,0.5,0.5C297.3,198.5,297.5,198.6,297.8,198.6z"/>
	<path class="st10" d="M303.2,196.1c-0.5,0-1-0.2-1.3-0.5s-0.4-0.9-0.4-1.5c0-0.7,0.1-1.2,0.4-1.5c0.3-0.4,0.7-0.5,1.3-0.5
		c0.5,0,1,0.2,1.3,0.5s0.4,0.9,0.4,1.5c0,0.7-0.1,1.2-0.4,1.5C304.2,195.9,303.8,196.1,303.2,196.1z M303.2,195.5
		c0.6,0,0.8-0.4,0.8-1.1v-0.6c0-0.8-0.3-1.1-0.8-1.1c-0.6,0-0.8,0.4-0.8,1.1v0.6C302.4,195.1,302.7,195.5,303.2,195.5z M302.8,199.4
		l5-7.3h0.9l-5,7.3H302.8z M308.3,199.5c-0.5,0-1-0.2-1.3-0.5s-0.4-0.9-0.4-1.5c0-0.7,0.1-1.2,0.4-1.5s0.7-0.5,1.3-0.5
		c0.5,0,1,0.2,1.3,0.5c0.3,0.4,0.4,0.9,0.4,1.5c0,0.7-0.1,1.2-0.4,1.5S308.9,199.5,308.3,199.5z M308.3,198.9c0.6,0,0.8-0.4,0.8-1.1
		v-0.6c0-0.8-0.3-1.1-0.8-1.1s-0.8,0.4-0.8,1.1v0.6C307.5,198.5,307.8,198.9,308.3,198.9z"/>
	<path class="st10" d="M333.7,199.4v-0.9h2v-5.6h-0.1l-1.8,1.7l-0.6-0.6l1.9-1.9h1.6v6.4h1.8v0.9L333.7,199.4L333.7,199.4z"/>
	<path class="st10" d="M342.1,199.5c-0.4,0-0.8-0.1-1.1-0.3c-0.3-0.2-0.6-0.4-0.8-0.7c-0.2-0.3-0.4-0.7-0.5-1.2s-0.2-1-0.2-1.6
		s0.1-1.1,0.2-1.6s0.3-0.9,0.5-1.2s0.5-0.6,0.8-0.7c0.3-0.2,0.7-0.3,1.1-0.3c0.9,0,1.5,0.3,1.9,1s0.6,1.6,0.6,2.8s-0.2,2.1-0.6,2.8
		C343.6,199.1,343,199.5,342.1,199.5z M342.1,198.6c0.3,0,0.5-0.1,0.7-0.2c0.2-0.1,0.3-0.3,0.5-0.5c0.1-0.2,0.2-0.4,0.3-0.7
		c0.1-0.3,0.1-0.6,0.1-0.9v-1.2c0-0.3,0-0.6-0.1-0.9c-0.1-0.3-0.1-0.5-0.3-0.7c-0.1-0.2-0.3-0.3-0.5-0.5c-0.2-0.1-0.4-0.2-0.7-0.2
		c-0.3,0-0.5,0.1-0.7,0.2c-0.2,0.1-0.3,0.3-0.5,0.5c-0.1,0.2-0.2,0.4-0.3,0.7c-0.1,0.3-0.1,0.6-0.1,0.9v1.2c0,0.3,0,0.6,0.1,0.9
		c0.1,0.3,0.1,0.5,0.3,0.7c0.1,0.2,0.3,0.4,0.5,0.5C341.6,198.5,341.8,198.6,342.1,198.6z"/>
	<path class="st10" d="M348.4,199.5c-0.4,0-0.8-0.1-1.1-0.3c-0.3-0.2-0.6-0.4-0.8-0.7c-0.2-0.3-0.4-0.7-0.5-1.2s-0.2-1-0.2-1.6
		s0.1-1.1,0.2-1.6s0.3-0.9,0.5-1.2s0.5-0.6,0.8-0.7c0.3-0.2,0.7-0.3,1.1-0.3c0.9,0,1.5,0.3,1.9,1s0.6,1.6,0.6,2.8s-0.2,2.1-0.6,2.8
		C349.9,199.1,349.2,199.5,348.4,199.5z M348.4,198.6c0.3,0,0.5-0.1,0.7-0.2c0.2-0.1,0.3-0.3,0.5-0.5c0.1-0.2,0.2-0.4,0.3-0.7
		c0.1-0.3,0.1-0.6,0.1-0.9v-1.2c0-0.3,0-0.6-0.1-0.9c-0.1-0.3-0.1-0.5-0.3-0.7c-0.1-0.2-0.3-0.3-0.5-0.5c-0.2-0.1-0.4-0.2-0.7-0.2
		c-0.3,0-0.5,0.1-0.7,0.2c-0.2,0.1-0.3,0.3-0.5,0.5c-0.1,0.2-0.2,0.4-0.3,0.7c-0.1,0.3-0.1,0.6-0.1,0.9v1.2c0,0.3,0,0.6,0.1,0.9
		c0.1,0.3,0.1,0.5,0.3,0.7c0.1,0.2,0.3,0.4,0.5,0.5C347.9,198.5,348.1,198.6,348.4,198.6z"/>
	<path class="st10" d="M353.8,196.1c-0.5,0-1-0.2-1.3-0.5s-0.4-0.9-0.4-1.5c0-0.7,0.1-1.2,0.4-1.5c0.3-0.4,0.7-0.5,1.3-0.5
		c0.5,0,1,0.2,1.3,0.5s0.4,0.9,0.4,1.5c0,0.7-0.1,1.2-0.4,1.5C354.8,195.9,354.4,196.1,353.8,196.1z M353.8,195.5
		c0.6,0,0.8-0.4,0.8-1.1v-0.6c0-0.8-0.3-1.1-0.8-1.1c-0.6,0-0.8,0.4-0.8,1.1v0.6C353,195.1,353.3,195.5,353.8,195.5z M353.4,199.4
		l5-7.3h0.9l-5,7.3H353.4z M358.9,199.5c-0.5,0-1-0.2-1.3-0.5s-0.4-0.9-0.4-1.5c0-0.7,0.1-1.2,0.4-1.5s0.7-0.5,1.3-0.5
		c0.5,0,1,0.2,1.3,0.5c0.3,0.4,0.4,0.9,0.4,1.5c0,0.7-0.1,1.2-0.4,1.5S359.4,199.5,358.9,199.5z M358.9,198.9c0.6,0,0.8-0.4,0.8-1.1
		v-0.6c0-0.8-0.3-1.1-0.8-1.1c-0.6,0-0.8,0.4-0.8,1.1v0.6C358.1,198.5,358.3,198.9,358.9,198.9z"/>
</g>
<g class="st3">
	<path class="st4" d="M30.9,227.3v6.4h-1v-6.4h-2.2v-0.9h5.5v0.9H30.9z"/>
	<path class="st4" d="M35.7,233.8c-0.4,0-0.7-0.1-1-0.2c-0.3-0.1-0.6-0.3-0.8-0.6c-0.2-0.2-0.4-0.5-0.5-0.9
		c-0.1-0.3-0.2-0.7-0.2-1.2s0.1-0.8,0.2-1.2c0.1-0.3,0.3-0.6,0.5-0.9c0.2-0.2,0.5-0.4,0.8-0.6s0.6-0.2,1-0.2s0.7,0.1,1,0.2
		c0.3,0.1,0.6,0.3,0.8,0.6c0.2,0.2,0.4,0.5,0.5,0.9c0.1,0.3,0.2,0.7,0.2,1.2s-0.1,0.8-0.2,1.2c-0.1,0.3-0.3,0.6-0.5,0.9
		c-0.2,0.2-0.5,0.4-0.8,0.6C36.4,233.7,36,233.8,35.7,233.8z M35.7,233c0.4,0,0.8-0.1,1-0.4c0.3-0.3,0.4-0.7,0.4-1.2v-0.8
		c0-0.5-0.1-0.9-0.4-1.2c-0.3-0.3-0.6-0.4-1-0.4s-0.8,0.1-1,0.4s-0.4,0.7-0.4,1.2v0.8c0,0.5,0.1,0.9,0.4,1.2S35.3,233,35.7,233z"/>
	<path class="st4" d="M40.8,233.7c-0.3,0-0.6-0.1-0.8-0.3s-0.3-0.4-0.3-0.7v-3.5h-0.9v-0.8h0.5c0.2,0,0.3,0,0.4-0.1s0.1-0.2,0.1-0.4
		v-1h0.9v1.5h1.2v0.8h-1.2v3.7h1.1v0.8H40.8z"/>
	<path class="st4" d="M47.1,233.7c-0.3,0-0.5-0.1-0.7-0.2c-0.1-0.2-0.2-0.4-0.3-0.6H46c-0.1,0.3-0.3,0.6-0.6,0.8s-0.6,0.3-1,0.3
		c-0.6,0-1-0.1-1.3-0.4c-0.3-0.3-0.5-0.7-0.5-1.2s0.2-0.9,0.6-1.2c0.4-0.3,1-0.4,1.7-0.4h1v-0.5c0-0.4-0.1-0.6-0.3-0.8
		s-0.5-0.3-0.9-0.3c-0.3,0-0.6,0.1-0.8,0.2c-0.2,0.1-0.4,0.3-0.5,0.6l-0.6-0.5c0.2-0.3,0.4-0.5,0.7-0.7s0.7-0.3,1.2-0.3
		c0.7,0,1.2,0.2,1.6,0.5c0.4,0.3,0.6,0.8,0.6,1.4v2.8h0.6v0.8h-0.4V233.7z M44.7,233c0.4,0,0.7-0.1,0.9-0.3s0.4-0.4,0.4-0.7v-0.8h-1
		c-0.4,0-0.8,0.1-1,0.2s-0.3,0.3-0.3,0.6v0.2c0,0.2,0.1,0.4,0.3,0.6C44.2,232.9,44.4,233,44.7,233z"/>
	<path class="st4" d="M49.8,233.7c-0.3,0-0.6-0.1-0.8-0.3s-0.3-0.4-0.3-0.7V226h1v6.9h0.8v0.8H49.8z"/>
	<path class="st4" d="M52.4,229.6c-0.2,0-0.4-0.1-0.5-0.2c-0.1-0.1-0.2-0.3-0.2-0.5v-0.2c0-0.2,0.1-0.3,0.2-0.5
		c0.1-0.1,0.3-0.2,0.5-0.2s0.4,0.1,0.5,0.2s0.2,0.3,0.2,0.5v0.2c0,0.2-0.1,0.3-0.2,0.5C52.8,229.5,52.6,229.6,52.4,229.6z
		 M52.4,233.8c-0.2,0-0.4-0.1-0.5-0.2c-0.1-0.1-0.2-0.3-0.2-0.5V233c0-0.2,0.1-0.3,0.2-0.5c0.1-0.1,0.3-0.2,0.5-0.2s0.4,0.1,0.5,0.2
		c0.1,0.1,0.2,0.3,0.2,0.5v0.2c0,0.2-0.1,0.3-0.2,0.5C52.8,233.7,52.6,233.8,52.4,233.8z"/>
</g>
<path class="st5" d="M362,244.4H91.7c-1.1,0-2-0.9-2-2V220c0-1.1,0.9-2,2-2H362c1.1,0,2,0.9,2,2v22.4
	C364,243.5,363.1,244.4,362,244.4z"/>
<g class="st3">
	<path class="st4" d="M103,230.4c0.5,0,0.8-0.1,1.1-0.3c0.2-0.2,0.3-0.5,0.3-0.8v-0.1c0-0.4-0.1-0.6-0.3-0.8
		c-0.2-0.2-0.5-0.3-0.9-0.3s-0.7,0.1-0.9,0.2c-0.2,0.2-0.4,0.4-0.6,0.7l-0.7-0.6c0.1-0.2,0.2-0.3,0.4-0.4s0.3-0.3,0.5-0.4
		c0.2-0.1,0.4-0.2,0.6-0.3s0.5-0.1,0.8-0.1s0.6,0,0.9,0.1s0.5,0.2,0.7,0.4s0.4,0.4,0.5,0.6c0.1,0.2,0.2,0.5,0.2,0.8
		c0,0.2,0,0.4-0.1,0.6s-0.2,0.3-0.3,0.5c-0.1,0.1-0.3,0.3-0.4,0.3c-0.2,0.1-0.4,0.2-0.5,0.2l0,0c0.2,0,0.4,0.1,0.6,0.2
		c0.2,0.1,0.3,0.2,0.5,0.4c0.1,0.2,0.3,0.3,0.3,0.5c0.1,0.2,0.1,0.4,0.1,0.7s-0.1,0.6-0.2,0.9c-0.1,0.3-0.3,0.5-0.5,0.7
		s-0.5,0.3-0.8,0.4c-0.3,0.1-0.7,0.2-1,0.2s-0.6,0-0.9-0.1s-0.5-0.2-0.7-0.3s-0.4-0.3-0.5-0.4c-0.1-0.2-0.3-0.3-0.4-0.5l0.8-0.6
		c0.2,0.3,0.4,0.5,0.6,0.7s0.6,0.3,1,0.3c0.5,0,0.8-0.1,1.1-0.3c0.3-0.2,0.4-0.5,0.4-0.9v-0.1c0-0.4-0.1-0.7-0.4-0.9
		s-0.6-0.3-1.1-0.3h-0.8v-0.9L103,230.4L103,230.4z"/>
	<path class="st4" d="M108,233.3c0.2,0,0.4,0.1,0.5,0.2c0.1,0.1,0.2,0.3,0.2,0.5v0.2c0,0.3-0.1,0.6-0.3,1c-0.2,0.4-0.4,0.7-0.7,0.9
		h-0.8c0.2-0.2,0.4-0.4,0.5-0.6s0.2-0.4,0.3-0.7c-0.2,0-0.3-0.1-0.3-0.2c-0.1-0.1-0.1-0.2-0.1-0.4V234c0-0.2,0.1-0.4,0.2-0.5
		C107.6,233.4,107.7,233.3,108,233.3z"/>
	<path class="st4" d="M112.5,234.7c-0.4,0-0.8-0.1-1.1-0.3c-0.3-0.2-0.6-0.4-0.8-0.7c-0.2-0.3-0.4-0.7-0.5-1.2s-0.2-1-0.2-1.6
		s0.1-1.1,0.2-1.6s0.3-0.9,0.5-1.2s0.5-0.6,0.8-0.7c0.3-0.2,0.7-0.3,1.1-0.3c0.9,0,1.5,0.3,1.9,1s0.6,1.6,0.6,2.8s-0.2,2.1-0.6,2.8
		C114.1,234.4,113.4,234.7,112.5,234.7z M112.5,233.8c0.3,0,0.5-0.1,0.7-0.2s0.3-0.3,0.5-0.5c0.1-0.2,0.2-0.4,0.3-0.7
		c0.1-0.3,0.1-0.6,0.1-0.9v-1.2c0-0.3,0-0.6-0.1-0.9c-0.1-0.3-0.1-0.5-0.3-0.7c-0.1-0.2-0.3-0.4-0.5-0.5s-0.4-0.2-0.7-0.2
		s-0.5,0.1-0.7,0.2c-0.2,0.1-0.3,0.3-0.5,0.5c-0.1,0.2-0.2,0.4-0.3,0.7c-0.1,0.3-0.1,0.6-0.1,0.9v1.2c0,0.3,0,0.6,0.1,0.9
		c0.1,0.3,0.1,0.5,0.3,0.7c0.1,0.2,0.3,0.4,0.5,0.5C112,233.8,112.3,233.8,112.5,233.8z"/>
	<path class="st4" d="M120.9,228.2h-3.2l-0.2,2.7h0.1c0.2-0.3,0.4-0.5,0.6-0.6c0.2-0.2,0.5-0.2,0.9-0.2c0.3,0,0.6,0.1,0.9,0.2
		c0.3,0.1,0.5,0.3,0.7,0.4c0.2,0.2,0.3,0.4,0.5,0.7s0.2,0.6,0.2,1s-0.1,0.7-0.2,1s-0.3,0.6-0.5,0.8s-0.5,0.4-0.8,0.5
		s-0.7,0.2-1.1,0.2c-0.3,0-0.6,0-0.8-0.1c-0.2-0.1-0.5-0.2-0.6-0.3c-0.2-0.1-0.4-0.3-0.5-0.4c-0.1-0.2-0.3-0.3-0.4-0.5l0.7-0.6
		c0.1,0.1,0.2,0.3,0.3,0.4c0.1,0.1,0.2,0.2,0.3,0.3c0.1,0.1,0.3,0.1,0.4,0.2c0.2,0,0.3,0.1,0.6,0.1c0.5,0,0.8-0.1,1.1-0.4
		s0.4-0.6,0.4-1.1v-0.1c0-0.5-0.1-0.8-0.4-1.1c-0.2-0.2-0.6-0.4-1.1-0.4c-0.2,0-0.3,0-0.4,0.1c-0.1,0-0.2,0.1-0.3,0.1
		c-0.1,0.1-0.2,0.1-0.3,0.2c-0.1,0.1-0.2,0.1-0.2,0.2l-0.8-0.1l0.3-4h4v0.8H120.9z"/>
	<path class="st4" d="M125,234.7c-0.4,0-0.8-0.1-1.1-0.3c-0.3-0.2-0.6-0.4-0.8-0.7c-0.2-0.3-0.4-0.7-0.5-1.2s-0.2-1-0.2-1.6
		s0.1-1.1,0.2-1.6s0.3-0.9,0.5-1.2s0.5-0.6,0.8-0.7c0.3-0.2,0.7-0.3,1.1-0.3c0.9,0,1.5,0.3,1.9,1s0.6,1.6,0.6,2.8s-0.2,2.1-0.6,2.8
		S125.9,234.7,125,234.7z M125,233.8c0.3,0,0.5-0.1,0.7-0.2s0.3-0.3,0.5-0.5c0.1-0.2,0.2-0.4,0.3-0.7c0.1-0.3,0.1-0.6,0.1-0.9v-1.2
		c0-0.3,0-0.6-0.1-0.9c-0.1-0.3-0.1-0.5-0.3-0.7c-0.1-0.2-0.3-0.4-0.5-0.5s-0.4-0.2-0.7-0.2s-0.5,0.1-0.7,0.2
		c-0.2,0.1-0.3,0.3-0.5,0.5c-0.1,0.2-0.2,0.4-0.3,0.7c-0.1,0.3-0.1,0.6-0.1,0.9v1.2c0,0.3,0,0.6,0.1,0.9c0.1,0.3,0.1,0.5,0.3,0.7
		c0.1,0.2,0.3,0.4,0.5,0.5C124.5,233.8,124.7,233.8,125,233.8z"/>
	<path class="st4" d="M129.6,234.7c-0.2,0-0.4-0.1-0.5-0.2c-0.1-0.1-0.2-0.3-0.2-0.5v-0.2c0-0.2,0.1-0.3,0.2-0.5
		c0.1-0.1,0.3-0.2,0.5-0.2s0.4,0.1,0.5,0.2c0.1,0.1,0.2,0.3,0.2,0.5v0.2c0,0.2-0.1,0.3-0.2,0.5C130,234.7,129.8,234.7,129.6,234.7z"
		/>
	<path class="st4" d="M131.9,234.6v-0.9h2v-5.6h-0.1l-1.8,1.7l-0.6-0.6l1.9-1.9h1.6v6.4h1.8v0.9L131.9,234.6L131.9,234.6z"/>
	<path class="st4" d="M142.8,234.6H138v-1l2.3-2.1c0.4-0.3,0.6-0.6,0.9-1c0.2-0.3,0.3-0.7,0.3-1v-0.1c0-0.4-0.1-0.7-0.3-0.9
		s-0.5-0.3-0.9-0.3c-0.2,0-0.4,0-0.6,0.1c-0.2,0.1-0.3,0.1-0.4,0.2c-0.1,0.1-0.2,0.2-0.3,0.4c-0.1,0.1-0.1,0.3-0.2,0.5l-0.9-0.3
		c0.1-0.2,0.2-0.4,0.3-0.6c0.1-0.2,0.3-0.4,0.5-0.6c0.2-0.2,0.4-0.3,0.7-0.4c0.3-0.1,0.6-0.1,0.9-0.1c0.4,0,0.7,0.1,1,0.2
		c0.3,0.1,0.5,0.2,0.7,0.4s0.3,0.4,0.4,0.7s0.2,0.5,0.2,0.9c0,0.3,0,0.6-0.1,0.8s-0.2,0.5-0.4,0.7s-0.3,0.4-0.5,0.6
		c-0.2,0.2-0.4,0.4-0.7,0.6l-1.8,1.6h3.7L142.8,234.6L142.8,234.6z"/>
	<path class="st4" d="M148.7,228.2h-3.2l-0.2,2.7h0.1c0.2-0.3,0.4-0.5,0.6-0.6c0.2-0.2,0.5-0.2,0.9-0.2c0.3,0,0.6,0.1,0.9,0.2
		c0.3,0.1,0.5,0.3,0.7,0.4c0.2,0.2,0.3,0.4,0.5,0.7s0.2,0.6,0.2,1s-0.1,0.7-0.2,1c-0.1,0.3-0.3,0.6-0.5,0.8s-0.5,0.4-0.8,0.5
		s-0.7,0.2-1.1,0.2c-0.3,0-0.6,0-0.8-0.1s-0.5-0.2-0.6-0.3c-0.2-0.1-0.4-0.3-0.5-0.4c-0.1-0.2-0.3-0.3-0.4-0.5l0.7-0.6
		c0.1,0.1,0.2,0.3,0.3,0.4c0.1,0.1,0.2,0.2,0.3,0.3s0.3,0.1,0.4,0.2c0.2,0,0.3,0.1,0.6,0.1c0.5,0,0.8-0.1,1.1-0.4s0.4-0.6,0.4-1.1
		v-0.1c0-0.5-0.1-0.8-0.4-1.1c-0.2-0.2-0.6-0.4-1.1-0.4c-0.2,0-0.3,0-0.4,0.1c-0.1,0-0.2,0.1-0.3,0.1c-0.1,0.1-0.2,0.1-0.3,0.2
		c-0.1,0.1-0.2,0.1-0.2,0.2l-0.8-0.1l0.3-4h4v0.8H148.7z"/>
</g>
<g class="st3">
	<path class="st7" d="M334.8,165.1h3.1c0.6,0,1.1,0.2,1.4,0.5s0.5,0.8,0.5,1.4c0,0.3,0,0.5-0.1,0.7s-0.2,0.3-0.3,0.5
		c-0.1,0.1-0.2,0.2-0.4,0.3c-0.1,0.1-0.3,0.1-0.4,0.1v0.1c0.1,0,0.3,0,0.5,0.1s0.3,0.2,0.5,0.3s0.3,0.3,0.4,0.5s0.2,0.5,0.2,0.8
		s0,0.6-0.1,0.8c-0.1,0.3-0.2,0.5-0.4,0.7c-0.2,0.2-0.4,0.3-0.6,0.4c-0.2,0.1-0.5,0.2-0.7,0.2H335v-7.4H334.8z M335.8,168.2h1.9
		c0.3,0,0.6-0.1,0.7-0.2c0.2-0.2,0.3-0.4,0.3-0.7V167c0-0.3-0.1-0.5-0.3-0.7c-0.2-0.2-0.4-0.2-0.7-0.2h-1.9V168.2z M335.8,171.5h2.1
		c0.3,0,0.6-0.1,0.8-0.3c0.2-0.2,0.3-0.4,0.3-0.8V170c0-0.3-0.1-0.6-0.3-0.8c-0.2-0.2-0.5-0.3-0.8-0.3h-2.1V171.5z"/>
	<path class="st7" d="M343.9,166v6.4h-1V166h-2.2v-0.9h5.5v0.9H343.9z"/>
	<path class="st7" d="M349.7,172.5c-0.9,0-1.7-0.3-2.2-1c-0.5-0.6-0.8-1.6-0.8-2.8s0.3-2.2,0.8-2.8s1.3-1,2.2-1
		c0.6,0,1.1,0.1,1.6,0.4s0.7,0.7,1,1.2l-0.8,0.5c-0.1-0.4-0.3-0.6-0.6-0.9s-0.6-0.3-1.1-0.3c-0.6,0-1.1,0.2-1.4,0.6
		c-0.3,0.4-0.5,1-0.5,1.7v1.1c0,0.7,0.2,1.3,0.5,1.7s0.8,0.6,1.4,0.6c0.5,0,0.8-0.1,1.1-0.3c0.3-0.2,0.5-0.5,0.6-0.9l0.8,0.5
		c-0.2,0.5-0.6,0.9-1,1.2S350.4,172.5,349.7,172.5z"/>
</g>
<g class="st3">
	<path class="st7" d="M331,227.5v4.5c0,0.3,0,0.6,0.1,0.9c0.1,0.3,0.1,0.5,0.3,0.6s0.3,0.3,0.5,0.4c0.2,0.1,0.5,0.1,0.8,0.1
		c0.6,0,1-0.2,1.3-0.5s0.4-0.8,0.4-1.5v-4.5h1v4.3c0,0.5,0,1-0.1,1.4s-0.3,0.7-0.5,1s-0.5,0.4-0.8,0.6c-0.3,0.1-0.8,0.2-1.3,0.2
		s-0.9-0.1-1.2-0.2c-0.3-0.1-0.6-0.3-0.8-0.6c-0.2-0.3-0.4-0.6-0.4-1c-0.1-0.4-0.1-0.8-0.1-1.4v-4.3H331z"/>
	<path class="st7" d="M339.2,234.9c-0.6,0-1.1-0.1-1.5-0.3s-0.8-0.5-1.1-0.9l0.7-0.6c0.3,0.3,0.5,0.6,0.8,0.8s0.7,0.3,1.1,0.3
		c0.5,0,0.9-0.1,1.1-0.3c0.3-0.2,0.4-0.5,0.4-0.9c0-0.3-0.1-0.6-0.3-0.7c-0.2-0.2-0.5-0.3-1-0.4l-0.6-0.1c-0.7-0.1-1.2-0.4-1.6-0.7
		s-0.5-0.8-0.5-1.3c0-0.3,0.1-0.6,0.2-0.9s0.3-0.5,0.5-0.6c0.2-0.2,0.5-0.3,0.8-0.4c0.3-0.1,0.6-0.1,1-0.1c0.5,0,1,0.1,1.4,0.3
		s0.7,0.5,1,0.9l-0.7,0.6c-0.2-0.3-0.4-0.5-0.7-0.6c-0.3-0.2-0.6-0.2-1-0.2s-0.8,0.1-1,0.3s-0.4,0.5-0.4,0.8s0.1,0.6,0.3,0.7
		c0.2,0.2,0.5,0.3,1,0.4l0.6,0.1c0.7,0.2,1.2,0.4,1.6,0.7c0.3,0.3,0.5,0.8,0.5,1.3c0,0.3-0.1,0.6-0.2,0.9c-0.1,0.3-0.3,0.5-0.5,0.7
		s-0.5,0.3-0.8,0.4C340,234.9,339.6,234.9,339.2,234.9z"/>
	<path class="st7" d="M343.3,227.5h2.5c0.5,0,0.9,0.1,1.2,0.2c0.4,0.2,0.7,0.4,1,0.7s0.5,0.7,0.6,1.1c0.1,0.5,0.2,1,0.2,1.6
		s-0.1,1.1-0.2,1.6s-0.3,0.8-0.6,1.1c-0.3,0.3-0.6,0.5-1,0.7s-0.8,0.2-1.2,0.2h-2.5V227.5z M345.7,233.9c0.3,0,0.6,0,0.8-0.1
		c0.2-0.1,0.4-0.2,0.6-0.4s0.3-0.4,0.4-0.7s0.1-0.6,0.1-0.9v-1.2c0-0.3,0-0.7-0.1-0.9c-0.1-0.3-0.2-0.5-0.4-0.7
		c-0.2-0.2-0.4-0.3-0.6-0.4c-0.2-0.1-0.5-0.1-0.8-0.1h-1.5v5.5h1.5V233.9z"/>
	<path class="st7" d="M352.6,228.4v6.4h-1v-6.4h-2.2v-0.9h5.5v0.9H352.6z"/>
</g>
<path class="st5" d="M37.2,280.3h-7.3c-1.1,0-2-0.9-2-2V271c0-1.1,0.9-2,2-2h7.3c1.1,0,2,0.9,2,2v7.3
	C39.2,279.4,38.3,280.3,37.2,280.3z"/>
<g class="st3">
	<path class="st4" d="M46.4,270.9v4.5c0,0.3,0,0.6,0.1,0.9s0.1,0.5,0.3,0.6s0.3,0.3,0.5,0.4s0.5,0.1,0.8,0.1c0.6,0,1-0.2,1.3-0.5
		s0.4-0.8,0.4-1.5v-4.5h1v4.3c0,0.5,0,1-0.1,1.4s-0.3,0.7-0.5,1s-0.5,0.4-0.8,0.6s-0.8,0.2-1.3,0.2s-0.9-0.1-1.2-0.2
		s-0.6-0.3-0.8-0.6c-0.2-0.3-0.4-0.6-0.4-1c-0.1-0.4-0.1-0.8-0.1-1.4v-4.3H46.4z"/>
	<path class="st4" d="M54.1,278.2c-0.5,0-0.9-0.1-1.3-0.3s-0.6-0.4-0.9-0.8l0.7-0.6c0.2,0.3,0.4,0.5,0.7,0.6s0.5,0.2,0.9,0.2
		c0.3,0,0.6-0.1,0.8-0.2s0.3-0.3,0.3-0.6c0-0.2-0.1-0.4-0.2-0.5c-0.1-0.1-0.3-0.2-0.7-0.3l-0.5-0.1c-0.3,0-0.5-0.1-0.7-0.2
		s-0.4-0.2-0.6-0.3c-0.2-0.1-0.3-0.3-0.4-0.5c-0.1-0.2-0.1-0.4-0.1-0.6c0-0.3,0-0.5,0.1-0.7s0.2-0.4,0.4-0.5s0.4-0.2,0.6-0.3
		s0.5-0.1,0.8-0.1c0.5,0,0.8,0.1,1.1,0.2s0.6,0.4,0.8,0.6l-0.6,0.6c-0.1-0.2-0.3-0.3-0.5-0.5c-0.2-0.1-0.5-0.2-0.8-0.2
		s-0.6,0.1-0.7,0.2c-0.2,0.1-0.2,0.3-0.2,0.6c0,0.2,0.1,0.4,0.2,0.5c0.2,0.1,0.4,0.2,0.7,0.2l0.5,0.1c0.6,0.1,1,0.3,1.3,0.5
		c0.3,0.3,0.4,0.6,0.4,1c0,0.5-0.2,0.9-0.6,1.2C55.2,278.1,54.7,278.2,54.1,278.2z"/>
	<path class="st4" d="M59.6,278.2c-0.4,0-0.7-0.1-1-0.2s-0.6-0.3-0.8-0.6c-0.2-0.2-0.4-0.5-0.5-0.9c-0.1-0.3-0.2-0.7-0.2-1.2
		c0-0.4,0.1-0.8,0.2-1.2c0.1-0.3,0.3-0.6,0.5-0.9c0.2-0.2,0.5-0.4,0.8-0.6s0.6-0.2,1-0.2s0.7,0.1,1,0.2s0.5,0.3,0.7,0.6
		c0.2,0.2,0.4,0.5,0.5,0.8s0.2,0.7,0.2,1v0.4h-3.8v0.2c0,0.5,0.1,0.8,0.4,1.1c0.3,0.3,0.6,0.4,1.1,0.4c0.3,0,0.6-0.1,0.9-0.2
		c0.2-0.2,0.4-0.4,0.6-0.6l0.6,0.5c-0.2,0.4-0.5,0.6-0.8,0.9S60.1,278.2,59.6,278.2z M59.6,273.4c-0.2,0-0.4,0-0.6,0.1
		c-0.2,0.1-0.3,0.2-0.5,0.3c-0.1,0.1-0.2,0.3-0.3,0.5s-0.1,0.4-0.1,0.6v0.1h2.8v-0.1c0-0.4-0.1-0.8-0.4-1.1
		C60.3,273.5,60,273.4,59.6,273.4z"/>
	<path class="st4" d="M67,278.1c-0.3,0-0.6-0.1-0.8-0.3c-0.2-0.2-0.3-0.4-0.3-0.7v-3.5H65v-0.8h0.5c0.2,0,0.3,0,0.4-0.1
		s0.1-0.2,0.1-0.4v-1h1v1.5h1.2v0.8H67v3.7h1.1v0.8H67z"/>
	<path class="st4" d="M69.4,278.1v-5.4h1v1h0.1c0-0.1,0.1-0.3,0.2-0.4s0.2-0.2,0.3-0.3c0.1-0.1,0.3-0.2,0.4-0.2
		c0.2-0.1,0.4-0.1,0.6-0.1h0.3v1h-0.5c-0.5,0-0.8,0.1-1,0.2c-0.2,0.2-0.4,0.4-0.4,0.6v3.5L69.4,278.1L69.4,278.1z"/>
	<path class="st4" d="M77.2,278.1c-0.3,0-0.5-0.1-0.7-0.2c-0.1-0.2-0.2-0.4-0.3-0.6h-0.1c-0.1,0.3-0.3,0.6-0.6,0.8
		c-0.3,0.2-0.6,0.3-1,0.3c-0.6,0-1-0.1-1.3-0.4s-0.5-0.7-0.5-1.2s0.2-0.9,0.6-1.2c0.4-0.3,1-0.4,1.7-0.4h1v-0.5
		c0-0.4-0.1-0.6-0.3-0.8c-0.2-0.2-0.5-0.3-0.9-0.3c-0.3,0-0.6,0.1-0.8,0.2c-0.2,0.1-0.4,0.3-0.5,0.6l-0.6-0.5
		c0.2-0.3,0.4-0.5,0.7-0.7c0.3-0.2,0.7-0.3,1.2-0.3c0.7,0,1.2,0.2,1.6,0.5s0.6,0.8,0.6,1.4v2.8h0.6v0.8h-0.4V278.1z M74.9,277.5
		c0.4,0,0.7-0.1,0.9-0.3c0.2-0.2,0.4-0.4,0.4-0.7v-0.8h-1c-0.4,0-0.8,0.1-1,0.2s-0.3,0.3-0.3,0.6v0.2c0,0.2,0.1,0.4,0.3,0.6
		C74.3,277.4,74.5,277.5,74.9,277.5z"/>
	<path class="st4" d="M79.4,271.6c-0.2,0-0.3,0-0.4-0.1s-0.1-0.2-0.1-0.4V271c0-0.2,0-0.3,0.1-0.4s0.2-0.1,0.4-0.1s0.3,0,0.4,0.1
		s0.1,0.2,0.1,0.4v0.1c0,0.2,0,0.3-0.1,0.4C79.7,271.6,79.6,271.6,79.4,271.6z M78.9,272.7h1v5.4h-1V272.7z"/>
	<path class="st4" d="M82.6,278.1c-0.3,0-0.6-0.1-0.8-0.3s-0.3-0.4-0.3-0.7v-6.7h1v6.9h0.8v0.8L82.6,278.1L82.6,278.1z"/>
	<path class="st4" d="M85,271.6c-0.2,0-0.3,0-0.4-0.1s-0.1-0.2-0.1-0.4V271c0-0.2,0-0.3,0.1-0.4s0.2-0.1,0.4-0.1s0.3,0,0.4,0.1
		s0.1,0.2,0.1,0.4v0.1c0,0.2,0,0.3-0.1,0.4S85.2,271.6,85,271.6z M84.5,272.7h1v5.4h-1V272.7z"/>
	<path class="st4" d="M87.1,278.1v-5.4h1v0.9h0.1c0.1-0.3,0.3-0.5,0.5-0.7s0.6-0.3,1-0.3c0.6,0,1,0.2,1.3,0.5
		c0.3,0.4,0.5,0.9,0.5,1.5v3.4h-1v-3.3c0-0.9-0.4-1.4-1.1-1.4c-0.2,0-0.3,0-0.5,0.1c-0.1,0-0.3,0.1-0.4,0.2s-0.2,0.2-0.3,0.3
		c-0.1,0.1-0.1,0.3-0.1,0.4v3.7L87.1,278.1L87.1,278.1z"/>
	<path class="st4" d="M97.7,278.7c0,0.6-0.2,1-0.6,1.3s-1.1,0.4-2,0.4s-1.5-0.1-1.8-0.3c-0.4-0.2-0.6-0.6-0.6-1
		c0-0.3,0.1-0.5,0.2-0.7c0.2-0.2,0.4-0.3,0.7-0.4v-0.1c-0.4-0.1-0.5-0.4-0.5-0.8c0-0.3,0.1-0.5,0.3-0.6s0.4-0.3,0.7-0.3l0,0
		c-0.3-0.2-0.6-0.4-0.7-0.6c-0.2-0.3-0.3-0.6-0.3-1c0-0.3,0-0.5,0.1-0.7s0.2-0.4,0.4-0.6c0.2-0.2,0.4-0.3,0.7-0.4
		c0.3-0.1,0.5-0.1,0.9-0.1c0.2,0,0.4,0,0.5,0.1c0.2,0,0.3,0.1,0.5,0.1v-0.1c0-0.2,0.1-0.4,0.2-0.5s0.3-0.2,0.5-0.2h0.8v0.8h-1.1v0.3
		c0.5,0.3,0.7,0.8,0.7,1.4c0,0.3,0,0.5-0.1,0.7s-0.2,0.4-0.4,0.6s-0.4,0.3-0.7,0.4c-0.3,0.1-0.5,0.1-0.9,0.1c-0.1,0-0.2,0-0.3,0
		c-0.1,0-0.2,0-0.3,0c-0.2,0-0.3,0.1-0.4,0.2s-0.2,0.2-0.2,0.4c0,0.2,0.1,0.3,0.2,0.3c0.1,0.1,0.3,0.1,0.6,0.1H96
		c0.7,0,1.1,0.1,1.5,0.4C97.6,277.9,97.7,278.2,97.7,278.7z M96.8,278.8c0-0.2-0.1-0.4-0.2-0.5c-0.2-0.1-0.4-0.2-0.8-0.2H94
		c-0.3,0.2-0.4,0.4-0.4,0.7c0,0.2,0.1,0.4,0.3,0.6c0.2,0.2,0.5,0.2,0.9,0.2h0.7c0.5,0,0.8-0.1,1.1-0.2
		C96.7,279.2,96.8,279,96.8,278.8z M95,275.6c0.3,0,0.6-0.1,0.8-0.2c0.2-0.2,0.3-0.4,0.3-0.7v-0.3c0-0.3-0.1-0.6-0.3-0.7
		c-0.2-0.2-0.5-0.2-0.8-0.2s-0.6,0.1-0.8,0.2c-0.2,0.2-0.3,0.4-0.3,0.7v0.3c0,0.3,0.1,0.6,0.3,0.7S94.7,275.6,95,275.6z"/>
	<path class="st4" d="M102.4,278.1c-0.3,0-0.6-0.1-0.8-0.3c-0.2-0.2-0.3-0.4-0.3-0.7v-3.5h-0.9v-0.8h0.5c0.2,0,0.3,0,0.4-0.1
		s0.1-0.2,0.1-0.4v-1h0.9v1.5h1.2v0.8h-1.2v3.7h1.1v0.8H102.4z"/>
	<path class="st4" d="M108.7,278.1c-0.3,0-0.5-0.1-0.7-0.2c-0.1-0.2-0.2-0.4-0.3-0.6h-0.1c-0.1,0.3-0.3,0.6-0.6,0.8
		c-0.3,0.2-0.6,0.3-1,0.3c-0.6,0-1-0.1-1.3-0.4s-0.5-0.7-0.5-1.2s0.2-0.9,0.6-1.2c0.4-0.3,1-0.4,1.7-0.4h1v-0.5
		c0-0.4-0.1-0.6-0.3-0.8c-0.2-0.2-0.5-0.3-0.9-0.3c-0.3,0-0.6,0.1-0.8,0.2c-0.2,0.1-0.4,0.3-0.5,0.6l-0.6-0.5
		c0.2-0.3,0.4-0.5,0.7-0.7c0.3-0.2,0.7-0.3,1.2-0.3c0.7,0,1.2,0.2,1.6,0.5s0.6,0.8,0.6,1.4v2.8h0.6v0.8h-0.4V278.1z M106.4,277.5
		c0.4,0,0.7-0.1,0.9-0.3c0.2-0.2,0.4-0.4,0.4-0.7v-0.8h-1c-0.4,0-0.8,0.1-1,0.2s-0.3,0.3-0.3,0.6v0.2c0,0.2,0.1,0.4,0.3,0.6
		C105.8,277.4,106.1,277.5,106.4,277.5z"/>
	<path class="st4" d="M110.4,270.4h1v4.8h0.1l0.8-0.9l1.4-1.5h1.1l-1.9,2.1l2.2,3.3h-1.2l-1.7-2.7l-0.8,0.8v1.9h-1V270.4z"/>
	<path class="st4" d="M117.9,278.2c-0.4,0-0.7-0.1-1-0.2s-0.6-0.3-0.8-0.6c-0.2-0.2-0.4-0.5-0.5-0.9c-0.1-0.3-0.2-0.7-0.2-1.2
		c0-0.4,0.1-0.8,0.2-1.2c0.1-0.3,0.3-0.6,0.5-0.9c0.2-0.2,0.5-0.4,0.8-0.6s0.6-0.2,1-0.2s0.7,0.1,1,0.2s0.5,0.3,0.7,0.6
		c0.2,0.2,0.4,0.5,0.5,0.8s0.2,0.7,0.2,1v0.4h-3.8v0.2c0,0.5,0.1,0.8,0.4,1.1c0.3,0.3,0.6,0.4,1.1,0.4c0.3,0,0.6-0.1,0.9-0.2
		c0.2-0.2,0.4-0.4,0.6-0.6l0.6,0.5c-0.2,0.4-0.5,0.6-0.8,0.9S118.4,278.2,117.9,278.2z M117.9,273.4c-0.2,0-0.4,0-0.6,0.1
		s-0.3,0.2-0.5,0.3c-0.1,0.1-0.2,0.3-0.3,0.5c-0.1,0.2-0.1,0.4-0.1,0.6v0.1h2.8v-0.1c0-0.4-0.1-0.8-0.4-1.1
		C118.6,273.5,118.3,273.4,117.9,273.4z"/>
	<path class="st4" d="M124,272.7h1v0.9l0,0c0.1-0.3,0.3-0.6,0.6-0.7s0.6-0.3,1-0.3c0.3,0,0.6,0.1,0.9,0.2s0.5,0.3,0.7,0.6
		c0.2,0.2,0.3,0.5,0.4,0.9c0.1,0.3,0.1,0.7,0.1,1.2s0,0.8-0.1,1.2s-0.2,0.6-0.4,0.9c-0.2,0.2-0.4,0.4-0.7,0.6
		c-0.3,0.1-0.6,0.2-0.9,0.2c-0.4,0-0.7-0.1-1-0.3c-0.3-0.2-0.5-0.4-0.6-0.7l0,0v3h-1V272.7z M126.3,277.4c0.4,0,0.8-0.1,1-0.4
		c0.3-0.3,0.4-0.6,0.4-1.1V275c0-0.5-0.1-0.8-0.4-1.1c-0.3-0.3-0.6-0.4-1-0.4c-0.2,0-0.4,0-0.5,0.1c-0.2,0-0.3,0.1-0.4,0.2
		s-0.2,0.2-0.3,0.3c-0.1,0.1-0.1,0.3-0.1,0.4v2c0,0.1,0,0.3,0.1,0.4s0.2,0.2,0.3,0.3c0.1,0.1,0.3,0.2,0.4,0.2
		S126.1,277.4,126.3,277.4z"/>
	<path class="st4" d="M130.1,278.1v-5.4h1v1h0.1c0-0.1,0.1-0.3,0.2-0.4c0.1-0.1,0.2-0.2,0.3-0.3c0.1-0.1,0.3-0.2,0.4-0.2
		c0.2-0.1,0.4-0.1,0.6-0.1h0.3v1h-0.5c-0.5,0-0.8,0.1-1,0.2c-0.2,0.2-0.4,0.4-0.4,0.6v3.5L130.1,278.1L130.1,278.1z"/>
	<path class="st4" d="M136,278.2c-0.4,0-0.7-0.1-1-0.2s-0.6-0.3-0.8-0.6c-0.2-0.2-0.4-0.5-0.5-0.9c-0.1-0.3-0.2-0.7-0.2-1.2
		s0.1-0.8,0.2-1.2c0.1-0.3,0.3-0.6,0.5-0.9c0.2-0.2,0.5-0.4,0.8-0.6s0.6-0.2,1-0.2s0.7,0.1,1,0.2s0.6,0.3,0.8,0.6
		c0.2,0.2,0.4,0.5,0.5,0.9c0.1,0.3,0.2,0.7,0.2,1.2s-0.1,0.8-0.2,1.2c-0.1,0.3-0.3,0.6-0.5,0.9c-0.2,0.2-0.5,0.4-0.8,0.6
		S136.4,278.2,136,278.2z M136,277.4c0.4,0,0.8-0.1,1-0.4c0.3-0.3,0.4-0.7,0.4-1.2V275c0-0.5-0.1-0.9-0.4-1.2
		c-0.3-0.3-0.6-0.4-1-0.4s-0.8,0.1-1,0.4s-0.4,0.7-0.4,1.2v0.8c0,0.5,0.1,0.9,0.4,1.2S135.6,277.4,136,277.4z"/>
	<path class="st4" d="M140,273.6h-0.9v-0.8h0.9v-1c0-0.4,0.1-0.7,0.3-1s0.5-0.4,0.9-0.4h0.8v0.8h-1v1.5h3.1v5.4h-1v-4.6H141v4.6h-1
		V273.6z M143.6,271.6c-0.2,0-0.3,0-0.4-0.1c-0.1-0.1-0.1-0.2-0.1-0.4V271c0-0.2,0-0.3,0.1-0.4s0.2-0.1,0.4-0.1s0.3,0,0.4,0.1
		c0.1,0.1,0.1,0.2,0.1,0.4v0.1c0,0.2,0,0.3-0.1,0.4C144,271.6,143.8,271.6,143.6,271.6z"/>
	<path class="st4" d="M147.1,278.1c-0.3,0-0.6-0.1-0.8-0.3c-0.2-0.2-0.3-0.4-0.3-0.7v-3.5h-0.9v-0.8h0.5c0.2,0,0.3,0,0.4-0.1
		s0.1-0.2,0.1-0.4v-1h0.9v1.5h1.2v0.8H147v3.7h1.1v0.8H147.1z"/>
</g>
<path class="st11" d="M223.1,268.5c-3.1,0-5.7,2.5-5.7,5.7c0,3.1,2.5,5.7,5.7,5.7s5.7-2.5,5.7-5.7S226.3,268.5,223.1,268.5z
	 M223.1,278.8c-2.5,0-4.6-2-4.6-4.6c0-2.5,2-4.6,4.6-4.6c2.5,0,4.6,2,4.6,4.6S225.6,278.8,223.1,278.8z M223.1,271c0.5,0,1,0.4,1,1
	s-0.4,1-1,1s-1-0.4-1-1S222.6,271,223.1,271z M224.4,276.8c0,0.2-0.1,0.3-0.3,0.3h-2c-0.2,0-0.3-0.1-0.3-0.3v-0.5
	c0-0.2,0.1-0.3,0.3-0.3h0.3v-1.5h-0.3c-0.2,0-0.3-0.1-0.3-0.3v-0.5c0-0.2,0.1-0.3,0.3-0.3h1.5c0.2,0,0.3,0.1,0.3,0.3v2.3h0.3
	c0.2,0,0.3,0.1,0.3,0.3v0.5H224.4z"/>
<g class="st3">
	<path class="st11" d="M238.4,278.1l-1.7-7.3h1l0.8,3.5l0.6,2.6l0,0l0.6-2.6l0.9-3.5h1.1l0.9,3.5l0.6,2.6l0,0l0.6-2.6l0.8-3.5h1
		l-1.8,7.3h-1.1l-0.9-3.7l-0.6-2.5l0,0l-0.6,2.5l-1,3.7H238.4z"/>
	<path class="st11" d="M246.7,270.4h1v3.2h0.1c0.1-0.3,0.3-0.5,0.5-0.7s0.6-0.3,1-0.3c0.6,0,1,0.2,1.3,0.5c0.3,0.4,0.5,0.9,0.5,1.5
		v3.4h-1v-3.3c0-0.9-0.4-1.4-1.1-1.4c-0.2,0-0.3,0-0.5,0.1c-0.1,0-0.3,0.1-0.4,0.2c-0.1,0.1-0.2,0.2-0.3,0.3
		c-0.1,0.1-0.1,0.3-0.1,0.4v3.7h-1V270.4z"/>
	<path class="st11" d="M256.6,278.1c-0.3,0-0.5-0.1-0.7-0.2c-0.1-0.2-0.2-0.4-0.3-0.6h-0.1c-0.1,0.3-0.3,0.6-0.6,0.8
		c-0.3,0.2-0.6,0.3-1,0.3c-0.6,0-1-0.1-1.3-0.4s-0.5-0.7-0.5-1.2s0.2-0.9,0.6-1.2c0.4-0.3,1-0.4,1.7-0.4h1v-0.5
		c0-0.4-0.1-0.6-0.3-0.8c-0.2-0.2-0.5-0.3-0.9-0.3c-0.3,0-0.6,0.1-0.8,0.2s-0.4,0.3-0.5,0.6l-0.6-0.5c0.2-0.3,0.4-0.5,0.7-0.7
		s0.7-0.3,1.2-0.3c0.7,0,1.2,0.2,1.6,0.5c0.4,0.3,0.6,0.8,0.6,1.4v2.8h0.6v0.8h-0.4V278.1z M254.3,277.5c0.4,0,0.7-0.1,0.9-0.3
		c0.2-0.2,0.4-0.4,0.4-0.7v-0.8h-1c-0.4,0-0.8,0.1-1,0.2s-0.3,0.3-0.3,0.6v0.2c0,0.2,0.1,0.4,0.3,0.6
		C253.7,277.4,254,277.5,254.3,277.5z"/>
	<path class="st11" d="M259.6,278.1c-0.3,0-0.6-0.1-0.8-0.3c-0.2-0.2-0.3-0.4-0.3-0.7v-3.5h-0.9v-0.8h0.5c0.2,0,0.3,0,0.4-0.1
		s0.1-0.2,0.1-0.4v-1h0.9v1.5h1.2v0.8h-1.2v3.7h1.1v0.8H259.6z"/>
	<path class="st11" d="M265,271.6c-0.2,0-0.3,0-0.4-0.1s-0.1-0.2-0.1-0.4V271c0-0.2,0-0.3,0.1-0.4s0.2-0.1,0.4-0.1s0.3,0,0.4,0.1
		s0.1,0.2,0.1,0.4v0.1c0,0.2,0,0.3-0.1,0.4S265.2,271.6,265,271.6z M264.5,272.7h1v5.4h-1V272.7z"/>
	<path class="st11" d="M268.8,278.2c-0.5,0-0.9-0.1-1.3-0.3c-0.3-0.2-0.6-0.4-0.9-0.8l0.7-0.6c0.2,0.3,0.4,0.5,0.7,0.6
		c0.3,0.1,0.5,0.2,0.9,0.2c0.3,0,0.6-0.1,0.8-0.2c0.2-0.1,0.3-0.3,0.3-0.6c0-0.2-0.1-0.4-0.2-0.5s-0.3-0.2-0.7-0.3l-0.5-0.1
		c-0.3,0-0.5-0.1-0.7-0.2s-0.4-0.2-0.6-0.3c-0.2-0.1-0.3-0.3-0.4-0.5s-0.1-0.4-0.1-0.6c0-0.3,0-0.5,0.1-0.7s0.2-0.4,0.4-0.5
		c0.2-0.1,0.4-0.2,0.6-0.3s0.5-0.1,0.8-0.1c0.5,0,0.8,0.1,1.1,0.2s0.6,0.4,0.8,0.6l-0.6,0.6c-0.1-0.2-0.3-0.3-0.5-0.5
		c-0.2-0.1-0.5-0.2-0.8-0.2s-0.6,0.1-0.7,0.2c-0.2,0.1-0.2,0.3-0.2,0.6c0,0.2,0.1,0.4,0.2,0.5c0.2,0.1,0.4,0.2,0.7,0.2l0.5,0.1
		c0.6,0.1,1,0.3,1.3,0.5c0.3,0.3,0.4,0.6,0.4,1c0,0.5-0.2,0.9-0.6,1.2C270,278.1,269.4,278.2,268.8,278.2z"/>
	<path class="st11" d="M276,278.1c-0.3,0-0.6-0.1-0.8-0.3c-0.2-0.2-0.3-0.4-0.3-0.7v-3.5H274v-0.8h0.5c0.2,0,0.3,0,0.4-0.1
		s0.1-0.2,0.1-0.4v-1h0.9v1.5h1.2v0.8H276v3.7h1.1v0.8H276z"/>
	<path class="st11" d="M278.4,278.1v-5.4h1v1h0.1c0-0.1,0.1-0.3,0.2-0.4s0.2-0.2,0.3-0.3s0.3-0.2,0.4-0.2c0.2-0.1,0.4-0.1,0.6-0.1
		h0.3v1h-0.5c-0.5,0-0.8,0.1-1,0.2s-0.4,0.4-0.4,0.6v3.5L278.4,278.1L278.4,278.1z"/>
	<path class="st11" d="M286.2,278.1c-0.3,0-0.5-0.1-0.7-0.2c-0.1-0.2-0.2-0.4-0.3-0.6h-0.1c-0.1,0.3-0.3,0.6-0.6,0.8
		c-0.3,0.2-0.6,0.3-1,0.3c-0.6,0-1-0.1-1.3-0.4s-0.5-0.7-0.5-1.2s0.2-0.9,0.6-1.2c0.4-0.3,1-0.4,1.7-0.4h1v-0.5
		c0-0.4-0.1-0.6-0.3-0.8c-0.2-0.2-0.5-0.3-0.9-0.3c-0.3,0-0.6,0.1-0.8,0.2c-0.2,0.1-0.4,0.3-0.5,0.6l-0.6-0.5
		c0.2-0.3,0.4-0.5,0.7-0.7c0.3-0.2,0.7-0.3,1.2-0.3c0.7,0,1.2,0.2,1.6,0.5s0.6,0.8,0.6,1.4v2.8h0.6v0.8h-0.4V278.1z M283.8,277.5
		c0.4,0,0.7-0.1,0.9-0.3c0.2-0.2,0.4-0.4,0.4-0.7v-0.8h-1c-0.4,0-0.8,0.1-1,0.2s-0.3,0.3-0.3,0.6v0.2c0,0.2,0.1,0.4,0.3,0.6
		C283.3,277.4,283.5,277.5,283.8,277.5z"/>
	<path class="st11" d="M288.4,271.6c-0.2,0-0.3,0-0.4-0.1s-0.1-0.2-0.1-0.4V271c0-0.2,0-0.3,0.1-0.4s0.2-0.1,0.4-0.1s0.3,0,0.4,0.1
		s0.1,0.2,0.1,0.4v0.1c0,0.2,0,0.3-0.1,0.4C288.7,271.6,288.6,271.6,288.4,271.6z M287.9,272.7h1v5.4h-1V272.7z"/>
	<path class="st11" d="M291.6,278.1c-0.3,0-0.6-0.1-0.8-0.3s-0.3-0.4-0.3-0.7v-6.7h1v6.9h0.8v0.8L291.6,278.1L291.6,278.1z"/>
	<path class="st11" d="M293.9,271.6c-0.2,0-0.3,0-0.4-0.1s-0.1-0.2-0.1-0.4V271c0-0.2,0-0.3,0.1-0.4s0.2-0.1,0.4-0.1s0.3,0,0.4,0.1
		s0.1,0.2,0.1,0.4v0.1c0,0.2,0,0.3-0.1,0.4C294.3,271.6,294.1,271.6,293.9,271.6z M293.5,272.7h1v5.4h-1V272.7z"/>
	<path class="st11" d="M296.1,278.1v-5.4h1v0.9h0.1c0.1-0.3,0.3-0.5,0.5-0.7s0.6-0.3,1-0.3c0.6,0,1,0.2,1.3,0.5
		c0.3,0.4,0.5,0.9,0.5,1.5v3.4h-1v-3.3c0-0.9-0.4-1.4-1.1-1.4c-0.2,0-0.3,0-0.5,0.1c-0.1,0-0.3,0.1-0.4,0.2s-0.2,0.2-0.3,0.3
		c-0.1,0.1-0.1,0.3-0.1,0.4v3.7L296.1,278.1L296.1,278.1z"/>
	<path class="st11" d="M306.7,278.7c0,0.6-0.2,1-0.6,1.3s-1.1,0.4-2,0.4s-1.5-0.1-1.8-0.3c-0.4-0.2-0.6-0.6-0.6-1
		c0-0.3,0.1-0.5,0.2-0.7c0.2-0.2,0.4-0.3,0.7-0.4v-0.1c-0.4-0.1-0.5-0.4-0.5-0.8c0-0.3,0.1-0.5,0.3-0.6c0.2-0.1,0.4-0.3,0.7-0.3l0,0
		c-0.3-0.2-0.6-0.4-0.7-0.6c-0.2-0.3-0.3-0.6-0.3-1c0-0.3,0-0.5,0.1-0.7s0.2-0.4,0.4-0.6c0.2-0.2,0.4-0.3,0.7-0.4
		c0.3-0.1,0.5-0.1,0.9-0.1c0.2,0,0.4,0,0.5,0.1c0.2,0,0.3,0.1,0.5,0.1v-0.1c0-0.2,0.1-0.4,0.2-0.5s0.3-0.2,0.5-0.2h0.8v0.8h-1.1v0.3
		c0.5,0.3,0.7,0.8,0.7,1.4c0,0.3,0,0.5-0.1,0.7s-0.2,0.4-0.4,0.6s-0.4,0.3-0.7,0.4c-0.3,0.1-0.5,0.1-0.9,0.1c-0.1,0-0.2,0-0.3,0
		c-0.1,0-0.2,0-0.3,0c-0.2,0-0.3,0.1-0.4,0.2s-0.2,0.2-0.2,0.4c0,0.2,0.1,0.3,0.2,0.3c0.1,0.1,0.3,0.1,0.6,0.1h1.2
		c0.7,0,1.1,0.1,1.5,0.4C306.6,277.9,306.7,278.2,306.7,278.7z M305.8,278.8c0-0.2-0.1-0.4-0.2-0.5s-0.4-0.2-0.8-0.2H303
		c-0.3,0.2-0.4,0.4-0.4,0.7c0,0.2,0.1,0.4,0.3,0.6c0.2,0.2,0.5,0.2,0.9,0.2h0.7c0.5,0,0.8-0.1,1-0.2
		C305.7,279.2,305.8,279,305.8,278.8z M304,275.6c0.3,0,0.6-0.1,0.8-0.2c0.2-0.2,0.3-0.4,0.3-0.7v-0.3c0-0.3-0.1-0.6-0.3-0.7
		c-0.2-0.2-0.5-0.2-0.8-0.2s-0.6,0.1-0.8,0.2c-0.2,0.2-0.3,0.4-0.3,0.7v0.3c0,0.3,0.1,0.6,0.3,0.7S303.7,275.6,304,275.6z"/>
	<path class="st11" d="M311.4,278.1c-0.3,0-0.6-0.1-0.8-0.3c-0.2-0.2-0.3-0.4-0.3-0.7v-3.5h-0.9v-0.8h0.5c0.2,0,0.3,0,0.4-0.1
		s0.1-0.2,0.1-0.4v-1h0.9v1.5h1.2v0.8h-1.2v3.7h1.1v0.8H311.4z"/>
	<path class="st11" d="M317.7,278.1c-0.3,0-0.5-0.1-0.7-0.2c-0.1-0.2-0.2-0.4-0.3-0.6h-0.1c-0.1,0.3-0.3,0.6-0.6,0.8
		c-0.3,0.2-0.6,0.3-1,0.3c-0.6,0-1-0.1-1.3-0.4s-0.5-0.7-0.5-1.2s0.2-0.9,0.6-1.2c0.4-0.3,1-0.4,1.7-0.4h1v-0.5
		c0-0.4-0.1-0.6-0.3-0.8c-0.2-0.2-0.5-0.3-0.9-0.3c-0.3,0-0.6,0.1-0.8,0.2c-0.2,0.1-0.4,0.3-0.5,0.6l-0.6-0.5
		c0.2-0.3,0.4-0.5,0.7-0.7c0.3-0.2,0.7-0.3,1.2-0.3c0.7,0,1.2,0.2,1.6,0.5s0.6,0.8,0.6,1.4v2.8h0.6v0.8h-0.4V278.1z M315.4,277.5
		c0.4,0,0.7-0.1,0.9-0.3c0.2-0.2,0.4-0.4,0.4-0.7v-0.8h-1c-0.4,0-0.8,0.1-1,0.2s-0.3,0.3-0.3,0.6v0.2c0,0.2,0.1,0.4,0.3,0.6
		C314.8,277.4,315.1,277.5,315.4,277.5z"/>
	<path class="st11" d="M319.4,270.4h1v4.8h0.1l0.8-0.9l1.4-1.5h1.1l-1.9,2.1l2.2,3.3h-1.2l-1.7-2.7l-0.8,0.8v1.9h-1V270.4z"/>
	<path class="st11" d="M326.9,278.2c-0.4,0-0.7-0.1-1-0.2s-0.6-0.3-0.8-0.6c-0.2-0.2-0.4-0.5-0.5-0.9s-0.2-0.7-0.2-1.2
		c0-0.4,0.1-0.8,0.2-1.2c0.1-0.3,0.3-0.6,0.5-0.9c0.2-0.2,0.5-0.4,0.8-0.6s0.6-0.2,1-0.2s0.7,0.1,1,0.2s0.5,0.3,0.7,0.6
		c0.2,0.2,0.4,0.5,0.5,0.8s0.2,0.7,0.2,1v0.4h-3.8v0.2c0,0.5,0.1,0.8,0.4,1.1c0.3,0.3,0.6,0.4,1.1,0.4c0.3,0,0.6-0.1,0.9-0.2
		c0.2-0.2,0.4-0.4,0.6-0.6l0.6,0.5c-0.2,0.4-0.5,0.6-0.8,0.9C327.8,278.1,327.4,278.2,326.9,278.2z M326.9,273.4
		c-0.2,0-0.4,0-0.6,0.1s-0.3,0.2-0.5,0.3c-0.1,0.1-0.2,0.3-0.3,0.5c-0.1,0.2-0.1,0.4-0.1,0.6v0.1h2.8v-0.1c0-0.4-0.1-0.8-0.4-1.1
		C327.6,273.5,327.3,273.4,326.9,273.4z"/>
	<path class="st11" d="M333,272.7h1v0.9l0,0c0.1-0.3,0.3-0.6,0.6-0.7s0.6-0.3,1-0.3c0.3,0,0.6,0.1,0.9,0.2s0.5,0.3,0.7,0.6
		c0.2,0.2,0.3,0.5,0.4,0.9c0.1,0.3,0.1,0.7,0.1,1.2s0,0.8-0.1,1.2s-0.2,0.6-0.4,0.9c-0.2,0.2-0.4,0.4-0.7,0.6
		c-0.3,0.1-0.6,0.2-0.9,0.2c-0.4,0-0.7-0.1-1-0.3c-0.3-0.2-0.5-0.4-0.6-0.7l0,0v3h-1V272.7z M335.3,277.4c0.4,0,0.8-0.1,1-0.4
		c0.3-0.3,0.4-0.6,0.4-1.1V275c0-0.5-0.1-0.8-0.4-1.1c-0.3-0.3-0.6-0.4-1-0.4c-0.2,0-0.4,0-0.5,0.1c-0.2,0-0.3,0.1-0.4,0.2
		s-0.2,0.2-0.3,0.3c-0.1,0.1-0.1,0.3-0.1,0.4v2c0,0.1,0,0.3,0.1,0.4s0.2,0.2,0.3,0.3c0.1,0.1,0.3,0.2,0.4,0.2
		S335.1,277.4,335.3,277.4z"/>
	<path class="st11" d="M339.1,278.1v-5.4h1v1h0.1c0-0.1,0.1-0.3,0.2-0.4s0.2-0.2,0.3-0.3s0.3-0.2,0.4-0.2c0.2-0.1,0.4-0.1,0.6-0.1
		h0.3v1h-0.5c-0.5,0-0.8,0.1-1,0.2c-0.2,0.2-0.4,0.4-0.4,0.6v3.5L339.1,278.1L339.1,278.1z"/>
	<path class="st11" d="M345,278.2c-0.4,0-0.7-0.1-1-0.2s-0.6-0.3-0.8-0.6s-0.4-0.5-0.5-0.9s-0.2-0.7-0.2-1.2s0.1-0.8,0.2-1.2
		s0.3-0.6,0.5-0.9s0.5-0.4,0.8-0.6s0.6-0.2,1-0.2s0.7,0.1,1,0.2s0.6,0.3,0.8,0.6c0.2,0.2,0.4,0.5,0.5,0.9c0.1,0.3,0.2,0.7,0.2,1.2
		s-0.1,0.8-0.2,1.2c-0.1,0.3-0.3,0.6-0.5,0.9c-0.2,0.2-0.5,0.4-0.8,0.6S345.4,278.2,345,278.2z M345,277.4c0.4,0,0.8-0.1,1-0.4
		s0.4-0.7,0.4-1.2V275c0-0.5-0.1-0.9-0.4-1.2s-0.6-0.4-1-0.4s-0.8,0.1-1,0.4s-0.4,0.7-0.4,1.2v0.8c0,0.5,0.1,0.9,0.4,1.2
		S344.6,277.4,345,277.4z"/>
	<path class="st11" d="M349,273.6h-0.9v-0.8h0.9v-1c0-0.4,0.1-0.7,0.3-1c0.2-0.2,0.5-0.4,0.9-0.4h0.8v0.8h-1v1.5h3.1v5.4h-1v-4.6
		H350v4.6h-1V273.6z M352.6,271.6c-0.2,0-0.3,0-0.4-0.1s-0.1-0.2-0.1-0.4V271c0-0.2,0-0.3,0.1-0.4s0.2-0.1,0.4-0.1s0.3,0,0.4,0.1
		s0.1,0.2,0.1,0.4v0.1c0,0.2,0,0.3-0.1,0.4C353,271.6,352.8,271.6,352.6,271.6z"/>
	<path class="st11" d="M356.1,278.1c-0.3,0-0.6-0.1-0.8-0.3c-0.2-0.2-0.3-0.4-0.3-0.7v-3.5h-0.9v-0.8h0.5c0.2,0,0.3,0,0.4-0.1
		s0.1-0.2,0.1-0.4v-1h0.9v1.5h1.2v0.8H356v3.7h1.1v0.8H356.1z"/>
	<path class="st11" d="M359.5,275.9v-1.7c0.6,0,1-0.1,1.3-0.4s0.5-0.6,0.5-1v-0.1c0-0.3-0.1-0.6-0.3-0.8c-0.2-0.2-0.5-0.3-0.8-0.3
		c-0.4,0-0.7,0.1-0.9,0.3c-0.2,0.2-0.4,0.5-0.5,0.8l-0.9-0.3c0.1-0.2,0.2-0.4,0.3-0.6c0.1-0.2,0.3-0.4,0.5-0.5s0.4-0.3,0.7-0.4
		c0.3-0.1,0.5-0.1,0.9-0.1c0.3,0,0.6,0,0.9,0.1s0.5,0.2,0.7,0.4s0.3,0.4,0.4,0.6s0.2,0.5,0.2,0.8s-0.1,0.6-0.2,0.9s-0.3,0.5-0.4,0.6
		s-0.4,0.3-0.6,0.4s-0.5,0.2-0.7,0.2v1.1H359.5z M359.9,278.2c-0.2,0-0.4-0.1-0.5-0.2s-0.2-0.3-0.2-0.5v-0.2c0-0.2,0.1-0.3,0.2-0.5
		c0.1-0.1,0.3-0.2,0.5-0.2s0.4,0.1,0.5,0.2s0.2,0.3,0.2,0.5v0.2c0,0.2-0.1,0.3-0.2,0.5S360.2,278.2,359.9,278.2z"/>
</g>
<linearGradient id="SVGID_1_" gradientUnits="userSpaceOnUse" x1="-19.5" y1="155.5" x2="96.5" y2="155.5" gradientTransform="matrix(6.123234e-17 1 -1 6.123234e-17 351.5 215.5)">
	<stop  offset="0" style="stop-color:#EFF2F5;stop-opacity:0"/>
	<stop  offset="0.5502" style="stop-color:#EFF3F5;stop-opacity:0.7"/>
	<stop  offset="1" style="stop-color:#EFF3F5"/>
</linearGradient>
<polygon class="st12" points="0,196 392,196 392,312 0,312 "/>
</svg>
