<?xml version="1.0" encoding="utf-8"?>
<!-- Generator: Adobe Illustrator 22.0.0, SVG Export Plug-In . SVG Version: 6.00 Build 0)  -->
<svg version="1.1" id="Layer_1" xmlns="http://www.w3.org/2000/svg" xmlns:xlink="http://www.w3.org/1999/xlink" x="0px" y="0px"
	 viewBox="0 0 392 262" style="enable-background:new 0 0 392 262;" xml:space="preserve">
<style type="text/css">
	.st0{opacity:8.000000e-02;fill:#383838;enable-background:new    ;}
	.st1{fill:#FFFFFF;}
	.st2{enable-background:new    ;}
	.st3{fill:#2B2B2B;}
	.st4{fill:none;stroke:#D8DCDE;stroke-miterlimit:10;}
	.st5{fill:#D8DCDE;}
	.st6{font-family:'IBMPlexSans-Text';}
	.st7{font-size:10.4026px;}
	.st8{fill:#3CBC98;}
	.st9{fill:#A6B8C3;}
	.st10{fill:url(#SVGID_1_);}
	.st11{fill:url(#SVGID_2_);}
	.st12{opacity:0.24;fill:url(#SVGID_3_);enable-background:new    ;}
	.st13{opacity:8.000000e-02;fill:url(#SVGID_4_);enable-background:new    ;}
	.st14{opacity:0.62;fill:url(#SVGID_5_);enable-background:new    ;}
	.st15{opacity:8.000000e-02;fill:url(#SVGID_6_);enable-background:new    ;}
	.st16{opacity:0.18;fill:url(#SVGID_7_);enable-background:new    ;}
	.st17{fill:url(#SVGID_8_);}
	.st18{opacity:0.24;fill:url(#SVGID_9_);enable-background:new    ;}
	.st19{opacity:8.000000e-02;fill:url(#SVGID_10_);enable-background:new    ;}
	.st20{opacity:0.62;fill:url(#SVGID_11_);enable-background:new    ;}
	.st21{opacity:8.000000e-02;fill:url(#SVGID_12_);enable-background:new    ;}
	.st22{opacity:0.77;fill:url(#SVGID_13_);enable-background:new    ;}
</style>
<rect x="8.7" y="41" class="st0" width="379.3" height="198"/>
<rect x="11.7" y="36" class="st1" width="373.5" height="203"/>
<g class="st2">
	<path class="st3" d="M30.5,84.7c-0.6,0-1.1-0.1-1.5-0.3c-0.4-0.2-0.8-0.5-1.1-0.9l0.7-0.6c0.3,0.3,0.5,0.6,0.8,0.8s0.7,0.3,1.1,0.3
		c0.5,0,0.9-0.1,1.1-0.3c0.3-0.2,0.4-0.5,0.4-0.9c0-0.3-0.1-0.6-0.3-0.7c-0.2-0.2-0.5-0.3-1-0.4l-0.6-0.1c-0.7-0.1-1.2-0.4-1.6-0.7
		c-0.4-0.3-0.5-0.8-0.5-1.3c0-0.3,0.1-0.6,0.2-0.9c0.1-0.3,0.3-0.5,0.5-0.6c0.2-0.2,0.5-0.3,0.8-0.4c0.3-0.1,0.6-0.1,1-0.1
		c0.5,0,1,0.1,1.4,0.3c0.4,0.2,0.7,0.5,1,0.9L32.2,79c-0.2-0.3-0.4-0.5-0.7-0.6c-0.3-0.2-0.6-0.2-1-0.2c-0.4,0-0.8,0.1-1,0.3
		c-0.2,0.2-0.4,0.5-0.4,0.8c0,0.3,0.1,0.6,0.3,0.7c0.2,0.2,0.5,0.3,1,0.4l0.6,0.1c0.7,0.2,1.2,0.4,1.6,0.7c0.3,0.3,0.5,0.8,0.5,1.3
		c0,0.3-0.1,0.6-0.2,0.9c-0.1,0.3-0.3,0.5-0.5,0.7c-0.2,0.2-0.5,0.3-0.8,0.4C31.2,84.7,30.9,84.7,30.5,84.7z"/>
	<path class="st3" d="M36.5,84.7c-0.4,0-0.7-0.1-1-0.2c-0.3-0.1-0.6-0.3-0.8-0.6c-0.2-0.2-0.4-0.5-0.5-0.9c-0.1-0.3-0.2-0.7-0.2-1.2
		c0-0.4,0.1-0.8,0.2-1.2c0.1-0.3,0.3-0.6,0.5-0.9c0.2-0.2,0.5-0.4,0.8-0.6s0.6-0.2,1-0.2s0.7,0.1,1,0.2c0.3,0.1,0.5,0.3,0.7,0.6
		c0.2,0.2,0.4,0.5,0.5,0.8c0.1,0.3,0.2,0.7,0.2,1v0.4H35v0.2c0,0.5,0.1,0.8,0.4,1.1c0.3,0.3,0.6,0.4,1.1,0.4c0.3,0,0.6-0.1,0.9-0.2
		c0.2-0.2,0.4-0.4,0.6-0.6l0.6,0.5c-0.2,0.4-0.5,0.6-0.8,0.9S37,84.7,36.5,84.7z M36.5,79.9c-0.2,0-0.4,0-0.6,0.1
		c-0.2,0.1-0.3,0.2-0.5,0.3c-0.1,0.1-0.2,0.3-0.3,0.5C35.1,81,35,81.2,35,81.4v0.1h2.8v-0.1c0-0.4-0.1-0.8-0.4-1.1
		C37.2,80,36.9,79.9,36.5,79.9z"/>
	<path class="st3" d="M41.2,84.6c-0.3,0-0.6-0.1-0.8-0.3s-0.3-0.4-0.3-0.7v-6.7h1v6.9h0.8v0.8H41.2z"/>
	<path class="st3" d="M44,84.6c-0.3,0-0.6-0.1-0.8-0.3S43,83.9,43,83.6v-6.7h1v6.9h0.8v0.8H44z"/>
	<path class="st3" d="M47.8,79.2h0.9l0.6,2.3l0.5,2.2h0l0.6-2.2l0.7-2.3H52l0.7,2.3l0.6,2.2h0l0.5-2.2l0.6-2.3h0.9l-1.4,5.4h-1.1
		L52,82.1l-0.5-1.6h0l-0.4,1.6l-0.7,2.5h-1.1L47.8,79.2z"/>
	<path class="st3" d="M56.5,76.9h1v3.2h0.1c0.1-0.3,0.3-0.5,0.5-0.7s0.6-0.3,1-0.3c0.6,0,1,0.2,1.3,0.5c0.3,0.4,0.5,0.9,0.5,1.5v3.4
		h-1v-3.3c0-0.9-0.4-1.4-1.1-1.4c-0.2,0-0.3,0-0.5,0.1c-0.1,0-0.3,0.1-0.4,0.2c-0.1,0.1-0.2,0.2-0.3,0.3c-0.1,0.1-0.1,0.3-0.1,0.4
		v3.7h-1V76.9z"/>
	<path class="st3" d="M64.5,84.7c-0.4,0-0.7-0.1-1-0.2c-0.3-0.1-0.6-0.3-0.8-0.6c-0.2-0.2-0.4-0.5-0.5-0.9c-0.1-0.3-0.2-0.7-0.2-1.2
		c0-0.4,0.1-0.8,0.2-1.2c0.1-0.3,0.3-0.6,0.5-0.9c0.2-0.2,0.5-0.4,0.8-0.6s0.6-0.2,1-0.2s0.7,0.1,1,0.2c0.3,0.1,0.5,0.3,0.7,0.6
		c0.2,0.2,0.4,0.5,0.5,0.8c0.1,0.3,0.2,0.7,0.2,1v0.4h-3.8v0.2c0,0.5,0.1,0.8,0.4,1.1c0.3,0.3,0.6,0.4,1.1,0.4
		c0.3,0,0.6-0.1,0.9-0.2c0.2-0.2,0.4-0.4,0.6-0.6l0.6,0.5c-0.2,0.4-0.5,0.6-0.8,0.9S65,84.7,64.5,84.7z M64.5,79.9
		c-0.2,0-0.4,0-0.6,0.1c-0.2,0.1-0.3,0.2-0.5,0.3c-0.1,0.1-0.2,0.3-0.3,0.5c-0.1,0.2-0.1,0.4-0.1,0.6v0.1h2.8v-0.1
		c0-0.4-0.1-0.8-0.4-1.1C65.2,80,64.9,79.9,64.5,79.9z"/>
	<path class="st3" d="M68.2,84.6v-5.4h1v0.9h0.1c0.1-0.3,0.3-0.5,0.5-0.7s0.6-0.3,1-0.3c0.6,0,1,0.2,1.3,0.5
		c0.3,0.4,0.5,0.9,0.5,1.5v3.4h-1v-3.3c0-0.9-0.4-1.4-1.1-1.4c-0.2,0-0.3,0-0.5,0.1c-0.1,0-0.3,0.1-0.4,0.2
		c-0.1,0.1-0.2,0.2-0.3,0.3c-0.1,0.1-0.1,0.3-0.1,0.4v3.7H68.2z"/>
	<path class="st3" d="M76.6,79.2h1v0.9h0c0.1-0.3,0.3-0.6,0.6-0.7s0.6-0.3,1-0.3c0.3,0,0.6,0.1,0.9,0.2c0.3,0.1,0.5,0.3,0.7,0.6
		c0.2,0.2,0.3,0.5,0.4,0.9c0.1,0.3,0.1,0.7,0.1,1.2s0,0.8-0.1,1.2s-0.2,0.6-0.4,0.9c-0.2,0.2-0.4,0.4-0.7,0.6
		c-0.3,0.1-0.6,0.2-0.9,0.2c-0.4,0-0.7-0.1-1-0.3c-0.3-0.2-0.5-0.4-0.6-0.7h0v3h-1V79.2z M78.9,83.9c0.4,0,0.8-0.1,1-0.4
		c0.3-0.3,0.4-0.6,0.4-1.1v-0.9c0-0.5-0.1-0.8-0.4-1.1c-0.3-0.3-0.6-0.4-1-0.4c-0.2,0-0.4,0-0.5,0.1c-0.2,0-0.3,0.1-0.4,0.2
		c-0.1,0.1-0.2,0.2-0.3,0.3c-0.1,0.1-0.1,0.3-0.1,0.4v2c0,0.1,0,0.3,0.1,0.4c0.1,0.1,0.2,0.2,0.3,0.3c0.1,0.1,0.3,0.2,0.4,0.2
		C78.5,83.9,78.7,83.9,78.9,83.9z"/>
	<path class="st3" d="M82.7,84.6v-5.4h1v1h0.1c0-0.1,0.1-0.3,0.2-0.4c0.1-0.1,0.2-0.2,0.3-0.3c0.1-0.1,0.3-0.2,0.4-0.2
		c0.2-0.1,0.4-0.1,0.6-0.1h0.3v1h-0.5c-0.5,0-0.8,0.1-1,0.2c-0.2,0.2-0.4,0.4-0.4,0.6v3.5H82.7z"/>
	<path class="st3" d="M87.1,78.1c-0.2,0-0.3,0-0.4-0.1c-0.1-0.1-0.1-0.2-0.1-0.4v-0.1c0-0.2,0-0.3,0.1-0.4c0.1-0.1,0.2-0.1,0.4-0.1
		s0.3,0,0.4,0.1c0.1,0.1,0.1,0.2,0.1,0.4v0.1c0,0.2,0,0.3-0.1,0.4C87.4,78.1,87.3,78.1,87.1,78.1z M86.6,79.2h1v5.4h-1V79.2z"/>
	<path class="st3" d="M91.3,84.7c-0.4,0-0.7-0.1-1-0.2c-0.3-0.1-0.6-0.3-0.8-0.6c-0.2-0.2-0.4-0.5-0.5-0.9c-0.1-0.3-0.2-0.7-0.2-1.2
		s0.1-0.8,0.2-1.2s0.3-0.6,0.5-0.9s0.5-0.4,0.8-0.6c0.3-0.1,0.6-0.2,1-0.2c0.5,0,1,0.1,1.3,0.4c0.3,0.2,0.6,0.5,0.7,0.9l-0.8,0.4
		c-0.1-0.3-0.2-0.5-0.5-0.6s-0.5-0.2-0.8-0.2c-0.5,0-0.8,0.1-1,0.4c-0.2,0.3-0.3,0.6-0.3,1.1v0.9c0,0.4,0.1,0.8,0.3,1.1
		c0.2,0.3,0.6,0.4,1,0.4c0.3,0,0.6-0.1,0.8-0.2c0.2-0.2,0.4-0.4,0.5-0.7l0.7,0.4c-0.2,0.4-0.4,0.7-0.8,1
		C92.2,84.6,91.8,84.7,91.3,84.7z"/>
	<path class="st3" d="M96.5,84.7c-0.4,0-0.7-0.1-1-0.2c-0.3-0.1-0.6-0.3-0.8-0.6c-0.2-0.2-0.4-0.5-0.5-0.9c-0.1-0.3-0.2-0.7-0.2-1.2
		c0-0.4,0.1-0.8,0.2-1.2c0.1-0.3,0.3-0.6,0.5-0.9c0.2-0.2,0.5-0.4,0.8-0.6s0.6-0.2,1-0.2s0.7,0.1,1,0.2c0.3,0.1,0.5,0.3,0.7,0.6
		c0.2,0.2,0.4,0.5,0.5,0.8c0.1,0.3,0.2,0.7,0.2,1v0.4h-3.8v0.2c0,0.5,0.1,0.8,0.4,1.1c0.3,0.3,0.6,0.4,1.1,0.4
		c0.3,0,0.6-0.1,0.9-0.2c0.2-0.2,0.4-0.4,0.6-0.6l0.6,0.5c-0.2,0.4-0.5,0.6-0.8,0.9S97,84.7,96.5,84.7z M96.5,79.9
		c-0.2,0-0.4,0-0.6,0.1c-0.2,0.1-0.3,0.2-0.5,0.3c-0.1,0.1-0.2,0.3-0.3,0.5c-0.1,0.2-0.1,0.4-0.1,0.6v0.1h2.8v-0.1
		c0-0.4-0.1-0.8-0.4-1.1C97.2,80,96.9,79.9,96.5,79.9z"/>
	<path class="st3" d="M102.6,84.6v-5.4h1v1h0.1c0-0.1,0.1-0.3,0.2-0.4c0.1-0.1,0.2-0.2,0.3-0.3c0.1-0.1,0.3-0.2,0.4-0.2
		c0.2-0.1,0.4-0.1,0.6-0.1h0.3v1H105c-0.5,0-0.8,0.1-1,0.2c-0.2,0.2-0.4,0.4-0.4,0.6v3.5H102.6z"/>
	<path class="st3" d="M108.6,84.7c-0.4,0-0.7-0.1-1-0.2c-0.3-0.1-0.6-0.3-0.8-0.6c-0.2-0.2-0.4-0.5-0.5-0.9
		c-0.1-0.3-0.2-0.7-0.2-1.2c0-0.4,0.1-0.8,0.2-1.2c0.1-0.3,0.3-0.6,0.5-0.9c0.2-0.2,0.5-0.4,0.8-0.6s0.6-0.2,1-0.2s0.7,0.1,1,0.2
		c0.3,0.1,0.5,0.3,0.7,0.6c0.2,0.2,0.4,0.5,0.5,0.8c0.1,0.3,0.2,0.7,0.2,1v0.4h-3.8v0.2c0,0.5,0.1,0.8,0.4,1.1
		c0.3,0.3,0.6,0.4,1.1,0.4c0.3,0,0.6-0.1,0.9-0.2c0.2-0.2,0.4-0.4,0.6-0.6l0.6,0.5c-0.2,0.4-0.5,0.6-0.8,0.9S109.1,84.7,108.6,84.7z
		 M108.6,79.9c-0.2,0-0.4,0-0.6,0.1c-0.2,0.1-0.3,0.2-0.5,0.3c-0.1,0.1-0.2,0.3-0.3,0.5c-0.1,0.2-0.1,0.4-0.1,0.6v0.1h2.8v-0.1
		c0-0.4-0.1-0.8-0.4-1.1C109.3,80,109,79.9,108.6,79.9z"/>
	<path class="st3" d="M116.2,84.6c-0.3,0-0.5-0.1-0.7-0.2c-0.1-0.2-0.2-0.4-0.3-0.6h-0.1c-0.1,0.3-0.3,0.6-0.6,0.8
		c-0.3,0.2-0.6,0.3-1,0.3c-0.6,0-1-0.1-1.3-0.4c-0.3-0.3-0.5-0.7-0.5-1.2c0-0.5,0.2-0.9,0.6-1.2c0.4-0.3,1-0.4,1.7-0.4h1V81
		c0-0.4-0.1-0.6-0.3-0.8c-0.2-0.2-0.5-0.3-0.9-0.3c-0.3,0-0.6,0.1-0.8,0.2c-0.2,0.1-0.4,0.3-0.5,0.6l-0.6-0.5
		c0.2-0.3,0.4-0.5,0.7-0.7c0.3-0.2,0.7-0.3,1.2-0.3c0.7,0,1.2,0.2,1.6,0.5c0.4,0.3,0.6,0.8,0.6,1.4v2.8h0.6v0.8H116.2z M113.8,84
		c0.4,0,0.7-0.1,0.9-0.3c0.2-0.2,0.4-0.4,0.4-0.7v-0.8h-1c-0.4,0-0.8,0.1-1,0.2s-0.3,0.3-0.3,0.6v0.2c0,0.2,0.1,0.4,0.3,0.6
		C113.3,83.9,113.5,84,113.8,84z"/>
	<path class="st3" d="M119.9,84.7c-0.4,0-0.7-0.1-1-0.2c-0.3-0.1-0.6-0.3-0.8-0.6c-0.2-0.2-0.4-0.5-0.5-0.9
		c-0.1-0.3-0.2-0.7-0.2-1.2s0.1-0.8,0.2-1.2s0.3-0.6,0.5-0.9s0.5-0.4,0.8-0.6c0.3-0.1,0.6-0.2,1-0.2c0.5,0,1,0.1,1.3,0.4
		c0.3,0.2,0.6,0.5,0.7,0.9l-0.8,0.4c-0.1-0.3-0.2-0.5-0.5-0.6s-0.5-0.2-0.8-0.2c-0.5,0-0.8,0.1-1,0.4c-0.2,0.3-0.3,0.6-0.3,1.1v0.9
		c0,0.4,0.1,0.8,0.3,1.1c0.2,0.3,0.6,0.4,1,0.4c0.3,0,0.6-0.1,0.8-0.2c0.2-0.2,0.4-0.4,0.5-0.7l0.7,0.4c-0.2,0.4-0.4,0.7-0.8,1
		C120.9,84.6,120.4,84.7,119.9,84.7z"/>
	<path class="st3" d="M123.1,76.9h1v3.2h0.1c0.1-0.3,0.3-0.5,0.5-0.7s0.6-0.3,1-0.3c0.6,0,1,0.2,1.3,0.5c0.3,0.4,0.5,0.9,0.5,1.5
		v3.4h-1v-3.3c0-0.9-0.4-1.4-1.1-1.4c-0.2,0-0.3,0-0.5,0.1c-0.1,0-0.3,0.1-0.4,0.2c-0.1,0.1-0.2,0.2-0.3,0.3
		c-0.1,0.1-0.1,0.3-0.1,0.4v3.7h-1V76.9z"/>
	<path class="st3" d="M131.1,84.7c-0.4,0-0.7-0.1-1-0.2c-0.3-0.1-0.6-0.3-0.8-0.6c-0.2-0.2-0.4-0.5-0.5-0.9
		c-0.1-0.3-0.2-0.7-0.2-1.2c0-0.4,0.1-0.8,0.2-1.2c0.1-0.3,0.3-0.6,0.5-0.9c0.2-0.2,0.5-0.4,0.8-0.6s0.6-0.2,1-0.2s0.7,0.1,1,0.2
		c0.3,0.1,0.5,0.3,0.7,0.6c0.2,0.2,0.4,0.5,0.5,0.8c0.1,0.3,0.2,0.7,0.2,1v0.4h-3.8v0.2c0,0.5,0.1,0.8,0.4,1.1
		c0.3,0.3,0.6,0.4,1.1,0.4c0.3,0,0.6-0.1,0.9-0.2c0.2-0.2,0.4-0.4,0.6-0.6l0.6,0.5c-0.2,0.4-0.5,0.6-0.8,0.9S131.6,84.7,131.1,84.7z
		 M131.1,79.9c-0.2,0-0.4,0-0.6,0.1c-0.2,0.1-0.3,0.2-0.5,0.3c-0.1,0.1-0.2,0.3-0.3,0.5c-0.1,0.2-0.1,0.4-0.1,0.6v0.1h2.8v-0.1
		c0-0.4-0.1-0.8-0.4-1.1C131.9,80,131.5,79.9,131.1,79.9z"/>
	<path class="st3" d="M136.5,84.7c-0.5,0-0.9-0.1-1.3-0.3s-0.6-0.4-0.9-0.8l0.7-0.6c0.2,0.3,0.4,0.5,0.7,0.6
		c0.3,0.1,0.5,0.2,0.9,0.2c0.3,0,0.6-0.1,0.8-0.2c0.2-0.1,0.3-0.3,0.3-0.6c0-0.2-0.1-0.4-0.2-0.5c-0.1-0.1-0.3-0.2-0.7-0.3l-0.5-0.1
		c-0.3,0-0.5-0.1-0.7-0.2c-0.2-0.1-0.4-0.2-0.6-0.3c-0.2-0.1-0.3-0.3-0.4-0.5c-0.1-0.2-0.1-0.4-0.1-0.6c0-0.3,0-0.5,0.1-0.7
		c0.1-0.2,0.2-0.4,0.4-0.5c0.2-0.1,0.4-0.2,0.6-0.3s0.5-0.1,0.8-0.1c0.5,0,0.8,0.1,1.1,0.2s0.6,0.4,0.8,0.6l-0.6,0.6
		c-0.1-0.2-0.3-0.3-0.5-0.5c-0.2-0.1-0.5-0.2-0.8-0.2c-0.3,0-0.6,0.1-0.7,0.2c-0.2,0.1-0.2,0.3-0.2,0.6c0,0.2,0.1,0.4,0.2,0.5
		c0.2,0.1,0.4,0.2,0.7,0.2l0.5,0.1c0.6,0.1,1,0.3,1.3,0.5c0.3,0.3,0.4,0.6,0.4,1c0,0.5-0.2,0.9-0.6,1.2
		C137.6,84.6,137.1,84.7,136.5,84.7z"/>
	<path class="st3" d="M140.6,80.6c-0.2,0-0.4-0.1-0.5-0.2c-0.1-0.1-0.2-0.3-0.2-0.5v-0.2c0-0.2,0.1-0.3,0.2-0.5
		c0.1-0.1,0.3-0.2,0.5-0.2s0.4,0.1,0.5,0.2s0.2,0.3,0.2,0.5v0.2c0,0.2-0.1,0.3-0.2,0.5C141,80.5,140.9,80.6,140.6,80.6z M140.6,84.7
		c-0.2,0-0.4-0.1-0.5-0.2c-0.1-0.1-0.2-0.3-0.2-0.5v-0.2c0-0.2,0.1-0.3,0.2-0.5c0.1-0.1,0.3-0.2,0.5-0.2s0.4,0.1,0.5,0.2
		c0.1,0.1,0.2,0.3,0.2,0.5v0.2c0,0.2-0.1,0.3-0.2,0.5C141,84.7,140.9,84.7,140.6,84.7z"/>
</g>
<path class="st4" d="M362,117.3H29.5c-1.1,0-2-0.9-2-2V92.9c0-1.1,0.9-2,2-2H362c1.1,0,2,0.9,2,2v22.4
	C364,116.4,363.1,117.3,362,117.3z"/>
<g class="st2">
	<path class="st5" d="M331.2,100.5v4.5c0,0.3,0,0.6,0.1,0.9c0.1,0.3,0.1,0.5,0.3,0.6c0.1,0.2,0.3,0.3,0.5,0.4
		c0.2,0.1,0.5,0.1,0.8,0.1c0.6,0,1-0.2,1.3-0.5s0.4-0.8,0.4-1.5v-4.5h1v4.3c0,0.5,0,1-0.1,1.4c-0.1,0.4-0.3,0.7-0.5,1
		c-0.2,0.3-0.5,0.4-0.8,0.6s-0.8,0.2-1.3,0.2c-0.5,0-0.9-0.1-1.2-0.2c-0.3-0.1-0.6-0.3-0.8-0.6c-0.2-0.3-0.4-0.6-0.4-1
		c-0.1-0.4-0.1-0.8-0.1-1.4v-4.3H331.2z"/>
	<path class="st5" d="M339.5,107.9c-0.6,0-1.1-0.1-1.5-0.3c-0.4-0.2-0.8-0.5-1.1-0.9l0.7-0.6c0.3,0.3,0.5,0.6,0.8,0.8
		s0.7,0.3,1.1,0.3c0.5,0,0.9-0.1,1.1-0.3c0.3-0.2,0.4-0.5,0.4-0.9c0-0.3-0.1-0.6-0.3-0.7c-0.2-0.2-0.5-0.3-1-0.4l-0.6-0.1
		c-0.7-0.1-1.2-0.4-1.6-0.7c-0.3-0.3-0.5-0.8-0.5-1.3c0-0.3,0.1-0.6,0.2-0.9c0.1-0.3,0.3-0.5,0.5-0.6c0.2-0.2,0.5-0.3,0.8-0.4
		c0.3-0.1,0.6-0.1,1-0.1c0.5,0,1,0.1,1.4,0.3c0.4,0.2,0.7,0.5,1,0.9l-0.7,0.6c-0.2-0.3-0.4-0.5-0.7-0.6c-0.3-0.2-0.6-0.2-1-0.2
		c-0.4,0-0.8,0.1-1,0.3c-0.2,0.2-0.4,0.5-0.4,0.8c0,0.3,0.1,0.6,0.3,0.7c0.2,0.2,0.5,0.3,1,0.4l0.6,0.1c0.7,0.2,1.2,0.4,1.6,0.7
		c0.3,0.3,0.5,0.8,0.5,1.3c0,0.3-0.1,0.6-0.2,0.9c-0.1,0.3-0.3,0.5-0.5,0.7c-0.2,0.2-0.5,0.3-0.8,0.4
		C340.2,107.8,339.9,107.9,339.5,107.9z"/>
	<path class="st5" d="M343.5,100.5h2.5c0.5,0,0.9,0.1,1.2,0.2s0.7,0.4,1,0.7s0.5,0.7,0.6,1.1s0.2,1,0.2,1.6c0,0.6-0.1,1.1-0.2,1.6
		s-0.3,0.8-0.6,1.1s-0.6,0.5-1,0.7s-0.8,0.2-1.2,0.2h-2.5V100.5z M346,106.8c0.3,0,0.6,0,0.8-0.1s0.4-0.2,0.6-0.4
		c0.2-0.2,0.3-0.4,0.4-0.7c0.1-0.3,0.1-0.6,0.1-0.9v-1.2c0-0.3,0-0.7-0.1-0.9c-0.1-0.3-0.2-0.5-0.4-0.7c-0.2-0.2-0.4-0.3-0.6-0.4
		c-0.2-0.1-0.5-0.1-0.8-0.1h-1.5v5.5H346z"/>
	<path class="st5" d="M352.8,101.4v6.4h-1v-6.4h-2.2v-0.9h5.5v0.9H352.8z"/>
</g>
<text transform="matrix(1 0 0 1 39.2705 107.5649)" class="st3 st6 st7">9,100.25</text>
<g class="st2">
	<path class="st3" d="M29.4,137.6v-7.3h3c0.3,0,0.6,0,0.9,0.2c0.3,0.1,0.5,0.2,0.6,0.4c0.2,0.2,0.3,0.4,0.4,0.7
		c0.1,0.3,0.1,0.6,0.1,0.9c0,0.3,0,0.6-0.1,0.9c-0.1,0.3-0.2,0.5-0.4,0.7c-0.2,0.2-0.4,0.3-0.6,0.4c-0.3,0.1-0.5,0.2-0.9,0.2h-2v3
		H29.4z M30.4,133.7h1.9c0.3,0,0.6-0.1,0.8-0.3s0.3-0.4,0.3-0.7v-0.5c0-0.3-0.1-0.6-0.3-0.7s-0.4-0.3-0.8-0.3h-1.9V133.7z"/>
	<path class="st3" d="M35.6,137.6v-5.4h1v1h0.1c0-0.1,0.1-0.3,0.2-0.4c0.1-0.1,0.2-0.2,0.3-0.3c0.1-0.1,0.3-0.2,0.4-0.2
		c0.2-0.1,0.4-0.1,0.6-0.1h0.3v1H38c-0.5,0-0.8,0.1-1,0.2c-0.2,0.2-0.4,0.4-0.4,0.6v3.5H35.6z"/>
	<path class="st3" d="M41.5,137.7c-0.4,0-0.7-0.1-1-0.2c-0.3-0.1-0.6-0.3-0.8-0.6c-0.2-0.2-0.4-0.5-0.5-0.9
		c-0.1-0.3-0.2-0.7-0.2-1.2s0.1-0.8,0.2-1.2c0.1-0.3,0.3-0.6,0.5-0.9c0.2-0.2,0.5-0.4,0.8-0.6s0.6-0.2,1-0.2c0.4,0,0.7,0.1,1,0.2
		c0.3,0.1,0.6,0.3,0.8,0.6c0.2,0.2,0.4,0.5,0.5,0.9c0.1,0.3,0.2,0.7,0.2,1.2s-0.1,0.8-0.2,1.2c-0.1,0.3-0.3,0.6-0.5,0.9
		c-0.2,0.2-0.5,0.4-0.8,0.6C42.2,137.7,41.9,137.7,41.5,137.7z M41.5,136.9c0.4,0,0.8-0.1,1-0.4c0.3-0.3,0.4-0.7,0.4-1.2v-0.8
		c0-0.5-0.1-0.9-0.4-1.2c-0.3-0.3-0.6-0.4-1-0.4c-0.4,0-0.8,0.1-1,0.4s-0.4,0.7-0.4,1.2v0.8c0,0.5,0.1,0.9,0.4,1.2
		S41.1,136.9,41.5,136.9z"/>
	<path class="st3" d="M45.5,133.1h-0.9v-0.8h0.9v-1c0-0.4,0.1-0.7,0.3-1s0.5-0.4,0.9-0.4h0.8v0.8h-1.1v1.5h3.1v5.4h-1v-4.6h-2.1v4.6
		h-1V133.1z M49.1,131.1c-0.2,0-0.3,0-0.4-0.1c-0.1-0.1-0.1-0.2-0.1-0.4v-0.1c0-0.2,0-0.3,0.1-0.4c0.1-0.1,0.2-0.1,0.4-0.1
		s0.3,0,0.4,0.1c0.1,0.1,0.1,0.2,0.1,0.4v0.1c0,0.2,0,0.3-0.1,0.4C49.5,131.1,49.3,131.1,49.1,131.1z"/>
	<path class="st3" d="M52.6,137.6c-0.3,0-0.6-0.1-0.8-0.3c-0.2-0.2-0.3-0.4-0.3-0.7v-3.5h-0.9v-0.8h0.5c0.2,0,0.3,0,0.4-0.1
		s0.1-0.2,0.1-0.4v-1h0.9v1.5h1.2v0.8h-1.2v3.7h1.1v0.8H52.6z"/>
	<path class="st3" d="M57.5,132.2h1v0.9h0c0.1-0.3,0.3-0.6,0.6-0.7s0.6-0.3,1-0.3c0.3,0,0.6,0.1,0.9,0.2c0.3,0.1,0.5,0.3,0.7,0.6
		c0.2,0.2,0.3,0.5,0.4,0.9c0.1,0.3,0.1,0.7,0.1,1.2s0,0.8-0.1,1.2s-0.2,0.6-0.4,0.9c-0.2,0.2-0.4,0.4-0.7,0.6
		c-0.3,0.1-0.6,0.2-0.9,0.2c-0.4,0-0.7-0.1-1-0.3c-0.3-0.2-0.5-0.4-0.6-0.7h0v3h-1V132.2z M59.7,136.9c0.4,0,0.8-0.1,1-0.4
		c0.3-0.3,0.4-0.6,0.4-1.1v-0.9c0-0.5-0.1-0.8-0.4-1.1c-0.3-0.3-0.6-0.4-1-0.4c-0.2,0-0.4,0-0.5,0.1c-0.2,0-0.3,0.1-0.4,0.2
		c-0.1,0.1-0.2,0.2-0.3,0.3c-0.1,0.1-0.1,0.3-0.1,0.4v2c0,0.1,0,0.3,0.1,0.4c0.1,0.1,0.2,0.2,0.3,0.3c0.1,0.1,0.3,0.2,0.4,0.2
		C59.4,136.9,59.6,136.9,59.7,136.9z"/>
	<path class="st3" d="M65.6,137.7c-0.4,0-0.7-0.1-1-0.2c-0.3-0.1-0.6-0.3-0.8-0.6c-0.2-0.2-0.4-0.5-0.5-0.9
		c-0.1-0.3-0.2-0.7-0.2-1.2c0-0.4,0.1-0.8,0.2-1.2c0.1-0.3,0.3-0.6,0.5-0.9c0.2-0.2,0.5-0.4,0.8-0.6s0.6-0.2,1-0.2s0.7,0.1,1,0.2
		c0.3,0.1,0.5,0.3,0.7,0.6c0.2,0.2,0.4,0.5,0.5,0.8c0.1,0.3,0.2,0.7,0.2,1v0.4h-3.8v0.2c0,0.5,0.1,0.8,0.4,1.1
		c0.3,0.3,0.6,0.4,1.1,0.4c0.3,0,0.6-0.1,0.9-0.2c0.2-0.2,0.4-0.4,0.6-0.6l0.6,0.5c-0.2,0.4-0.5,0.6-0.8,0.9S66.1,137.7,65.6,137.7z
		 M65.6,132.9c-0.2,0-0.4,0-0.6,0.1c-0.2,0.1-0.3,0.2-0.5,0.3c-0.1,0.1-0.2,0.3-0.3,0.5c-0.1,0.2-0.1,0.4-0.1,0.6v0.1h2.8v-0.1
		c0-0.4-0.1-0.8-0.4-1.1C66.3,133,66,132.9,65.6,132.9z"/>
	<path class="st3" d="M69.3,137.6v-5.4h1v1h0.1c0-0.1,0.1-0.3,0.2-0.4c0.1-0.1,0.2-0.2,0.3-0.3c0.1-0.1,0.3-0.2,0.4-0.2
		c0.2-0.1,0.4-0.1,0.6-0.1h0.3v1h-0.5c-0.5,0-0.8,0.1-1,0.2c-0.2,0.2-0.4,0.4-0.4,0.6v3.5H69.3z"/>
	<path class="st3" d="M75.2,137.7c-0.4,0-0.7-0.1-1-0.2c-0.3-0.1-0.6-0.3-0.8-0.6c-0.2-0.2-0.4-0.5-0.5-0.9
		c-0.1-0.3-0.2-0.7-0.2-1.2s0.1-0.8,0.2-1.2s0.3-0.6,0.5-0.9s0.5-0.4,0.8-0.6c0.3-0.1,0.6-0.2,1-0.2c0.5,0,1,0.1,1.3,0.4
		c0.3,0.2,0.6,0.5,0.7,0.9l-0.8,0.4c-0.1-0.3-0.2-0.5-0.5-0.6s-0.5-0.2-0.8-0.2c-0.5,0-0.8,0.1-1,0.4c-0.2,0.3-0.3,0.6-0.3,1.1v0.9
		c0,0.4,0.1,0.8,0.3,1.1c0.2,0.3,0.6,0.4,1,0.4c0.3,0,0.6-0.1,0.8-0.2c0.2-0.2,0.4-0.4,0.5-0.7l0.7,0.4c-0.2,0.4-0.4,0.7-0.8,1
		C76.1,137.6,75.7,137.7,75.2,137.7z"/>
	<path class="st3" d="M80.4,137.7c-0.4,0-0.7-0.1-1-0.2c-0.3-0.1-0.6-0.3-0.8-0.6c-0.2-0.2-0.4-0.5-0.5-0.9
		c-0.1-0.3-0.2-0.7-0.2-1.2c0-0.4,0.1-0.8,0.2-1.2c0.1-0.3,0.3-0.6,0.5-0.9c0.2-0.2,0.5-0.4,0.8-0.6s0.6-0.2,1-0.2s0.7,0.1,1,0.2
		c0.3,0.1,0.5,0.3,0.7,0.6c0.2,0.2,0.4,0.5,0.5,0.8c0.1,0.3,0.2,0.7,0.2,1v0.4H79v0.2c0,0.5,0.1,0.8,0.4,1.1
		c0.3,0.3,0.6,0.4,1.1,0.4c0.3,0,0.6-0.1,0.9-0.2c0.2-0.2,0.4-0.4,0.6-0.6l0.6,0.5c-0.2,0.4-0.5,0.6-0.8,0.9S80.9,137.7,80.4,137.7z
		 M80.4,132.9c-0.2,0-0.4,0-0.6,0.1c-0.2,0.1-0.3,0.2-0.5,0.3c-0.1,0.1-0.2,0.3-0.3,0.5c-0.1,0.2-0.1,0.4-0.1,0.6v0.1h2.8v-0.1
		c0-0.4-0.1-0.8-0.4-1.1C81.1,133,80.8,132.9,80.4,132.9z"/>
	<path class="st3" d="M84.1,137.6v-5.4h1v0.9h0.1c0.1-0.3,0.3-0.5,0.5-0.7s0.6-0.3,1-0.3c0.6,0,1,0.2,1.3,0.5
		c0.3,0.4,0.5,0.9,0.5,1.5v3.4h-1v-3.3c0-0.9-0.4-1.4-1.1-1.4c-0.2,0-0.3,0-0.5,0.1c-0.1,0-0.3,0.1-0.4,0.2
		c-0.1,0.1-0.2,0.2-0.3,0.3c-0.1,0.1-0.1,0.3-0.1,0.4v3.7H84.1z"/>
	<path class="st3" d="M91.4,137.6c-0.3,0-0.6-0.1-0.8-0.3c-0.2-0.2-0.3-0.4-0.3-0.7v-3.5h-0.9v-0.8H90c0.2,0,0.3,0,0.4-0.1
		s0.1-0.2,0.1-0.4v-1h0.9v1.5h1.2v0.8h-1.2v3.7h1.1v0.8H91.4z"/>
	<path class="st3" d="M94.4,133.6c-0.2,0-0.4-0.1-0.5-0.2c-0.1-0.1-0.2-0.3-0.2-0.5v-0.2c0-0.2,0.1-0.3,0.2-0.5
		c0.1-0.1,0.3-0.2,0.5-0.2s0.4,0.1,0.5,0.2s0.2,0.3,0.2,0.5v0.2c0,0.2-0.1,0.3-0.2,0.5C94.9,133.5,94.7,133.6,94.4,133.6z
		 M94.4,137.7c-0.2,0-0.4-0.1-0.5-0.2c-0.1-0.1-0.2-0.3-0.2-0.5v-0.2c0-0.2,0.1-0.3,0.2-0.5c0.1-0.1,0.3-0.2,0.5-0.2
		s0.4,0.1,0.5,0.2c0.1,0.1,0.2,0.3,0.2,0.5v0.2c0,0.2-0.1,0.3-0.2,0.5C94.9,137.7,94.7,137.7,94.4,137.7z"/>
</g>
<path class="st4" d="M362,170.3h-85.5c-1.1,0-2-0.9-2-2v-22.4c0-1.1,0.9-2,2-2H362c1.1,0,2,0.9,2,2v22.4
	C364,169.4,363.1,170.3,362,170.3z"/>
<text transform="matrix(1 0 0 1 343.3545 160.7358)" class="st5 st6 st7">%</text>
<path class="st5" d="M29.5,155h228c0.8,0,1.5,0.7,1.5,1.5l0,0c0,0.8-0.7,1.5-1.5,1.5h-228c-0.8,0-1.5-0.7-1.5-1.5l0,0
	C28,155.7,28.7,155,29.5,155z"/>
<path class="st8" d="M29.5,155h150c0.8,0,1.5,0.7,1.5,1.5l0,0c0,0.8-0.7,1.5-1.5,1.5h-150c-0.8,0-1.5-0.7-1.5-1.5l0,0
	C28,155.7,28.7,155,29.5,155z"/>
<circle class="st8" cx="178" cy="156" r="6"/>
<g class="st2">
	<path class="st3" d="M284.4,160.7c-0.4,0-0.7-0.1-1-0.2c-0.3-0.1-0.6-0.3-0.8-0.6s-0.4-0.5-0.5-0.9c-0.1-0.3-0.2-0.7-0.2-1.2
		c0-0.5,0.1-1,0.2-1.5c0.2-0.5,0.4-0.9,0.6-1.3c0.2-0.4,0.5-0.7,0.8-1s0.6-0.5,0.9-0.7h1.3c-0.4,0.3-0.8,0.6-1.1,0.8
		s-0.6,0.6-0.8,0.8s-0.4,0.6-0.6,0.9c-0.2,0.3-0.3,0.7-0.4,1.1l0.1,0c0.1-0.1,0.2-0.3,0.3-0.4c0.1-0.1,0.2-0.2,0.4-0.3
		s0.3-0.2,0.5-0.2c0.2-0.1,0.4-0.1,0.6-0.1c0.3,0,0.6,0.1,0.9,0.2c0.3,0.1,0.5,0.3,0.7,0.4c0.2,0.2,0.3,0.4,0.4,0.7s0.2,0.6,0.2,0.9
		c0,0.4-0.1,0.7-0.2,1c-0.1,0.3-0.3,0.6-0.5,0.8c-0.2,0.2-0.5,0.4-0.8,0.5C285.1,160.6,284.8,160.7,284.4,160.7z M284.4,159.8
		c0.5,0,0.8-0.1,1.1-0.4c0.3-0.2,0.4-0.6,0.4-1.1v-0.1c0-0.5-0.1-0.8-0.4-1.1c-0.3-0.2-0.6-0.4-1.1-0.4c-0.5,0-0.8,0.1-1.1,0.4
		s-0.4,0.6-0.4,1.1v0.1c0,0.5,0.1,0.8,0.4,1.1C283.6,159.7,283.9,159.8,284.4,159.8z"/>
	<path class="st3" d="M293.1,156c0,0.5-0.1,1-0.2,1.5c-0.2,0.5-0.4,0.9-0.6,1.3c-0.2,0.4-0.5,0.7-0.8,1s-0.6,0.5-0.9,0.7h-1.3
		c0.4-0.3,0.8-0.6,1.1-0.8s0.6-0.6,0.8-0.8s0.4-0.6,0.6-0.9c0.2-0.3,0.3-0.7,0.4-1.1l-0.1,0c-0.2,0.3-0.4,0.5-0.7,0.7
		c-0.3,0.2-0.6,0.3-1.1,0.3c-0.3,0-0.6-0.1-0.9-0.2c-0.3-0.1-0.5-0.3-0.7-0.4s-0.3-0.4-0.4-0.7c-0.1-0.3-0.2-0.6-0.2-0.9
		c0-0.4,0.1-0.7,0.2-1c0.1-0.3,0.3-0.6,0.5-0.8c0.2-0.2,0.5-0.4,0.8-0.5c0.3-0.1,0.6-0.2,1-0.2c0.4,0,0.7,0.1,1,0.2s0.6,0.3,0.8,0.6
		s0.4,0.5,0.5,0.9C293.1,155.2,293.1,155.6,293.1,156z M290.6,157c0.5,0,0.8-0.1,1.1-0.4c0.3-0.2,0.4-0.6,0.4-1.1v-0.1
		c0-0.5-0.1-0.8-0.4-1.1c-0.3-0.2-0.6-0.4-1.1-0.4c-0.5,0-0.8,0.1-1.1,0.4c-0.3,0.2-0.4,0.6-0.4,1.1v0.1c0,0.5,0.1,0.8,0.4,1.1
		C289.8,156.9,290.2,157,290.6,157z"/>
	<path class="st3" d="M295.2,160.7c-0.2,0-0.4-0.1-0.5-0.2c-0.1-0.1-0.2-0.3-0.2-0.5v-0.2c0-0.2,0.1-0.3,0.2-0.5
		c0.1-0.1,0.3-0.2,0.5-0.2s0.4,0.1,0.5,0.2c0.1,0.1,0.2,0.3,0.2,0.5v0.2c0,0.2-0.1,0.3-0.2,0.5C295.6,160.6,295.4,160.7,295.2,160.7
		z"/>
	<path class="st3" d="M299.8,160.7c-0.4,0-0.8-0.1-1.1-0.2c-0.3-0.1-0.6-0.3-0.8-0.4c-0.2-0.2-0.4-0.4-0.5-0.7
		c-0.1-0.3-0.2-0.5-0.2-0.8c0-0.5,0.1-0.9,0.4-1.2c0.3-0.3,0.6-0.5,1.1-0.6v-0.1c-0.4-0.1-0.7-0.3-0.9-0.6s-0.3-0.6-0.3-1.1
		c0-0.6,0.2-1,0.6-1.3c0.4-0.3,1-0.5,1.7-0.5s1.3,0.2,1.7,0.5c0.4,0.3,0.6,0.8,0.6,1.3c0,0.4-0.1,0.8-0.3,1.1
		c-0.2,0.3-0.5,0.5-0.9,0.6v0.1c0.4,0.1,0.8,0.3,1.1,0.6c0.3,0.3,0.4,0.7,0.4,1.2c0,0.3-0.1,0.6-0.2,0.8c-0.1,0.3-0.3,0.5-0.5,0.7
		c-0.2,0.2-0.5,0.3-0.8,0.4C300.5,160.6,300.2,160.7,299.8,160.7z M299.8,159.9c0.5,0,0.8-0.1,1.1-0.3c0.3-0.2,0.4-0.5,0.4-0.9v-0.2
		c0-0.4-0.1-0.7-0.4-0.9c-0.3-0.2-0.6-0.3-1.1-0.3s-0.8,0.1-1.1,0.3c-0.3,0.2-0.4,0.5-0.4,0.9v0.2c0,0.4,0.1,0.7,0.4,0.9
		C298.9,159.7,299.3,159.9,299.8,159.9z M299.8,156.4c0.4,0,0.8-0.1,1-0.3c0.2-0.2,0.3-0.5,0.3-0.8v-0.2c0-0.4-0.1-0.6-0.3-0.8
		c-0.2-0.2-0.6-0.3-1-0.3c-0.4,0-0.8,0.1-1,0.3c-0.2,0.2-0.3,0.5-0.3,0.8v0.2c0,0.4,0.1,0.6,0.3,0.8
		C299,156.3,299.3,156.4,299.8,156.4z"/>
</g>
<g class="st2">
	<path class="st3" d="M29.4,188.6v-7.3h3c0.3,0,0.6,0,0.9,0.2c0.3,0.1,0.5,0.2,0.6,0.4c0.2,0.2,0.3,0.4,0.4,0.7
		c0.1,0.3,0.1,0.6,0.1,0.9c0,0.3,0,0.6-0.1,0.9c-0.1,0.3-0.2,0.5-0.4,0.7c-0.2,0.2-0.4,0.3-0.6,0.4c-0.3,0.1-0.5,0.2-0.9,0.2h-2v3
		H29.4z M30.4,184.7h1.9c0.3,0,0.6-0.1,0.8-0.3s0.3-0.4,0.3-0.7v-0.5c0-0.3-0.1-0.6-0.3-0.7s-0.4-0.3-0.8-0.3h-1.9V184.7z"/>
	<path class="st3" d="M35.6,188.6v-5.4h1v1h0.1c0-0.1,0.1-0.3,0.2-0.4c0.1-0.1,0.2-0.2,0.3-0.3c0.1-0.1,0.3-0.2,0.4-0.2
		c0.2-0.1,0.4-0.1,0.6-0.1h0.3v1H38c-0.5,0-0.8,0.1-1,0.2c-0.2,0.2-0.4,0.4-0.4,0.6v3.5H35.6z"/>
	<path class="st3" d="M41.5,188.7c-0.4,0-0.7-0.1-1-0.2c-0.3-0.1-0.6-0.3-0.8-0.6c-0.2-0.2-0.4-0.5-0.5-0.9
		c-0.1-0.3-0.2-0.7-0.2-1.2s0.1-0.8,0.2-1.2c0.1-0.3,0.3-0.6,0.5-0.9c0.2-0.2,0.5-0.4,0.8-0.6s0.6-0.2,1-0.2c0.4,0,0.7,0.1,1,0.2
		c0.3,0.1,0.6,0.3,0.8,0.6c0.2,0.2,0.4,0.5,0.5,0.9c0.1,0.3,0.2,0.7,0.2,1.2s-0.1,0.8-0.2,1.2c-0.1,0.3-0.3,0.6-0.5,0.9
		c-0.2,0.2-0.5,0.4-0.8,0.6C42.2,188.7,41.9,188.7,41.5,188.7z M41.5,187.9c0.4,0,0.8-0.1,1-0.4c0.3-0.3,0.4-0.7,0.4-1.2v-0.8
		c0-0.5-0.1-0.9-0.4-1.2c-0.3-0.3-0.6-0.4-1-0.4c-0.4,0-0.8,0.1-1,0.4s-0.4,0.7-0.4,1.2v0.8c0,0.5,0.1,0.9,0.4,1.2
		S41.1,187.9,41.5,187.9z"/>
	<path class="st3" d="M45.5,184.1h-0.9v-0.8h0.9v-1c0-0.4,0.1-0.7,0.3-1s0.5-0.4,0.9-0.4h0.8v0.8h-1.1v1.5h3.1v5.4h-1v-4.6h-2.1v4.6
		h-1V184.1z M49.1,182.1c-0.2,0-0.3,0-0.4-0.1c-0.1-0.1-0.1-0.2-0.1-0.4v-0.1c0-0.2,0-0.3,0.1-0.4c0.1-0.1,0.2-0.1,0.4-0.1
		s0.3,0,0.4,0.1c0.1,0.1,0.1,0.2,0.1,0.4v0.1c0,0.2,0,0.3-0.1,0.4C49.5,182.1,49.3,182.1,49.1,182.1z"/>
	<path class="st3" d="M52.6,188.6c-0.3,0-0.6-0.1-0.8-0.3c-0.2-0.2-0.3-0.4-0.3-0.7v-3.5h-0.9v-0.8h0.5c0.2,0,0.3,0,0.4-0.1
		s0.1-0.2,0.1-0.4v-1h0.9v1.5h1.2v0.8h-1.2v3.7h1.1v0.8H52.6z"/>
	<path class="st3" d="M57.5,183.2h1v0.9h0c0.1-0.3,0.3-0.6,0.6-0.7s0.6-0.3,1-0.3c0.3,0,0.6,0.1,0.9,0.2c0.3,0.1,0.5,0.3,0.7,0.6
		c0.2,0.2,0.3,0.5,0.4,0.9c0.1,0.3,0.1,0.7,0.1,1.2s0,0.8-0.1,1.2s-0.2,0.6-0.4,0.9c-0.2,0.2-0.4,0.4-0.7,0.6
		c-0.3,0.1-0.6,0.2-0.9,0.2c-0.4,0-0.7-0.1-1-0.3c-0.3-0.2-0.5-0.4-0.6-0.7h0v3h-1V183.2z M59.7,187.9c0.4,0,0.8-0.1,1-0.4
		c0.3-0.3,0.4-0.6,0.4-1.1v-0.9c0-0.5-0.1-0.8-0.4-1.1c-0.3-0.3-0.6-0.4-1-0.4c-0.2,0-0.4,0-0.5,0.1c-0.2,0-0.3,0.1-0.4,0.2
		c-0.1,0.1-0.2,0.2-0.3,0.3c-0.1,0.1-0.1,0.3-0.1,0.4v2c0,0.1,0,0.3,0.1,0.4c0.1,0.1,0.2,0.2,0.3,0.3c0.1,0.1,0.3,0.2,0.4,0.2
		C59.4,187.9,59.6,187.9,59.7,187.9z"/>
	<path class="st3" d="M65.6,188.7c-0.4,0-0.7-0.1-1-0.2c-0.3-0.1-0.6-0.3-0.8-0.6c-0.2-0.2-0.4-0.5-0.5-0.9
		c-0.1-0.3-0.2-0.7-0.2-1.2c0-0.4,0.1-0.8,0.2-1.2c0.1-0.3,0.3-0.6,0.5-0.9c0.2-0.2,0.5-0.4,0.8-0.6s0.6-0.2,1-0.2s0.7,0.1,1,0.2
		c0.3,0.1,0.5,0.3,0.7,0.6c0.2,0.2,0.4,0.5,0.5,0.8c0.1,0.3,0.2,0.7,0.2,1v0.4h-3.8v0.2c0,0.5,0.1,0.8,0.4,1.1
		c0.3,0.3,0.6,0.4,1.1,0.4c0.3,0,0.6-0.1,0.9-0.2c0.2-0.2,0.4-0.4,0.6-0.6l0.6,0.5c-0.2,0.4-0.5,0.6-0.8,0.9S66.1,188.7,65.6,188.7z
		 M65.6,183.9c-0.2,0-0.4,0-0.6,0.1c-0.2,0.1-0.3,0.2-0.5,0.3c-0.1,0.1-0.2,0.3-0.3,0.5c-0.1,0.2-0.1,0.4-0.1,0.6v0.1h2.8v-0.1
		c0-0.4-0.1-0.8-0.4-1.1C66.3,184,66,183.9,65.6,183.9z"/>
	<path class="st3" d="M69.3,188.6v-5.4h1v1h0.1c0-0.1,0.1-0.3,0.2-0.4c0.1-0.1,0.2-0.2,0.3-0.3c0.1-0.1,0.3-0.2,0.4-0.2
		c0.2-0.1,0.4-0.1,0.6-0.1h0.3v1h-0.5c-0.5,0-0.8,0.1-1,0.2c-0.2,0.2-0.4,0.4-0.4,0.6v3.5H69.3z"/>
	<path class="st3" d="M75.2,188.7c-0.4,0-0.7-0.1-1-0.2c-0.3-0.1-0.6-0.3-0.8-0.6c-0.2-0.2-0.4-0.5-0.5-0.9
		c-0.1-0.3-0.2-0.7-0.2-1.2s0.1-0.8,0.2-1.2s0.3-0.6,0.5-0.9s0.5-0.4,0.8-0.6c0.3-0.1,0.6-0.2,1-0.2c0.5,0,1,0.1,1.3,0.4
		c0.3,0.2,0.6,0.5,0.7,0.9l-0.8,0.4c-0.1-0.3-0.2-0.5-0.5-0.6s-0.5-0.2-0.8-0.2c-0.5,0-0.8,0.1-1,0.4c-0.2,0.3-0.3,0.6-0.3,1.1v0.9
		c0,0.4,0.1,0.8,0.3,1.1c0.2,0.3,0.6,0.4,1,0.4c0.3,0,0.6-0.1,0.8-0.2c0.2-0.2,0.4-0.4,0.5-0.7l0.7,0.4c-0.2,0.4-0.4,0.7-0.8,1
		C76.1,188.6,75.7,188.7,75.2,188.7z"/>
	<path class="st3" d="M80.4,188.7c-0.4,0-0.7-0.1-1-0.2c-0.3-0.1-0.6-0.3-0.8-0.6c-0.2-0.2-0.4-0.5-0.5-0.9
		c-0.1-0.3-0.2-0.7-0.2-1.2c0-0.4,0.1-0.8,0.2-1.2c0.1-0.3,0.3-0.6,0.5-0.9c0.2-0.2,0.5-0.4,0.8-0.6s0.6-0.2,1-0.2s0.7,0.1,1,0.2
		c0.3,0.1,0.5,0.3,0.7,0.6c0.2,0.2,0.4,0.5,0.5,0.8c0.1,0.3,0.2,0.7,0.2,1v0.4H79v0.2c0,0.5,0.1,0.8,0.4,1.1
		c0.3,0.3,0.6,0.4,1.1,0.4c0.3,0,0.6-0.1,0.9-0.2c0.2-0.2,0.4-0.4,0.6-0.6l0.6,0.5c-0.2,0.4-0.5,0.6-0.8,0.9S80.9,188.7,80.4,188.7z
		 M80.4,183.9c-0.2,0-0.4,0-0.6,0.1c-0.2,0.1-0.3,0.2-0.5,0.3c-0.1,0.1-0.2,0.3-0.3,0.5c-0.1,0.2-0.1,0.4-0.1,0.6v0.1h2.8v-0.1
		c0-0.4-0.1-0.8-0.4-1.1C81.1,184,80.8,183.9,80.4,183.9z"/>
	<path class="st3" d="M84.1,188.6v-5.4h1v0.9h0.1c0.1-0.3,0.3-0.5,0.5-0.7s0.6-0.3,1-0.3c0.6,0,1,0.2,1.3,0.5
		c0.3,0.4,0.5,0.9,0.5,1.5v3.4h-1v-3.3c0-0.9-0.4-1.4-1.1-1.4c-0.2,0-0.3,0-0.5,0.1c-0.1,0-0.3,0.1-0.4,0.2
		c-0.1,0.1-0.2,0.2-0.3,0.3c-0.1,0.1-0.1,0.3-0.1,0.4v3.7H84.1z"/>
	<path class="st3" d="M91.4,188.6c-0.3,0-0.6-0.1-0.8-0.3c-0.2-0.2-0.3-0.4-0.3-0.7v-3.5h-0.9v-0.8H90c0.2,0,0.3,0,0.4-0.1
		s0.1-0.2,0.1-0.4v-1h0.9v1.5h1.2v0.8h-1.2v3.7h1.1v0.8H91.4z"/>
	<path class="st3" d="M94.4,184.6c-0.2,0-0.4-0.1-0.5-0.2c-0.1-0.1-0.2-0.3-0.2-0.5v-0.2c0-0.2,0.1-0.3,0.2-0.5
		c0.1-0.1,0.3-0.2,0.5-0.2s0.4,0.1,0.5,0.2s0.2,0.3,0.2,0.5v0.2c0,0.2-0.1,0.3-0.2,0.5C94.9,184.5,94.7,184.6,94.4,184.6z
		 M94.4,188.7c-0.2,0-0.4-0.1-0.5-0.2c-0.1-0.1-0.2-0.3-0.2-0.5v-0.2c0-0.2,0.1-0.3,0.2-0.5c0.1-0.1,0.3-0.2,0.5-0.2
		s0.4,0.1,0.5,0.2c0.1,0.1,0.2,0.3,0.2,0.5v0.2c0,0.2-0.1,0.3-0.2,0.5C94.9,188.7,94.7,188.7,94.4,188.7z"/>
</g>
<path class="st4" d="M362,221.3h-85.5c-1.1,0-2-0.9-2-2v-22.4c0-1.1,0.9-2,2-2H362c1.1,0,2,0.9,2,2v22.4
	C364,220.4,363.1,221.3,362,221.3z"/>
<text transform="matrix(1 0 0 1 343.3545 211.7358)" class="st5 st6 st7">%</text>
<path class="st5" d="M29.5,206h228c0.8,0,1.5,0.7,1.5,1.5l0,0c0,0.8-0.7,1.5-1.5,1.5h-228c-0.8,0-1.5-0.7-1.5-1.5l0,0
	C28,206.7,28.7,206,29.5,206z"/>
<path class="st8" d="M29.5,206h43c0.8,0,1.5,0.7,1.5,1.5l0,0c0,0.8-0.7,1.5-1.5,1.5h-43c-0.8,0-1.5-0.7-1.5-1.5l0,0
	C28,206.7,28.7,206,29.5,206z"/>
<circle class="st8" cx="74" cy="207" r="6"/>
<g class="st2">
	<path class="st3" d="M282.2,211.6v-0.9h2V205h-0.1l-1.8,1.7l-0.6-0.6l1.9-1.9h1.6v6.4h1.8v0.9H282.2z"/>
	<path class="st3" d="M288.4,211.6v-0.9h2V205h-0.1l-1.8,1.7l-0.6-0.6l1.9-1.9h1.6v6.4h1.8v0.9H288.4z"/>
	<path class="st3" d="M295.2,211.7c-0.2,0-0.4-0.1-0.5-0.2c-0.1-0.1-0.2-0.3-0.2-0.5v-0.2c0-0.2,0.1-0.3,0.2-0.5
		c0.1-0.1,0.3-0.2,0.5-0.2s0.4,0.1,0.5,0.2c0.1,0.1,0.2,0.3,0.2,0.5v0.2c0,0.2-0.1,0.3-0.2,0.5C295.6,211.6,295.4,211.7,295.2,211.7
		z"/>
	<path class="st3" d="M302.3,207c0,0.5-0.1,1-0.2,1.5c-0.2,0.5-0.4,0.9-0.6,1.3c-0.2,0.4-0.5,0.7-0.8,1s-0.6,0.5-0.9,0.7h-1.3
		c0.4-0.3,0.8-0.6,1.1-0.8s0.6-0.6,0.8-0.8s0.4-0.6,0.6-0.9c0.2-0.3,0.3-0.7,0.4-1.1l-0.1,0c-0.2,0.3-0.4,0.5-0.7,0.7
		c-0.3,0.2-0.6,0.3-1.1,0.3c-0.3,0-0.6-0.1-0.9-0.2c-0.3-0.1-0.5-0.3-0.7-0.4c-0.2-0.2-0.3-0.4-0.4-0.7s-0.2-0.6-0.2-0.9
		c0-0.4,0.1-0.7,0.2-1c0.1-0.3,0.3-0.6,0.5-0.8c0.2-0.2,0.5-0.4,0.8-0.5c0.3-0.1,0.6-0.2,1-0.2c0.4,0,0.7,0.1,1,0.2s0.6,0.3,0.8,0.6
		c0.2,0.2,0.4,0.5,0.5,0.9S302.3,206.6,302.3,207z M299.8,208c0.5,0,0.8-0.1,1.1-0.4c0.3-0.2,0.4-0.6,0.4-1.1v-0.1
		c0-0.5-0.1-0.8-0.4-1.1c-0.3-0.2-0.6-0.4-1.1-0.4c-0.5,0-0.8,0.1-1.1,0.4c-0.3,0.2-0.4,0.6-0.4,1.1v0.1c0,0.5,0.1,0.8,0.4,1.1
		C299,207.9,299.3,208,299.8,208z"/>
</g>
<path class="st8" d="M37.2,62.3h-7.3c-1.1,0-2-0.9-2-2V53c0-1.1,0.9-2,2-2h7.3c1.1,0,2,0.9,2,2v7.3C39.2,61.4,38.3,62.3,37.2,62.3z"
	/>
<g class="st2">
	<path class="st3" d="M46.4,52.9v4.5c0,0.3,0,0.6,0.1,0.9c0.1,0.3,0.1,0.5,0.3,0.6s0.3,0.3,0.5,0.4c0.2,0.1,0.5,0.1,0.8,0.1
		c0.6,0,1-0.2,1.3-0.5s0.4-0.8,0.4-1.5v-4.5h1v4.3c0,0.5,0,1-0.1,1.4c-0.1,0.4-0.3,0.7-0.5,1c-0.2,0.3-0.5,0.4-0.8,0.6
		s-0.8,0.2-1.3,0.2c-0.5,0-0.9-0.1-1.2-0.2s-0.6-0.3-0.8-0.6c-0.2-0.3-0.4-0.6-0.4-1c-0.1-0.4-0.1-0.8-0.1-1.4v-4.3H46.4z"/>
	<path class="st3" d="M54.1,60.2c-0.5,0-0.9-0.1-1.3-0.3s-0.6-0.4-0.9-0.8l0.7-0.6c0.2,0.3,0.4,0.5,0.7,0.6c0.3,0.1,0.5,0.2,0.9,0.2
		c0.3,0,0.6-0.1,0.8-0.2c0.2-0.1,0.3-0.3,0.3-0.6c0-0.2-0.1-0.4-0.2-0.5c-0.1-0.1-0.3-0.2-0.7-0.3l-0.5-0.1c-0.3,0-0.5-0.1-0.7-0.2
		c-0.2-0.1-0.4-0.2-0.6-0.3c-0.2-0.1-0.3-0.3-0.4-0.5c-0.1-0.2-0.1-0.4-0.1-0.6c0-0.3,0-0.5,0.1-0.7c0.1-0.2,0.2-0.4,0.4-0.5
		c0.2-0.1,0.4-0.2,0.6-0.3s0.5-0.1,0.8-0.1c0.5,0,0.8,0.1,1.1,0.2s0.6,0.4,0.8,0.6L55.4,56c-0.1-0.2-0.3-0.3-0.5-0.5
		c-0.2-0.1-0.5-0.2-0.8-0.2c-0.3,0-0.6,0.1-0.7,0.2c-0.2,0.1-0.2,0.3-0.2,0.6c0,0.2,0.1,0.4,0.2,0.5c0.2,0.1,0.4,0.2,0.7,0.2
		l0.5,0.1c0.6,0.1,1,0.3,1.3,0.5c0.3,0.3,0.4,0.6,0.4,1c0,0.5-0.2,0.9-0.6,1.2C55.2,60.1,54.7,60.2,54.1,60.2z"/>
	<path class="st3" d="M59.6,60.2c-0.4,0-0.7-0.1-1-0.2c-0.3-0.1-0.6-0.3-0.8-0.6c-0.2-0.2-0.4-0.5-0.5-0.9c-0.1-0.3-0.2-0.7-0.2-1.2
		c0-0.4,0.1-0.8,0.2-1.2c0.1-0.3,0.3-0.6,0.5-0.9c0.2-0.2,0.5-0.4,0.8-0.6s0.6-0.2,1-0.2s0.7,0.1,1,0.2c0.3,0.1,0.5,0.3,0.7,0.6
		c0.2,0.2,0.4,0.5,0.5,0.8c0.1,0.3,0.2,0.7,0.2,1v0.4h-3.8v0.2c0,0.5,0.1,0.8,0.4,1.1c0.3,0.3,0.6,0.4,1.1,0.4
		c0.3,0,0.6-0.1,0.9-0.2c0.2-0.2,0.4-0.4,0.6-0.6l0.6,0.5c-0.2,0.4-0.5,0.6-0.8,0.9S60.1,60.2,59.6,60.2z M59.6,55.4
		c-0.2,0-0.4,0-0.6,0.1c-0.2,0.1-0.3,0.2-0.5,0.3c-0.1,0.1-0.2,0.3-0.3,0.5c-0.1,0.2-0.1,0.4-0.1,0.6V57h2.8v-0.1
		c0-0.4-0.1-0.8-0.4-1.1C60.3,55.5,60,55.4,59.6,55.4z"/>
	<path class="st3" d="M67,60.1c-0.3,0-0.6-0.1-0.8-0.3c-0.2-0.2-0.3-0.4-0.3-0.7v-3.5h-0.9v-0.8h0.5c0.2,0,0.3,0,0.4-0.1
		s0.1-0.2,0.1-0.4v-1H67v1.5h1.2v0.8H67v3.7h1.1v0.8H67z"/>
	<path class="st3" d="M69.4,60.1v-5.4h1v1h0.1c0-0.1,0.1-0.3,0.2-0.4c0.1-0.1,0.2-0.2,0.3-0.3c0.1-0.1,0.3-0.2,0.4-0.2
		c0.2-0.1,0.4-0.1,0.6-0.1h0.3v1h-0.5c-0.5,0-0.8,0.1-1,0.2c-0.2,0.2-0.4,0.4-0.4,0.6v3.5H69.4z"/>
	<path class="st3" d="M77.2,60.1c-0.3,0-0.5-0.1-0.7-0.2c-0.1-0.2-0.2-0.4-0.3-0.6h-0.1c-0.1,0.3-0.3,0.6-0.6,0.8
		c-0.3,0.2-0.6,0.3-1,0.3c-0.6,0-1-0.1-1.3-0.4c-0.3-0.3-0.5-0.7-0.5-1.2c0-0.5,0.2-0.9,0.6-1.2c0.4-0.3,1-0.4,1.7-0.4h1v-0.5
		c0-0.4-0.1-0.6-0.3-0.8c-0.2-0.2-0.5-0.3-0.9-0.3c-0.3,0-0.6,0.1-0.8,0.2c-0.2,0.1-0.4,0.3-0.5,0.6l-0.6-0.5
		c0.2-0.3,0.4-0.5,0.7-0.7c0.3-0.2,0.7-0.3,1.2-0.3c0.7,0,1.2,0.2,1.6,0.5c0.4,0.3,0.6,0.8,0.6,1.4v2.8h0.6v0.8H77.2z M74.9,59.5
		c0.4,0,0.7-0.1,0.9-0.3c0.2-0.2,0.4-0.4,0.4-0.7v-0.8h-1c-0.4,0-0.8,0.1-1,0.2s-0.3,0.3-0.3,0.6v0.2c0,0.2,0.1,0.4,0.3,0.6
		C74.3,59.4,74.5,59.5,74.9,59.5z"/>
	<path class="st3" d="M79.4,53.6c-0.2,0-0.3,0-0.4-0.1c-0.1-0.1-0.1-0.2-0.1-0.4v-0.1c0-0.2,0-0.3,0.1-0.4c0.1-0.1,0.2-0.1,0.4-0.1
		s0.3,0,0.4,0.1c0.1,0.1,0.1,0.2,0.1,0.4v0.1c0,0.2,0,0.3-0.1,0.4C79.7,53.6,79.6,53.6,79.4,53.6z M78.9,54.7h1v5.4h-1V54.7z"/>
	<path class="st3" d="M82.6,60.1c-0.3,0-0.6-0.1-0.8-0.3s-0.3-0.4-0.3-0.7v-6.7h1v6.9h0.8v0.8H82.6z"/>
	<path class="st3" d="M85,53.6c-0.2,0-0.3,0-0.4-0.1c-0.1-0.1-0.1-0.2-0.1-0.4v-0.1c0-0.2,0-0.3,0.1-0.4c0.1-0.1,0.2-0.1,0.4-0.1
		s0.3,0,0.4,0.1c0.1,0.1,0.1,0.2,0.1,0.4v0.1c0,0.2,0,0.3-0.1,0.4C85.3,53.6,85.2,53.6,85,53.6z M84.5,54.7h1v5.4h-1V54.7z"/>
	<path class="st3" d="M87.1,60.1v-5.4h1v0.9h0.1c0.1-0.3,0.3-0.5,0.5-0.7s0.6-0.3,1-0.3c0.6,0,1,0.2,1.3,0.5
		c0.3,0.4,0.5,0.9,0.5,1.5v3.4h-1v-3.3c0-0.9-0.4-1.4-1.1-1.4c-0.2,0-0.3,0-0.5,0.1c-0.1,0-0.3,0.1-0.4,0.2
		c-0.1,0.1-0.2,0.2-0.3,0.3c-0.1,0.1-0.1,0.3-0.1,0.4v3.7H87.1z"/>
	<path class="st3" d="M97.7,60.7c0,0.6-0.2,1-0.6,1.3c-0.4,0.3-1.1,0.4-2,0.4c-0.9,0-1.5-0.1-1.8-0.3c-0.4-0.2-0.6-0.6-0.6-1
		c0-0.3,0.1-0.5,0.2-0.7c0.2-0.2,0.4-0.3,0.7-0.4v-0.1c-0.4-0.1-0.5-0.4-0.5-0.8c0-0.3,0.1-0.5,0.3-0.6s0.4-0.3,0.7-0.3v0
		c-0.3-0.2-0.6-0.4-0.7-0.6c-0.2-0.3-0.3-0.6-0.3-1c0-0.3,0-0.5,0.1-0.7c0.1-0.2,0.2-0.4,0.4-0.6c0.2-0.2,0.4-0.3,0.7-0.4
		c0.3-0.1,0.5-0.1,0.9-0.1c0.2,0,0.4,0,0.5,0.1c0.2,0,0.3,0.1,0.5,0.1v-0.1c0-0.2,0.1-0.4,0.2-0.5c0.1-0.1,0.3-0.2,0.5-0.2h0.8v0.8
		h-1.1V55c0.5,0.3,0.7,0.8,0.7,1.4c0,0.3,0,0.5-0.1,0.7s-0.2,0.4-0.4,0.6s-0.4,0.3-0.7,0.4c-0.3,0.1-0.5,0.1-0.9,0.1
		c-0.1,0-0.2,0-0.3,0c-0.1,0-0.2,0-0.3,0c-0.2,0-0.3,0.1-0.4,0.2c-0.1,0.1-0.2,0.2-0.2,0.4c0,0.2,0.1,0.3,0.2,0.3
		c0.1,0.1,0.3,0.1,0.6,0.1h1.2c0.7,0,1.1,0.1,1.5,0.4C97.6,59.9,97.7,60.2,97.7,60.7z M96.8,60.8c0-0.2-0.1-0.4-0.2-0.5
		c-0.2-0.1-0.4-0.2-0.8-0.2h-1.8c-0.3,0.2-0.4,0.4-0.4,0.7c0,0.2,0.1,0.4,0.3,0.6c0.2,0.2,0.5,0.2,0.9,0.2h0.7
		c0.5,0,0.8-0.1,1.1-0.2C96.7,61.2,96.8,61,96.8,60.8z M95,57.6c0.3,0,0.6-0.1,0.8-0.2c0.2-0.2,0.3-0.4,0.3-0.7v-0.3
		c0-0.3-0.1-0.6-0.3-0.7c-0.2-0.2-0.5-0.2-0.8-0.2c-0.3,0-0.6,0.1-0.8,0.2c-0.2,0.2-0.3,0.4-0.3,0.7v0.3c0,0.3,0.1,0.6,0.3,0.7
		C94.4,57.5,94.7,57.6,95,57.6z"/>
	<path class="st3" d="M102.4,60.1c-0.3,0-0.6-0.1-0.8-0.3c-0.2-0.2-0.3-0.4-0.3-0.7v-3.5h-0.9v-0.8h0.5c0.2,0,0.3,0,0.4-0.1
		s0.1-0.2,0.1-0.4v-1h0.9v1.5h1.2v0.8h-1.2v3.7h1.1v0.8H102.4z"/>
	<path class="st3" d="M108.7,60.1c-0.3,0-0.5-0.1-0.7-0.2c-0.1-0.2-0.2-0.4-0.3-0.6h-0.1c-0.1,0.3-0.3,0.6-0.6,0.8
		c-0.3,0.2-0.6,0.3-1,0.3c-0.6,0-1-0.1-1.3-0.4c-0.3-0.3-0.5-0.7-0.5-1.2c0-0.5,0.2-0.9,0.6-1.2c0.4-0.3,1-0.4,1.7-0.4h1v-0.5
		c0-0.4-0.1-0.6-0.3-0.8c-0.2-0.2-0.5-0.3-0.9-0.3c-0.3,0-0.6,0.1-0.8,0.2c-0.2,0.1-0.4,0.3-0.5,0.6l-0.6-0.5
		c0.2-0.3,0.4-0.5,0.7-0.7c0.3-0.2,0.7-0.3,1.2-0.3c0.7,0,1.2,0.2,1.6,0.5c0.4,0.3,0.6,0.8,0.6,1.4v2.8h0.6v0.8H108.7z M106.4,59.5
		c0.4,0,0.7-0.1,0.9-0.3c0.2-0.2,0.4-0.4,0.4-0.7v-0.8h-1c-0.4,0-0.8,0.1-1,0.2s-0.3,0.3-0.3,0.6v0.2c0,0.2,0.1,0.4,0.3,0.6
		C105.8,59.4,106.1,59.5,106.4,59.5z"/>
	<path class="st3" d="M110.4,52.4h1v4.8h0.1l0.8-0.9l1.4-1.5h1.1l-1.9,2.1l2.2,3.3h-1.2l-1.7-2.7l-0.8,0.8v1.9h-1V52.4z"/>
	<path class="st3" d="M117.9,60.2c-0.4,0-0.7-0.1-1-0.2c-0.3-0.1-0.6-0.3-0.8-0.6c-0.2-0.2-0.4-0.5-0.5-0.9
		c-0.1-0.3-0.2-0.7-0.2-1.2c0-0.4,0.1-0.8,0.2-1.2c0.1-0.3,0.3-0.6,0.5-0.9c0.2-0.2,0.5-0.4,0.8-0.6s0.6-0.2,1-0.2s0.7,0.1,1,0.2
		c0.3,0.1,0.5,0.3,0.7,0.6c0.2,0.2,0.4,0.5,0.5,0.8c0.1,0.3,0.2,0.7,0.2,1v0.4h-3.8v0.2c0,0.5,0.1,0.8,0.4,1.1
		c0.3,0.3,0.6,0.4,1.1,0.4c0.3,0,0.6-0.1,0.9-0.2c0.2-0.2,0.4-0.4,0.6-0.6l0.6,0.5c-0.2,0.4-0.5,0.6-0.8,0.9S118.4,60.2,117.9,60.2z
		 M117.9,55.4c-0.2,0-0.4,0-0.6,0.1c-0.2,0.1-0.3,0.2-0.5,0.3c-0.1,0.1-0.2,0.3-0.3,0.5c-0.1,0.2-0.1,0.4-0.1,0.6V57h2.8v-0.1
		c0-0.4-0.1-0.8-0.4-1.1C118.6,55.5,118.3,55.4,117.9,55.4z"/>
	<path class="st3" d="M124,54.7h1v0.9h0c0.1-0.3,0.3-0.6,0.6-0.7s0.6-0.3,1-0.3c0.3,0,0.6,0.1,0.9,0.2c0.3,0.1,0.5,0.3,0.7,0.6
		c0.2,0.2,0.3,0.5,0.4,0.9c0.1,0.3,0.1,0.7,0.1,1.2s0,0.8-0.1,1.2s-0.2,0.6-0.4,0.9c-0.2,0.2-0.4,0.4-0.7,0.6
		c-0.3,0.1-0.6,0.2-0.9,0.2c-0.4,0-0.7-0.1-1-0.3c-0.3-0.2-0.5-0.4-0.6-0.7h0v3h-1V54.7z M126.3,59.4c0.4,0,0.8-0.1,1-0.4
		c0.3-0.3,0.4-0.6,0.4-1.1V57c0-0.5-0.1-0.8-0.4-1.1c-0.3-0.3-0.6-0.4-1-0.4c-0.2,0-0.4,0-0.5,0.1c-0.2,0-0.3,0.1-0.4,0.2
		c-0.1,0.1-0.2,0.2-0.3,0.3c-0.1,0.1-0.1,0.3-0.1,0.4v2c0,0.1,0,0.3,0.1,0.4c0.1,0.1,0.2,0.2,0.3,0.3c0.1,0.1,0.3,0.2,0.4,0.2
		C125.9,59.4,126.1,59.4,126.3,59.4z"/>
	<path class="st3" d="M130.1,60.1v-5.4h1v1h0.1c0-0.1,0.1-0.3,0.2-0.4c0.1-0.1,0.2-0.2,0.3-0.3c0.1-0.1,0.3-0.2,0.4-0.2
		c0.2-0.1,0.4-0.1,0.6-0.1h0.3v1h-0.5c-0.5,0-0.8,0.1-1,0.2c-0.2,0.2-0.4,0.4-0.4,0.6v3.5H130.1z"/>
	<path class="st3" d="M136,60.2c-0.4,0-0.7-0.1-1-0.2c-0.3-0.1-0.6-0.3-0.8-0.6c-0.2-0.2-0.4-0.5-0.5-0.9c-0.1-0.3-0.2-0.7-0.2-1.2
		s0.1-0.8,0.2-1.2c0.1-0.3,0.3-0.6,0.5-0.9c0.2-0.2,0.5-0.4,0.8-0.6s0.6-0.2,1-0.2c0.4,0,0.7,0.1,1,0.2c0.3,0.1,0.6,0.3,0.8,0.6
		c0.2,0.2,0.4,0.5,0.5,0.9c0.1,0.3,0.2,0.7,0.2,1.2s-0.1,0.8-0.2,1.2c-0.1,0.3-0.3,0.6-0.5,0.9c-0.2,0.2-0.5,0.4-0.8,0.6
		C136.7,60.2,136.4,60.2,136,60.2z M136,59.4c0.4,0,0.8-0.1,1-0.4c0.3-0.3,0.4-0.7,0.4-1.2V57c0-0.5-0.1-0.9-0.4-1.2
		c-0.3-0.3-0.6-0.4-1-0.4c-0.4,0-0.8,0.1-1,0.4s-0.4,0.7-0.4,1.2v0.8c0,0.5,0.1,0.9,0.4,1.2S135.6,59.4,136,59.4z"/>
	<path class="st3" d="M140,55.6h-0.9v-0.8h0.9v-1c0-0.4,0.1-0.7,0.3-1s0.5-0.4,0.9-0.4h0.8v0.8H141v1.5h3.1v5.4h-1v-4.6H141v4.6h-1
		V55.6z M143.6,53.6c-0.2,0-0.3,0-0.4-0.1c-0.1-0.1-0.1-0.2-0.1-0.4v-0.1c0-0.2,0-0.3,0.1-0.4c0.1-0.1,0.2-0.1,0.4-0.1
		s0.3,0,0.4,0.1c0.1,0.1,0.1,0.2,0.1,0.4v0.1c0,0.2,0,0.3-0.1,0.4C144,53.6,143.8,53.6,143.6,53.6z"/>
	<path class="st3" d="M147.1,60.1c-0.3,0-0.6-0.1-0.8-0.3c-0.2-0.2-0.3-0.4-0.3-0.7v-3.5h-0.9v-0.8h0.5c0.2,0,0.3,0,0.4-0.1
		s0.1-0.2,0.1-0.4v-1h0.9v1.5h1.2v0.8h-1.2v3.7h1.1v0.8H147.1z"/>
</g>
<path class="st9" d="M223.1,50.5c-3.1,0-5.7,2.5-5.7,5.7c0,3.1,2.5,5.7,5.7,5.7s5.7-2.5,5.7-5.7S226.3,50.5,223.1,50.5z M223.1,60.8
	c-2.5,0-4.6-2-4.6-4.6c0-2.5,2-4.6,4.6-4.6c2.5,0,4.6,2,4.6,4.6C227.7,58.7,225.6,60.8,223.1,60.8z M223.1,53c0.5,0,1,0.4,1,1
	c0,0.5-0.4,1-1,1s-1-0.4-1-1C222.2,53.5,222.6,53,223.1,53z M224.4,58.8c0,0.2-0.1,0.3-0.3,0.3h-2c-0.2,0-0.3-0.1-0.3-0.3v-0.5
	c0-0.2,0.1-0.3,0.3-0.3h0.3v-1.5h-0.3c-0.2,0-0.3-0.1-0.3-0.3v-0.5c0-0.2,0.1-0.3,0.3-0.3h1.5c0.2,0,0.3,0.1,0.3,0.3V58h0.3
	c0.2,0,0.3,0.1,0.3,0.3v0.5H224.4z"/>
<g class="st2">
	<path class="st9" d="M238.4,60.1l-1.7-7.3h1l0.8,3.5l0.6,2.6h0l0.6-2.6l0.9-3.5h1.1l0.9,3.5l0.6,2.6h0l0.6-2.6l0.8-3.5h1l-1.8,7.3
		h-1.1l-0.9-3.7l-0.6-2.5h0l-0.6,2.5l-1,3.7H238.4z"/>
	<path class="st9" d="M246.7,52.4h1v3.2h0.1c0.1-0.3,0.3-0.5,0.5-0.7s0.6-0.3,1-0.3c0.6,0,1,0.2,1.3,0.5c0.3,0.4,0.5,0.9,0.5,1.5
		v3.4h-1v-3.3c0-0.9-0.4-1.4-1.1-1.4c-0.2,0-0.3,0-0.5,0.1c-0.1,0-0.3,0.1-0.4,0.2c-0.1,0.1-0.2,0.2-0.3,0.3
		c-0.1,0.1-0.1,0.3-0.1,0.4v3.7h-1V52.4z"/>
	<path class="st9" d="M256.6,60.1c-0.3,0-0.5-0.1-0.7-0.2c-0.1-0.2-0.2-0.4-0.3-0.6h-0.1c-0.1,0.3-0.3,0.6-0.6,0.8
		c-0.3,0.2-0.6,0.3-1,0.3c-0.6,0-1-0.1-1.3-0.4s-0.5-0.7-0.5-1.2c0-0.5,0.2-0.9,0.6-1.2c0.4-0.3,1-0.4,1.7-0.4h1v-0.5
		c0-0.4-0.1-0.6-0.3-0.8c-0.2-0.2-0.5-0.3-0.9-0.3c-0.3,0-0.6,0.1-0.8,0.2c-0.2,0.1-0.4,0.3-0.5,0.6l-0.6-0.5
		c0.2-0.3,0.4-0.5,0.7-0.7c0.3-0.2,0.7-0.3,1.2-0.3c0.7,0,1.2,0.2,1.6,0.5c0.4,0.3,0.6,0.8,0.6,1.4v2.8h0.6v0.8H256.6z M254.3,59.5
		c0.4,0,0.7-0.1,0.9-0.3c0.2-0.2,0.4-0.4,0.4-0.7v-0.8h-1c-0.4,0-0.8,0.1-1,0.2c-0.2,0.1-0.3,0.3-0.3,0.6v0.2c0,0.2,0.1,0.4,0.3,0.6
		C253.7,59.4,254,59.5,254.3,59.5z"/>
	<path class="st9" d="M259.6,60.1c-0.3,0-0.6-0.1-0.8-0.3c-0.2-0.2-0.3-0.4-0.3-0.7v-3.5h-0.9v-0.8h0.5c0.2,0,0.3,0,0.4-0.1
		s0.1-0.2,0.1-0.4v-1h0.9v1.5h1.2v0.8h-1.2v3.7h1.1v0.8H259.6z"/>
	<path class="st9" d="M265,53.6c-0.2,0-0.3,0-0.4-0.1c-0.1-0.1-0.1-0.2-0.1-0.4v-0.1c0-0.2,0-0.3,0.1-0.4c0.1-0.1,0.2-0.1,0.4-0.1
		s0.3,0,0.4,0.1c0.1,0.1,0.1,0.2,0.1,0.4v0.1c0,0.2,0,0.3-0.1,0.4C265.3,53.6,265.2,53.6,265,53.6z M264.5,54.7h1v5.4h-1V54.7z"/>
	<path class="st9" d="M268.8,60.2c-0.5,0-0.9-0.1-1.3-0.3c-0.3-0.2-0.6-0.4-0.9-0.8l0.7-0.6c0.2,0.3,0.4,0.5,0.7,0.6
		c0.3,0.1,0.5,0.2,0.9,0.2c0.3,0,0.6-0.1,0.8-0.2c0.2-0.1,0.3-0.3,0.3-0.6c0-0.2-0.1-0.4-0.2-0.5c-0.1-0.1-0.3-0.2-0.7-0.3l-0.5-0.1
		c-0.3,0-0.5-0.1-0.7-0.2s-0.4-0.2-0.6-0.3c-0.2-0.1-0.3-0.3-0.4-0.5c-0.1-0.2-0.1-0.4-0.1-0.6c0-0.3,0-0.5,0.1-0.7
		c0.1-0.2,0.2-0.4,0.4-0.5c0.2-0.1,0.4-0.2,0.6-0.3s0.5-0.1,0.8-0.1c0.5,0,0.8,0.1,1.1,0.2s0.6,0.4,0.8,0.6l-0.6,0.6
		c-0.1-0.2-0.3-0.3-0.5-0.5c-0.2-0.1-0.5-0.2-0.8-0.2c-0.3,0-0.6,0.1-0.7,0.2c-0.2,0.1-0.2,0.3-0.2,0.6c0,0.2,0.1,0.4,0.2,0.5
		c0.2,0.1,0.4,0.2,0.7,0.2l0.5,0.1c0.6,0.1,1,0.3,1.3,0.5c0.3,0.3,0.4,0.6,0.4,1c0,0.5-0.2,0.9-0.6,1.2
		C270,60.1,269.4,60.2,268.8,60.2z"/>
	<path class="st9" d="M276,60.1c-0.3,0-0.6-0.1-0.8-0.3c-0.2-0.2-0.3-0.4-0.3-0.7v-3.5h-0.9v-0.8h0.5c0.2,0,0.3,0,0.4-0.1
		c0.1-0.1,0.1-0.2,0.1-0.4v-1h0.9v1.5h1.2v0.8H276v3.7h1.1v0.8H276z"/>
	<path class="st9" d="M278.4,60.1v-5.4h1v1h0.1c0-0.1,0.1-0.3,0.2-0.4c0.1-0.1,0.2-0.2,0.3-0.3s0.3-0.2,0.4-0.2
		c0.2-0.1,0.4-0.1,0.6-0.1h0.3v1h-0.5c-0.5,0-0.8,0.1-1,0.2s-0.4,0.4-0.4,0.6v3.5H278.4z"/>
	<path class="st9" d="M286.2,60.1c-0.3,0-0.5-0.1-0.7-0.2c-0.1-0.2-0.2-0.4-0.3-0.6h-0.1c-0.1,0.3-0.3,0.6-0.6,0.8
		c-0.3,0.2-0.6,0.3-1,0.3c-0.6,0-1-0.1-1.3-0.4c-0.3-0.3-0.5-0.7-0.5-1.2c0-0.5,0.2-0.9,0.6-1.2c0.4-0.3,1-0.4,1.7-0.4h1v-0.5
		c0-0.4-0.1-0.6-0.3-0.8c-0.2-0.2-0.5-0.3-0.9-0.3c-0.3,0-0.6,0.1-0.8,0.2c-0.2,0.1-0.4,0.3-0.5,0.6l-0.6-0.5
		c0.2-0.3,0.4-0.5,0.7-0.7c0.3-0.2,0.7-0.3,1.2-0.3c0.7,0,1.2,0.2,1.6,0.5c0.4,0.3,0.6,0.8,0.6,1.4v2.8h0.6v0.8H286.2z M283.8,59.5
		c0.4,0,0.7-0.1,0.9-0.3c0.2-0.2,0.4-0.4,0.4-0.7v-0.8h-1c-0.4,0-0.8,0.1-1,0.2c-0.2,0.1-0.3,0.3-0.3,0.6v0.2c0,0.2,0.1,0.4,0.3,0.6
		C283.3,59.4,283.5,59.5,283.8,59.5z"/>
	<path class="st9" d="M288.4,53.6c-0.2,0-0.3,0-0.4-0.1c-0.1-0.1-0.1-0.2-0.1-0.4v-0.1c0-0.2,0-0.3,0.1-0.4c0.1-0.1,0.2-0.1,0.4-0.1
		s0.3,0,0.4,0.1c0.1,0.1,0.1,0.2,0.1,0.4v0.1c0,0.2,0,0.3-0.1,0.4C288.7,53.6,288.6,53.6,288.4,53.6z M287.9,54.7h1v5.4h-1V54.7z"/>
	<path class="st9" d="M291.6,60.1c-0.3,0-0.6-0.1-0.8-0.3s-0.3-0.4-0.3-0.7v-6.7h1v6.9h0.8v0.8H291.6z"/>
	<path class="st9" d="M293.9,53.6c-0.2,0-0.3,0-0.4-0.1c-0.1-0.1-0.1-0.2-0.1-0.4v-0.1c0-0.2,0-0.3,0.1-0.4c0.1-0.1,0.2-0.1,0.4-0.1
		s0.3,0,0.4,0.1c0.1,0.1,0.1,0.2,0.1,0.4v0.1c0,0.2,0,0.3-0.1,0.4C294.3,53.6,294.1,53.6,293.9,53.6z M293.5,54.7h1v5.4h-1V54.7z"/>
	<path class="st9" d="M296.1,60.1v-5.4h1v0.9h0.1c0.1-0.3,0.3-0.5,0.5-0.7s0.6-0.3,1-0.3c0.6,0,1,0.2,1.3,0.5
		c0.3,0.4,0.5,0.9,0.5,1.5v3.4h-1v-3.3c0-0.9-0.4-1.4-1.1-1.4c-0.2,0-0.3,0-0.5,0.1c-0.1,0-0.3,0.1-0.4,0.2
		c-0.1,0.1-0.2,0.2-0.3,0.3c-0.1,0.1-0.1,0.3-0.1,0.4v3.7H296.1z"/>
	<path class="st9" d="M306.7,60.7c0,0.6-0.2,1-0.6,1.3c-0.4,0.3-1.1,0.4-2,0.4c-0.9,0-1.5-0.1-1.8-0.3c-0.4-0.2-0.6-0.6-0.6-1
		c0-0.3,0.1-0.5,0.2-0.7c0.2-0.2,0.4-0.3,0.7-0.4v-0.1c-0.4-0.1-0.5-0.4-0.5-0.8c0-0.3,0.1-0.5,0.3-0.6c0.2-0.1,0.4-0.3,0.7-0.3v0
		c-0.3-0.2-0.6-0.4-0.7-0.6c-0.2-0.3-0.3-0.6-0.3-1c0-0.3,0-0.5,0.1-0.7c0.1-0.2,0.2-0.4,0.4-0.6c0.2-0.2,0.4-0.3,0.7-0.4
		c0.3-0.1,0.5-0.1,0.9-0.1c0.2,0,0.4,0,0.5,0.1c0.2,0,0.3,0.1,0.5,0.1v-0.1c0-0.2,0.1-0.4,0.2-0.5c0.1-0.1,0.3-0.2,0.5-0.2h0.8v0.8
		h-1.1V55c0.5,0.3,0.7,0.8,0.7,1.4c0,0.3,0,0.5-0.1,0.7s-0.2,0.4-0.4,0.6s-0.4,0.3-0.7,0.4c-0.3,0.1-0.5,0.1-0.9,0.1
		c-0.1,0-0.2,0-0.3,0c-0.1,0-0.2,0-0.3,0c-0.2,0-0.3,0.1-0.4,0.2c-0.1,0.1-0.2,0.2-0.2,0.4c0,0.2,0.1,0.3,0.2,0.3
		c0.1,0.1,0.3,0.1,0.6,0.1h1.2c0.7,0,1.1,0.1,1.5,0.4C306.6,59.9,306.7,60.2,306.7,60.7z M305.8,60.8c0-0.2-0.1-0.4-0.2-0.5
		s-0.4-0.2-0.8-0.2h-1.8c-0.3,0.2-0.4,0.4-0.4,0.7c0,0.2,0.1,0.4,0.3,0.6c0.2,0.2,0.5,0.2,0.9,0.2h0.7c0.5,0,0.8-0.1,1-0.2
		C305.7,61.2,305.8,61,305.8,60.8z M304,57.6c0.3,0,0.6-0.1,0.8-0.2c0.2-0.2,0.3-0.4,0.3-0.7v-0.3c0-0.3-0.1-0.6-0.3-0.7
		c-0.2-0.2-0.5-0.2-0.8-0.2c-0.3,0-0.6,0.1-0.8,0.2c-0.2,0.2-0.3,0.4-0.3,0.7v0.3c0,0.3,0.1,0.6,0.3,0.7
		C303.4,57.5,303.7,57.6,304,57.6z"/>
	<path class="st9" d="M311.4,60.1c-0.3,0-0.6-0.1-0.8-0.3c-0.2-0.2-0.3-0.4-0.3-0.7v-3.5h-0.9v-0.8h0.5c0.2,0,0.3,0,0.4-0.1
		s0.1-0.2,0.1-0.4v-1h0.9v1.5h1.2v0.8h-1.2v3.7h1.1v0.8H311.4z"/>
	<path class="st9" d="M317.7,60.1c-0.3,0-0.5-0.1-0.7-0.2c-0.1-0.2-0.2-0.4-0.3-0.6h-0.1c-0.1,0.3-0.3,0.6-0.6,0.8
		c-0.3,0.2-0.6,0.3-1,0.3c-0.6,0-1-0.1-1.3-0.4s-0.5-0.7-0.5-1.2c0-0.5,0.2-0.9,0.6-1.2c0.4-0.3,1-0.4,1.7-0.4h1v-0.5
		c0-0.4-0.1-0.6-0.3-0.8c-0.2-0.2-0.5-0.3-0.9-0.3c-0.3,0-0.6,0.1-0.8,0.2c-0.2,0.1-0.4,0.3-0.5,0.6l-0.6-0.5
		c0.2-0.3,0.4-0.5,0.7-0.7c0.3-0.2,0.7-0.3,1.2-0.3c0.7,0,1.2,0.2,1.6,0.5c0.4,0.3,0.6,0.8,0.6,1.4v2.8h0.6v0.8H317.7z M315.4,59.5
		c0.4,0,0.7-0.1,0.9-0.3c0.2-0.2,0.4-0.4,0.4-0.7v-0.8h-1c-0.4,0-0.8,0.1-1,0.2c-0.2,0.1-0.3,0.3-0.3,0.6v0.2c0,0.2,0.1,0.4,0.3,0.6
		C314.8,59.4,315.1,59.5,315.4,59.5z"/>
	<path class="st9" d="M319.4,52.4h1v4.8h0.1l0.8-0.9l1.4-1.5h1.1l-1.9,2.1l2.2,3.3h-1.2l-1.7-2.7l-0.8,0.8v1.9h-1V52.4z"/>
	<path class="st9" d="M326.9,60.2c-0.4,0-0.7-0.1-1-0.2c-0.3-0.1-0.6-0.3-0.8-0.6c-0.2-0.2-0.4-0.5-0.5-0.9s-0.2-0.7-0.2-1.2
		c0-0.4,0.1-0.8,0.2-1.2c0.1-0.3,0.3-0.6,0.5-0.9c0.2-0.2,0.5-0.4,0.8-0.6s0.6-0.2,1-0.2c0.4,0,0.7,0.1,1,0.2
		c0.3,0.1,0.5,0.3,0.7,0.6c0.2,0.2,0.4,0.5,0.5,0.8c0.1,0.3,0.2,0.7,0.2,1v0.4h-3.8v0.2c0,0.5,0.1,0.8,0.4,1.1
		c0.3,0.3,0.6,0.4,1.1,0.4c0.3,0,0.6-0.1,0.9-0.2c0.2-0.2,0.4-0.4,0.6-0.6l0.6,0.5c-0.2,0.4-0.5,0.6-0.8,0.9
		C327.8,60.1,327.4,60.2,326.9,60.2z M326.9,55.4c-0.2,0-0.4,0-0.6,0.1c-0.2,0.1-0.3,0.2-0.5,0.3c-0.1,0.1-0.2,0.3-0.3,0.5
		c-0.1,0.2-0.1,0.4-0.1,0.6V57h2.8v-0.1c0-0.4-0.1-0.8-0.4-1.1C327.6,55.5,327.3,55.4,326.9,55.4z"/>
	<path class="st9" d="M333,54.7h1v0.9h0c0.1-0.3,0.3-0.6,0.6-0.7s0.6-0.3,1-0.3c0.3,0,0.6,0.1,0.9,0.2c0.3,0.1,0.5,0.3,0.7,0.6
		c0.2,0.2,0.3,0.5,0.4,0.9c0.1,0.3,0.1,0.7,0.1,1.2s0,0.8-0.1,1.2s-0.2,0.6-0.4,0.9c-0.2,0.2-0.4,0.4-0.7,0.6
		c-0.3,0.1-0.6,0.2-0.9,0.2c-0.4,0-0.7-0.1-1-0.3c-0.3-0.2-0.5-0.4-0.6-0.7h0v3h-1V54.7z M335.3,59.4c0.4,0,0.8-0.1,1-0.4
		c0.3-0.3,0.4-0.6,0.4-1.1V57c0-0.5-0.1-0.8-0.4-1.1c-0.3-0.3-0.6-0.4-1-0.4c-0.2,0-0.4,0-0.5,0.1c-0.2,0-0.3,0.1-0.4,0.2
		c-0.1,0.1-0.2,0.2-0.3,0.3c-0.1,0.1-0.1,0.3-0.1,0.4v2c0,0.1,0,0.3,0.1,0.4c0.1,0.1,0.2,0.2,0.3,0.3c0.1,0.1,0.3,0.2,0.4,0.2
		C334.9,59.4,335.1,59.4,335.3,59.4z"/>
	<path class="st9" d="M339.1,60.1v-5.4h1v1h0.1c0-0.1,0.1-0.3,0.2-0.4c0.1-0.1,0.2-0.2,0.3-0.3s0.3-0.2,0.4-0.2
		c0.2-0.1,0.4-0.1,0.6-0.1h0.3v1h-0.5c-0.5,0-0.8,0.1-1,0.2c-0.2,0.2-0.4,0.4-0.4,0.6v3.5H339.1z"/>
	<path class="st9" d="M345,60.2c-0.4,0-0.7-0.1-1-0.2c-0.3-0.1-0.6-0.3-0.8-0.6s-0.4-0.5-0.5-0.9s-0.2-0.7-0.2-1.2s0.1-0.8,0.2-1.2
		s0.3-0.6,0.5-0.9s0.5-0.4,0.8-0.6s0.6-0.2,1-0.2s0.7,0.1,1,0.2c0.3,0.1,0.6,0.3,0.8,0.6c0.2,0.2,0.4,0.5,0.5,0.9
		c0.1,0.3,0.2,0.7,0.2,1.2s-0.1,0.8-0.2,1.2c-0.1,0.3-0.3,0.6-0.5,0.9c-0.2,0.2-0.5,0.4-0.8,0.6C345.7,60.2,345.4,60.2,345,60.2z
		 M345,59.4c0.4,0,0.8-0.1,1-0.4s0.4-0.7,0.4-1.2V57c0-0.5-0.1-0.9-0.4-1.2s-0.6-0.4-1-0.4c-0.4,0-0.8,0.1-1,0.4s-0.4,0.7-0.4,1.2
		v0.8c0,0.5,0.1,0.9,0.4,1.2S344.6,59.4,345,59.4z"/>
	<path class="st9" d="M349,55.6h-0.9v-0.8h0.9v-1c0-0.4,0.1-0.7,0.3-1c0.2-0.2,0.5-0.4,0.9-0.4h0.8v0.8H350v1.5h3.1v5.4h-1v-4.6H350
		v4.6h-1V55.6z M352.6,53.6c-0.2,0-0.3,0-0.4-0.1c-0.1-0.1-0.1-0.2-0.1-0.4v-0.1c0-0.2,0-0.3,0.1-0.4c0.1-0.1,0.2-0.1,0.4-0.1
		s0.3,0,0.4,0.1c0.1,0.1,0.1,0.2,0.1,0.4v0.1c0,0.2,0,0.3-0.1,0.4C353,53.6,352.8,53.6,352.6,53.6z"/>
	<path class="st9" d="M356.1,60.1c-0.3,0-0.6-0.1-0.8-0.3c-0.2-0.2-0.3-0.4-0.3-0.7v-3.5h-0.9v-0.8h0.5c0.2,0,0.3,0,0.4-0.1
		s0.1-0.2,0.1-0.4v-1h0.9v1.5h1.2v0.8h-1.2v3.7h1.1v0.8H356.1z"/>
	<path class="st9" d="M359.5,57.9v-1.7c0.6,0,1-0.1,1.3-0.4s0.5-0.6,0.5-1v-0.1c0-0.3-0.1-0.6-0.3-0.8c-0.2-0.2-0.5-0.3-0.8-0.3
		c-0.4,0-0.7,0.1-0.9,0.3c-0.2,0.2-0.4,0.5-0.5,0.8l-0.9-0.3c0.1-0.2,0.2-0.4,0.3-0.6c0.1-0.2,0.3-0.4,0.5-0.5s0.4-0.3,0.7-0.4
		c0.3-0.1,0.5-0.1,0.9-0.1c0.3,0,0.6,0,0.9,0.1s0.5,0.2,0.7,0.4s0.3,0.4,0.4,0.6s0.2,0.5,0.2,0.8c0,0.3-0.1,0.6-0.2,0.9
		s-0.3,0.5-0.4,0.6s-0.4,0.3-0.6,0.4c-0.2,0.1-0.5,0.2-0.7,0.2v1.1H359.5z M359.9,60.2c-0.2,0-0.4-0.1-0.5-0.2
		c-0.1-0.1-0.2-0.3-0.2-0.5v-0.2c0-0.2,0.1-0.3,0.2-0.5c0.1-0.1,0.3-0.2,0.5-0.2c0.2,0,0.4,0.1,0.5,0.2c0.1,0.1,0.2,0.3,0.2,0.5v0.2
		c0,0.2-0.1,0.3-0.2,0.5C360.3,60.2,360.2,60.2,359.9,60.2z"/>
</g>
<path class="st1" d="M36.2,54.1l-3.8,3.8L31,56.5c-0.1-0.1-0.2-0.1-0.2,0l-0.4,0.4c-0.1,0.1-0.1,0.2,0,0.2l1.9,1.9
	c0.1,0.1,0.2,0.1,0.2,0l4.3-4.3c0.1-0.1,0.1-0.2,0-0.2l-0.4-0.4C36.4,54,36.3,54,36.2,54.1z"/>
<linearGradient id="SVGID_1_" gradientUnits="userSpaceOnUse" x1="26.2" y1="420.45" x2="78" y2="420.45" gradientTransform="matrix(6.123234e-17 1 1 -6.123234e-17 -222 -11)">
	<stop  offset="0" style="stop-color:#FFFFFF;stop-opacity:0"/>
	<stop  offset="0.6437" style="stop-color:#FFFFFF;stop-opacity:0.77"/>
</linearGradient>
<polygon class="st10" points="385.2,15.2 385.2,67 11.7,67 11.7,15.2 "/>
<linearGradient id="SVGID_2_" gradientUnits="userSpaceOnUse" x1="-119" y1="-97.15" x2="-54" y2="-97.15" gradientTransform="matrix(-1.110223e-16 -1 -1 1.110223e-16 101 141)">
	<stop  offset="0" style="stop-color:#FFFFFF;stop-opacity:0"/>
	<stop  offset="0.6437" style="stop-color:#FFFFFF;stop-opacity:0.77"/>
</linearGradient>
<polygon class="st11" points="12,260 12,195 384.3,195 384.3,260 "/>
<linearGradient id="SVGID_3_" gradientUnits="userSpaceOnUse" x1="16.3" y1="421.45" x2="68.1" y2="421.45" gradientTransform="matrix(6.123234e-17 1 1 -6.123234e-17 -222 -11)">
	<stop  offset="0" style="stop-color:#FFFFFF;stop-opacity:0"/>
	<stop  offset="0.6437" style="stop-color:#FFFFFF;stop-opacity:0.77"/>
</linearGradient>
<polygon class="st12" points="386.2,5.3 386.2,57.1 12.7,57.1 12.7,5.3 "/>
<linearGradient id="SVGID_4_" gradientUnits="userSpaceOnUse" x1="12" y1="419.55" x2="63.8" y2="419.55" gradientTransform="matrix(6.123234e-17 1 1 -6.123234e-17 -222 -11)">
	<stop  offset="0" style="stop-color:#FFFFFF;stop-opacity:0"/>
	<stop  offset="0.6437" style="stop-color:#FFFFFF;stop-opacity:0.77"/>
</linearGradient>
<polygon class="st13" points="384.3,1 384.3,52.8 10.8,52.8 10.8,1 "/>
<linearGradient id="SVGID_5_" gradientUnits="userSpaceOnUse" x1="28.6543" y1="419.55" x2="63.8131" y2="419.55" gradientTransform="matrix(6.123234e-17 1 1 -6.123234e-17 -222 -11)">
	<stop  offset="0" style="stop-color:#FFFFFF;stop-opacity:0"/>
	<stop  offset="0.6437" style="stop-color:#FFFFFF;stop-opacity:0.77"/>
</linearGradient>
<polygon class="st14" points="384.3,17.7 384.3,52.8 10.8,52.8 10.8,17.7 "/>
<linearGradient id="SVGID_6_" gradientUnits="userSpaceOnUse" x1="20.6" y1="414.75" x2="72.4" y2="414.75" gradientTransform="matrix(6.123234e-17 1 1 -6.123234e-17 -222 -11)">
	<stop  offset="0" style="stop-color:#FFFFFF;stop-opacity:0"/>
	<stop  offset="0.6437" style="stop-color:#FFFFFF;stop-opacity:0.77"/>
</linearGradient>
<polygon class="st15" points="379.5,9.6 379.5,61.4 6,61.4 6,9.6 "/>
<linearGradient id="SVGID_7_" gradientUnits="userSpaceOnUse" x1="37.3" y1="419.55" x2="65.057" y2="419.55" gradientTransform="matrix(6.123234e-17 1 1 -6.123234e-17 -222 -11)">
	<stop  offset="0" style="stop-color:#FFFFFF;stop-opacity:0"/>
	<stop  offset="0.6437" style="stop-color:#FFFFFF;stop-opacity:0.77"/>
</linearGradient>
<polygon class="st16" points="384.3,26.3 384.3,54 10.8,54 10.8,26.3 "/>
<linearGradient id="SVGID_8_" gradientUnits="userSpaceOnUse" x1="-109.2446" y1="-96.15" x2="-73.6446" y2="-96.15" gradientTransform="matrix(-6.123234e-17 -1 -1 6.123234e-17 102 141.0001)">
	<stop  offset="0" style="stop-color:#FFFFFF;stop-opacity:0"/>
	<stop  offset="0.6437" style="stop-color:#FFFFFF;stop-opacity:0.77"/>
</linearGradient>
<polygon class="st17" points="12,250.2 12,214.6 384.3,214.6 384.3,250.2 "/>
<linearGradient id="SVGID_9_" gradientUnits="userSpaceOnUse" x1="-115.9999" y1="-94.55" x2="-80.3999" y2="-94.55" gradientTransform="matrix(-6.123234e-17 -1 -1 6.123234e-17 102 141.0001)">
	<stop  offset="0" style="stop-color:#FFFFFF;stop-opacity:0"/>
	<stop  offset="0.6437" style="stop-color:#FFFFFF;stop-opacity:0.77"/>
</linearGradient>
<polygon class="st18" points="9.8,257 9.8,221.4 383.3,221.4 383.3,257 "/>
<linearGradient id="SVGID_10_" gradientUnits="userSpaceOnUse" x1="-118.9999" y1="-96.45" x2="-83.3999" y2="-96.45" gradientTransform="matrix(-6.123234e-17 -1 -1 6.123234e-17 102 141.0001)">
	<stop  offset="0" style="stop-color:#FFFFFF;stop-opacity:0"/>
	<stop  offset="0.6437" style="stop-color:#FFFFFF;stop-opacity:0.77"/>
</linearGradient>
<polygon class="st19" points="11.7,260 11.7,224.4 385.2,224.4 385.2,260 "/>
<linearGradient id="SVGID_11_" gradientUnits="userSpaceOnUse" x1="-107.548" y1="-96.45" x2="-83.3717" y2="-96.45" gradientTransform="matrix(-6.123234e-17 -1 -1 6.123234e-17 102 141.0001)">
	<stop  offset="0" style="stop-color:#FFFFFF;stop-opacity:0"/>
	<stop  offset="0.6437" style="stop-color:#FFFFFF;stop-opacity:0.77"/>
</linearGradient>
<polygon class="st20" points="11.7,248.5 11.7,224.4 385.2,224.4 385.2,248.5 "/>
<linearGradient id="SVGID_12_" gradientUnits="userSpaceOnUse" x1="-113.0619" y1="-101.25" x2="-77.4336" y2="-101.25" gradientTransform="matrix(-6.123234e-17 -1 -1 6.123234e-17 102 141.0001)">
	<stop  offset="0" style="stop-color:#FFFFFF;stop-opacity:0"/>
	<stop  offset="0.6437" style="stop-color:#FFFFFF;stop-opacity:0.77"/>
</linearGradient>
<polygon class="st21" points="16.5,254.1 16.5,218.4 390,218.4 390,254.1 "/>
<linearGradient id="SVGID_13_" gradientUnits="userSpaceOnUse" x1="-101.5999" y1="-96.45" x2="-82.4999" y2="-96.45" gradientTransform="matrix(-6.123234e-17 -1 -1 6.123234e-17 102 141.0001)">
	<stop  offset="0" style="stop-color:#FFFFFF;stop-opacity:0"/>
	<stop  offset="0.6437" style="stop-color:#FFFFFF;stop-opacity:0.77"/>
</linearGradient>
<polygon class="st22" points="11.7,242.6 11.7,223.5 385.2,223.5 385.2,242.6 "/>
</svg>
