<?xml version="1.0" encoding="utf-8"?>
<!-- Generator: Adobe Illustrator 22.0.0, SVG Export Plug-In . SVG Version: 6.00 Build 0)  -->
<svg version="1.1" id="Layer_1" xmlns="http://www.w3.org/2000/svg" xmlns:xlink="http://www.w3.org/1999/xlink" x="0px" y="0px"
	 viewBox="0 0 392 193" style="enable-background:new 0 0 392 193;" xml:space="preserve">
<style type="text/css">
	.st0{opacity:7.000000e-02;fill:#333333;enable-background:new    ;}
	.st1{fill:#FFFFFF;}
	.st2{enable-background:new    ;}
	.st3{fill:#2B2B2B;}
	.st4{fill:#A6B8C3;}
	.st5{fill:none;stroke:#D8DCDE;stroke-miterlimit:10;}
	.st6{fill:#D8DCDE;}
	.st7{fill:#3CBC98;}
	.st8{fill:none;}
	.st9{fill:url(#SVGID_1_);}
</style>
<path class="st0" d="M383,193H9c-5,0-9-4-9-9V10c0-5,4-9,9-9h374c5,0,9,4,9,9v174C392,189,388,193,383,193z"/>
<path class="st1" d="M380.9,191H11.1c-5,0-9-4-9-9V9c0-5,4-9,9-9h369.8c5,0,9,4,9,9v173C389.9,187,385.9,191,380.9,191z"/>
<g class="st2">
	<path class="st3" d="M49.4,35.9v4.5c0,0.3,0,0.6,0.1,0.9c0.1,0.3,0.1,0.5,0.3,0.6s0.3,0.3,0.5,0.4c0.2,0.1,0.5,0.1,0.8,0.1
		c0.6,0,1-0.2,1.3-0.5s0.4-0.8,0.4-1.5v-4.5h1v4.3c0,0.5,0,1-0.1,1.4c-0.1,0.4-0.3,0.7-0.5,1c-0.2,0.3-0.5,0.4-0.8,0.6
		s-0.8,0.2-1.3,0.2c-0.5,0-0.9-0.1-1.2-0.2s-0.6-0.3-0.8-0.6c-0.2-0.3-0.4-0.6-0.4-1c-0.1-0.4-0.1-0.8-0.1-1.4v-4.3H49.4z"/>
	<path class="st3" d="M57.1,43.2c-0.5,0-0.9-0.1-1.3-0.3s-0.6-0.4-0.9-0.8l0.7-0.6c0.2,0.3,0.4,0.5,0.7,0.6c0.3,0.1,0.5,0.2,0.9,0.2
		c0.3,0,0.6-0.1,0.8-0.2c0.2-0.1,0.3-0.3,0.3-0.6c0-0.2-0.1-0.4-0.2-0.5c-0.1-0.1-0.3-0.2-0.7-0.3l-0.5-0.1c-0.3,0-0.5-0.1-0.7-0.2
		c-0.2-0.1-0.4-0.2-0.6-0.3c-0.2-0.1-0.3-0.3-0.4-0.5c-0.1-0.2-0.1-0.4-0.1-0.6c0-0.3,0-0.5,0.1-0.7c0.1-0.2,0.2-0.4,0.4-0.5
		c0.2-0.1,0.4-0.2,0.6-0.3s0.5-0.1,0.8-0.1c0.5,0,0.8,0.1,1.1,0.2s0.6,0.4,0.8,0.6L58.4,39c-0.1-0.2-0.3-0.3-0.5-0.5
		c-0.2-0.1-0.5-0.2-0.8-0.2c-0.3,0-0.6,0.1-0.7,0.2c-0.2,0.1-0.2,0.3-0.2,0.6c0,0.2,0.1,0.4,0.2,0.5c0.2,0.1,0.4,0.2,0.7,0.2
		l0.5,0.1c0.6,0.1,1,0.3,1.3,0.5c0.3,0.3,0.4,0.6,0.4,1c0,0.5-0.2,0.9-0.6,1.2C58.2,43.1,57.7,43.2,57.1,43.2z"/>
	<path class="st3" d="M62.6,43.2c-0.4,0-0.7-0.1-1-0.2c-0.3-0.1-0.6-0.3-0.8-0.6c-0.2-0.2-0.4-0.5-0.5-0.9c-0.1-0.3-0.2-0.7-0.2-1.2
		c0-0.4,0.1-0.8,0.2-1.2c0.1-0.3,0.3-0.6,0.5-0.9c0.2-0.2,0.5-0.4,0.8-0.6s0.6-0.2,1-0.2s0.7,0.1,1,0.2c0.3,0.1,0.5,0.3,0.7,0.6
		c0.2,0.2,0.4,0.5,0.5,0.8c0.1,0.3,0.2,0.7,0.2,1v0.4h-3.8v0.2c0,0.5,0.1,0.8,0.4,1.1c0.3,0.3,0.6,0.4,1.1,0.4
		c0.3,0,0.6-0.1,0.9-0.2c0.2-0.2,0.4-0.4,0.6-0.6l0.6,0.5c-0.2,0.4-0.5,0.6-0.8,0.9S63.1,43.2,62.6,43.2z M62.6,38.4
		c-0.2,0-0.4,0-0.6,0.1c-0.2,0.1-0.3,0.2-0.5,0.3c-0.1,0.1-0.2,0.3-0.3,0.5c-0.1,0.2-0.1,0.4-0.1,0.6V40h2.8v-0.1
		c0-0.4-0.1-0.8-0.4-1.1C63.3,38.5,63,38.4,62.6,38.4z"/>
	<path class="st3" d="M70.4,43.2c-0.5,0-0.9-0.1-1.3-0.3s-0.6-0.4-0.9-0.8l0.7-0.6c0.2,0.3,0.4,0.5,0.7,0.6c0.3,0.1,0.5,0.2,0.9,0.2
		c0.3,0,0.6-0.1,0.8-0.2c0.2-0.1,0.3-0.3,0.3-0.6c0-0.2-0.1-0.4-0.2-0.5c-0.1-0.1-0.3-0.2-0.7-0.3l-0.5-0.1c-0.3,0-0.5-0.1-0.7-0.2
		c-0.2-0.1-0.4-0.2-0.6-0.3c-0.2-0.1-0.3-0.3-0.4-0.5c-0.1-0.2-0.1-0.4-0.1-0.6c0-0.3,0-0.5,0.1-0.7c0.1-0.2,0.2-0.4,0.4-0.5
		c0.2-0.1,0.4-0.2,0.6-0.3s0.5-0.1,0.8-0.1c0.5,0,0.8,0.1,1.1,0.2s0.6,0.4,0.8,0.6L71.7,39c-0.1-0.2-0.3-0.3-0.5-0.5
		c-0.2-0.1-0.5-0.2-0.8-0.2c-0.3,0-0.6,0.1-0.7,0.2c-0.2,0.1-0.2,0.3-0.2,0.6c0,0.2,0.1,0.4,0.2,0.5c0.2,0.1,0.4,0.2,0.7,0.2
		l0.5,0.1c0.6,0.1,1,0.3,1.3,0.5c0.3,0.3,0.4,0.6,0.4,1c0,0.5-0.2,0.9-0.6,1.2C71.5,43.1,71,43.2,70.4,43.2z"/>
	<path class="st3" d="M75.1,43.1c-0.3,0-0.6-0.1-0.8-0.3c-0.2-0.2-0.3-0.4-0.3-0.7v-3.5h-0.9v-0.8h0.5c0.2,0,0.3,0,0.4-0.1
		s0.1-0.2,0.1-0.4v-1H75v1.5h1.2v0.8H75v3.7h1.1v0.8H75.1z"/>
	<path class="st3" d="M79.5,43.2c-0.4,0-0.7-0.1-1-0.2c-0.3-0.1-0.6-0.3-0.8-0.6c-0.2-0.2-0.4-0.5-0.5-0.9c-0.1-0.3-0.2-0.7-0.2-1.2
		s0.1-0.8,0.2-1.2c0.1-0.3,0.3-0.6,0.5-0.9c0.2-0.2,0.5-0.4,0.8-0.6s0.6-0.2,1-0.2c0.4,0,0.7,0.1,1,0.2c0.3,0.1,0.6,0.3,0.8,0.6
		c0.2,0.2,0.4,0.5,0.5,0.9c0.1,0.3,0.2,0.7,0.2,1.2s-0.1,0.8-0.2,1.2c-0.1,0.3-0.3,0.6-0.5,0.9c-0.2,0.2-0.5,0.4-0.8,0.6
		C80.2,43.2,79.9,43.2,79.5,43.2z M79.5,42.4c0.4,0,0.8-0.1,1-0.4c0.3-0.3,0.4-0.7,0.4-1.2V40c0-0.5-0.1-0.9-0.4-1.2
		c-0.3-0.3-0.6-0.4-1-0.4c-0.4,0-0.8,0.1-1,0.4s-0.4,0.7-0.4,1.2v0.8c0,0.5,0.1,0.9,0.4,1.2S79.1,42.4,79.5,42.4z"/>
	<path class="st3" d="M83.3,37.7h1v0.9h0c0.1-0.3,0.3-0.6,0.6-0.7s0.6-0.3,1-0.3c0.3,0,0.6,0.1,0.9,0.2c0.3,0.1,0.5,0.3,0.7,0.6
		c0.2,0.2,0.3,0.5,0.4,0.9c0.1,0.3,0.1,0.7,0.1,1.2s0,0.8-0.1,1.2s-0.2,0.6-0.4,0.9c-0.2,0.2-0.4,0.4-0.7,0.6
		c-0.3,0.1-0.6,0.2-0.9,0.2c-0.4,0-0.7-0.1-1-0.3c-0.3-0.2-0.5-0.4-0.6-0.7h0v3h-1V37.7z M85.5,42.4c0.4,0,0.8-0.1,1-0.4
		c0.3-0.3,0.4-0.6,0.4-1.1V40c0-0.5-0.1-0.8-0.4-1.1c-0.3-0.3-0.6-0.4-1-0.4c-0.2,0-0.4,0-0.5,0.1c-0.2,0-0.3,0.1-0.4,0.2
		c-0.1,0.1-0.2,0.2-0.3,0.3c-0.1,0.1-0.1,0.3-0.1,0.4v2c0,0.1,0,0.3,0.1,0.4c0.1,0.1,0.2,0.2,0.3,0.3c0.1,0.1,0.3,0.2,0.4,0.2
		C85.2,42.4,85.4,42.4,85.5,42.4z"/>
	<path class="st3" d="M92.8,43.1c-0.3,0-0.6-0.1-0.8-0.3s-0.3-0.4-0.3-0.7v-6.7h1v6.9h0.8v0.8H92.8z"/>
	<path class="st3" d="M96.8,43.2c-0.4,0-0.7-0.1-1-0.2c-0.3-0.1-0.6-0.3-0.8-0.6c-0.2-0.2-0.4-0.5-0.5-0.9c-0.1-0.3-0.2-0.7-0.2-1.2
		s0.1-0.8,0.2-1.2c0.1-0.3,0.3-0.6,0.5-0.9c0.2-0.2,0.5-0.4,0.8-0.6s0.6-0.2,1-0.2c0.4,0,0.7,0.1,1,0.2c0.3,0.1,0.6,0.3,0.8,0.6
		c0.2,0.2,0.4,0.5,0.5,0.9c0.1,0.3,0.2,0.7,0.2,1.2s-0.1,0.8-0.2,1.2c-0.1,0.3-0.3,0.6-0.5,0.9c-0.2,0.2-0.5,0.4-0.8,0.6
		C97.5,43.2,97.1,43.2,96.8,43.2z M96.8,42.4c0.4,0,0.8-0.1,1-0.4c0.3-0.3,0.4-0.7,0.4-1.2V40c0-0.5-0.1-0.9-0.4-1.2
		c-0.3-0.3-0.6-0.4-1-0.4c-0.4,0-0.8,0.1-1,0.4s-0.4,0.7-0.4,1.2v0.8c0,0.5,0.1,0.9,0.4,1.2S96.3,42.4,96.8,42.4z"/>
	<path class="st3" d="M102.2,43.2c-0.5,0-0.9-0.1-1.3-0.3s-0.6-0.4-0.9-0.8l0.7-0.6c0.2,0.3,0.4,0.5,0.7,0.6
		c0.3,0.1,0.5,0.2,0.9,0.2c0.3,0,0.6-0.1,0.8-0.2c0.2-0.1,0.3-0.3,0.3-0.6c0-0.2-0.1-0.4-0.2-0.5c-0.1-0.1-0.3-0.2-0.7-0.3l-0.5-0.1
		c-0.3,0-0.5-0.1-0.7-0.2c-0.2-0.1-0.4-0.2-0.6-0.3c-0.2-0.1-0.3-0.3-0.4-0.5c-0.1-0.2-0.1-0.4-0.1-0.6c0-0.3,0-0.5,0.1-0.7
		c0.1-0.2,0.2-0.4,0.4-0.5c0.2-0.1,0.4-0.2,0.6-0.3s0.5-0.1,0.8-0.1c0.5,0,0.8,0.1,1.1,0.2s0.6,0.4,0.8,0.6l-0.6,0.6
		c-0.1-0.2-0.3-0.3-0.5-0.5c-0.2-0.1-0.5-0.2-0.8-0.2c-0.3,0-0.6,0.1-0.7,0.2c-0.2,0.1-0.2,0.3-0.2,0.6c0,0.2,0.1,0.4,0.2,0.5
		c0.2,0.1,0.4,0.2,0.7,0.2l0.5,0.1c0.6,0.1,1,0.3,1.3,0.5c0.3,0.3,0.4,0.6,0.4,1c0,0.5-0.2,0.9-0.6,1.2
		C103.3,43.1,102.8,43.2,102.2,43.2z"/>
	<path class="st3" d="M107.2,43.2c-0.5,0-0.9-0.1-1.3-0.3s-0.6-0.4-0.9-0.8l0.7-0.6c0.2,0.3,0.4,0.5,0.7,0.6
		c0.3,0.1,0.5,0.2,0.9,0.2c0.3,0,0.6-0.1,0.8-0.2c0.2-0.1,0.3-0.3,0.3-0.6c0-0.2-0.1-0.4-0.2-0.5c-0.1-0.1-0.3-0.2-0.7-0.3l-0.5-0.1
		c-0.3,0-0.5-0.1-0.7-0.2c-0.2-0.1-0.4-0.2-0.6-0.3c-0.2-0.1-0.3-0.3-0.4-0.5c-0.1-0.2-0.1-0.4-0.1-0.6c0-0.3,0-0.5,0.1-0.7
		c0.1-0.2,0.2-0.4,0.4-0.5c0.2-0.1,0.4-0.2,0.6-0.3s0.5-0.1,0.8-0.1c0.5,0,0.8,0.1,1.1,0.2s0.6,0.4,0.8,0.6l-0.6,0.6
		c-0.1-0.2-0.3-0.3-0.5-0.5c-0.2-0.1-0.5-0.2-0.8-0.2c-0.3,0-0.6,0.1-0.7,0.2c-0.2,0.1-0.2,0.3-0.2,0.6c0,0.2,0.1,0.4,0.2,0.5
		c0.2,0.1,0.4,0.2,0.7,0.2l0.5,0.1c0.6,0.1,1,0.3,1.3,0.5c0.3,0.3,0.4,0.6,0.4,1c0,0.5-0.2,0.9-0.6,1.2
		C108.4,43.1,107.9,43.2,107.2,43.2z"/>
</g>
<path class="st4" d="M231.1,33.5c-3.1,0-5.7,2.5-5.7,5.7c0,3.1,2.5,5.7,5.7,5.7s5.7-2.5,5.7-5.7S234.3,33.5,231.1,33.5z M231.1,43.8
	c-2.5,0-4.6-2-4.6-4.6c0-2.5,2-4.6,4.6-4.6c2.5,0,4.6,2,4.6,4.6S233.6,43.8,231.1,43.8z M231.1,36c0.5,0,1,0.4,1,1s-0.4,1-1,1
	s-1-0.4-1-1S230.6,36,231.1,36z M232.4,41.8c0,0.2-0.1,0.3-0.3,0.3h-2c-0.2,0-0.3-0.1-0.3-0.3v-0.5c0-0.2,0.1-0.3,0.3-0.3h0.3v-1.5
	h-0.3c-0.2,0-0.3-0.1-0.3-0.3v-0.5c0-0.2,0.1-0.3,0.3-0.3h1.5c0.2,0,0.3,0.1,0.3,0.3V41h0.3c0.2,0,0.3,0.1,0.3,0.3v0.5H232.4z"/>
<g class="st2">
	<path class="st4" d="M249.9,39.9h-3.5v3.2h-1v-7.3h1V39h3.5v-3.1h1v7.3h-1V39.9z"/>
	<path class="st4" d="M254.8,43.2c-0.4,0-0.7-0.1-1-0.2c-0.3-0.1-0.6-0.3-0.8-0.6c-0.2-0.2-0.4-0.5-0.5-0.9
		c-0.1-0.3-0.2-0.7-0.2-1.2s0.1-0.8,0.2-1.2c0.1-0.3,0.3-0.6,0.5-0.9c0.2-0.2,0.5-0.4,0.8-0.6c0.3-0.1,0.6-0.2,1-0.2s0.7,0.1,1,0.2
		c0.3,0.1,0.6,0.3,0.8,0.6s0.4,0.5,0.5,0.9s0.2,0.7,0.2,1.2s-0.1,0.8-0.2,1.2s-0.3,0.6-0.5,0.9s-0.5,0.4-0.8,0.6
		C255.5,43.2,255.1,43.2,254.8,43.2z M254.8,42.4c0.4,0,0.8-0.1,1-0.4c0.3-0.3,0.4-0.7,0.4-1.2V40c0-0.5-0.1-0.9-0.4-1.2
		c-0.3-0.3-0.6-0.4-1-0.4c-0.4,0-0.8,0.1-1,0.4s-0.4,0.7-0.4,1.2v0.8c0,0.5,0.1,0.9,0.4,1.2S254.3,42.4,254.8,42.4z"/>
	<path class="st4" d="M257.9,37.7h0.9l0.6,2.3l0.5,2.2h0l0.6-2.2l0.7-2.3h0.9l0.7,2.3l0.6,2.2h0L264,40l0.6-2.3h0.9l-1.4,5.4h-1.1
		l-0.7-2.5l-0.5-1.6h0l-0.4,1.6l-0.7,2.5h-1.1L257.9,37.7z"/>
	<path class="st4" d="M272.5,42.2L272.5,42.2c-0.2,0.3-0.4,0.6-0.6,0.7c-0.3,0.2-0.6,0.3-1,0.3c-0.3,0-0.6-0.1-0.9-0.2
		c-0.3-0.1-0.5-0.3-0.7-0.6c-0.2-0.2-0.3-0.5-0.4-0.9c-0.1-0.3-0.1-0.7-0.1-1.2s0-0.8,0.1-1.2c0.1-0.3,0.2-0.6,0.4-0.9
		c0.2-0.2,0.4-0.4,0.7-0.6c0.3-0.1,0.6-0.2,0.9-0.2c0.4,0,0.7,0.1,1,0.3c0.3,0.2,0.5,0.4,0.6,0.7h0v-3.2h1v7.7h-1V42.2z M271.2,42.4
		c0.2,0,0.4,0,0.5-0.1c0.2,0,0.3-0.1,0.4-0.2c0.1-0.1,0.2-0.2,0.3-0.3c0.1-0.1,0.1-0.3,0.1-0.4v-2c0-0.1,0-0.3-0.1-0.4
		c-0.1-0.1-0.2-0.2-0.3-0.3c-0.1-0.1-0.3-0.2-0.4-0.2c-0.2,0-0.3-0.1-0.5-0.1c-0.4,0-0.8,0.1-1,0.4s-0.4,0.6-0.4,1.1v0.9
		c0,0.5,0.1,0.8,0.4,1.1C270.4,42.3,270.7,42.4,271.2,42.4z"/>
	<path class="st4" d="M277.2,43.2c-0.4,0-0.7-0.1-1-0.2c-0.3-0.1-0.6-0.3-0.8-0.6c-0.2-0.2-0.4-0.5-0.5-0.9
		c-0.1-0.3-0.2-0.7-0.2-1.2s0.1-0.8,0.2-1.2c0.1-0.3,0.3-0.6,0.5-0.9c0.2-0.2,0.5-0.4,0.8-0.6c0.3-0.1,0.6-0.2,1-0.2s0.7,0.1,1,0.2
		c0.3,0.1,0.6,0.3,0.8,0.6s0.4,0.5,0.5,0.9s0.2,0.7,0.2,1.2s-0.1,0.8-0.2,1.2s-0.3,0.6-0.5,0.9s-0.5,0.4-0.8,0.6
		C277.9,43.2,277.6,43.2,277.2,43.2z M277.2,42.4c0.4,0,0.8-0.1,1-0.4c0.3-0.3,0.4-0.7,0.4-1.2V40c0-0.5-0.1-0.9-0.4-1.2
		c-0.3-0.3-0.6-0.4-1-0.4c-0.4,0-0.8,0.1-1,0.4s-0.4,0.7-0.4,1.2v0.8c0,0.5,0.1,0.9,0.4,1.2S276.8,42.4,277.2,42.4z"/>
	<path class="st4" d="M283.1,43.2c-0.4,0-0.7-0.1-1-0.2c-0.3-0.1-0.6-0.3-0.8-0.6c-0.2-0.2-0.4-0.5-0.5-0.9
		c-0.1-0.3-0.2-0.7-0.2-1.2c0-0.4,0.1-0.8,0.2-1.2c0.1-0.3,0.3-0.6,0.5-0.9c0.2-0.2,0.5-0.4,0.8-0.6c0.3-0.1,0.6-0.2,1-0.2
		s0.7,0.1,1,0.2c0.3,0.1,0.5,0.3,0.7,0.6c0.2,0.2,0.4,0.5,0.5,0.8c0.1,0.3,0.2,0.7,0.2,1v0.4h-3.8v0.2c0,0.5,0.1,0.8,0.4,1.1
		c0.3,0.3,0.6,0.4,1.1,0.4c0.3,0,0.6-0.1,0.9-0.2c0.2-0.2,0.4-0.4,0.6-0.6l0.6,0.5c-0.2,0.4-0.5,0.6-0.8,0.9S283.6,43.2,283.1,43.2z
		 M283.1,38.4c-0.2,0-0.4,0-0.6,0.1c-0.2,0.1-0.3,0.2-0.5,0.3c-0.1,0.1-0.2,0.3-0.3,0.5c-0.1,0.2-0.1,0.4-0.1,0.6V40h2.8v-0.1
		c0-0.4-0.1-0.8-0.4-1.1C283.8,38.5,283.5,38.4,283.1,38.4z"/>
	<path class="st4" d="M288.4,43.2c-0.5,0-0.9-0.1-1.3-0.3c-0.3-0.2-0.6-0.4-0.9-0.8l0.7-0.6c0.2,0.3,0.4,0.5,0.7,0.6
		c0.3,0.1,0.5,0.2,0.9,0.2c0.3,0,0.6-0.1,0.8-0.2c0.2-0.1,0.3-0.3,0.3-0.6c0-0.2-0.1-0.4-0.2-0.5c-0.1-0.1-0.3-0.2-0.7-0.3l-0.5-0.1
		c-0.3,0-0.5-0.1-0.7-0.2s-0.4-0.2-0.6-0.3c-0.2-0.1-0.3-0.3-0.4-0.5c-0.1-0.2-0.1-0.4-0.1-0.6c0-0.3,0-0.5,0.1-0.7
		c0.1-0.2,0.2-0.4,0.4-0.5c0.2-0.1,0.4-0.2,0.6-0.3s0.5-0.1,0.8-0.1c0.5,0,0.8,0.1,1.1,0.2s0.6,0.4,0.8,0.6l-0.6,0.6
		c-0.1-0.2-0.3-0.3-0.5-0.5c-0.2-0.1-0.5-0.2-0.8-0.2c-0.3,0-0.6,0.1-0.7,0.2c-0.2,0.1-0.2,0.3-0.2,0.6c0,0.2,0.1,0.4,0.2,0.5
		c0.2,0.1,0.4,0.2,0.7,0.2l0.5,0.1c0.6,0.1,1,0.3,1.3,0.5c0.3,0.3,0.4,0.6,0.4,1c0,0.5-0.2,0.9-0.6,1.2
		C289.5,43.1,289,43.2,288.4,43.2z"/>
	<path class="st4" d="M295.9,43.2c-0.5,0-0.9-0.1-1.3-0.3s-0.6-0.4-0.9-0.8l0.7-0.6c0.2,0.3,0.4,0.5,0.7,0.6
		c0.3,0.1,0.5,0.2,0.9,0.2c0.3,0,0.6-0.1,0.8-0.2c0.2-0.1,0.3-0.3,0.3-0.6c0-0.2-0.1-0.4-0.2-0.5s-0.3-0.2-0.7-0.3l-0.5-0.1
		c-0.3,0-0.5-0.1-0.7-0.2c-0.2-0.1-0.4-0.2-0.6-0.3c-0.2-0.1-0.3-0.3-0.4-0.5c-0.1-0.2-0.1-0.4-0.1-0.6c0-0.3,0-0.5,0.1-0.7
		c0.1-0.2,0.2-0.4,0.4-0.5c0.2-0.1,0.4-0.2,0.6-0.3c0.2-0.1,0.5-0.1,0.8-0.1c0.5,0,0.8,0.1,1.1,0.2c0.3,0.2,0.6,0.4,0.8,0.6
		l-0.6,0.6c-0.1-0.2-0.3-0.3-0.5-0.5c-0.2-0.1-0.5-0.2-0.8-0.2c-0.3,0-0.6,0.1-0.7,0.2c-0.2,0.1-0.2,0.3-0.2,0.6
		c0,0.2,0.1,0.4,0.2,0.5c0.2,0.1,0.4,0.2,0.7,0.2l0.5,0.1c0.6,0.1,1,0.3,1.3,0.5c0.3,0.3,0.4,0.6,0.4,1c0,0.5-0.2,0.9-0.6,1.2
		C297.1,43.1,296.6,43.2,295.9,43.2z"/>
	<path class="st4" d="M300.6,43.1c-0.3,0-0.6-0.1-0.8-0.3c-0.2-0.2-0.3-0.4-0.3-0.7v-3.5h-0.9v-0.8h0.5c0.2,0,0.3,0,0.4-0.1
		c0.1-0.1,0.1-0.2,0.1-0.4v-1h0.9v1.5h1.2v0.8h-1.2v3.7h1.1v0.8H300.6z"/>
	<path class="st4" d="M305.1,43.2c-0.4,0-0.7-0.1-1-0.2c-0.3-0.1-0.6-0.3-0.8-0.6s-0.4-0.5-0.5-0.9c-0.1-0.3-0.2-0.7-0.2-1.2
		s0.1-0.8,0.2-1.2c0.1-0.3,0.3-0.6,0.5-0.9s0.5-0.4,0.8-0.6c0.3-0.1,0.6-0.2,1-0.2c0.4,0,0.7,0.1,1,0.2s0.6,0.3,0.8,0.6
		c0.2,0.2,0.4,0.5,0.5,0.9c0.1,0.3,0.2,0.7,0.2,1.2s-0.1,0.8-0.2,1.2c-0.1,0.3-0.3,0.6-0.5,0.9c-0.2,0.2-0.5,0.4-0.8,0.6
		C305.8,43.2,305.4,43.2,305.1,43.2z M305.1,42.4c0.4,0,0.8-0.1,1-0.4s0.4-0.7,0.4-1.2V40c0-0.5-0.1-0.9-0.4-1.2s-0.6-0.4-1-0.4
		c-0.4,0-0.8,0.1-1,0.4s-0.4,0.7-0.4,1.2v0.8c0,0.5,0.1,0.9,0.4,1.2S304.6,42.4,305.1,42.4z"/>
	<path class="st4" d="M308.8,37.7h1v0.9h0c0.1-0.3,0.3-0.6,0.6-0.7s0.6-0.3,1-0.3c0.3,0,0.6,0.1,0.9,0.2c0.3,0.1,0.5,0.3,0.7,0.6
		s0.3,0.5,0.4,0.9c0.1,0.3,0.1,0.7,0.1,1.2s0,0.8-0.1,1.2s-0.2,0.6-0.4,0.9s-0.4,0.4-0.7,0.6c-0.3,0.1-0.6,0.2-0.9,0.2
		c-0.4,0-0.7-0.1-1-0.3c-0.3-0.2-0.5-0.4-0.6-0.7h0v3h-1V37.7z M311.1,42.4c0.4,0,0.8-0.1,1-0.4c0.3-0.3,0.4-0.6,0.4-1.1V40
		c0-0.5-0.1-0.8-0.4-1.1c-0.3-0.3-0.6-0.4-1-0.4c-0.2,0-0.4,0-0.5,0.1c-0.2,0-0.3,0.1-0.4,0.2c-0.1,0.1-0.2,0.2-0.3,0.3
		c-0.1,0.1-0.1,0.3-0.1,0.4v2c0,0.1,0,0.3,0.1,0.4c0.1,0.1,0.2,0.2,0.3,0.3c0.1,0.1,0.3,0.2,0.4,0.2S310.9,42.4,311.1,42.4z"/>
	<path class="st4" d="M318.4,43.1c-0.3,0-0.6-0.1-0.8-0.3s-0.3-0.4-0.3-0.7v-6.7h1v6.9h0.8v0.8H318.4z"/>
	<path class="st4" d="M322.3,43.2c-0.4,0-0.7-0.1-1-0.2c-0.3-0.1-0.6-0.3-0.8-0.6c-0.2-0.2-0.4-0.5-0.5-0.9
		c-0.1-0.3-0.2-0.7-0.2-1.2s0.1-0.8,0.2-1.2c0.1-0.3,0.3-0.6,0.5-0.9c0.2-0.2,0.5-0.4,0.8-0.6s0.6-0.2,1-0.2c0.4,0,0.7,0.1,1,0.2
		c0.3,0.1,0.6,0.3,0.8,0.6s0.4,0.5,0.5,0.9c0.1,0.3,0.2,0.7,0.2,1.2s-0.1,0.8-0.2,1.2c-0.1,0.3-0.3,0.6-0.5,0.9s-0.5,0.4-0.8,0.6
		C323,43.2,322.7,43.2,322.3,43.2z M322.3,42.4c0.4,0,0.8-0.1,1-0.4c0.3-0.3,0.4-0.7,0.4-1.2V40c0-0.5-0.1-0.9-0.4-1.2
		c-0.3-0.3-0.6-0.4-1-0.4s-0.8,0.1-1,0.4s-0.4,0.7-0.4,1.2v0.8c0,0.5,0.1,0.9,0.4,1.2S321.9,42.4,322.3,42.4z"/>
	<path class="st4" d="M327.8,43.2c-0.5,0-0.9-0.1-1.3-0.3s-0.6-0.4-0.9-0.8l0.7-0.6c0.2,0.3,0.4,0.5,0.7,0.6s0.5,0.2,0.9,0.2
		c0.3,0,0.6-0.1,0.8-0.2c0.2-0.1,0.3-0.3,0.3-0.6c0-0.2-0.1-0.4-0.2-0.5c-0.1-0.1-0.3-0.2-0.7-0.3l-0.5-0.1c-0.3,0-0.5-0.1-0.7-0.2
		s-0.4-0.2-0.6-0.3s-0.3-0.3-0.4-0.5c-0.1-0.2-0.1-0.4-0.1-0.6c0-0.3,0-0.5,0.1-0.7c0.1-0.2,0.2-0.4,0.4-0.5
		c0.2-0.1,0.4-0.2,0.6-0.3c0.2-0.1,0.5-0.1,0.8-0.1c0.5,0,0.8,0.1,1.1,0.2c0.3,0.2,0.6,0.4,0.8,0.6l-0.6,0.6
		c-0.1-0.2-0.3-0.3-0.5-0.5c-0.2-0.1-0.5-0.2-0.8-0.2c-0.3,0-0.6,0.1-0.7,0.2c-0.2,0.1-0.2,0.3-0.2,0.6c0,0.2,0.1,0.4,0.2,0.5
		c0.2,0.1,0.4,0.2,0.7,0.2l0.5,0.1c0.6,0.1,1,0.3,1.3,0.5c0.3,0.3,0.4,0.6,0.4,1c0,0.5-0.2,0.9-0.6,1.2
		C328.9,43.1,328.4,43.2,327.8,43.2z"/>
	<path class="st4" d="M332.8,43.2c-0.5,0-0.9-0.1-1.3-0.3c-0.3-0.2-0.6-0.4-0.9-0.8l0.7-0.6c0.2,0.3,0.4,0.5,0.7,0.6
		c0.3,0.1,0.5,0.2,0.9,0.2c0.3,0,0.6-0.1,0.8-0.2c0.2-0.1,0.3-0.3,0.3-0.6c0-0.2-0.1-0.4-0.2-0.5c-0.1-0.1-0.3-0.2-0.7-0.3l-0.5-0.1
		c-0.3,0-0.5-0.1-0.7-0.2s-0.4-0.2-0.6-0.3c-0.2-0.1-0.3-0.3-0.4-0.5c-0.1-0.2-0.1-0.4-0.1-0.6c0-0.3,0-0.5,0.1-0.7
		c0.1-0.2,0.2-0.4,0.4-0.5c0.2-0.1,0.4-0.2,0.6-0.3s0.5-0.1,0.8-0.1c0.5,0,0.8,0.1,1.1,0.2s0.6,0.4,0.8,0.6l-0.6,0.6
		c-0.1-0.2-0.3-0.3-0.5-0.5c-0.2-0.1-0.5-0.2-0.8-0.2c-0.3,0-0.6,0.1-0.7,0.2c-0.2,0.1-0.2,0.3-0.2,0.6c0,0.2,0.1,0.4,0.2,0.5
		c0.2,0.1,0.4,0.2,0.7,0.2l0.5,0.1c0.6,0.1,1,0.3,1.3,0.5c0.3,0.3,0.4,0.6,0.4,1c0,0.5-0.2,0.9-0.6,1.2
		C333.9,43.1,333.4,43.2,332.8,43.2z"/>
	<path class="st4" d="M338.1,37.7h0.9l0.6,2.3l0.5,2.2h0l0.6-2.2l0.7-2.3h0.9L343,40l0.6,2.2h0l0.5-2.2l0.6-2.3h0.9l-1.4,5.4h-1.1
		l-0.7-2.5l-0.5-1.6h0l-0.4,1.6l-0.7,2.5h-1.1L338.1,37.7z"/>
	<path class="st4" d="M348.8,43.2c-0.4,0-0.7-0.1-1-0.2c-0.3-0.1-0.6-0.3-0.8-0.6c-0.2-0.2-0.4-0.5-0.5-0.9
		c-0.1-0.3-0.2-0.7-0.2-1.2s0.1-0.8,0.2-1.2c0.1-0.3,0.3-0.6,0.5-0.9c0.2-0.2,0.5-0.4,0.8-0.6c0.3-0.1,0.6-0.2,1-0.2s0.7,0.1,1,0.2
		c0.3,0.1,0.6,0.3,0.8,0.6s0.4,0.5,0.5,0.9s0.2,0.7,0.2,1.2s-0.1,0.8-0.2,1.2s-0.3,0.6-0.5,0.9s-0.5,0.4-0.8,0.6
		C349.5,43.2,349.2,43.2,348.8,43.2z M348.8,42.4c0.4,0,0.8-0.1,1-0.4c0.3-0.3,0.4-0.7,0.4-1.2V40c0-0.5-0.1-0.9-0.4-1.2
		c-0.3-0.3-0.6-0.4-1-0.4c-0.4,0-0.8,0.1-1,0.4s-0.4,0.7-0.4,1.2v0.8c0,0.5,0.1,0.9,0.4,1.2S348.4,42.4,348.8,42.4z"/>
	<path class="st4" d="M352.6,43.1v-5.4h1v1h0.1c0-0.1,0.1-0.3,0.2-0.4c0.1-0.1,0.2-0.2,0.3-0.3s0.3-0.2,0.4-0.2
		c0.2-0.1,0.4-0.1,0.6-0.1h0.3v1H355c-0.5,0-0.8,0.1-1,0.2s-0.4,0.4-0.4,0.6v3.5H352.6z"/>
	<path class="st4" d="M356.5,35.4h1v4.8h0.1l0.8-0.9l1.4-1.5h1.1l-1.9,2.1l2.2,3.3h-1.2l-1.7-2.7l-0.8,0.8v1.9h-1V35.4z"/>
	<path class="st4" d="M363.1,40.9v-1.7c0.6,0,1-0.1,1.3-0.4c0.3-0.2,0.5-0.6,0.5-1v-0.1c0-0.3-0.1-0.6-0.3-0.8
		c-0.2-0.2-0.5-0.3-0.8-0.3c-0.4,0-0.7,0.1-0.9,0.3c-0.2,0.2-0.4,0.5-0.5,0.8l-0.9-0.3c0.1-0.2,0.2-0.4,0.3-0.6s0.3-0.4,0.5-0.5
		c0.2-0.2,0.4-0.3,0.7-0.4c0.3-0.1,0.5-0.1,0.9-0.1c0.3,0,0.6,0,0.9,0.1c0.3,0.1,0.5,0.2,0.7,0.4s0.3,0.4,0.4,0.6
		c0.1,0.2,0.2,0.5,0.2,0.8c0,0.3-0.1,0.6-0.2,0.9c-0.1,0.2-0.3,0.5-0.4,0.6c-0.2,0.2-0.4,0.3-0.6,0.4c-0.2,0.1-0.5,0.2-0.7,0.2v1.1
		H363.1z M363.5,43.2c-0.2,0-0.4-0.1-0.5-0.2c-0.1-0.1-0.2-0.3-0.2-0.5v-0.2c0-0.2,0.1-0.3,0.2-0.5c0.1-0.1,0.3-0.2,0.5-0.2
		s0.4,0.1,0.5,0.2c0.1,0.1,0.2,0.3,0.2,0.5v0.2c0,0.2-0.1,0.3-0.2,0.5C363.9,43.2,363.8,43.2,363.5,43.2z"/>
</g>
<g class="st2">
	<path class="st3" d="M33.5,66.7c-0.6,0-1.1-0.1-1.5-0.3c-0.4-0.2-0.8-0.5-1.1-0.9l0.7-0.6c0.3,0.3,0.5,0.6,0.8,0.8s0.7,0.3,1.1,0.3
		c0.5,0,0.9-0.1,1.1-0.3c0.3-0.2,0.4-0.5,0.4-0.9c0-0.3-0.1-0.6-0.3-0.7c-0.2-0.2-0.5-0.3-1-0.4l-0.6-0.1c-0.7-0.1-1.2-0.4-1.6-0.7
		c-0.4-0.3-0.5-0.8-0.5-1.3c0-0.3,0.1-0.6,0.2-0.9c0.1-0.3,0.3-0.5,0.5-0.6c0.2-0.2,0.5-0.3,0.8-0.4c0.3-0.1,0.6-0.1,1-0.1
		c0.5,0,1,0.1,1.4,0.3c0.4,0.2,0.7,0.5,1,0.9L35.2,61c-0.2-0.3-0.4-0.5-0.7-0.6c-0.3-0.2-0.6-0.2-1-0.2c-0.4,0-0.8,0.1-1,0.3
		c-0.2,0.2-0.4,0.5-0.4,0.8c0,0.3,0.1,0.6,0.3,0.7c0.2,0.2,0.5,0.3,1,0.4l0.6,0.1c0.7,0.2,1.2,0.4,1.6,0.7c0.3,0.3,0.5,0.8,0.5,1.3
		c0,0.3-0.1,0.6-0.2,0.9c-0.1,0.3-0.3,0.5-0.5,0.7c-0.2,0.2-0.5,0.3-0.8,0.4C34.2,66.7,33.9,66.7,33.5,66.7z"/>
	<path class="st3" d="M38.7,66.6c-0.3,0-0.6-0.1-0.8-0.3c-0.2-0.2-0.3-0.4-0.3-0.7v-3.5h-0.9v-0.8h0.5c0.2,0,0.3,0,0.4-0.1
		s0.1-0.2,0.1-0.4v-1h0.9v1.5h1.2v0.8h-1.2v3.7h1.1v0.8H38.7z"/>
	<path class="st3" d="M43.2,66.7c-0.4,0-0.7-0.1-1-0.2c-0.3-0.1-0.6-0.3-0.8-0.6c-0.2-0.2-0.4-0.5-0.5-0.9c-0.1-0.3-0.2-0.7-0.2-1.2
		s0.1-0.8,0.2-1.2c0.1-0.3,0.3-0.6,0.5-0.9c0.2-0.2,0.5-0.4,0.8-0.6s0.6-0.2,1-0.2c0.4,0,0.7,0.1,1,0.2c0.3,0.1,0.6,0.3,0.8,0.6
		c0.2,0.2,0.4,0.5,0.5,0.9c0.1,0.3,0.2,0.7,0.2,1.2s-0.1,0.8-0.2,1.2c-0.1,0.3-0.3,0.6-0.5,0.9c-0.2,0.2-0.5,0.4-0.8,0.6
		C43.9,66.7,43.5,66.7,43.2,66.7z M43.2,65.9c0.4,0,0.8-0.1,1-0.4c0.3-0.3,0.4-0.7,0.4-1.2v-0.8c0-0.5-0.1-0.9-0.4-1.2
		c-0.3-0.3-0.6-0.4-1-0.4c-0.4,0-0.8,0.1-1,0.4s-0.4,0.7-0.4,1.2v0.8c0,0.5,0.1,0.9,0.4,1.2S42.7,65.9,43.2,65.9z"/>
	<path class="st3" d="M46.9,61.2h1v0.9h0c0.1-0.3,0.3-0.6,0.6-0.7s0.6-0.3,1-0.3c0.3,0,0.6,0.1,0.9,0.2c0.3,0.1,0.5,0.3,0.7,0.6
		c0.2,0.2,0.3,0.5,0.4,0.9c0.1,0.3,0.1,0.7,0.1,1.2s0,0.8-0.1,1.2s-0.2,0.6-0.4,0.9c-0.2,0.2-0.4,0.4-0.7,0.6
		c-0.3,0.1-0.6,0.2-0.9,0.2c-0.4,0-0.7-0.1-1-0.3c-0.3-0.2-0.5-0.4-0.6-0.7h0v3h-1V61.2z M49.2,65.9c0.4,0,0.8-0.1,1-0.4
		c0.3-0.3,0.4-0.6,0.4-1.1v-0.9c0-0.5-0.1-0.8-0.4-1.1c-0.3-0.3-0.6-0.4-1-0.4c-0.2,0-0.4,0-0.5,0.1c-0.2,0-0.3,0.1-0.4,0.2
		c-0.1,0.1-0.2,0.2-0.3,0.3c-0.1,0.1-0.1,0.3-0.1,0.4v2c0,0.1,0,0.3,0.1,0.4c0.1,0.1,0.2,0.2,0.3,0.3c0.1,0.1,0.3,0.2,0.4,0.2
		C48.9,65.9,49,65.9,49.2,65.9z"/>
	<path class="st3" d="M56.5,66.6c-0.3,0-0.6-0.1-0.8-0.3s-0.3-0.4-0.3-0.7v-6.7h1v6.9h0.8v0.8H56.5z"/>
	<path class="st3" d="M60.4,66.7c-0.4,0-0.7-0.1-1-0.2c-0.3-0.1-0.6-0.3-0.8-0.6c-0.2-0.2-0.4-0.5-0.5-0.9C58,64.7,58,64.4,58,63.9
		s0.1-0.8,0.2-1.2c0.1-0.3,0.3-0.6,0.5-0.9c0.2-0.2,0.5-0.4,0.8-0.6s0.6-0.2,1-0.2c0.4,0,0.7,0.1,1,0.2c0.3,0.1,0.6,0.3,0.8,0.6
		c0.2,0.2,0.4,0.5,0.5,0.9c0.1,0.3,0.2,0.7,0.2,1.2s-0.1,0.8-0.2,1.2c-0.1,0.3-0.3,0.6-0.5,0.9c-0.2,0.2-0.5,0.4-0.8,0.6
		C61.1,66.7,60.8,66.7,60.4,66.7z M60.4,65.9c0.4,0,0.8-0.1,1-0.4c0.3-0.3,0.4-0.7,0.4-1.2v-0.8c0-0.5-0.1-0.9-0.4-1.2
		c-0.3-0.3-0.6-0.4-1-0.4c-0.4,0-0.8,0.1-1,0.4S59,63,59,63.5v0.8c0,0.5,0.1,0.9,0.4,1.2S60,65.9,60.4,65.9z"/>
	<path class="st3" d="M65.9,66.7c-0.5,0-0.9-0.1-1.3-0.3S64,66,63.7,65.7l0.7-0.6c0.2,0.3,0.4,0.5,0.7,0.6c0.3,0.1,0.5,0.2,0.9,0.2
		c0.3,0,0.6-0.1,0.8-0.2c0.2-0.1,0.3-0.3,0.3-0.6c0-0.2-0.1-0.4-0.2-0.5c-0.1-0.1-0.3-0.2-0.7-0.3l-0.5-0.1c-0.3,0-0.5-0.1-0.7-0.2
		c-0.2-0.1-0.4-0.2-0.6-0.3c-0.2-0.1-0.3-0.3-0.4-0.5c-0.1-0.2-0.1-0.4-0.1-0.6c0-0.3,0-0.5,0.1-0.7c0.1-0.2,0.2-0.4,0.4-0.5
		c0.2-0.1,0.4-0.2,0.6-0.3s0.5-0.1,0.8-0.1c0.5,0,0.8,0.1,1.1,0.2s0.6,0.4,0.8,0.6l-0.6,0.6c-0.1-0.2-0.3-0.3-0.5-0.5
		c-0.2-0.1-0.5-0.2-0.8-0.2c-0.3,0-0.6,0.1-0.7,0.2c-0.2,0.1-0.2,0.3-0.2,0.6c0,0.2,0.1,0.4,0.2,0.5c0.2,0.1,0.4,0.2,0.7,0.2
		l0.5,0.1c0.6,0.1,1,0.3,1.3,0.5c0.3,0.3,0.4,0.6,0.4,1c0,0.5-0.2,0.9-0.6,1.2C67,66.6,66.5,66.7,65.9,66.7z"/>
	<path class="st3" d="M70.9,66.7c-0.5,0-0.9-0.1-1.3-0.3S69,66,68.7,65.7l0.7-0.6c0.2,0.3,0.4,0.5,0.7,0.6c0.3,0.1,0.5,0.2,0.9,0.2
		c0.3,0,0.6-0.1,0.8-0.2c0.2-0.1,0.3-0.3,0.3-0.6c0-0.2-0.1-0.4-0.2-0.5c-0.1-0.1-0.3-0.2-0.7-0.3l-0.5-0.1c-0.3,0-0.5-0.1-0.7-0.2
		c-0.2-0.1-0.4-0.2-0.6-0.3c-0.2-0.1-0.3-0.3-0.4-0.5C69,63.2,69,63,69,62.7c0-0.3,0-0.5,0.1-0.7c0.1-0.2,0.2-0.4,0.4-0.5
		c0.2-0.1,0.4-0.2,0.6-0.3s0.5-0.1,0.8-0.1c0.5,0,0.8,0.1,1.1,0.2s0.6,0.4,0.8,0.6l-0.6,0.6c-0.1-0.2-0.3-0.3-0.5-0.5
		c-0.2-0.1-0.5-0.2-0.8-0.2c-0.3,0-0.6,0.1-0.7,0.2c-0.2,0.1-0.2,0.3-0.2,0.6c0,0.2,0.1,0.4,0.2,0.5c0.2,0.1,0.4,0.2,0.7,0.2
		l0.5,0.1c0.6,0.1,1,0.3,1.3,0.5c0.3,0.3,0.4,0.6,0.4,1c0,0.5-0.2,0.9-0.6,1.2C72,66.6,71.5,66.7,70.9,66.7z"/>
	<path class="st3" d="M78.1,66.6c-0.3,0-0.6-0.1-0.8-0.3c-0.2-0.2-0.3-0.4-0.3-0.7v-3.5h-0.9v-0.8h0.5c0.2,0,0.3,0,0.4-0.1
		s0.1-0.2,0.1-0.4v-1h0.9v1.5h1.2v0.8h-1.2v3.7h1.1v0.8H78.1z"/>
	<path class="st3" d="M80.5,66.6v-5.4h1v1h0.1c0-0.1,0.1-0.3,0.2-0.4c0.1-0.1,0.2-0.2,0.3-0.3c0.1-0.1,0.3-0.2,0.4-0.2
		c0.2-0.1,0.4-0.1,0.6-0.1h0.3v1h-0.5c-0.5,0-0.8,0.1-1,0.2c-0.2,0.2-0.4,0.4-0.4,0.6v3.5H80.5z"/>
	<path class="st3" d="M84.9,60.1c-0.2,0-0.3,0-0.4-0.1c-0.1-0.1-0.1-0.2-0.1-0.4v-0.1c0-0.2,0-0.3,0.1-0.4c0.1-0.1,0.2-0.1,0.4-0.1
		s0.3,0,0.4,0.1c0.1,0.1,0.1,0.2,0.1,0.4v0.1c0,0.2,0,0.3-0.1,0.4C85.2,60.1,85.1,60.1,84.9,60.1z M84.4,61.2h1v5.4h-1V61.2z"/>
	<path class="st3" d="M91.7,67.2c0,0.6-0.2,1-0.6,1.3c-0.4,0.3-1.1,0.4-2,0.4c-0.9,0-1.5-0.1-1.8-0.3c-0.4-0.2-0.6-0.6-0.6-1
		c0-0.3,0.1-0.5,0.2-0.7c0.2-0.2,0.4-0.3,0.7-0.4v-0.1C87.2,66.2,87,66,87,65.6c0-0.3,0.1-0.5,0.3-0.6s0.4-0.3,0.7-0.3v0
		c-0.3-0.2-0.6-0.4-0.7-0.6c-0.2-0.3-0.3-0.6-0.3-1c0-0.3,0-0.5,0.1-0.7c0.1-0.2,0.2-0.4,0.4-0.6c0.2-0.2,0.4-0.3,0.7-0.4
		c0.3-0.1,0.5-0.1,0.9-0.1c0.2,0,0.4,0,0.5,0.1c0.2,0,0.3,0.1,0.5,0.1v-0.1c0-0.2,0.1-0.4,0.2-0.5c0.1-0.1,0.3-0.2,0.5-0.2h0.8v0.8
		h-1.1v0.3c0.5,0.3,0.7,0.8,0.7,1.4c0,0.3,0,0.5-0.1,0.7s-0.2,0.4-0.4,0.6s-0.4,0.3-0.7,0.4c-0.3,0.1-0.5,0.1-0.9,0.1
		c-0.1,0-0.2,0-0.3,0c-0.1,0-0.2,0-0.3,0c-0.2,0-0.3,0.1-0.4,0.2c-0.1,0.1-0.2,0.2-0.2,0.4c0,0.2,0.1,0.3,0.2,0.3
		c0.1,0.1,0.3,0.1,0.6,0.1h1.2c0.7,0,1.1,0.1,1.5,0.4C91.6,66.4,91.7,66.7,91.7,67.2z M90.8,67.3c0-0.2-0.1-0.4-0.2-0.5
		c-0.2-0.1-0.4-0.2-0.8-0.2h-1.8c-0.3,0.2-0.4,0.4-0.4,0.7c0,0.2,0.1,0.4,0.3,0.6c0.2,0.2,0.5,0.2,0.9,0.2h0.7
		c0.5,0,0.8-0.1,1.1-0.2C90.7,67.7,90.8,67.5,90.8,67.3z M89,64.1c0.3,0,0.6-0.1,0.8-0.2c0.2-0.2,0.3-0.4,0.3-0.7v-0.3
		c0-0.3-0.1-0.6-0.3-0.7c-0.2-0.2-0.5-0.2-0.8-0.2c-0.3,0-0.6,0.1-0.8,0.2c-0.2,0.2-0.3,0.4-0.3,0.7v0.3c0,0.3,0.1,0.6,0.3,0.7
		C88.4,64,88.7,64.1,89,64.1z"/>
	<path class="st3" d="M97.3,67.2c0,0.6-0.2,1-0.6,1.3c-0.4,0.3-1.1,0.4-2,0.4c-0.9,0-1.5-0.1-1.8-0.3c-0.4-0.2-0.6-0.6-0.6-1
		c0-0.3,0.1-0.5,0.2-0.7c0.2-0.2,0.4-0.3,0.7-0.4v-0.1c-0.4-0.1-0.5-0.4-0.5-0.8c0-0.3,0.1-0.5,0.3-0.6s0.4-0.3,0.7-0.3v0
		c-0.3-0.2-0.6-0.4-0.7-0.6c-0.2-0.3-0.3-0.6-0.3-1c0-0.3,0-0.5,0.1-0.7c0.1-0.2,0.2-0.4,0.4-0.6c0.2-0.2,0.4-0.3,0.7-0.4
		c0.3-0.1,0.5-0.1,0.9-0.1c0.2,0,0.4,0,0.5,0.1c0.2,0,0.3,0.1,0.5,0.1v-0.1c0-0.2,0.1-0.4,0.2-0.5c0.1-0.1,0.3-0.2,0.5-0.2h0.8v0.8
		H96v0.3c0.5,0.3,0.7,0.8,0.7,1.4c0,0.3,0,0.5-0.1,0.7s-0.2,0.4-0.4,0.6s-0.4,0.3-0.7,0.4c-0.3,0.1-0.5,0.1-0.9,0.1
		c-0.1,0-0.2,0-0.3,0c-0.1,0-0.2,0-0.3,0c-0.2,0-0.3,0.1-0.4,0.2c-0.1,0.1-0.2,0.2-0.2,0.4c0,0.2,0.1,0.3,0.2,0.3
		c0.1,0.1,0.3,0.1,0.6,0.1h1.2c0.7,0,1.1,0.1,1.5,0.4C97.1,66.4,97.3,66.7,97.3,67.2z M96.4,67.3c0-0.2-0.1-0.4-0.2-0.5
		c-0.2-0.1-0.4-0.2-0.8-0.2h-1.8c-0.3,0.2-0.4,0.4-0.4,0.7c0,0.2,0.1,0.4,0.3,0.6c0.2,0.2,0.5,0.2,0.9,0.2H95c0.5,0,0.8-0.1,1.1-0.2
		C96.3,67.7,96.4,67.5,96.4,67.3z M94.6,64.1c0.3,0,0.6-0.1,0.8-0.2c0.2-0.2,0.3-0.4,0.3-0.7v-0.3c0-0.3-0.1-0.6-0.3-0.7
		c-0.2-0.2-0.5-0.2-0.8-0.2c-0.3,0-0.6,0.1-0.8,0.2c-0.2,0.2-0.3,0.4-0.3,0.7v0.3c0,0.3,0.1,0.6,0.3,0.7C94,64,94.2,64.1,94.6,64.1z
		"/>
	<path class="st3" d="M100.2,66.7c-0.4,0-0.7-0.1-1-0.2c-0.3-0.1-0.6-0.3-0.8-0.6c-0.2-0.2-0.4-0.5-0.5-0.9
		c-0.1-0.3-0.2-0.7-0.2-1.2c0-0.4,0.1-0.8,0.2-1.2c0.1-0.3,0.3-0.6,0.5-0.9c0.2-0.2,0.5-0.4,0.8-0.6s0.6-0.2,1-0.2s0.7,0.1,1,0.2
		c0.3,0.1,0.5,0.3,0.7,0.6c0.2,0.2,0.4,0.5,0.5,0.8c0.1,0.3,0.2,0.7,0.2,1v0.4h-3.8v0.2c0,0.5,0.1,0.8,0.4,1.1
		c0.3,0.3,0.6,0.4,1.1,0.4c0.3,0,0.6-0.1,0.9-0.2c0.2-0.2,0.4-0.4,0.6-0.6l0.6,0.5c-0.2,0.4-0.5,0.6-0.8,0.9S100.7,66.7,100.2,66.7z
		 M100.2,61.9c-0.2,0-0.4,0-0.6,0.1c-0.2,0.1-0.3,0.2-0.5,0.3c-0.1,0.1-0.2,0.3-0.3,0.5c-0.1,0.2-0.1,0.4-0.1,0.6v0.1h2.8v-0.1
		c0-0.4-0.1-0.8-0.4-1.1C100.9,62,100.6,61.9,100.2,61.9z"/>
	<path class="st3" d="M103.9,66.6v-5.4h1v1h0.1c0-0.1,0.1-0.3,0.2-0.4c0.1-0.1,0.2-0.2,0.3-0.3c0.1-0.1,0.3-0.2,0.4-0.2
		c0.2-0.1,0.4-0.1,0.6-0.1h0.3v1h-0.5c-0.5,0-0.8,0.1-1,0.2c-0.2,0.2-0.4,0.4-0.4,0.6v3.5H103.9z"/>
	<path class="st3" d="M110.2,61.2h1v0.9h0c0.1-0.3,0.3-0.6,0.6-0.7s0.6-0.3,1-0.3c0.3,0,0.6,0.1,0.9,0.2c0.3,0.1,0.5,0.3,0.7,0.6
		c0.2,0.2,0.3,0.5,0.4,0.9c0.1,0.3,0.1,0.7,0.1,1.2s0,0.8-0.1,1.2s-0.2,0.6-0.4,0.9c-0.2,0.2-0.4,0.4-0.7,0.6
		c-0.3,0.1-0.6,0.2-0.9,0.2c-0.4,0-0.7-0.1-1-0.3c-0.3-0.2-0.5-0.4-0.6-0.7h0v3h-1V61.2z M112.5,65.9c0.4,0,0.8-0.1,1-0.4
		c0.3-0.3,0.4-0.6,0.4-1.1v-0.9c0-0.5-0.1-0.8-0.4-1.1c-0.3-0.3-0.6-0.4-1-0.4c-0.2,0-0.4,0-0.5,0.1c-0.2,0-0.3,0.1-0.4,0.2
		c-0.1,0.1-0.2,0.2-0.3,0.3c-0.1,0.1-0.1,0.3-0.1,0.4v2c0,0.1,0,0.3,0.1,0.4c0.1,0.1,0.2,0.2,0.3,0.3c0.1,0.1,0.3,0.2,0.4,0.2
		C112.2,65.9,112.3,65.9,112.5,65.9z"/>
	<path class="st3" d="M116.3,66.6v-5.4h1v1h0.1c0-0.1,0.1-0.3,0.2-0.4c0.1-0.1,0.2-0.2,0.3-0.3c0.1-0.1,0.3-0.2,0.4-0.2
		c0.2-0.1,0.4-0.1,0.6-0.1h0.3v1h-0.5c-0.5,0-0.8,0.1-1,0.2c-0.2,0.2-0.4,0.4-0.4,0.6v3.5H116.3z"/>
	<path class="st3" d="M120.7,60.1c-0.2,0-0.3,0-0.4-0.1c-0.1-0.1-0.1-0.2-0.1-0.4v-0.1c0-0.2,0-0.3,0.1-0.4c0.1-0.1,0.2-0.1,0.4-0.1
		s0.3,0,0.4,0.1c0.1,0.1,0.1,0.2,0.1,0.4v0.1c0,0.2,0,0.3-0.1,0.4C121.1,60.1,120.9,60.1,120.7,60.1z M120.2,61.2h1v5.4h-1V61.2z"/>
	<path class="st3" d="M124.9,66.7c-0.4,0-0.7-0.1-1-0.2c-0.3-0.1-0.6-0.3-0.8-0.6c-0.2-0.2-0.4-0.5-0.5-0.9
		c-0.1-0.3-0.2-0.7-0.2-1.2s0.1-0.8,0.2-1.2s0.3-0.6,0.5-0.9s0.5-0.4,0.8-0.6c0.3-0.1,0.6-0.2,1-0.2c0.5,0,1,0.1,1.3,0.4
		c0.3,0.2,0.6,0.5,0.7,0.9l-0.8,0.4c-0.1-0.3-0.2-0.5-0.5-0.6s-0.5-0.2-0.8-0.2c-0.5,0-0.8,0.1-1,0.4c-0.2,0.3-0.3,0.6-0.3,1.1v0.9
		c0,0.4,0.1,0.8,0.3,1.1c0.2,0.3,0.6,0.4,1,0.4c0.3,0,0.6-0.1,0.8-0.2c0.2-0.2,0.4-0.4,0.5-0.7l0.7,0.4c-0.2,0.4-0.4,0.7-0.8,1
		C125.9,66.6,125.5,66.7,124.9,66.7z"/>
	<path class="st3" d="M130.1,66.7c-0.4,0-0.7-0.1-1-0.2c-0.3-0.1-0.6-0.3-0.8-0.6c-0.2-0.2-0.4-0.5-0.5-0.9
		c-0.1-0.3-0.2-0.7-0.2-1.2c0-0.4,0.1-0.8,0.2-1.2c0.1-0.3,0.3-0.6,0.5-0.9c0.2-0.2,0.5-0.4,0.8-0.6s0.6-0.2,1-0.2s0.7,0.1,1,0.2
		c0.3,0.1,0.5,0.3,0.7,0.6c0.2,0.2,0.4,0.5,0.5,0.8c0.1,0.3,0.2,0.7,0.2,1v0.4h-3.8v0.2c0,0.5,0.1,0.8,0.4,1.1
		c0.3,0.3,0.6,0.4,1.1,0.4c0.3,0,0.6-0.1,0.9-0.2c0.2-0.2,0.4-0.4,0.6-0.6l0.6,0.5c-0.2,0.4-0.5,0.6-0.8,0.9S130.7,66.7,130.1,66.7z
		 M130.1,61.9c-0.2,0-0.4,0-0.6,0.1c-0.2,0.1-0.3,0.2-0.5,0.3c-0.1,0.1-0.2,0.3-0.3,0.5c-0.1,0.2-0.1,0.4-0.1,0.6v0.1h2.8v-0.1
		c0-0.4-0.1-0.8-0.4-1.1C130.9,62,130.6,61.9,130.1,61.9z"/>
	<path class="st3" d="M134.5,62.6c-0.2,0-0.4-0.1-0.5-0.2c-0.1-0.1-0.2-0.3-0.2-0.5v-0.2c0-0.2,0.1-0.3,0.2-0.5
		c0.1-0.1,0.3-0.2,0.5-0.2s0.4,0.1,0.5,0.2s0.2,0.3,0.2,0.5v0.2c0,0.2-0.1,0.3-0.2,0.5C134.9,62.5,134.8,62.6,134.5,62.6z
		 M134.5,66.7c-0.2,0-0.4-0.1-0.5-0.2c-0.1-0.1-0.2-0.3-0.2-0.5v-0.2c0-0.2,0.1-0.3,0.2-0.5c0.1-0.1,0.3-0.2,0.5-0.2
		s0.4,0.1,0.5,0.2c0.1,0.1,0.2,0.3,0.2,0.5v0.2c0,0.2-0.1,0.3-0.2,0.5C134.9,66.7,134.8,66.7,134.5,66.7z"/>
</g>
<path class="st5" d="M365,99.3H32.5c-1.1,0-2-0.9-2-2V74.9c0-1.1,0.9-2,2-2H365c1.1,0,2,0.9,2,2v22.4C367,98.4,366.1,99.3,365,99.3z
	"/>
<g class="st2">
	<path class="st6" d="M334.2,82.5V87c0,0.3,0,0.6,0.1,0.9c0.1,0.3,0.1,0.5,0.3,0.6c0.1,0.2,0.3,0.3,0.5,0.4c0.2,0.1,0.5,0.1,0.8,0.1
		c0.6,0,1-0.2,1.3-0.5s0.4-0.8,0.4-1.5v-4.5h1v4.3c0,0.5,0,1-0.1,1.4c-0.1,0.4-0.3,0.7-0.5,1c-0.2,0.3-0.5,0.4-0.8,0.6
		s-0.8,0.2-1.3,0.2c-0.5,0-0.9-0.1-1.2-0.2c-0.3-0.1-0.6-0.3-0.8-0.6c-0.2-0.3-0.4-0.6-0.4-1c-0.1-0.4-0.1-0.8-0.1-1.4v-4.3H334.2z"
		/>
	<path class="st6" d="M342.5,89.9c-0.6,0-1.1-0.1-1.5-0.3c-0.4-0.2-0.8-0.5-1.1-0.9l0.7-0.6c0.3,0.3,0.5,0.6,0.8,0.8
		s0.7,0.3,1.1,0.3c0.5,0,0.9-0.1,1.1-0.3c0.3-0.2,0.4-0.5,0.4-0.9c0-0.3-0.1-0.6-0.3-0.7c-0.2-0.2-0.5-0.3-1-0.4l-0.6-0.1
		c-0.7-0.1-1.2-0.4-1.6-0.7c-0.3-0.3-0.5-0.8-0.5-1.3c0-0.3,0.1-0.6,0.2-0.9c0.1-0.3,0.3-0.5,0.5-0.6c0.2-0.2,0.5-0.3,0.8-0.4
		c0.3-0.1,0.6-0.1,1-0.1c0.5,0,1,0.1,1.4,0.3c0.4,0.2,0.7,0.5,1,0.9l-0.7,0.6c-0.2-0.3-0.4-0.5-0.7-0.6c-0.3-0.2-0.6-0.2-1-0.2
		c-0.4,0-0.8,0.1-1,0.3c-0.2,0.2-0.4,0.5-0.4,0.8c0,0.3,0.1,0.6,0.3,0.7c0.2,0.2,0.5,0.3,1,0.4l0.6,0.1c0.7,0.2,1.2,0.4,1.6,0.7
		c0.3,0.3,0.5,0.8,0.5,1.3c0,0.3-0.1,0.6-0.2,0.9c-0.1,0.3-0.3,0.5-0.5,0.7c-0.2,0.2-0.5,0.3-0.8,0.4
		C343.2,89.8,342.9,89.9,342.5,89.9z"/>
	<path class="st6" d="M346.5,82.5h2.5c0.5,0,0.9,0.1,1.2,0.2s0.7,0.4,1,0.7s0.5,0.7,0.6,1.1s0.2,1,0.2,1.6c0,0.6-0.1,1.1-0.2,1.6
		s-0.3,0.8-0.6,1.1s-0.6,0.5-1,0.7s-0.8,0.2-1.2,0.2h-2.5V82.5z M349,88.8c0.3,0,0.6,0,0.8-0.1s0.4-0.2,0.6-0.4
		c0.2-0.2,0.3-0.4,0.4-0.7c0.1-0.3,0.1-0.6,0.1-0.9v-1.2c0-0.3,0-0.7-0.1-0.9c-0.1-0.3-0.2-0.5-0.4-0.7c-0.2-0.2-0.4-0.3-0.6-0.4
		c-0.2-0.1-0.5-0.1-0.8-0.1h-1.5v5.5H349z"/>
	<path class="st6" d="M355.8,83.4v6.4h-1v-6.4h-2.2v-0.9h5.5v0.9H355.8z"/>
</g>
<g class="st2">
	<path class="st3" d="M47.5,83.2h-3.2l-0.2,2.7h0.1c0.2-0.3,0.4-0.5,0.6-0.6c0.2-0.2,0.5-0.2,0.9-0.2c0.3,0,0.6,0.1,0.9,0.2
		c0.3,0.1,0.5,0.3,0.7,0.4c0.2,0.2,0.3,0.4,0.5,0.7s0.2,0.6,0.2,1c0,0.4-0.1,0.7-0.2,1c-0.1,0.3-0.3,0.6-0.5,0.8
		c-0.2,0.2-0.5,0.4-0.8,0.5s-0.7,0.2-1.1,0.2c-0.3,0-0.6,0-0.8-0.1c-0.2-0.1-0.5-0.2-0.6-0.3c-0.2-0.1-0.4-0.3-0.5-0.4
		c-0.1-0.2-0.3-0.3-0.4-0.5l0.7-0.6c0.1,0.1,0.2,0.3,0.3,0.4c0.1,0.1,0.2,0.2,0.3,0.3c0.1,0.1,0.3,0.1,0.4,0.2
		c0.2,0,0.3,0.1,0.6,0.1c0.5,0,0.8-0.1,1.1-0.4s0.4-0.6,0.4-1.1v-0.1c0-0.5-0.1-0.8-0.4-1.1c-0.2-0.2-0.6-0.4-1.1-0.4
		c-0.2,0-0.3,0-0.4,0.1c-0.1,0-0.2,0.1-0.3,0.1c-0.1,0.1-0.2,0.1-0.3,0.2c-0.1,0.1-0.2,0.1-0.2,0.2l-0.8-0.1l0.3-4h4V83.2z"/>
	<path class="st3" d="M50,88.2c0.2,0,0.4,0.1,0.5,0.2c0.1,0.1,0.2,0.3,0.2,0.5v0.2c0,0.3-0.1,0.6-0.3,1c-0.2,0.4-0.4,0.7-0.7,0.9
		h-0.8c0.2-0.2,0.4-0.4,0.5-0.6s0.2-0.4,0.3-0.7c-0.2,0-0.3-0.1-0.3-0.2c-0.1-0.1-0.1-0.2-0.1-0.4v-0.2c0-0.2,0.1-0.4,0.2-0.5
		C49.6,88.3,49.7,88.2,50,88.2z"/>
	<path class="st3" d="M56.6,83.2h-3.2l-0.2,2.7h0.1c0.2-0.3,0.4-0.5,0.6-0.6c0.2-0.2,0.5-0.2,0.9-0.2c0.3,0,0.6,0.1,0.9,0.2
		c0.3,0.1,0.5,0.3,0.7,0.4c0.2,0.2,0.3,0.4,0.5,0.7s0.2,0.6,0.2,1c0,0.4-0.1,0.7-0.2,1c-0.1,0.3-0.3,0.6-0.5,0.8
		c-0.2,0.2-0.5,0.4-0.8,0.5s-0.7,0.2-1.1,0.2c-0.3,0-0.6,0-0.8-0.1c-0.2-0.1-0.5-0.2-0.6-0.3c-0.2-0.1-0.4-0.3-0.5-0.4
		c-0.1-0.2-0.3-0.3-0.4-0.5l0.7-0.6c0.1,0.1,0.2,0.3,0.3,0.4c0.1,0.1,0.2,0.2,0.3,0.3c0.1,0.1,0.3,0.1,0.4,0.2
		c0.2,0,0.3,0.1,0.6,0.1c0.5,0,0.8-0.1,1.1-0.4s0.4-0.6,0.4-1.1v-0.1c0-0.5-0.1-0.8-0.4-1.1c-0.2-0.2-0.6-0.4-1.1-0.4
		c-0.2,0-0.3,0-0.4,0.1c-0.1,0-0.2,0.1-0.3,0.1c-0.1,0.1-0.2,0.1-0.3,0.2c-0.1,0.1-0.2,0.1-0.2,0.2l-0.8-0.1l0.3-4h4V83.2z"/>
	<path class="st3" d="M60.8,89.7c-0.4,0-0.8-0.1-1.1-0.3c-0.3-0.2-0.6-0.4-0.8-0.7c-0.2-0.3-0.4-0.7-0.5-1.2s-0.2-1-0.2-1.6
		c0-0.6,0.1-1.1,0.2-1.6s0.3-0.9,0.5-1.2c0.2-0.3,0.5-0.6,0.8-0.7c0.3-0.2,0.7-0.3,1.1-0.3c0.9,0,1.5,0.3,1.9,1
		c0.4,0.7,0.6,1.6,0.6,2.8c0,1.2-0.2,2.1-0.6,2.8C62.3,89.4,61.7,89.7,60.8,89.7z M60.8,88.8c0.3,0,0.5-0.1,0.7-0.2s0.3-0.3,0.5-0.5
		c0.1-0.2,0.2-0.4,0.3-0.7c0.1-0.3,0.1-0.6,0.1-0.9v-1.2c0-0.3,0-0.6-0.1-0.9c-0.1-0.3-0.1-0.5-0.3-0.7c-0.1-0.2-0.3-0.4-0.5-0.5
		s-0.4-0.2-0.7-0.2s-0.5,0.1-0.7,0.2c-0.2,0.1-0.3,0.3-0.5,0.5c-0.1,0.2-0.2,0.4-0.3,0.7c-0.1,0.3-0.1,0.6-0.1,0.9v1.2
		c0,0.3,0,0.6,0.1,0.9c0.1,0.3,0.1,0.5,0.3,0.7c0.1,0.2,0.3,0.4,0.5,0.5C60.3,88.7,60.5,88.8,60.8,88.8z"/>
	<path class="st3" d="M67,89.7c-0.4,0-0.8-0.1-1.1-0.3c-0.3-0.2-0.6-0.4-0.8-0.7c-0.2-0.3-0.4-0.7-0.5-1.2s-0.2-1-0.2-1.6
		c0-0.6,0.1-1.1,0.2-1.6s0.3-0.9,0.5-1.2c0.2-0.3,0.5-0.6,0.8-0.7c0.3-0.2,0.7-0.3,1.1-0.3c0.9,0,1.5,0.3,1.9,1
		c0.4,0.7,0.6,1.6,0.6,2.8c0,1.2-0.2,2.1-0.6,2.8C68.5,89.4,67.9,89.7,67,89.7z M67,88.8c0.3,0,0.5-0.1,0.7-0.2s0.3-0.3,0.5-0.5
		c0.1-0.2,0.2-0.4,0.3-0.7c0.1-0.3,0.1-0.6,0.1-0.9v-1.2c0-0.3,0-0.6-0.1-0.9c-0.1-0.3-0.1-0.5-0.3-0.7c-0.1-0.2-0.3-0.4-0.5-0.5
		s-0.4-0.2-0.7-0.2s-0.5,0.1-0.7,0.2c-0.2,0.1-0.3,0.3-0.5,0.5c-0.1,0.2-0.2,0.4-0.3,0.7c-0.1,0.3-0.1,0.6-0.1,0.9v1.2
		c0,0.3,0,0.6,0.1,0.9c0.1,0.3,0.1,0.5,0.3,0.7c0.1,0.2,0.3,0.4,0.5,0.5C66.5,88.7,66.7,88.8,67,88.8z"/>
	<path class="st3" d="M71.6,89.7c-0.2,0-0.4-0.1-0.5-0.2c-0.1-0.1-0.2-0.3-0.2-0.5v-0.2c0-0.2,0.1-0.3,0.2-0.5
		c0.1-0.1,0.3-0.2,0.5-0.2s0.4,0.1,0.5,0.2c0.1,0.1,0.2,0.3,0.2,0.5V89c0,0.2-0.1,0.3-0.2,0.5C72,89.6,71.8,89.7,71.6,89.7z"/>
	<path class="st3" d="M78.6,89.6h-4.8v-1l2.3-2.1c0.4-0.3,0.6-0.6,0.9-1c0.2-0.3,0.3-0.7,0.3-1v-0.1c0-0.4-0.1-0.7-0.3-0.9
		c-0.2-0.2-0.5-0.3-0.9-0.3c-0.2,0-0.4,0-0.6,0.1c-0.2,0.1-0.3,0.1-0.4,0.2c-0.1,0.1-0.2,0.2-0.3,0.4c-0.1,0.1-0.1,0.3-0.2,0.5
		l-0.9-0.3c0.1-0.2,0.2-0.4,0.3-0.6c0.1-0.2,0.3-0.4,0.5-0.6c0.2-0.2,0.4-0.3,0.7-0.4c0.3-0.1,0.6-0.1,0.9-0.1c0.4,0,0.7,0.1,1,0.2
		c0.3,0.1,0.5,0.2,0.7,0.4c0.2,0.2,0.3,0.4,0.4,0.7s0.2,0.5,0.2,0.9c0,0.3,0,0.6-0.1,0.8c-0.1,0.2-0.2,0.5-0.4,0.7
		c-0.2,0.2-0.3,0.4-0.5,0.6c-0.2,0.2-0.4,0.4-0.7,0.6l-1.8,1.6h3.7V89.6z"/>
	<path class="st3" d="M84.5,83.2h-3.2l-0.2,2.7h0.1c0.2-0.3,0.4-0.5,0.6-0.6c0.2-0.2,0.5-0.2,0.9-0.2c0.3,0,0.6,0.1,0.9,0.2
		c0.3,0.1,0.5,0.3,0.7,0.4c0.2,0.2,0.3,0.4,0.5,0.7s0.2,0.6,0.2,1c0,0.4-0.1,0.7-0.2,1c-0.1,0.3-0.3,0.6-0.5,0.8
		c-0.2,0.2-0.5,0.4-0.8,0.5s-0.7,0.2-1.1,0.2c-0.3,0-0.6,0-0.8-0.1c-0.2-0.1-0.5-0.2-0.6-0.3c-0.2-0.1-0.4-0.3-0.5-0.4
		c-0.1-0.2-0.3-0.3-0.4-0.5l0.7-0.6c0.1,0.1,0.2,0.3,0.3,0.4c0.1,0.1,0.2,0.2,0.3,0.3c0.1,0.1,0.3,0.1,0.4,0.2
		c0.2,0,0.3,0.1,0.6,0.1c0.5,0,0.8-0.1,1.1-0.4s0.4-0.6,0.4-1.1v-0.1c0-0.5-0.1-0.8-0.4-1.1c-0.2-0.2-0.6-0.4-1.1-0.4
		c-0.2,0-0.3,0-0.4,0.1c-0.1,0-0.2,0.1-0.3,0.1c-0.1,0.1-0.2,0.1-0.3,0.2c-0.1,0.1-0.2,0.1-0.2,0.2l-0.8-0.1l0.3-4h4V83.2z"/>
</g>
<g class="st2">
	<path class="st3" d="M32.4,119.6v-7.3h3c0.3,0,0.6,0,0.9,0.2c0.3,0.1,0.5,0.2,0.6,0.4c0.2,0.2,0.3,0.4,0.4,0.7
		c0.1,0.3,0.1,0.6,0.1,0.9c0,0.3,0,0.6-0.1,0.9c-0.1,0.3-0.2,0.5-0.4,0.7c-0.2,0.2-0.4,0.3-0.6,0.4c-0.3,0.1-0.5,0.2-0.9,0.2h-2v3
		H32.4z M33.4,115.7h1.9c0.3,0,0.6-0.1,0.8-0.3s0.3-0.4,0.3-0.7v-0.5c0-0.3-0.1-0.6-0.3-0.7s-0.4-0.3-0.8-0.3h-1.9V115.7z"/>
	<path class="st3" d="M40.6,119.7c-0.4,0-0.7-0.1-1-0.2c-0.3-0.1-0.6-0.3-0.8-0.6c-0.2-0.2-0.4-0.5-0.5-0.9
		c-0.1-0.3-0.2-0.7-0.2-1.2c0-0.4,0.1-0.8,0.2-1.2c0.1-0.3,0.3-0.6,0.5-0.9c0.2-0.2,0.5-0.4,0.8-0.6s0.6-0.2,1-0.2s0.7,0.1,1,0.2
		c0.3,0.1,0.5,0.3,0.7,0.6c0.2,0.2,0.4,0.5,0.5,0.8c0.1,0.3,0.2,0.7,0.2,1v0.4h-3.8v0.2c0,0.5,0.1,0.8,0.4,1.1
		c0.3,0.3,0.6,0.4,1.1,0.4c0.3,0,0.6-0.1,0.9-0.2c0.2-0.2,0.4-0.4,0.6-0.6l0.6,0.5c-0.2,0.4-0.5,0.6-0.8,0.9S41.1,119.7,40.6,119.7z
		 M40.6,114.9c-0.2,0-0.4,0-0.6,0.1c-0.2,0.1-0.3,0.2-0.5,0.3c-0.1,0.1-0.2,0.3-0.3,0.5c-0.1,0.2-0.1,0.4-0.1,0.6v0.1h2.8v-0.1
		c0-0.4-0.1-0.8-0.4-1.1C41.3,115,41,114.9,40.6,114.9z"/>
	<path class="st3" d="M44.2,119.6v-5.4h1v1h0.1c0-0.1,0.1-0.3,0.2-0.4c0.1-0.1,0.2-0.2,0.3-0.3c0.1-0.1,0.3-0.2,0.4-0.2
		c0.2-0.1,0.4-0.1,0.6-0.1h0.3v1h-0.5c-0.5,0-0.8,0.1-1,0.2c-0.2,0.2-0.4,0.4-0.4,0.6v3.5H44.2z"/>
	<path class="st3" d="M50.1,119.7c-0.4,0-0.7-0.1-1-0.2c-0.3-0.1-0.6-0.3-0.8-0.6c-0.2-0.2-0.4-0.5-0.5-0.9
		c-0.1-0.3-0.2-0.7-0.2-1.2s0.1-0.8,0.2-1.2s0.3-0.6,0.5-0.9s0.5-0.4,0.8-0.6c0.3-0.1,0.6-0.2,1-0.2c0.5,0,1,0.1,1.3,0.4
		c0.3,0.2,0.6,0.5,0.7,0.9l-0.8,0.4c-0.1-0.3-0.2-0.5-0.5-0.6s-0.5-0.2-0.8-0.2c-0.5,0-0.8,0.1-1,0.4c-0.2,0.3-0.3,0.6-0.3,1.1v0.9
		c0,0.4,0.1,0.8,0.3,1.1c0.2,0.3,0.6,0.4,1,0.4c0.3,0,0.6-0.1,0.8-0.2c0.2-0.2,0.4-0.4,0.5-0.7l0.7,0.4c-0.2,0.4-0.4,0.7-0.8,1
		C51.1,119.6,50.7,119.7,50.1,119.7z"/>
	<path class="st3" d="M55.3,119.7c-0.4,0-0.7-0.1-1-0.2c-0.3-0.1-0.6-0.3-0.8-0.6c-0.2-0.2-0.4-0.5-0.5-0.9
		c-0.1-0.3-0.2-0.7-0.2-1.2c0-0.4,0.1-0.8,0.2-1.2c0.1-0.3,0.3-0.6,0.5-0.9c0.2-0.2,0.5-0.4,0.8-0.6s0.6-0.2,1-0.2s0.7,0.1,1,0.2
		c0.3,0.1,0.5,0.3,0.7,0.6c0.2,0.2,0.4,0.5,0.5,0.8c0.1,0.3,0.2,0.7,0.2,1v0.4h-3.8v0.2c0,0.5,0.1,0.8,0.4,1.1
		c0.3,0.3,0.6,0.4,1.1,0.4c0.3,0,0.6-0.1,0.9-0.2c0.2-0.2,0.4-0.4,0.6-0.6l0.6,0.5c-0.2,0.4-0.5,0.6-0.8,0.9S55.9,119.7,55.3,119.7z
		 M55.3,114.9c-0.2,0-0.4,0-0.6,0.1c-0.2,0.1-0.3,0.2-0.5,0.3c-0.1,0.1-0.2,0.3-0.3,0.5c-0.1,0.2-0.1,0.4-0.1,0.6v0.1h2.8v-0.1
		c0-0.4-0.1-0.8-0.4-1.1C56.1,115,55.8,114.9,55.3,114.9z"/>
	<path class="st3" d="M59,119.6v-5.4h1v0.9H60c0.1-0.3,0.3-0.5,0.5-0.7s0.6-0.3,1-0.3c0.6,0,1,0.2,1.3,0.5c0.3,0.4,0.5,0.9,0.5,1.5
		v3.4h-1v-3.3c0-0.9-0.4-1.4-1.1-1.4c-0.2,0-0.3,0-0.5,0.1c-0.1,0-0.3,0.1-0.4,0.2c-0.1,0.1-0.2,0.2-0.3,0.3
		c-0.1,0.1-0.1,0.3-0.1,0.4v3.7H59z"/>
	<path class="st3" d="M66.3,119.6c-0.3,0-0.6-0.1-0.8-0.3c-0.2-0.2-0.3-0.4-0.3-0.7v-3.5h-0.9v-0.8h0.5c0.2,0,0.3,0,0.4-0.1
		s0.1-0.2,0.1-0.4v-1h0.9v1.5h1.2v0.8h-1.2v3.7h1.1v0.8H66.3z"/>
	<path class="st3" d="M71.5,115.1h-0.9v-0.8h0.9v-1c0-0.4,0.1-0.7,0.3-1s0.5-0.4,0.9-0.4h0.8v0.8h-1.1v1.5h1.1v0.8h-1.1v4.6h-1
		V115.1z"/>
	<path class="st3" d="M74.6,119.6v-5.4h1v1h0.1c0-0.1,0.1-0.3,0.2-0.4c0.1-0.1,0.2-0.2,0.3-0.3c0.1-0.1,0.3-0.2,0.4-0.2
		c0.2-0.1,0.4-0.1,0.6-0.1h0.3v1H77c-0.5,0-0.8,0.1-1,0.2c-0.2,0.2-0.4,0.4-0.4,0.6v3.5H74.6z"/>
	<path class="st3" d="M80.5,119.7c-0.4,0-0.7-0.1-1-0.2c-0.3-0.1-0.6-0.3-0.8-0.6c-0.2-0.2-0.4-0.5-0.5-0.9
		c-0.1-0.3-0.2-0.7-0.2-1.2s0.1-0.8,0.2-1.2c0.1-0.3,0.3-0.6,0.5-0.9c0.2-0.2,0.5-0.4,0.8-0.6s0.6-0.2,1-0.2c0.4,0,0.7,0.1,1,0.2
		c0.3,0.1,0.6,0.3,0.8,0.6c0.2,0.2,0.4,0.5,0.5,0.9c0.1,0.3,0.2,0.7,0.2,1.2s-0.1,0.8-0.2,1.2c-0.1,0.3-0.3,0.6-0.5,0.9
		c-0.2,0.2-0.5,0.4-0.8,0.6C81.2,119.7,80.9,119.7,80.5,119.7z M80.5,118.9c0.4,0,0.8-0.1,1-0.4c0.3-0.3,0.4-0.7,0.4-1.2v-0.8
		c0-0.5-0.1-0.9-0.4-1.2c-0.3-0.3-0.6-0.4-1-0.4c-0.4,0-0.8,0.1-1,0.4s-0.4,0.7-0.4,1.2v0.8c0,0.5,0.1,0.9,0.4,1.2
		S80.1,118.9,80.5,118.9z"/>
	<path class="st3" d="M84.3,119.6v-5.4h1v0.9h0.1c0.1-0.3,0.3-0.5,0.5-0.7c0.2-0.2,0.5-0.3,0.9-0.3c0.4,0,0.7,0.1,1,0.3
		s0.5,0.4,0.7,0.8h0c0.1-0.3,0.3-0.5,0.6-0.8s0.6-0.3,1.1-0.3c0.5,0,1,0.2,1.3,0.5c0.3,0.4,0.5,0.9,0.5,1.5v3.4h-1v-3.3
		c0-0.5-0.1-0.8-0.3-1c-0.2-0.2-0.5-0.3-0.8-0.3c-0.2,0-0.3,0-0.5,0.1c-0.1,0-0.3,0.1-0.4,0.2c-0.1,0.1-0.2,0.2-0.3,0.3
		c-0.1,0.1-0.1,0.3-0.1,0.4v3.7h-1v-3.3c0-0.9-0.4-1.4-1.1-1.4c-0.2,0-0.3,0-0.4,0.1c-0.1,0-0.3,0.1-0.4,0.2
		c-0.1,0.1-0.2,0.2-0.3,0.3c-0.1,0.1-0.1,0.3-0.1,0.4v3.7H84.3z"/>
	<path class="st3" d="M95.9,111.9h1v3.2h0c0.1-0.3,0.3-0.6,0.6-0.7s0.6-0.3,1-0.3c0.3,0,0.6,0.1,0.9,0.2c0.3,0.1,0.5,0.3,0.7,0.6
		c0.2,0.2,0.3,0.5,0.4,0.9c0.1,0.3,0.1,0.7,0.1,1.2s0,0.8-0.1,1.2s-0.2,0.6-0.4,0.9c-0.2,0.2-0.4,0.4-0.7,0.6
		c-0.3,0.1-0.6,0.2-0.9,0.2c-0.4,0-0.7-0.1-1-0.3c-0.3-0.2-0.5-0.4-0.6-0.7h0v0.9h-1V111.9z M98.2,118.9c0.4,0,0.8-0.1,1-0.4
		c0.3-0.3,0.4-0.6,0.4-1.1v-0.9c0-0.5-0.1-0.8-0.4-1.1c-0.3-0.3-0.6-0.4-1-0.4c-0.2,0-0.4,0-0.5,0.1c-0.2,0-0.3,0.1-0.4,0.2
		c-0.1,0.1-0.2,0.2-0.3,0.3c-0.1,0.1-0.1,0.3-0.1,0.4v2c0,0.1,0,0.3,0.1,0.4c0.1,0.1,0.2,0.2,0.3,0.3c0.1,0.1,0.3,0.2,0.4,0.2
		C97.8,118.9,98,118.9,98.2,118.9z"/>
	<path class="st3" d="M105.3,118.7L105.3,118.7c-0.1,0.1-0.2,0.3-0.2,0.4c-0.1,0.1-0.2,0.2-0.3,0.3c-0.1,0.1-0.3,0.2-0.4,0.2
		c-0.2,0.1-0.4,0.1-0.6,0.1c-0.6,0-1-0.2-1.3-0.5c-0.3-0.4-0.5-0.9-0.5-1.5v-3.4h1v3.3c0,0.9,0.4,1.4,1.1,1.4c0.2,0,0.3,0,0.5-0.1
		c0.1,0,0.3-0.1,0.4-0.2c0.1-0.1,0.2-0.2,0.3-0.3s0.1-0.3,0.1-0.4v-3.7h1v5.4h-1V118.7z"/>
	<path class="st3" d="M111.3,114.2h0.9l-2.3,6.6c-0.1,0.2-0.1,0.3-0.2,0.4c-0.1,0.1-0.2,0.2-0.3,0.3s-0.2,0.1-0.4,0.2
		c-0.1,0-0.3,0-0.5,0H108v-0.8h0.9l0.4-1l-2-5.6h1l1.2,3.4l0.3,1h0.1l0.3-1L111.3,114.2z"/>
	<path class="st3" d="M113.7,113.1c-0.2,0-0.3,0-0.4-0.1c-0.1-0.1-0.1-0.2-0.1-0.4v-0.1c0-0.2,0-0.3,0.1-0.4
		c0.1-0.1,0.2-0.1,0.4-0.1s0.3,0,0.4,0.1c0.1,0.1,0.1,0.2,0.1,0.4v0.1c0,0.2,0,0.3-0.1,0.4C114,113.1,113.9,113.1,113.7,113.1z
		 M113.2,114.2h1v5.4h-1V114.2z"/>
	<path class="st3" d="M115.9,119.6v-5.4h1v0.9h0.1c0.1-0.3,0.3-0.5,0.5-0.7s0.6-0.3,1-0.3c0.6,0,1,0.2,1.3,0.5
		c0.3,0.4,0.5,0.9,0.5,1.5v3.4h-1v-3.3c0-0.9-0.4-1.4-1.1-1.4c-0.2,0-0.3,0-0.5,0.1c-0.1,0-0.3,0.1-0.4,0.2
		c-0.1,0.1-0.2,0.2-0.3,0.3c-0.1,0.1-0.1,0.3-0.1,0.4v3.7H115.9z"/>
	<path class="st3" d="M126.5,120.2c0,0.6-0.2,1-0.6,1.3c-0.4,0.3-1.1,0.4-2,0.4c-0.9,0-1.5-0.1-1.8-0.3c-0.4-0.2-0.6-0.6-0.6-1
		c0-0.3,0.1-0.5,0.2-0.7c0.2-0.2,0.4-0.3,0.7-0.4v-0.1c-0.4-0.1-0.5-0.4-0.5-0.8c0-0.3,0.1-0.5,0.3-0.6s0.4-0.3,0.7-0.3v0
		c-0.3-0.2-0.6-0.4-0.7-0.6c-0.2-0.3-0.3-0.6-0.3-1c0-0.3,0-0.5,0.1-0.7c0.1-0.2,0.2-0.4,0.4-0.6c0.2-0.2,0.4-0.3,0.7-0.4
		c0.3-0.1,0.5-0.1,0.9-0.1c0.2,0,0.4,0,0.5,0.1c0.2,0,0.3,0.1,0.5,0.1v-0.1c0-0.2,0.1-0.4,0.2-0.5c0.1-0.1,0.3-0.2,0.5-0.2h0.8v0.8
		h-1.1v0.3c0.5,0.3,0.7,0.8,0.7,1.4c0,0.3,0,0.5-0.1,0.7s-0.2,0.4-0.4,0.6s-0.4,0.3-0.7,0.4c-0.3,0.1-0.5,0.1-0.9,0.1
		c-0.1,0-0.2,0-0.3,0c-0.1,0-0.2,0-0.3,0c-0.2,0-0.3,0.1-0.4,0.2c-0.1,0.1-0.2,0.2-0.2,0.4c0,0.2,0.1,0.3,0.2,0.3
		c0.1,0.1,0.3,0.1,0.6,0.1h1.2c0.7,0,1.1,0.1,1.5,0.4C126.3,119.4,126.5,119.7,126.5,120.2z M125.6,120.3c0-0.2-0.1-0.4-0.2-0.5
		c-0.2-0.1-0.4-0.2-0.8-0.2h-1.8c-0.3,0.2-0.4,0.4-0.4,0.7c0,0.2,0.1,0.4,0.3,0.6c0.2,0.2,0.5,0.2,0.9,0.2h0.7
		c0.5,0,0.8-0.1,1.1-0.2C125.4,120.7,125.6,120.5,125.6,120.3z M123.8,117.1c0.3,0,0.6-0.1,0.8-0.2c0.2-0.2,0.3-0.4,0.3-0.7v-0.3
		c0-0.3-0.1-0.6-0.3-0.7c-0.2-0.2-0.5-0.2-0.8-0.2c-0.3,0-0.6,0.1-0.8,0.2c-0.2,0.2-0.3,0.4-0.3,0.7v0.3c0,0.3,0.1,0.6,0.3,0.7
		C123.1,117,123.4,117.1,123.8,117.1z"/>
	<path class="st3" d="M129.8,114.2h1v0.9h0c0.1-0.3,0.3-0.6,0.6-0.7s0.6-0.3,1-0.3c0.3,0,0.6,0.1,0.9,0.2c0.3,0.1,0.5,0.3,0.7,0.6
		c0.2,0.2,0.3,0.5,0.4,0.9c0.1,0.3,0.1,0.7,0.1,1.2s0,0.8-0.1,1.2s-0.2,0.6-0.4,0.9c-0.2,0.2-0.4,0.4-0.7,0.6
		c-0.3,0.1-0.6,0.2-0.9,0.2c-0.4,0-0.7-0.1-1-0.3c-0.3-0.2-0.5-0.4-0.6-0.7h0v3h-1V114.2z M132.1,118.9c0.4,0,0.8-0.1,1-0.4
		c0.3-0.3,0.4-0.6,0.4-1.1v-0.9c0-0.5-0.1-0.8-0.4-1.1c-0.3-0.3-0.6-0.4-1-0.4c-0.2,0-0.4,0-0.5,0.1c-0.2,0-0.3,0.1-0.4,0.2
		c-0.1,0.1-0.2,0.2-0.3,0.3c-0.1,0.1-0.1,0.3-0.1,0.4v2c0,0.1,0,0.3,0.1,0.4c0.1,0.1,0.2,0.2,0.3,0.3c0.1,0.1,0.3,0.2,0.4,0.2
		C131.8,118.9,131.9,118.9,132.1,118.9z"/>
	<path class="st3" d="M135.9,119.6v-5.4h1v1h0.1c0-0.1,0.1-0.3,0.2-0.4c0.1-0.1,0.2-0.2,0.3-0.3c0.1-0.1,0.3-0.2,0.4-0.2
		c0.2-0.1,0.4-0.1,0.6-0.1h0.3v1h-0.5c-0.5,0-0.8,0.1-1,0.2c-0.2,0.2-0.4,0.4-0.4,0.6v3.5H135.9z"/>
	<path class="st3" d="M140.3,113.1c-0.2,0-0.3,0-0.4-0.1c-0.1-0.1-0.1-0.2-0.1-0.4v-0.1c0-0.2,0-0.3,0.1-0.4
		c0.1-0.1,0.2-0.1,0.4-0.1s0.3,0,0.4,0.1c0.1,0.1,0.1,0.2,0.1,0.4v0.1c0,0.2,0,0.3-0.1,0.4C140.7,113.1,140.5,113.1,140.3,113.1z
		 M139.8,114.2h1v5.4h-1V114.2z"/>
	<path class="st3" d="M144.5,119.7c-0.4,0-0.7-0.1-1-0.2c-0.3-0.1-0.6-0.3-0.8-0.6c-0.2-0.2-0.4-0.5-0.5-0.9
		c-0.1-0.3-0.2-0.7-0.2-1.2s0.1-0.8,0.2-1.2s0.3-0.6,0.5-0.9s0.5-0.4,0.8-0.6c0.3-0.1,0.6-0.2,1-0.2c0.5,0,1,0.1,1.3,0.4
		c0.3,0.2,0.6,0.5,0.7,0.9l-0.8,0.4c-0.1-0.3-0.2-0.5-0.5-0.6s-0.5-0.2-0.8-0.2c-0.5,0-0.8,0.1-1,0.4c-0.2,0.3-0.3,0.6-0.3,1.1v0.9
		c0,0.4,0.1,0.8,0.3,1.1c0.2,0.3,0.6,0.4,1,0.4c0.3,0,0.6-0.1,0.8-0.2c0.2-0.2,0.4-0.4,0.5-0.7l0.7,0.4c-0.2,0.4-0.4,0.7-0.8,1
		C145.5,119.6,145,119.7,144.5,119.7z"/>
	<path class="st3" d="M149.7,119.7c-0.4,0-0.7-0.1-1-0.2c-0.3-0.1-0.6-0.3-0.8-0.6c-0.2-0.2-0.4-0.5-0.5-0.9
		c-0.1-0.3-0.2-0.7-0.2-1.2c0-0.4,0.1-0.8,0.2-1.2c0.1-0.3,0.3-0.6,0.5-0.9c0.2-0.2,0.5-0.4,0.8-0.6s0.6-0.2,1-0.2s0.7,0.1,1,0.2
		c0.3,0.1,0.5,0.3,0.7,0.6c0.2,0.2,0.4,0.5,0.5,0.8c0.1,0.3,0.2,0.7,0.2,1v0.4h-3.8v0.2c0,0.5,0.1,0.8,0.4,1.1
		c0.3,0.3,0.6,0.4,1.1,0.4c0.3,0,0.6-0.1,0.9-0.2c0.2-0.2,0.4-0.4,0.6-0.6l0.6,0.5c-0.2,0.4-0.5,0.6-0.8,0.9
		S150.2,119.7,149.7,119.7z M149.7,114.9c-0.2,0-0.4,0-0.6,0.1c-0.2,0.1-0.3,0.2-0.5,0.3c-0.1,0.1-0.2,0.3-0.3,0.5
		c-0.1,0.2-0.1,0.4-0.1,0.6v0.1h2.8v-0.1c0-0.4-0.1-0.8-0.4-1.1C150.5,115,150.1,114.9,149.7,114.9z"/>
	<path class="st3" d="M154.1,115.6c-0.2,0-0.4-0.1-0.5-0.2c-0.1-0.1-0.2-0.3-0.2-0.5v-0.2c0-0.2,0.1-0.3,0.2-0.5
		c0.1-0.1,0.3-0.2,0.5-0.2s0.4,0.1,0.5,0.2s0.2,0.3,0.2,0.5v0.2c0,0.2-0.1,0.3-0.2,0.5C154.5,115.5,154.4,115.6,154.1,115.6z
		 M154.1,119.7c-0.2,0-0.4-0.1-0.5-0.2c-0.1-0.1-0.2-0.3-0.2-0.5v-0.2c0-0.2,0.1-0.3,0.2-0.5c0.1-0.1,0.3-0.2,0.5-0.2
		s0.4,0.1,0.5,0.2c0.1,0.1,0.2,0.3,0.2,0.5v0.2c0,0.2-0.1,0.3-0.2,0.5C154.5,119.7,154.4,119.7,154.1,119.7z"/>
</g>
<path class="st5" d="M365,152.3h-85.5c-1.1,0-2-0.9-2-2v-22.4c0-1.1,0.9-2,2-2H365c1.1,0,2,0.9,2,2v22.4
	C367,151.4,366.1,152.3,365,152.3z"/>
<g class="st2">
	<path class="st6" d="M348.7,139.5c-0.5,0-1-0.2-1.3-0.5c-0.3-0.3-0.4-0.9-0.4-1.5s0.1-1.2,0.4-1.5s0.7-0.5,1.3-0.5s1,0.2,1.3,0.5
		c0.3,0.4,0.4,0.9,0.4,1.5s-0.1,1.2-0.4,1.5C349.7,139.3,349.2,139.5,348.7,139.5z M348.7,138.9c0.6,0,0.8-0.4,0.8-1.1v-0.6
		c0-0.8-0.3-1.1-0.8-1.1s-0.8,0.4-0.8,1.1v0.6C347.9,138.5,348.1,138.9,348.7,138.9z M348.3,142.7l5-7.3h0.9l-5,7.3H348.3z
		 M353.8,142.9c-0.5,0-1-0.2-1.3-0.5s-0.4-0.9-0.4-1.5s0.1-1.2,0.4-1.5c0.3-0.3,0.7-0.5,1.3-0.5s1,0.2,1.3,0.5
		c0.3,0.4,0.4,0.9,0.4,1.5s-0.1,1.2-0.4,1.5S354.3,142.9,353.8,142.9z M353.8,142.2c0.6,0,0.8-0.4,0.8-1.1v-0.6
		c0-0.8-0.3-1.1-0.8-1.1s-0.8,0.4-0.8,1.1v0.6C352.9,141.9,353.2,142.2,353.8,142.2z"/>
</g>
<path class="st6" d="M32.5,137h228c0.8,0,1.5,0.7,1.5,1.5l0,0c0,0.8-0.7,1.5-1.5,1.5h-228c-0.8,0-1.5-0.7-1.5-1.5l0,0
	C31,137.7,31.7,137,32.5,137z"/>
<path class="st7" d="M32.5,137h96c0.8,0,1.5,0.7,1.5,1.5l0,0c0,0.8-0.7,1.5-1.5,1.5h-96c-0.8,0-1.5-0.7-1.5-1.5l0,0
	C31,137.7,31.7,137,32.5,137z"/>
<circle class="st7" cx="128" cy="138" r="6"/>
<g class="st2">
	<path class="st3" d="M287,138.3c0.5,0,0.8-0.1,1.1-0.3c0.2-0.2,0.3-0.5,0.3-0.8v-0.1c0-0.4-0.1-0.6-0.3-0.8
		c-0.2-0.2-0.5-0.3-0.9-0.3c-0.4,0-0.7,0.1-0.9,0.2c-0.2,0.2-0.4,0.4-0.6,0.7l-0.7-0.6c0.1-0.2,0.2-0.3,0.4-0.4s0.3-0.3,0.5-0.4
		c0.2-0.1,0.4-0.2,0.6-0.3c0.2-0.1,0.5-0.1,0.8-0.1c0.3,0,0.6,0,0.9,0.1s0.5,0.2,0.7,0.4c0.2,0.2,0.4,0.4,0.5,0.6
		c0.1,0.2,0.2,0.5,0.2,0.8c0,0.2,0,0.4-0.1,0.6c-0.1,0.2-0.2,0.3-0.3,0.5c-0.1,0.1-0.3,0.3-0.4,0.3s-0.4,0.2-0.5,0.2v0
		c0.2,0,0.4,0.1,0.6,0.2c0.2,0.1,0.3,0.2,0.5,0.4c0.1,0.2,0.3,0.3,0.3,0.5c0.1,0.2,0.1,0.4,0.1,0.7c0,0.3-0.1,0.6-0.2,0.9
		c-0.1,0.3-0.3,0.5-0.5,0.7c-0.2,0.2-0.5,0.3-0.8,0.4c-0.3,0.1-0.7,0.2-1,0.2c-0.3,0-0.6,0-0.9-0.1s-0.5-0.2-0.7-0.3
		s-0.4-0.3-0.5-0.4c-0.1-0.2-0.3-0.3-0.4-0.5l0.8-0.6c0.2,0.3,0.4,0.5,0.6,0.7c0.2,0.2,0.6,0.3,1,0.3c0.5,0,0.8-0.1,1.1-0.3
		c0.3-0.2,0.4-0.5,0.4-0.9v-0.1c0-0.4-0.1-0.7-0.4-0.9c-0.3-0.2-0.6-0.3-1.1-0.3h-0.8v-0.9H287z"/>
	<path class="st3" d="M293.6,142.7c-0.4,0-0.8-0.1-1.2-0.3c-0.3-0.2-0.6-0.4-0.8-0.7c-0.2-0.3-0.4-0.7-0.5-1.2
		c-0.1-0.5-0.2-1-0.2-1.6c0-0.6,0-1.1,0.2-1.6c0.1-0.5,0.3-0.9,0.5-1.2c0.2-0.3,0.5-0.6,0.8-0.7c0.3-0.2,0.7-0.3,1.2-0.3
		c0.9,0,1.5,0.3,1.9,1c0.4,0.7,0.6,1.6,0.6,2.8c0,1.2-0.2,2.1-0.6,2.8C295.2,142.4,294.5,142.7,293.6,142.7z M293.6,141.8
		c0.3,0,0.5-0.1,0.7-0.2s0.3-0.3,0.5-0.5c0.1-0.2,0.2-0.4,0.3-0.7c0.1-0.3,0.1-0.6,0.1-0.9v-1.2c0-0.3,0-0.6-0.1-0.9
		c-0.1-0.3-0.1-0.5-0.3-0.7c-0.1-0.2-0.3-0.4-0.5-0.5s-0.4-0.2-0.7-0.2c-0.3,0-0.5,0.1-0.7,0.2c-0.2,0.1-0.3,0.3-0.5,0.5
		c-0.1,0.2-0.2,0.4-0.3,0.7s-0.1,0.6-0.1,0.9v1.2c0,0.3,0,0.6,0.1,0.9s0.1,0.5,0.3,0.7c0.1,0.2,0.3,0.4,0.5,0.5
		C293.1,141.7,293.4,141.8,293.6,141.8z"/>
</g>
<polygon class="st8" points="63.2,84.9 87.5,84.9 87.5,84.9 "/>
<path class="st7" d="M40.2,45.3h-7.3c-1.1,0-2-0.9-2-2V36c0-1.1,0.9-2,2-2h7.3c1.1,0,2,0.9,2,2v7.3C42.2,44.4,41.3,45.3,40.2,45.3z"
	/>
<path class="st1" d="M39.2,37.1l-3.8,3.8L34,39.5c-0.1-0.1-0.2-0.1-0.2,0l-0.4,0.4c-0.1,0.1-0.1,0.2,0,0.2l1.9,1.9
	c0.1,0.1,0.2,0.1,0.2,0l4.3-4.3c0.1-0.1,0.1-0.2,0-0.2l-0.4-0.4C39.4,37,39.3,37,39.2,37.1z"/>
<g class="st2">
	<path class="st3" d="M50.4,166.9v4.5c0,0.3,0,0.6,0.1,0.9c0.1,0.3,0.1,0.5,0.3,0.6s0.3,0.3,0.5,0.4c0.2,0.1,0.5,0.1,0.8,0.1
		c0.6,0,1-0.2,1.3-0.5s0.4-0.8,0.4-1.5v-4.5h1v4.3c0,0.5,0,1-0.1,1.4c-0.1,0.4-0.3,0.7-0.5,1c-0.2,0.3-0.5,0.4-0.8,0.6
		s-0.8,0.2-1.3,0.2c-0.5,0-0.9-0.1-1.2-0.2s-0.6-0.3-0.8-0.6c-0.2-0.3-0.4-0.6-0.4-1c-0.1-0.4-0.1-0.8-0.1-1.4v-4.3H50.4z"/>
	<path class="st3" d="M58.1,174.2c-0.5,0-0.9-0.1-1.3-0.3s-0.6-0.4-0.9-0.8l0.7-0.6c0.2,0.3,0.4,0.5,0.7,0.6
		c0.3,0.1,0.5,0.2,0.9,0.2c0.3,0,0.6-0.1,0.8-0.2c0.2-0.1,0.3-0.3,0.3-0.6c0-0.2-0.1-0.4-0.2-0.5c-0.1-0.1-0.3-0.2-0.7-0.3l-0.5-0.1
		c-0.3,0-0.5-0.1-0.7-0.2c-0.2-0.1-0.4-0.2-0.6-0.3c-0.2-0.1-0.3-0.3-0.4-0.5c-0.1-0.2-0.1-0.4-0.1-0.6c0-0.3,0-0.5,0.1-0.7
		c0.1-0.2,0.2-0.4,0.4-0.5c0.2-0.1,0.4-0.2,0.6-0.3s0.5-0.1,0.8-0.1c0.5,0,0.8,0.1,1.1,0.2s0.6,0.4,0.8,0.6l-0.6,0.6
		c-0.1-0.2-0.3-0.3-0.5-0.5c-0.2-0.1-0.5-0.2-0.8-0.2c-0.3,0-0.6,0.1-0.7,0.2c-0.2,0.1-0.2,0.3-0.2,0.6c0,0.2,0.1,0.4,0.2,0.5
		c0.2,0.1,0.4,0.2,0.7,0.2l0.5,0.1c0.6,0.1,1,0.3,1.3,0.5c0.3,0.3,0.4,0.6,0.4,1c0,0.5-0.2,0.9-0.6,1.2
		C59.2,174.1,58.7,174.2,58.1,174.2z"/>
	<path class="st3" d="M63.6,174.2c-0.4,0-0.7-0.1-1-0.2c-0.3-0.1-0.6-0.3-0.8-0.6c-0.2-0.2-0.4-0.5-0.5-0.9
		c-0.1-0.3-0.2-0.7-0.2-1.2c0-0.4,0.1-0.8,0.2-1.2c0.1-0.3,0.3-0.6,0.5-0.9c0.2-0.2,0.5-0.4,0.8-0.6s0.6-0.2,1-0.2s0.7,0.1,1,0.2
		c0.3,0.1,0.5,0.3,0.7,0.6c0.2,0.2,0.4,0.5,0.5,0.8c0.1,0.3,0.2,0.7,0.2,1v0.4h-3.8v0.2c0,0.5,0.1,0.8,0.4,1.1
		c0.3,0.3,0.6,0.4,1.1,0.4c0.3,0,0.6-0.1,0.9-0.2c0.2-0.2,0.4-0.4,0.6-0.6l0.6,0.5c-0.2,0.4-0.5,0.6-0.8,0.9S64.1,174.2,63.6,174.2z
		 M63.6,169.4c-0.2,0-0.4,0-0.6,0.1c-0.2,0.1-0.3,0.2-0.5,0.3c-0.1,0.1-0.2,0.3-0.3,0.5c-0.1,0.2-0.1,0.4-0.1,0.6v0.1h2.8v-0.1
		c0-0.4-0.1-0.8-0.4-1.1C64.3,169.5,64,169.4,63.6,169.4z"/>
	<path class="st3" d="M71,174.1c-0.3,0-0.6-0.1-0.8-0.3c-0.2-0.2-0.3-0.4-0.3-0.7v-3.5h-0.9v-0.8h0.5c0.2,0,0.3,0,0.4-0.1
		s0.1-0.2,0.1-0.4v-1H71v1.5h1.2v0.8H71v3.7h1.1v0.8H71z"/>
	<path class="st3" d="M73.4,174.1v-5.4h1v1h0.1c0-0.1,0.1-0.3,0.2-0.4c0.1-0.1,0.2-0.2,0.3-0.3c0.1-0.1,0.3-0.2,0.4-0.2
		c0.2-0.1,0.4-0.1,0.6-0.1h0.3v1h-0.5c-0.5,0-0.8,0.1-1,0.2c-0.2,0.2-0.4,0.4-0.4,0.6v3.5H73.4z"/>
	<path class="st3" d="M81.2,174.1c-0.3,0-0.5-0.1-0.7-0.2c-0.1-0.2-0.2-0.4-0.3-0.6h-0.1c-0.1,0.3-0.3,0.6-0.6,0.8
		c-0.3,0.2-0.6,0.3-1,0.3c-0.6,0-1-0.1-1.3-0.4c-0.3-0.3-0.5-0.7-0.5-1.2c0-0.5,0.2-0.9,0.6-1.2c0.4-0.3,1-0.4,1.7-0.4h1v-0.5
		c0-0.4-0.1-0.6-0.3-0.8c-0.2-0.2-0.5-0.3-0.9-0.3c-0.3,0-0.6,0.1-0.8,0.2c-0.2,0.1-0.4,0.3-0.5,0.6l-0.6-0.5
		c0.2-0.3,0.4-0.5,0.7-0.7c0.3-0.2,0.7-0.3,1.2-0.3c0.7,0,1.2,0.2,1.6,0.5c0.4,0.3,0.6,0.8,0.6,1.4v2.8h0.6v0.8H81.2z M78.9,173.5
		c0.4,0,0.7-0.1,0.9-0.3c0.2-0.2,0.4-0.4,0.4-0.7v-0.8h-1c-0.4,0-0.8,0.1-1,0.2s-0.3,0.3-0.3,0.6v0.2c0,0.2,0.1,0.4,0.3,0.6
		C78.3,173.4,78.5,173.5,78.9,173.5z"/>
	<path class="st3" d="M83.4,167.6c-0.2,0-0.3,0-0.4-0.1c-0.1-0.1-0.1-0.2-0.1-0.4v-0.1c0-0.2,0-0.3,0.1-0.4c0.1-0.1,0.2-0.1,0.4-0.1
		s0.3,0,0.4,0.1c0.1,0.1,0.1,0.2,0.1,0.4v0.1c0,0.2,0,0.3-0.1,0.4C83.7,167.6,83.6,167.6,83.4,167.6z M82.9,168.7h1v5.4h-1V168.7z"
		/>
	<path class="st3" d="M86.6,174.1c-0.3,0-0.6-0.1-0.8-0.3s-0.3-0.4-0.3-0.7v-6.7h1v6.9h0.8v0.8H86.6z"/>
	<path class="st3" d="M89,167.6c-0.2,0-0.3,0-0.4-0.1c-0.1-0.1-0.1-0.2-0.1-0.4v-0.1c0-0.2,0-0.3,0.1-0.4c0.1-0.1,0.2-0.1,0.4-0.1
		s0.3,0,0.4,0.1c0.1,0.1,0.1,0.2,0.1,0.4v0.1c0,0.2,0,0.3-0.1,0.4C89.3,167.6,89.2,167.6,89,167.6z M88.5,168.7h1v5.4h-1V168.7z"/>
	<path class="st3" d="M91.1,174.1v-5.4h1v0.9h0.1c0.1-0.3,0.3-0.5,0.5-0.7s0.6-0.3,1-0.3c0.6,0,1,0.2,1.3,0.5
		c0.3,0.4,0.5,0.9,0.5,1.5v3.4h-1v-3.3c0-0.9-0.4-1.4-1.1-1.4c-0.2,0-0.3,0-0.5,0.1c-0.1,0-0.3,0.1-0.4,0.2
		c-0.1,0.1-0.2,0.2-0.3,0.3c-0.1,0.1-0.1,0.3-0.1,0.4v3.7H91.1z"/>
	<path class="st3" d="M101.7,174.7c0,0.6-0.2,1-0.6,1.3c-0.4,0.3-1.1,0.4-2,0.4c-0.9,0-1.5-0.1-1.8-0.3c-0.4-0.2-0.6-0.6-0.6-1
		c0-0.3,0.1-0.5,0.2-0.7c0.2-0.2,0.4-0.3,0.7-0.4v-0.1c-0.4-0.1-0.5-0.4-0.5-0.8c0-0.3,0.1-0.5,0.3-0.6s0.4-0.3,0.7-0.3v0
		c-0.3-0.2-0.6-0.4-0.7-0.6c-0.2-0.3-0.3-0.6-0.3-1c0-0.3,0-0.5,0.1-0.7c0.1-0.2,0.2-0.4,0.4-0.6c0.2-0.2,0.4-0.3,0.7-0.4
		c0.3-0.1,0.5-0.1,0.9-0.1c0.2,0,0.4,0,0.5,0.1c0.2,0,0.3,0.1,0.5,0.1v-0.1c0-0.2,0.1-0.4,0.2-0.5c0.1-0.1,0.3-0.2,0.5-0.2h0.8v0.8
		h-1.1v0.3c0.5,0.3,0.7,0.8,0.7,1.4c0,0.3,0,0.5-0.1,0.7s-0.2,0.4-0.4,0.6s-0.4,0.3-0.7,0.4c-0.3,0.1-0.5,0.1-0.9,0.1
		c-0.1,0-0.2,0-0.3,0c-0.1,0-0.2,0-0.3,0c-0.2,0-0.3,0.1-0.4,0.2c-0.1,0.1-0.2,0.2-0.2,0.4c0,0.2,0.1,0.3,0.2,0.3
		c0.1,0.1,0.3,0.1,0.6,0.1h1.2c0.7,0,1.1,0.1,1.5,0.4C101.6,173.9,101.7,174.2,101.7,174.7z M100.8,174.8c0-0.2-0.1-0.4-0.2-0.5
		c-0.2-0.1-0.4-0.2-0.8-0.2h-1.8c-0.3,0.2-0.4,0.4-0.4,0.7c0,0.2,0.1,0.4,0.3,0.6c0.2,0.2,0.5,0.2,0.9,0.2h0.7
		c0.5,0,0.8-0.1,1.1-0.2C100.7,175.2,100.8,175,100.8,174.8z M99,171.6c0.3,0,0.6-0.1,0.8-0.2c0.2-0.2,0.3-0.4,0.3-0.7v-0.3
		c0-0.3-0.1-0.6-0.3-0.7c-0.2-0.2-0.5-0.2-0.8-0.2c-0.3,0-0.6,0.1-0.8,0.2c-0.2,0.2-0.3,0.4-0.3,0.7v0.3c0,0.3,0.1,0.6,0.3,0.7
		C98.4,171.5,98.7,171.6,99,171.6z"/>
	<path class="st3" d="M106.7,174.2c-0.5,0-0.9-0.1-1.3-0.3s-0.6-0.4-0.9-0.8l0.7-0.6c0.2,0.3,0.4,0.5,0.7,0.6
		c0.3,0.1,0.5,0.2,0.9,0.2c0.3,0,0.6-0.1,0.8-0.2c0.2-0.1,0.3-0.3,0.3-0.6c0-0.2-0.1-0.4-0.2-0.5c-0.1-0.1-0.3-0.2-0.7-0.3l-0.5-0.1
		c-0.3,0-0.5-0.1-0.7-0.2c-0.2-0.1-0.4-0.2-0.6-0.3c-0.2-0.1-0.3-0.3-0.4-0.5c-0.1-0.2-0.1-0.4-0.1-0.6c0-0.3,0-0.5,0.1-0.7
		c0.1-0.2,0.2-0.4,0.4-0.5c0.2-0.1,0.4-0.2,0.6-0.3s0.5-0.1,0.8-0.1c0.5,0,0.8,0.1,1.1,0.2s0.6,0.4,0.8,0.6l-0.6,0.6
		c-0.1-0.2-0.3-0.3-0.5-0.5c-0.2-0.1-0.5-0.2-0.8-0.2c-0.3,0-0.6,0.1-0.7,0.2c-0.2,0.1-0.2,0.3-0.2,0.6c0,0.2,0.1,0.4,0.2,0.5
		c0.2,0.1,0.4,0.2,0.7,0.2l0.5,0.1c0.6,0.1,1,0.3,1.3,0.5c0.3,0.3,0.4,0.6,0.4,1c0,0.5-0.2,0.9-0.6,1.2
		C107.9,174.1,107.4,174.2,106.7,174.2z"/>
	<path class="st3" d="M111.4,174.1c-0.3,0-0.6-0.1-0.8-0.3c-0.2-0.2-0.3-0.4-0.3-0.7v-3.5h-0.9v-0.8h0.5c0.2,0,0.3,0,0.4-0.1
		s0.1-0.2,0.1-0.4v-1h0.9v1.5h1.2v0.8h-1.2v3.7h1.1v0.8H111.4z"/>
	<path class="st3" d="M115.9,174.2c-0.4,0-0.7-0.1-1-0.2c-0.3-0.1-0.6-0.3-0.8-0.6c-0.2-0.2-0.4-0.5-0.5-0.9
		c-0.1-0.3-0.2-0.7-0.2-1.2s0.1-0.8,0.2-1.2c0.1-0.3,0.3-0.6,0.5-0.9c0.2-0.2,0.5-0.4,0.8-0.6s0.6-0.2,1-0.2c0.4,0,0.7,0.1,1,0.2
		c0.3,0.1,0.6,0.3,0.8,0.6c0.2,0.2,0.4,0.5,0.5,0.9c0.1,0.3,0.2,0.7,0.2,1.2s-0.1,0.8-0.2,1.2c-0.1,0.3-0.3,0.6-0.5,0.9
		c-0.2,0.2-0.5,0.4-0.8,0.6C116.6,174.2,116.2,174.2,115.9,174.2z M115.9,173.4c0.4,0,0.8-0.1,1-0.4c0.3-0.3,0.4-0.7,0.4-1.2V171
		c0-0.5-0.1-0.9-0.4-1.2c-0.3-0.3-0.6-0.4-1-0.4c-0.4,0-0.8,0.1-1,0.4s-0.4,0.7-0.4,1.2v0.8c0,0.5,0.1,0.9,0.4,1.2
		S115.4,173.4,115.9,173.4z"/>
	<path class="st3" d="M119.6,168.7h1v0.9h0c0.1-0.3,0.3-0.6,0.6-0.7s0.6-0.3,1-0.3c0.3,0,0.6,0.1,0.9,0.2c0.3,0.1,0.5,0.3,0.7,0.6
		c0.2,0.2,0.3,0.5,0.4,0.9c0.1,0.3,0.1,0.7,0.1,1.2s0,0.8-0.1,1.2s-0.2,0.6-0.4,0.9c-0.2,0.2-0.4,0.4-0.7,0.6
		c-0.3,0.1-0.6,0.2-0.9,0.2c-0.4,0-0.7-0.1-1-0.3c-0.3-0.2-0.5-0.4-0.6-0.7h0v3h-1V168.7z M121.9,173.4c0.4,0,0.8-0.1,1-0.4
		c0.3-0.3,0.4-0.6,0.4-1.1V171c0-0.5-0.1-0.8-0.4-1.1c-0.3-0.3-0.6-0.4-1-0.4c-0.2,0-0.4,0-0.5,0.1c-0.2,0-0.3,0.1-0.4,0.2
		c-0.1,0.1-0.2,0.2-0.3,0.3c-0.1,0.1-0.1,0.3-0.1,0.4v2c0,0.1,0,0.3,0.1,0.4c0.1,0.1,0.2,0.2,0.3,0.3c0.1,0.1,0.3,0.2,0.4,0.2
		C121.6,173.4,121.7,173.4,121.9,173.4z"/>
	<path class="st3" d="M129.2,174.1c-0.3,0-0.6-0.1-0.8-0.3s-0.3-0.4-0.3-0.7v-6.7h1v6.9h0.8v0.8H129.2z"/>
	<path class="st3" d="M133.1,174.2c-0.4,0-0.7-0.1-1-0.2c-0.3-0.1-0.6-0.3-0.8-0.6c-0.2-0.2-0.4-0.5-0.5-0.9
		c-0.1-0.3-0.2-0.7-0.2-1.2s0.1-0.8,0.2-1.2c0.1-0.3,0.3-0.6,0.5-0.9c0.2-0.2,0.5-0.4,0.8-0.6s0.6-0.2,1-0.2c0.4,0,0.7,0.1,1,0.2
		c0.3,0.1,0.6,0.3,0.8,0.6c0.2,0.2,0.4,0.5,0.5,0.9c0.1,0.3,0.2,0.7,0.2,1.2s-0.1,0.8-0.2,1.2c-0.1,0.3-0.3,0.6-0.5,0.9
		c-0.2,0.2-0.5,0.4-0.8,0.6C133.8,174.2,133.5,174.2,133.1,174.2z M133.1,173.4c0.4,0,0.8-0.1,1-0.4c0.3-0.3,0.4-0.7,0.4-1.2V171
		c0-0.5-0.1-0.9-0.4-1.2c-0.3-0.3-0.6-0.4-1-0.4c-0.4,0-0.8,0.1-1,0.4s-0.4,0.7-0.4,1.2v0.8c0,0.5,0.1,0.9,0.4,1.2
		S132.7,173.4,133.1,173.4z"/>
	<path class="st3" d="M138.6,174.2c-0.5,0-0.9-0.1-1.3-0.3s-0.6-0.4-0.9-0.8l0.7-0.6c0.2,0.3,0.4,0.5,0.7,0.6
		c0.3,0.1,0.5,0.2,0.9,0.2c0.3,0,0.6-0.1,0.8-0.2c0.2-0.1,0.3-0.3,0.3-0.6c0-0.2-0.1-0.4-0.2-0.5c-0.1-0.1-0.3-0.2-0.7-0.3l-0.5-0.1
		c-0.3,0-0.5-0.1-0.7-0.2c-0.2-0.1-0.4-0.2-0.6-0.3c-0.2-0.1-0.3-0.3-0.4-0.5c-0.1-0.2-0.1-0.4-0.1-0.6c0-0.3,0-0.5,0.1-0.7
		c0.1-0.2,0.2-0.4,0.4-0.5c0.2-0.1,0.4-0.2,0.6-0.3s0.5-0.1,0.8-0.1c0.5,0,0.8,0.1,1.1,0.2s0.6,0.4,0.8,0.6l-0.6,0.6
		c-0.1-0.2-0.3-0.3-0.5-0.5c-0.2-0.1-0.5-0.2-0.8-0.2c-0.3,0-0.6,0.1-0.7,0.2c-0.2,0.1-0.2,0.3-0.2,0.6c0,0.2,0.1,0.4,0.2,0.5
		c0.2,0.1,0.4,0.2,0.7,0.2l0.5,0.1c0.6,0.1,1,0.3,1.3,0.5c0.3,0.3,0.4,0.6,0.4,1c0,0.5-0.2,0.9-0.6,1.2
		C139.7,174.1,139.2,174.2,138.6,174.2z"/>
	<path class="st3" d="M143.6,174.2c-0.5,0-0.9-0.1-1.3-0.3s-0.6-0.4-0.9-0.8l0.7-0.6c0.2,0.3,0.4,0.5,0.7,0.6
		c0.3,0.1,0.5,0.2,0.9,0.2c0.3,0,0.6-0.1,0.8-0.2c0.2-0.1,0.3-0.3,0.3-0.6c0-0.2-0.1-0.4-0.2-0.5c-0.1-0.1-0.3-0.2-0.7-0.3l-0.5-0.1
		c-0.3,0-0.5-0.1-0.7-0.2c-0.2-0.1-0.4-0.2-0.6-0.3c-0.2-0.1-0.3-0.3-0.4-0.5c-0.1-0.2-0.1-0.4-0.1-0.6c0-0.3,0-0.5,0.1-0.7
		c0.1-0.2,0.2-0.4,0.4-0.5c0.2-0.1,0.4-0.2,0.6-0.3s0.5-0.1,0.8-0.1c0.5,0,0.8,0.1,1.1,0.2s0.6,0.4,0.8,0.6l-0.6,0.6
		c-0.1-0.2-0.3-0.3-0.5-0.5c-0.2-0.1-0.5-0.2-0.8-0.2c-0.3,0-0.6,0.1-0.7,0.2c-0.2,0.1-0.2,0.3-0.2,0.6c0,0.2,0.1,0.4,0.2,0.5
		c0.2,0.1,0.4,0.2,0.7,0.2l0.5,0.1c0.6,0.1,1,0.3,1.3,0.5c0.3,0.3,0.4,0.6,0.4,1c0,0.5-0.2,0.9-0.6,1.2
		C144.7,174.1,144.2,174.2,143.6,174.2z"/>
</g>
<path class="st7" d="M41.2,176.3h-7.3c-1.1,0-2-0.9-2-2V167c0-1.1,0.9-2,2-2h7.3c1.1,0,2,0.9,2,2v7.3
	C43.2,175.4,42.3,176.3,41.2,176.3z"/>
<path class="st1" d="M40.2,168.1l-3.8,3.8l-1.4-1.4c-0.1-0.1-0.2-0.1-0.2,0l-0.4,0.4c-0.1,0.1-0.1,0.2,0,0.2l1.9,1.9
	c0.1,0.1,0.2,0.1,0.2,0l4.3-4.3c0.1-0.1,0.1-0.2,0-0.2l-0.4-0.4C40.4,168,40.3,168,40.2,168.1z"/>
<linearGradient id="SVGID_1_" gradientUnits="userSpaceOnUse" x1="-126.5" y1="422.5" x2="-33.5" y2="422.5" gradientTransform="matrix(-6.123234e-17 -1 1 -6.123234e-17 -226.5 -33.5)">
	<stop  offset="0" style="stop-color:#EFF2F5;stop-opacity:0"/>
	<stop  offset="0.5502" style="stop-color:#EFF3F5;stop-opacity:0.7"/>
	<stop  offset="1" style="stop-color:#EFF3F5"/>
</linearGradient>
<polygon class="st9" points="392,93 0,93 0,0 392,0 "/>
</svg>
