<?xml version="1.0" encoding="utf-8"?>
<!-- Generator: Adobe Illustrator 22.0.0, SVG Export Plug-In . SVG Version: 6.00 Build 0)  -->
<svg version="1.1" id="Layer_1" xmlns="http://www.w3.org/2000/svg" xmlns:xlink="http://www.w3.org/1999/xlink" x="0px" y="0px"
	 viewBox="0 0 308 81.9" style="enable-background:new 0 0 308 81.9;" xml:space="preserve">
<style type="text/css">
	.st0{fill:none;stroke:#FFFFFF;stroke-width:5;stroke-miterlimit:10;}
	.st1{enable-background:new    ;}
	.st2{fill:#FFFFFF;}
</style>
<title>logo-white</title>
<path class="st0" d="M2,57.7l0.1-36.2L34.4,2.3l31.7,17.9l0.2,35.6L33.8,75L2,57.7z M66.1,20.2L34,38.8L33.9,75 M66.2,55.8L2.1,21.4
	"/>
<g class="st1">
	<path class="st2" d="M86.4,24.2l5.9-1v7.7h9.1v4.9h-9.1v10.4c0,2,0.3,3.5,1,4.4s1.8,1.3,3.3,1.3c1.1,0,2-0.1,2.8-0.3
		c0.8-0.2,1.5-0.4,2-0.6l1,4.7c-0.7,0.3-1.6,0.6-2.7,0.9c-1.1,0.3-2.4,0.5-3.9,0.5c-1.8,0-3.3-0.2-4.5-0.7c-1.2-0.5-2.2-1.2-2.9-2.1
		c-0.7-0.9-1.2-2-1.5-3.4c-0.3-1.3-0.4-2.8-0.4-4.5V24.2z"/>
	<path class="st2" d="M121.5,36.3c-0.5-0.2-1.2-0.3-2-0.5c-0.9-0.2-1.9-0.3-3-0.3c-0.6,0-1.3,0.1-2.1,0.2c-0.7,0.1-1.2,0.2-1.5,0.3
		v20.4H107V32.2c1.1-0.4,2.6-0.8,4.3-1.2c1.7-0.4,3.6-0.6,5.7-0.6c0.4,0,0.8,0,1.4,0.1c0.5,0,1,0.1,1.6,0.2c0.5,0.1,1,0.2,1.5,0.3
		c0.5,0.1,0.9,0.2,1.2,0.3L121.5,36.3z"/>
	<path class="st2" d="M135.1,30.3c1.9,0,3.6,0.2,4.9,0.7c1.3,0.5,2.4,1.2,3.2,2c0.8,0.9,1.4,1.9,1.7,3.2c0.3,1.2,0.5,2.6,0.5,4.1
		v15.4c-0.9,0.2-2.3,0.4-4.1,0.7c-1.8,0.3-3.9,0.4-6.2,0.4c-1.5,0-2.9-0.1-4.2-0.4c-1.3-0.3-2.3-0.8-3.2-1.4
		c-0.9-0.6-1.6-1.5-2.1-2.5c-0.5-1-0.8-2.3-0.8-3.8c0-1.5,0.3-2.7,0.9-3.7c0.6-1,1.3-1.8,2.3-2.5c1-0.6,2.1-1.1,3.4-1.4
		c1.3-0.3,2.6-0.4,4-0.4c0.6,0,1.3,0,2,0.1c0.7,0.1,1.5,0.2,2.3,0.4v-1c0-0.7-0.1-1.3-0.2-1.9c-0.2-0.6-0.4-1.2-0.9-1.6
		c-0.4-0.5-0.9-0.8-1.6-1.1c-0.7-0.3-1.5-0.4-2.5-0.4c-1.4,0-2.6,0.1-3.7,0.3c-1.1,0.2-2.1,0.4-2.8,0.7l-0.7-4.8
		c0.7-0.3,1.8-0.5,3.3-0.8C131.9,30.4,133.4,30.3,135.1,30.3z M135.6,52.3c1.8,0,3.2-0.1,4.1-0.3v-6.5c-0.3-0.1-0.8-0.2-1.4-0.3
		c-0.6-0.1-1.3-0.1-2-0.1c-0.6,0-1.3,0-2,0.1c-0.7,0.1-1.3,0.3-1.8,0.5c-0.5,0.3-1,0.6-1.3,1.1c-0.3,0.5-0.5,1.1-0.5,1.8
		c0,1.4,0.4,2.4,1.3,2.9C132.9,52,134.1,52.3,135.6,52.3z"/>
	<path class="st2" d="M159.2,23.5c0,1.1-0.4,2-1.1,2.6c-0.7,0.6-1.6,1-2.5,1c-1,0-1.9-0.3-2.6-1c-0.7-0.6-1.1-1.5-1.1-2.6
		c0-1.1,0.4-2,1.1-2.7c0.7-0.6,1.6-1,2.6-1c1,0,1.8,0.3,2.5,1C158.8,21.5,159.2,22.4,159.2,23.5z M158.5,56.4h-5.9V30.9h5.9V56.4z"
		/>
	<path class="st2" d="M174.9,56.9c-1.8,0-3.2-0.2-4.4-0.6c-1.2-0.4-2.1-0.9-2.8-1.5c-0.7-0.7-1.2-1.5-1.4-2.5
		c-0.3-1-0.4-2.1-0.4-3.4V19.6l5.9-1v29.1c0,0.7,0.1,1.3,0.2,1.8c0.1,0.5,0.3,0.9,0.6,1.2c0.3,0.3,0.7,0.6,1.2,0.8
		c0.5,0.2,1.1,0.3,1.9,0.4L174.9,56.9z"/>
	<path class="st2" d="M203.4,43.7c0,2-0.3,3.9-0.9,5.5c-0.6,1.6-1.5,3-2.6,4.2c-1.1,1.2-2.5,2.1-4.1,2.7s-3.4,0.9-5.4,0.9
		c-1.9,0-3.8-0.1-5.6-0.4c-1.8-0.3-3.2-0.6-4.4-1v-36l5.9-1v13.2c0.7-0.4,1.5-0.7,2.5-1c1-0.3,2.1-0.4,3.3-0.4
		c1.8,0,3.4,0.3,4.8,0.9s2.6,1.5,3.5,2.7c0.9,1.2,1.7,2.6,2.2,4.2C203.1,39.9,203.4,41.7,203.4,43.7z M197.4,43.6
		c0-2.5-0.5-4.5-1.5-5.9s-2.6-2.2-4.7-2.2c-1,0-1.9,0.1-2.7,0.4c-0.9,0.3-1.5,0.6-2.1,1v14.6c0.4,0.1,1,0.2,1.6,0.3
		c0.7,0.1,1.5,0.1,2.4,0.1c2.2,0,3.9-0.7,5.1-2.2C196.7,48.2,197.4,46.2,197.4,43.6z"/>
	<path class="st2" d="M218.3,56.9c-1.8,0-3.2-0.2-4.4-0.6s-2.1-0.9-2.7-1.5s-1.2-1.5-1.4-2.5c-0.3-1-0.4-2.1-0.4-3.4V19.6l5.9-1
		v29.1c0,0.7,0.1,1.3,0.2,1.8c0.1,0.5,0.3,0.9,0.6,1.2c0.3,0.3,0.7,0.6,1.2,0.8c0.5,0.2,1.1,0.3,1.9,0.4L218.3,56.9z"/>
	<path class="st2" d="M246.9,43.6c0,2-0.3,3.8-0.9,5.5c-0.6,1.7-1.4,3.1-2.5,4.2s-2.4,2.1-3.9,2.7c-1.5,0.6-3.2,1-5,1
		c-1.8,0-3.5-0.3-5-1c-1.5-0.6-2.8-1.6-3.8-2.7s-1.9-2.6-2.5-4.2c-0.6-1.7-0.9-3.5-0.9-5.5c0-2,0.3-3.8,0.9-5.5
		c0.6-1.6,1.4-3,2.5-4.2s2.4-2.1,3.9-2.7c1.5-0.6,3.1-0.9,4.9-0.9s3.4,0.3,4.9,0.9c1.5,0.6,2.8,1.5,3.9,2.7s1.9,2.6,2.5,4.2
		C246.6,39.8,246.9,41.6,246.9,43.6z M240.9,43.6c0-2.5-0.5-4.5-1.6-6c-1.1-1.5-2.6-2.2-4.5-2.2s-3.5,0.7-4.5,2.2
		c-1.1,1.5-1.6,3.5-1.6,6c0,2.6,0.5,4.6,1.6,6.1c1.1,1.5,2.6,2.2,4.5,2.2s3.5-0.7,4.5-2.2C240.4,48.2,240.9,46.2,240.9,43.6z"/>
	<path class="st2" d="M251.6,43.7c0-1.9,0.3-3.6,0.9-5.3c0.6-1.6,1.4-3.1,2.5-4.3c1.1-1.2,2.4-2.1,4-2.8c1.6-0.7,3.3-1,5.3-1
		c2.4,0,4.7,0.4,6.8,1.3l-1.3,4.8c-0.7-0.3-1.5-0.5-2.3-0.7c-0.9-0.2-1.8-0.3-2.7-0.3c-2.3,0-4.1,0.7-5.3,2.2
		c-1.2,1.4-1.8,3.5-1.8,6.1c0,2.5,0.6,4.5,1.7,6s3,2.2,5.7,2.2c1,0,2-0.1,3-0.3c1-0.2,1.8-0.4,2.5-0.7l0.8,4.9
		c-0.6,0.3-1.6,0.6-2.9,0.9c-1.3,0.3-2.7,0.4-4.1,0.4c-2.2,0-4.1-0.3-5.7-1c-1.6-0.7-2.9-1.6-4-2.8c-1.1-1.2-1.8-2.6-2.4-4.2
		C251.9,47.4,251.6,45.6,251.6,43.7z"/>
	<path class="st2" d="M281.9,40.9c0.7-0.8,1.5-1.6,2.4-2.5c0.8-0.9,1.7-1.8,2.5-2.7c0.8-0.9,1.6-1.8,2.3-2.6
		c0.7-0.8,1.4-1.5,1.9-2.2h7c-1.6,1.8-3.3,3.7-5.1,5.6c-1.8,1.9-3.6,3.8-5.4,5.7c1,0.8,2,1.8,3.1,2.9c1.1,1.2,2.1,2.4,3.1,3.7
		c1,1.3,1.9,2.6,2.8,3.9c0.9,1.3,1.6,2.5,2.2,3.6h-6.8c-0.6-1-1.3-2.1-2-3.2c-0.8-1.1-1.6-2.2-2.5-3.2c-0.9-1-1.8-2-2.7-2.9
		s-1.8-1.7-2.7-2.4v11.7H276V19.6l5.9-1V40.9z"/>
</g>
</svg>
